<svg xmlns="http://www.w3.org/2000/svg" xmlns:xlink="http://www.w3.org/1999/xlink" width="262" height="356" viewBox="0 0 262 356">
  <defs>
    <clipPath id="clip-path">
      <rect id="Rectangle_47010" data-name="Rectangle 47010" width="262" height="356" transform="translate(1042 325)" fill="#fff" stroke="#707070" stroke-width="1"/>
    </clipPath>
  </defs>
  <g id="application-tab-bg" transform="translate(-1042 -325)" clip-path="url(#clip-path)">
    <g id="Group_49481" data-name="Group 49481" transform="translate(774.473 31.272)">
      <g id="Group_49432" data-name="Group 49432" transform="translate(360.798 591.253)">
        <path id="Path_96910" data-name="Path 96910" d="M911.151,616.643a1.139,1.139,0,0,1-.164-.012,1.122,1.122,0,0,1-.86-.651l-5.286-11.765a1.121,1.121,0,0,1,1.163-1.572l13.982,1.762a1.121,1.121,0,0,1,.706,1.849l-8.7,10A1.122,1.122,0,0,1,911.151,616.643Zm-3.445-11.524,3.749,8.344,6.166-7.094Z" transform="translate(-904.743 -602.636)" fill="#e2eaf0"/>
      </g>
      <g id="Group_49433" data-name="Group 49433" transform="translate(415.276 596.728)">
        <path id="Path_96911" data-name="Path 96911" d="M571.179,421.261a1.122,1.122,0,0,1-.865-1.834l5.33-6.479a1.12,1.12,0,0,1,1.532-.19l6.325,4.664,4.668-14.908a1.121,1.121,0,0,1,2.043-.223l8.779,15.3a1.121,1.121,0,1,1-1.945,1.117l-7.5-13.074-4.371,13.962a1.122,1.122,0,0,1-1.736.567l-6.734-4.966-4.654,5.658A1.117,1.117,0,0,1,571.179,421.261Z" transform="translate(-570.058 -401.728)" fill="#e2eaf0"/>
      </g>
      <g id="Group_49463" data-name="Group 49463" transform="translate(303.918 458.66)">
        <g id="Group_49459" data-name="Group 49459" transform="translate(2.912 15.165)">
          <path id="Path_96924" data-name="Path 96924" d="M846.363,824.921a1.118,1.118,0,0,1-1.023-.662l-26.042-58a1.121,1.121,0,0,1,2.046-.919l25.583,56.975,8.357-3.753L829.445,761.02a1.121,1.121,0,1,1,2.046-.918l26.3,58.567a1.12,1.12,0,0,1-.563,1.482l-10.4,4.671A1.118,1.118,0,0,1,846.363,824.921Z" transform="translate(-819.199 -759.438)" fill="#e2eaf0"/>
        </g>
        <g id="Group_49460" data-name="Group 49460" transform="translate(28.955 73.733)">
          <path id="Path_96925" data-name="Path 96925" d="M886.872,915.948a1.121,1.121,0,0,1-1.024-.662l-3.5-7.8a1.12,1.12,0,0,1,.564-1.482l10.4-4.671a1.122,1.122,0,0,1,1.482.564l3.5,7.8a1.12,1.12,0,0,1-.564,1.482l-10.4,4.671A1.113,1.113,0,0,1,886.872,915.948Zm-2.021-8.36,2.584,5.756,8.357-3.752-2.585-5.757Z" transform="translate(-882.247 -901.232)" fill="#e2eaf0"/>
        </g>
        <g id="Group_49461" data-name="Group 49461" transform="translate(2.4 5.346)">
          <path id="Path_96926" data-name="Path 96926" d="M819.337,752.4a1.122,1.122,0,0,1-1.121-1.1l-.257-14.491a1.122,1.122,0,0,1,1.882-.845l10.659,9.82a1.121,1.121,0,0,1-.3,1.848l-10.4,4.67A1.125,1.125,0,0,1,819.337,752.4Zm.91-13.011.18,10.17,7.3-3.278Z" transform="translate(-817.959 -735.668)" fill="#e2eaf0"/>
        </g>
        <g id="Group_49462" data-name="Group 49462">
          <path id="Path_96927" data-name="Path 96927" d="M816.839,732.915a1.121,1.121,0,0,1-1.024-.662l-3.568-7.945a1.121,1.121,0,0,1,2.046-.919l3.568,7.945a1.122,1.122,0,0,1-1.022,1.581Z" transform="translate(-812.148 -722.725)" fill="#e2eaf0"/>
        </g>
      </g>
      <g id="Group_49471" data-name="Group 49471" transform="translate(469.23 591.253)">
        <g id="Group_49464" data-name="Group 49464" transform="translate(0 3.466)">
          <path id="Path_96928" data-name="Path 96928" d="M865.74,477.494H821.69V437.523h44.05Zm-41.807-2.243H863.5V439.766H823.933Z" transform="translate(-821.69 -437.523)" fill="#e2eaf0"/>
        </g>
        <g id="Group_49465" data-name="Group 49465" transform="translate(1.632 13.663)">
          <rect id="Rectangle_47004" data-name="Rectangle 47004" width="41.58" height="2.243" fill="#e2eaf0"/>
        </g>
        <g id="Group_49466" data-name="Group 49466" transform="translate(8.158 0)">
          <rect id="Rectangle_47005" data-name="Rectangle 47005" width="2.243" height="8.158" fill="#e2eaf0"/>
        </g>
        <g id="Group_49467" data-name="Group 49467" transform="translate(33.649 0)">
          <rect id="Rectangle_47006" data-name="Rectangle 47006" width="2.243" height="8.158" fill="#e2eaf0"/>
        </g>
        <g id="Group_49468" data-name="Group 49468" transform="translate(13.256 15.295)">
          <rect id="Rectangle_47007" data-name="Rectangle 47007" width="2.243" height="27.531" fill="#e2eaf0"/>
        </g>
        <g id="Group_49469" data-name="Group 49469" transform="translate(28.551 15.295)">
          <rect id="Rectangle_47008" data-name="Rectangle 47008" width="2.243" height="27.531" fill="#e2eaf0"/>
        </g>
        <g id="Group_49470" data-name="Group 49470" transform="translate(2.651 26.919)">
          <rect id="Rectangle_47009" data-name="Rectangle 47009" width="39.767" height="2.243" fill="#e2eaf0"/>
        </g>
      </g>
      <g id="Group_49480" data-name="Group 49480" transform="translate(-1094.716 -107.396)">
        <g id="Group_49472" data-name="Group 49472" transform="translate(1348.344 485.303)">
          <path id="Path_96929" data-name="Path 96929" d="M1411.543,705.761l-6.2-13.8,16.4,2.067Zm-2.772-11.263,3.339,7.431,5.492-6.318Z" transform="translate(-1290.344 -711.963)" fill="#e2eaf0"/>
        </g>
        <g id="Group_49473" data-name="Group 49473" transform="translate(1583.085 442.871)">
          <path id="Path_96930" data-name="Path 96930" d="M1886.9,453.262l-1.89-.886,3.635-7.749,7.446,3.023.883-16.414,12.75,13.13-1.5,1.454-9.425-9.705-.783,14.571-8.324-3.38Z" transform="translate(-1885.01 -431.236)" fill="#e2eaf0"/>
        </g>
        <g id="Group_49474" data-name="Group 49474" transform="translate(1603.798 479.101)">
          <path id="Path_96931" data-name="Path 96931" d="M1937.923,691.719a5.889,5.889,0,1,1,5.89-5.889A5.9,5.9,0,0,1,1937.923,691.719Zm0-9.691a3.8,3.8,0,1,0,3.8,3.8A3.806,3.806,0,0,0,1937.923,682.027Z" transform="translate(-1932.033 -679.94)" fill="#e2eaf0"/>
        </g>
        <g id="Group_49475" data-name="Group 49475" transform="translate(1508.566 446.408)">
          <path id="Path_96932" data-name="Path 96932" d="M1493.518,400.186a5.889,5.889,0,1,1,5.889-5.889A5.9,5.9,0,0,1,1493.518,400.186Zm0-9.691a3.8,3.8,0,1,0,3.8,3.8A3.806,3.806,0,0,0,1493.518,390.5Z" transform="translate(-1487.629 -388.408)" fill="#e2eaf0"/>
        </g>
        <g id="Group_49479" data-name="Group 49479" transform="translate(1541.032 413.159)">
          <g id="Group_49476" data-name="Group 49476" transform="translate(15.045 22.602)">
            <path id="Path_96933" data-name="Path 96933" d="M1801.035,463.041a3.555,3.555,0,1,1,3.555-3.555A3.559,3.559,0,0,1,1801.035,463.041Zm0-5.022a1.468,1.468,0,1,0,1.468,1.468A1.469,1.469,0,0,0,1801.035,458.018Z" transform="translate(-1797.48 -455.931)" fill="#e2eaf0"/>
          </g>
          <g id="Group_49477" data-name="Group 49477" transform="translate(8.863 12.556)">
            <path id="Path_96934" data-name="Path 96934" d="M1782.889,435.362,1781.4,433.9a13.6,13.6,0,0,1,19.2-.271l-1.451,1.5a11.512,11.512,0,0,0-16.259.23Z" transform="translate(-1781.397 -429.797)" fill="#e2eaf0"/>
          </g>
          <g id="Group_49478" data-name="Group 49478" transform="translate(0 0)">
            <path id="Path_96935" data-name="Path 96935" d="M1759.827,406.389l-1.488-1.463a26.118,26.118,0,0,1,36.964-.261l-1.468,1.484a24.031,24.031,0,0,0-34.009.24Z" transform="translate(-1758.339 -397.131)" fill="#e2eaf0"/>
          </g>
        </g>
      </g>
      <g id="Group_49606" data-name="Group 49606" transform="translate(364.703 379.084)">
        <path id="Path_97073" data-name="Path 97073" d="M762.556,82.09H654.48a3.516,3.516,0,0,0-3.516,3.516v72.454a3.516,3.516,0,0,0,3.516,3.516h41.773l9.685,12.912,9.686-12.912h46.931a3.517,3.517,0,0,0,3.516-3.516V85.606a3.517,3.517,0,0,0-3.516-3.516m-54.038,67.827a27.494,27.494,0,1,1,27.494-27.494,27.494,27.494,0,0,1-27.494,27.494" transform="translate(-598.377 -30.234)" fill="#e2eaf0"/>
        <path id="Path_97074" data-name="Path 97074" d="M597.25,72.082l-2.9-6.864a23.387,23.387,0,0,1-4.019-1.4L583.792,67.4l-6.782-6.043,2.806-6.9a23.289,23.289,0,0,1-1.858-3.829l-7.153-2.088-.525-9.069,6.864-2.9a23.514,23.514,0,0,1,1.4-4.019l-3.586-6.535L581,19.239l6.907,2.805a23.576,23.576,0,0,1,3.829-1.854l2.09-7.153,9.065-.526,2.9,6.865a23.393,23.393,0,0,1,4.02,1.4l6.535-3.583,6.782,6.039-2.8,6.906a23.833,23.833,0,0,1,1.856,3.829l7.153,2.086.484,8.38-1.951.113-.4-7-6.783-1.979-.167-.471A21.861,21.861,0,0,0,618.4,30.75l-.268-.424,2.659-6.551-4.721-4.2-6.2,3.4-.452-.217a21.375,21.375,0,0,0-4.555-1.586l-.491-.111-2.749-6.514-6.309.367L593.332,21.7l-.473.166a21.582,21.582,0,0,0-4.34,2.1l-.425.268-6.552-2.661-4.2,4.721,3.4,6.2-.218.453a21.523,21.523,0,0,0-1.588,4.556l-.111.489-6.512,2.747.366,6.313,6.786,1.981.166.473a21.308,21.308,0,0,0,2.1,4.338l.27.425-2.663,6.552,4.72,4.207,6.2-3.4.453.218a21.479,21.479,0,0,0,4.555,1.587l.49.111,2.754,6.511,7-.405.113,1.951Zm2.8-18.32a11.465,11.465,0,0,1-.645-22.91,11.466,11.466,0,0,1,9.226,19.07,11.376,11.376,0,0,1-7.9,3.819q-.342.021-.682.021m.026-20.974q-.278,0-.558.016a9.514,9.514,0,1,0,.558-.016" transform="translate(-570.281 -6.004)" fill="#e2eaf0"/>
        <path id="Path_97075" data-name="Path 97075" d="M681.686,41.6l-1.9-.458,1.228-5.094.464-.19a13.913,13.913,0,0,0,2.7-1.472l.411-.287,4.3,1.511,2.3-2.838-2.374-3.886.2-.462a13.631,13.631,0,0,0,.873-2.947l.087-.5,4.107-1.966-.383-3.63-4.426-1.07-.188-.465a13.658,13.658,0,0,0-1.469-2.7l-.287-.412,1.513-4.3-2.837-2.3-3.885,2.377-.463-.2a13.693,13.693,0,0,0-2.949-.874l-.495-.087-1.964-4.106-3.632.383-1.068,4.426-.465.189a13.592,13.592,0,0,0-2.7,1.469l-.411.289-4.3-1.513-2.3,2.837,2.376,3.886-.2.463a13.755,13.755,0,0,0-.873,2.947l-.087.494L657.86,23.4l-.847-1.763,3.832-1.839a15.617,15.617,0,0,1,.711-2.4l-2.578-4.215L663.015,8.2l4.657,1.641a15.627,15.627,0,0,1,2.2-1.2l1.159-4.8L677.4,3.17l2.132,4.454a15.691,15.691,0,0,1,2.4.711l4.214-2.578,4.984,4.032-1.641,4.661a15.793,15.793,0,0,1,1.2,2.2l4.8,1.16.672,6.374-4.454,2.133a15.548,15.548,0,0,1-.71,2.4l2.576,4.216-4.033,4.983-4.659-1.64a15.986,15.986,0,0,1-2.2,1.2Zm-5.427-10.714a7.839,7.839,0,1,1,.836-.044,7.768,7.768,0,0,1-.836.044m.029-13.7a5.983,5.983,0,0,0-.628.034,5.833,5.833,0,1,0,.628-.034" transform="translate(-600.483 -2.751)" fill="#e2eaf0"/>
        <path id="Path_97076" data-name="Path 97076" d="M830.958,279.171l-5.807-12.928,15.363,1.936Zm-2.6-10.552,3.128,6.962,5.145-5.919Z" transform="translate(-659.034 -94.361)" fill="#e2eaf0"/>
        <path id="Path_97077" data-name="Path 97077" d="M752.477,29.225,750.7,28.4l4.083-8.768-10.613,2.314-.035-6.915-5.062-.887.338-1.926,6.671,1.169.031,6.133,12.109-2.64Z" transform="translate(-629.06 -5.902)" fill="#e2eaf0"/>
        <path id="Path_97078" data-name="Path 97078" d="M628.68,244.168a5.517,5.517,0,1,1,5.517-5.517,5.524,5.524,0,0,1-5.517,5.517m0-9.079a3.562,3.562,0,1,0,3.562,3.562,3.566,3.566,0,0,0-3.562-3.562" transform="translate(-588.695 -82.831)" fill="#e2eaf0"/>
        <path id="Path_97079" data-name="Path 97079" d="M590.979,247.186h-1.955v-105a8.6,8.6,0,0,1,8.586-8.586h21.96v1.955H597.61a6.638,6.638,0,0,0-6.631,6.631Z" transform="translate(-576.808 -48.169)" fill="#e2eaf0"/>
        <path id="Path_97080" data-name="Path 97080" d="M864.53,247.186h-1.955v-105a6.638,6.638,0,0,0-6.632-6.631H832.68V133.6h23.263a8.6,8.6,0,0,1,8.587,8.586Z" transform="translate(-661.655 -48.169)" fill="#e2eaf0"/>
        <path id="Path_97081" data-name="Path 97081" d="M603.658,248.559H601.7V148.012a1.74,1.74,0,0,1,1.738-1.738h20.544v1.955H603.658Z" transform="translate(-581.223 -52.584)" fill="#e2eaf0"/>
        <path id="Path_97082" data-name="Path 97082" d="M856.266,247.337h-1.955V148.229H832.68v-1.955h21.847a1.741,1.741,0,0,1,1.739,1.738Z" transform="translate(-661.655 -52.584)" fill="#e2eaf0"/>
        <path id="Path_97083" data-name="Path 97083" d="M770.887,320.5H591.315a11.643,11.643,0,0,1-11.63-11.63v-2.5h91.866l.283.486a5.05,5.05,0,0,0,4.4,2.558h9.738a5.051,5.051,0,0,0,4.4-2.558l.283-.486h91.866v2.5a11.644,11.644,0,0,1-11.63,11.63M581.64,308.33v.544a9.686,9.686,0,0,0,9.675,9.675H770.887a9.686,9.686,0,0,0,9.675-9.675v-.544H691.748a7.075,7.075,0,0,1-5.778,3.044h-9.738a7.072,7.072,0,0,1-5.779-3.044Z" transform="translate(-573.556 -108.336)" fill="#e2eaf0"/>
        <path id="Path_97084" data-name="Path 97084" d="M702.63,172.462,692.456,158.9h-46.5a4.5,4.5,0,0,1-4.494-4.494V76.085a4.5,4.5,0,0,1,4.494-4.495h113.29a4.5,4.5,0,0,1,4.494,4.495V154.4a4.5,4.5,0,0,1-4.494,4.494H712.8ZM645.957,73.545a2.541,2.541,0,0,0-2.539,2.539V154.4a2.541,2.541,0,0,0,2.539,2.539h47.476l9.2,12.26,9.2-12.26h47.42a2.541,2.541,0,0,0,2.539-2.539V76.085a2.541,2.541,0,0,0-2.539-2.539Z" transform="translate(-595.068 -26.577)" fill="#e2eaf0"/>
        <path id="Path_97085" data-name="Path 97085" d="M736.855,146.486h-6.818V122.878h6.818Zm-4.863-1.955H734.9v-19.7h-2.908Zm4.863-25h-6.818v-6.217h6.818Zm-4.863-1.955H734.9v-2.307h-2.908Z" transform="translate(-622.912 -40.106)" fill="#e2eaf0"/>
        <rect id="Rectangle_47079" data-name="Rectangle 47079" width="11.647" height="1.955" transform="translate(143.992 152.235)" fill="#e2eaf0"/>
        <rect id="Rectangle_47080" data-name="Rectangle 47080" width="72.091" height="1.955" transform="translate(60.254 152.235)" fill="#e2eaf0"/>
        <rect id="Rectangle_47081" data-name="Rectangle 47081" width="72.091" height="1.955" transform="translate(60.254 180.563)" fill="#e2eaf0"/>
        <rect id="Rectangle_47082" data-name="Rectangle 47082" width="62.712" height="1.955" transform="translate(92.927 166.398)" fill="#e2eaf0"/>
        <rect id="Rectangle_47083" data-name="Rectangle 47083" width="21.089" height="1.955" transform="translate(60.254 166.398)" fill="#e2eaf0"/>
        <rect id="Rectangle_47084" data-name="Rectangle 47084" width="1.955" height="6.156" transform="translate(187.571 51.224) rotate(-51.099)" fill="#e2eaf0"/>
        <rect id="Rectangle_47085" data-name="Rectangle 47085" width="1.955" height="6.156" transform="translate(195.585 41.292) rotate(-51.102)" fill="#e2eaf0"/>
        <path id="Path_97087" data-name="Path 97087" d="M866.449,87.714l-6.984-5.636,15.452-19.152,6.985,5.636Zm-4.235-5.93,3.941,3.18,13-16.108-3.941-3.18Z" transform="translate(-670.982 -23.56)" fill="#e2eaf0"/>
        <path id="Path_97088" data-name="Path 97088" d="M887.061,96.709a3.636,3.636,0,0,1-2.292-.809L874.6,87.512,875.849,86l10.158,8.382a1.7,1.7,0,0,0,2.38-.262l4.654-5.767a1.7,1.7,0,0,0-.256-2.389l-10.166-8.388,1.245-1.508,10.158,8.382a3.656,3.656,0,0,1,.54,5.131l-4.654,5.768a3.647,3.647,0,0,1-2.846,1.357" transform="translate(-676.255 -28.138)" fill="#e2eaf0"/>
        <path id="Path_97089" data-name="Path 97089" d="M821.9,59.69l-.334-1.926a26.836,26.836,0,1,0-30.245-18.544l-1.869.574A28.793,28.793,0,1,1,821.9,59.69m.022-6.844-.437-1.906a20.13,20.13,0,0,0,8.126-35.282,20.132,20.132,0,0,0-30.38,25.185l-1.723.924a22.087,22.087,0,1,1,24.414,11.079" transform="translate(-646.16 -2.528)" fill="#e2eaf0"/>
        <path id="Path_97090" data-name="Path 97090" d="M820.79,37.318c.032-4.731,4.027-6.84,8.534-6.84s8.662,1.95,8.567,6.745c0,4.635-4.252,5.114-6.105,6.361-.864.576-1.215,1.47-1.215,2.972v.16h-4.219v-.192c.031-4.379,1.822-5.37,3.516-6.265s3.644-1.15,3.644-3.069c0-2.461-2.269-3.037-4.251-3.037-2.045,0-4.155,1.151-4.187,3.164Zm10.2,13.266c0,3.356-5.114,3.356-5.114,0,0-3.389,5.114-3.389,5.114,0" transform="translate(-657.515 -12.261)" fill="#e2eaf0"/>
      </g>
    </g>
  </g>
</svg>
