<svg xmlns="http://www.w3.org/2000/svg" xmlns:xlink="http://www.w3.org/1999/xlink" width="262" height="356" viewBox="0 0 262 356">
  <defs>
    <clipPath id="clip-path">
      <rect id="Rectangle_47145" data-name="Rectangle 47145" width="262" height="356" transform="translate(0)" fill="#fff" stroke="#707070" stroke-width="1"/>
    </clipPath>
  </defs>
  <g id="contract-tab-ar-bg" transform="translate(0)" clip-path="url(#clip-path)">
    <g id="Group_49716" data-name="Group 49716" transform="translate(-85.786 12.747)">
      <g id="Group_49695" data-name="Group 49695" transform="translate(238.291 284.778)">
        <path id="Path_97176" data-name="Path 97176" d="M914.56,616.643a1.139,1.139,0,0,0,.164-.012,1.122,1.122,0,0,0,.86-.651l5.286-11.765a1.121,1.121,0,0,0-1.163-1.572l-13.982,1.762a1.121,1.121,0,0,0-.706,1.849l8.7,10A1.122,1.122,0,0,0,914.56,616.643ZM918,605.119l-3.749,8.344-6.166-7.094Z" transform="translate(-904.743 -602.636)" fill="#e2eaf0"/>
      </g>
      <g id="Group_49696" data-name="Group 49696" transform="translate(170.956 290.253)">
        <path id="Path_97177" data-name="Path 97177" d="M598.018,421.261a1.122,1.122,0,0,0,.865-1.834l-5.33-6.479a1.12,1.12,0,0,0-1.532-.19l-6.325,4.664-4.668-14.908a1.121,1.121,0,0,0-2.043-.223l-8.779,15.3a1.121,1.121,0,1,0,1.945,1.117l7.5-13.074,4.371,13.962a1.122,1.122,0,0,0,1.736.567l6.734-4.966,4.654,5.658A1.117,1.117,0,0,0,598.018,421.261Z" transform="translate(-570.058 -401.728)" fill="#e2eaf0"/>
      </g>
      <g id="Group_49701" data-name="Group 49701" transform="translate(238.291 176.185)">
        <g id="Group_49697" data-name="Group 49697" transform="translate(3.504 15.165)">
          <path id="Path_97178" data-name="Path 97178" d="M830.723,824.921a1.118,1.118,0,0,0,1.023-.662l26.042-58a1.121,1.121,0,0,0-2.046-.919l-25.583,56.975-8.357-3.753,25.839-57.545a1.121,1.121,0,1,0-2.046-.918l-26.3,58.567a1.12,1.12,0,0,0,.563,1.482l10.4,4.671A1.118,1.118,0,0,0,830.723,824.921Z" transform="translate(-819.199 -759.438)" fill="#e2eaf0"/>
        </g>
        <g id="Group_49698" data-name="Group 49698" transform="translate(0 73.733)">
          <path id="Path_97179" data-name="Path 97179" d="M893.771,915.948a1.121,1.121,0,0,0,1.024-.662l3.5-7.8a1.12,1.12,0,0,0-.564-1.482l-10.4-4.671a1.122,1.122,0,0,0-1.482.564l-3.5,7.8a1.12,1.12,0,0,0,.564,1.482l10.4,4.671A1.113,1.113,0,0,0,893.771,915.948Zm2.021-8.36-2.584,5.756-8.357-3.752,2.585-5.757Z" transform="translate(-882.247 -901.232)" fill="#e2eaf0"/>
        </g>
        <g id="Group_49699" data-name="Group 49699" transform="translate(29.802 5.346)">
          <path id="Path_97180" data-name="Path 97180" d="M829.483,752.4a1.122,1.122,0,0,0,1.121-1.1l.257-14.491a1.122,1.122,0,0,0-1.882-.845l-10.659,9.82a1.121,1.121,0,0,0,.3,1.848l10.4,4.67A1.125,1.125,0,0,0,829.483,752.4Zm-.91-13.011-.18,10.17-7.3-3.278Z" transform="translate(-817.959 -735.668)" fill="#e2eaf0"/>
        </g>
        <g id="Group_49700" data-name="Group 49700" transform="translate(39.293)">
          <path id="Path_97181" data-name="Path 97181" d="M813.269,732.915a1.121,1.121,0,0,0,1.024-.662l3.568-7.945a1.121,1.121,0,0,0-2.046-.919l-3.568,7.945a1.122,1.122,0,0,0,1.022,1.581Z" transform="translate(-812.148 -722.725)" fill="#e2eaf0"/>
        </g>
      </g>
      <g id="Group_49709" data-name="Group 49709" transform="translate(102.034 284.778)">
        <g id="Group_49702" data-name="Group 49702" transform="translate(0 3.466)">
          <path id="Path_97182" data-name="Path 97182" d="M821.69,477.494h44.05V437.523H821.69Zm41.807-2.243H823.933V439.766H863.5Z" transform="translate(-821.69 -437.523)" fill="#e2eaf0"/>
        </g>
        <g id="Group_49703" data-name="Group 49703" transform="translate(0.838 13.663)">
          <rect id="Rectangle_47126" data-name="Rectangle 47126" width="41.58" height="2.243" fill="#e2eaf0"/>
        </g>
        <g id="Group_49704" data-name="Group 49704" transform="translate(33.649 0)">
          <rect id="Rectangle_47127" data-name="Rectangle 47127" width="2.243" height="8.158" fill="#e2eaf0"/>
        </g>
        <g id="Group_49705" data-name="Group 49705" transform="translate(8.157 0)">
          <rect id="Rectangle_47128" data-name="Rectangle 47128" width="2.243" height="8.158" fill="#e2eaf0"/>
        </g>
        <g id="Group_49706" data-name="Group 49706" transform="translate(28.551 15.295)">
          <rect id="Rectangle_47129" data-name="Rectangle 47129" width="2.243" height="27.531" fill="#e2eaf0"/>
        </g>
        <g id="Group_49707" data-name="Group 49707" transform="translate(13.256 15.295)">
          <rect id="Rectangle_47130" data-name="Rectangle 47130" width="2.243" height="27.531" fill="#e2eaf0"/>
        </g>
        <g id="Group_49708" data-name="Group 49708" transform="translate(1.632 26.919)">
          <rect id="Rectangle_47131" data-name="Rectangle 47131" width="39.767" height="2.243" fill="#e2eaf0"/>
        </g>
      </g>
      <g id="Group_49714" data-name="Group 49714" transform="translate(100.342)">
        <g id="Group_49710" data-name="Group 49710" transform="translate(51.945 32.537)">
          <path id="Path_97183" data-name="Path 97183" d="M1415.544,705.761l6.2-13.8-16.4,2.067Zm2.772-11.263-3.339,7.431-5.492-6.318Z" transform="translate(-1405.344 -691.963)" fill="#e2eaf0"/>
        </g>
        <g id="Group_49711" data-name="Group 49711">
          <path id="Path_97184" data-name="Path 97184" d="M1907.833,453.262l1.89-.886-3.635-7.749-7.446,3.023-.883-16.414-12.75,13.13,1.5,1.454,9.425-9.705.783,14.571,8.324-3.38Z" transform="translate(-1885.01 -431.236)" fill="#e2eaf0"/>
        </g>
        <g id="Group_49712" data-name="Group 49712" transform="translate(144.823 52.437)">
          <path id="Path_97185" data-name="Path 97185" d="M1937.923,691.719a5.889,5.889,0,1,0-5.89-5.889A5.9,5.9,0,0,0,1937.923,691.719Zm0-9.691a3.8,3.8,0,1,1-3.8,3.8A3.806,3.806,0,0,1,1937.923,682.027Z" transform="translate(-1932.033 -679.94)" fill="#e2eaf0"/>
        </g>
        <g id="Group_49713" data-name="Group 49713" transform="translate(104.344)">
          <path id="Path_97186" data-name="Path 97186" d="M1493.518,400.186a5.889,5.889,0,1,0-5.889-5.889A5.9,5.9,0,0,0,1493.518,400.186Zm0-9.691a3.8,3.8,0,1,1-3.8,3.8A3.806,3.806,0,0,1,1493.518,390.5Z" transform="translate(-1487.629 -388.408)" fill="#e2eaf0"/>
        </g>
      </g>
      <g id="Group_49715" data-name="Group 49715" transform="translate(0 45.554)">
        <path id="Path_97187" data-name="Path 97187" d="M44.636,92.559c0-3.91,4.09-7.079,9.133-7.079H225.013c5.045,0,9.133,3.17,9.133,7.079v10.2H44.636Z" transform="translate(-12.671 -22.207)" fill="#e2eaf0"/>
        <path id="Path_97188" data-name="Path 97188" d="M196.675,184.079a29.1,29.1,0,1,1-29.5,29.025,29.259,29.259,0,0,1,29.5-29.025m-.118,46.751a17.654,17.654,0,1,0-17.8-17.7,17.753,17.753,0,0,0,17.8,17.7" transform="translate(-93.034 -50.043)" fill="#e2eaf0"/>
        <path id="Path_97189" data-name="Path 97189" d="M13.684,170.885l6.6-14.68L2.832,158.4ZM16.633,158.9l-3.552,7.906-5.843-6.722Z" transform="translate(232.14 -40.581)" fill="#e2eaf0"/>
        <path id="Path_97190" data-name="Path 97190" d="M318.755,235.791l2.013-.939-4.637-9.957,12.055,2.628.039-7.853,5.749-1.007-.383-2.187-7.577,1.328-.035,6.965-13.752-3Z" transform="translate(-310.57 -56.239)" fill="#e2eaf0"/>
        <path id="Path_97191" data-name="Path 97191" d="M265.535,142.518a6.266,6.266,0,1,0-6.266-6.267,6.274,6.274,0,0,0,6.266,6.267m0-10.312a4.046,4.046,0,1,1-4.045,4.045,4.05,4.05,0,0,1,4.045-4.045" transform="translate(-209.199 -33.77)" fill="#e2eaf0"/>
        <path id="Path_97192" data-name="Path 97192" d="M223.225,52.643l7.784-2.822-.038-6.548a20.389,20.389,0,0,0,2.585-2.356l6.517.629,3.512-7.5-4.657-4.6a20.809,20.809,0,0,0,.157-3.493l5.056-4.162-2.818-7.784-6.55.037a20.77,20.77,0,0,0-2.357-2.583l.628-6.516-7.495-3.512-4.6,4.657a20.358,20.358,0,0,0-3.495-.157L213.287.878,205.5,3.7l.035,6.548a21.069,21.069,0,0,0-2.585,2.356l-6.515-.63-3.179,6.79,2.01.941,2.514-5.37,6.079.588.375-.427a18.692,18.692,0,0,1,3.067-2.8l.46-.335-.033-6.111L212.57,3.5l3.886,4.717.569-.038a18.214,18.214,0,0,1,4.14.187l.563.09,4.3-4.347,4.657,2.182-.585,6.083.429.375a18.436,18.436,0,0,1,2.794,3.061l.335.461,6.114-.034,1.751,4.836-4.72,3.885.039.57a18.484,18.484,0,0,1-.186,4.141l-.089.563,4.345,4.293-2.183,4.66-6.082-.587-.375.43a18.276,18.276,0,0,1-3.061,2.789l-.464.335.037,6.114-4.837,1.754L220.056,45.3l-.57.038a18.361,18.361,0,0,1-4.141-.186l-.562-.09-4.3,4.344-5.367-2.514-.942,2.01,6.785,3.178,4.607-4.653a20.814,20.814,0,0,0,3.494.157Zm-4.979-15.63a10.268,10.268,0,1,0-4.338-.973,10.229,10.229,0,0,0,4.338.973m.014-18.286a8.051,8.051,0,1,1-2.737.484,8.007,8.007,0,0,1,2.737-.484" transform="translate(-132.677 -0.228)" fill="#e2eaf0"/>
        <path id="Path_97193" data-name="Path 97193" d="M136.7,54.543a3.782,3.782,0,1,0-3.782-3.782,3.787,3.787,0,0,0,3.782,3.782m0-5.344a1.562,1.562,0,1,1-1.561,1.562A1.563,1.563,0,0,1,136.7,49.2" transform="translate(15.64 -12.205)" fill="#e2eaf0"/>
        <path id="Path_97194" data-name="Path 97194" d="M142.879,38.461l1.588-1.553a14.467,14.467,0,0,0-20.43-.289l1.544,1.6a12.246,12.246,0,0,1,17.3.246" transform="translate(18.236 -8.453)" fill="#e2eaf0"/>
        <path id="Path_97195" data-name="Path 97195" d="M149.04,24.342l1.583-1.557a27.783,27.783,0,0,0-39.325-.278l1.561,1.578a25.564,25.564,0,0,1,36.181.257" transform="translate(21.509 -3.765)" fill="#e2eaf0"/>
        <rect id="Rectangle_47132" data-name="Rectangle 47132" width="2.221" height="7.631" transform="translate(54.805 201.088) rotate(-141.099)" fill="#e2eaf0"/>
        <rect id="Rectangle_47133" data-name="Rectangle 47133" width="2.221" height="7.617" transform="matrix(-0.778, -0.628, 0.628, -0.778, 69.607, 213.604)" fill="#e2eaf0"/>
        <path id="Path_97196" data-name="Path 97196" d="M271.508,299.19l9.427-11.683-33.857-27.318-9.427,11.683Zm6.3-11.35-6.638,8.227-30.4-24.53,6.638-8.227Z" transform="translate(-202.332 -67.596)" fill="#e2eaf0"/>
        <path id="Path_97197" data-name="Path 97197" d="M274.7,318.411a5.976,5.976,0,0,0,4.665-2.225l14.759-16.358-1.649-1.488-14.8,16.405a3.79,3.79,0,0,1-2.57,1.426,3.734,3.734,0,0,1-2.765-.813l-10.511-8.481a3.765,3.765,0,0,1-.566-5.3l14.758-16.36-1.649-1.488-14.8,16.406a5.987,5.987,0,0,0,.859,8.465l10.511,8.481a5.957,5.957,0,0,0,3.754,1.325" transform="translate(-230.741 -73.713)" fill="#e2eaf0"/>
        <path id="Path_97198" data-name="Path 97198" d="M63.932,264.5H233.409V107.327H37.422L37.386,236.4h2.221l.036-126.851H231.189V262.277H63.932Z" transform="translate(-6.567 -27.883)" fill="#e2eaf0"/>
        <path id="Path_97199" data-name="Path 97199" d="M37.386,101.547H233.373V86.979A10.46,10.46,0,0,0,222.925,76.53H47.835A10.46,10.46,0,0,0,37.386,86.979Zm193.767-2.221H39.607V86.979a8.237,8.237,0,0,1,8.228-8.228h175.09a8.237,8.237,0,0,1,8.228,8.228Z" transform="translate(-6.531 -19.882)" fill="#e2eaf0"/>
        <path id="Path_97200" data-name="Path 97200" d="M60.468,96.711A4.316,4.316,0,1,0,56.152,92.4a4.321,4.321,0,0,0,4.316,4.315m0-6.411a2.1,2.1,0,1,1-2.1,2.1,2.1,2.1,0,0,1,2.1-2.1" transform="translate(148.167 -22.882)" fill="#fff"/>
        <path id="Path_97201" data-name="Path 97201" d="M75.867,96.711A4.316,4.316,0,1,0,71.551,92.4a4.321,4.321,0,0,0,4.316,4.315m0-6.411a2.1,2.1,0,1,1-2.1,2.1,2.1,2.1,0,0,1,2.1-2.1" transform="translate(121.37 -22.882)" fill="#fff"/>
        <path id="Path_97202" data-name="Path 97202" d="M91.265,96.711A4.316,4.316,0,1,0,86.949,92.4a4.321,4.321,0,0,0,4.316,4.315m0-6.411a2.1,2.1,0,1,1-2.1,2.1,2.1,2.1,0,0,1,2.1-2.1" transform="translate(94.574 -22.882)" fill="#fff"/>
        <path id="Path_97203" data-name="Path 97203" d="M61.241,153.257h57.831V133.841H61.241Zm55.61-2.221H63.462V136.062h53.39Z" transform="translate(90.113 -34.771)" fill="#e2eaf0"/>
        <rect id="Rectangle_47134" data-name="Rectangle 47134" width="36.571" height="2.221" transform="translate(171.755 129.888)" fill="#e2eaf0"/>
        <rect id="Rectangle_47135" data-name="Rectangle 47135" width="19.781" height="2.221" transform="translate(188.545 144.416)" fill="#e2eaf0"/>
        <rect id="Rectangle_47136" data-name="Rectangle 47136" width="54.79" height="2.221" transform="translate(152.345 201.337)" fill="#e2eaf0"/>
        <rect id="Rectangle_47137" data-name="Rectangle 47137" width="37.166" height="2.221" transform="translate(169.968 215.865)" fill="#e2eaf0"/>
        <rect id="Rectangle_47138" data-name="Rectangle 47138" width="20.972" height="2.221" transform="translate(186.163 172.518)" fill="#e2eaf0"/>
        <rect id="Rectangle_47139" data-name="Rectangle 47139" width="46.455" height="2.221" transform="translate(160.68 158.658)" fill="#e2eaf0"/>
        <rect id="Rectangle_47140" data-name="Rectangle 47140" width="20.876" height="2.221" transform="translate(186.259 187.046)" fill="#e2eaf0"/>
        <path id="Path_97204" data-name="Path 97204" d="M196.72,233.082a20.338,20.338,0,0,0,.051-40.677h-.053a20.338,20.338,0,0,0-.049,40.677Zm0-38.456h.047a18.118,18.118,0,0,1-.045,36.235h-.045a18.118,18.118,0,0,1,.044-36.235" transform="translate(-93.102 -49.986)" fill="#e2eaf0"/>
        <path id="Path_97205" data-name="Path 97205" d="M192.345,241.172a32.8,32.8,0,0,0,.082-65.608h-.085a32.8,32.8,0,0,0-.079,65.608Zm0-63.388h.078a30.584,30.584,0,0,1-.076,61.167h-.077a30.584,30.584,0,0,1,.075-61.167" transform="translate(-88.726 -45.611)" fill="#e2eaf0"/>
        <path id="Path_97206" data-name="Path 97206" d="M172.219,254.494l9-10.256a42.3,42.3,0,0,0,8.443-.124l9.294,10,14.53-6.262-.886-13.619a43.105,43.105,0,0,0,5.891-6.051l13.636.5,5.851-14.7-10.259-9a43.272,43.272,0,0,0-.126-8.445l10-9.293-6.259-14.53-13.625.885a42.584,42.584,0,0,0-6.053-5.888l.508-13.641-14.7-5.845-9.008,10.256a42.582,42.582,0,0,0-8.441.122L170.719,148.6l-14.53,6.261.894,13.626a42.716,42.716,0,0,0-5.89,6.052l-13.639-.509-5.852,14.7,10.259,9.006a42.205,42.205,0,0,0,.129,8.444l-10.006,9.29L138.339,230l13.627-.889a42.638,42.638,0,0,0,6.05,5.888l-.494,13.645Zm8.079-12.576-8.715,9.934L159.8,247.164l.479-13.213-.451-.349a40.378,40.378,0,0,1-6.509-6.335l-.361-.442-13.2.862-5.016-11.657,9.693-9-.074-.566a40.031,40.031,0,0,1-.138-9.08l.056-.568-9.934-8.721,4.693-11.794,13.207.493.349-.45a40.517,40.517,0,0,1,6.338-6.512l.441-.361-.865-13.2,11.65-5.02,9,9.69.566-.071a40.66,40.66,0,0,1,9.082-.131l.568.056,8.724-9.931,11.788,4.687-.491,13.211.452.349a40.255,40.255,0,0,1,6.512,6.332l.362.441,13.194-.858,5.021,11.653-9.684,9,.071.566a41.1,41.1,0,0,1,.137,9.09l-.054.566,9.931,8.714-4.692,11.793-13.2-.486-.349.449a40.872,40.872,0,0,1-6.341,6.512l-.442.361.859,13.189-11.652,5.022-9-9.689-.567.073a40.137,40.137,0,0,1-9.079.132Z" transform="translate(-80.948 -38.508)" fill="#e2eaf0"/>
        <path id="Path_97207" data-name="Path 97207" d="M283.718,82.045l.4-2.184a29.683,29.683,0,1,1,34.309-22.412l2.161.507a31.932,31.932,0,1,0-36.87,24.089" transform="translate(-257.573 -4.861)" fill="#e2eaf0"/>
        <path id="Path_97208" data-name="Path 97208" d="M287.667,74.91l.581-2.144A19.04,19.04,0,1,1,311.09,61.055l2.08.778a21.271,21.271,0,1,0-25.5,13.078" transform="translate(-261.315 -8.602)" fill="#e2eaf0"/>
        <rect id="Rectangle_47141" data-name="Rectangle 47141" width="2.221" height="6.481" transform="translate(35.73 8)" fill="#e2eaf0"/>
        <rect id="Rectangle_47142" data-name="Rectangle 47142" width="2.221" height="6.481" transform="translate(25.142 8)" fill="#e2eaf0"/>
        <path id="Path_97209" data-name="Path 97209" d="M286.094,9.111H308.22V0H286.094ZM306,6.891H288.314V2.221H306Z" transform="translate(-265.473)" fill="#e2eaf0"/>
        <path id="Path_97210" data-name="Path 97210" d="M330.552,30.275l1.57-1.57-4.9-4.9,2.652-2.651,5.136,5.136,1.57-1.57-6.706-6.706-5.792,5.792Z" transform="translate(-321.955 -4.68)" fill="#e2eaf0"/>
        <rect id="Rectangle_47143" data-name="Rectangle 47143" width="14.945" height="2.22" transform="translate(31.143 46.563) rotate(-135)" fill="#e2eaf0"/>
        <path id="Path_97211" data-name="Path 97211" d="M65.036,8.619h2.221v-6.4h6.4V0H65.036Z" transform="translate(132.721 0)" fill="#e2eaf0"/>
        <rect id="Rectangle_47144" data-name="Rectangle 47144" width="23.951" height="2.221" transform="translate(230.031 65.431)" fill="#e2eaf0"/>
        <path id="Path_97212" data-name="Path 97212" d="M54.962,32.421l.152-2.215A73.192,73.192,0,0,1,1.77,1.326L0,2.667A75.4,75.4,0,0,0,54.962,32.421" transform="translate(199.402 -0.344)" fill="#e2eaf0"/>
        <path id="Path_97213" data-name="Path 97213" d="M12.86,79.422h2.221V54.568H24V79.222h2.221V52.348H12.86Z" transform="translate(218.775 -13.6)" fill="#e2eaf0"/>
        <path id="Path_97214" data-name="Path 97214" d="M50.341,68.548h2.221V41.53H39.2v22.1h2.221V43.751h8.92Z" transform="translate(172.937 -10.789)" fill="#e2eaf0"/>
        <path id="Path_97215" data-name="Path 97215" d="M64.6,59.475h2.221V27.758h8.92V59.475H77.96V25.538H64.6Z" transform="translate(128.739 -6.635)" fill="#e2eaf0"/>
      </g>
    </g>
  </g>
</svg>
