<svg xmlns="http://www.w3.org/2000/svg" xmlns:xlink="http://www.w3.org/1999/xlink" width="262" height="356" viewBox="0 0 262 356">
  <defs>
    <clipPath id="clip-path">
      <rect id="Rectangle_47032" data-name="Rectangle 47032" width="262" height="356" transform="translate(1042 325)" fill="#fff" stroke="#707070" stroke-width="1"/>
    </clipPath>
  </defs>
  <g id="contract-tab-bg" transform="translate(-1042 -325)" clip-path="url(#clip-path)">
    <g id="Group_49539" data-name="Group 49539" transform="translate(774.473 31.272)">
      <g id="Group_49490" data-name="Group 49490" transform="translate(360.798 591.253)">
        <path id="Path_96941" data-name="Path 96941" d="M911.151,616.643a1.139,1.139,0,0,1-.164-.012,1.122,1.122,0,0,1-.86-.651l-5.286-11.765a1.121,1.121,0,0,1,1.163-1.572l13.982,1.762a1.121,1.121,0,0,1,.706,1.849l-8.7,10A1.122,1.122,0,0,1,911.151,616.643Zm-3.445-11.524,3.749,8.344,6.166-7.094Z" transform="translate(-904.743 -602.636)" fill="#e2eaf0"/>
      </g>
      <g id="Group_49491" data-name="Group 49491" transform="translate(415.276 596.728)">
        <path id="Path_96942" data-name="Path 96942" d="M571.179,421.261a1.122,1.122,0,0,1-.865-1.834l5.33-6.479a1.12,1.12,0,0,1,1.532-.19l6.325,4.664,4.668-14.908a1.121,1.121,0,0,1,2.043-.223l8.779,15.3a1.121,1.121,0,1,1-1.945,1.117l-7.5-13.074-4.371,13.962a1.122,1.122,0,0,1-1.736.567l-6.734-4.966-4.654,5.658A1.117,1.117,0,0,1,571.179,421.261Z" transform="translate(-570.058 -401.728)" fill="#e2eaf0"/>
      </g>
      <g id="Group_49521" data-name="Group 49521" transform="translate(331.918 482.66)">
        <g id="Group_49517" data-name="Group 49517" transform="translate(2.912 15.165)">
          <path id="Path_96955" data-name="Path 96955" d="M846.363,824.921a1.118,1.118,0,0,1-1.023-.662l-26.042-58a1.121,1.121,0,0,1,2.046-.919l25.583,56.975,8.357-3.753L829.445,761.02a1.121,1.121,0,1,1,2.046-.918l26.3,58.567a1.12,1.12,0,0,1-.563,1.482l-10.4,4.671A1.118,1.118,0,0,1,846.363,824.921Z" transform="translate(-819.199 -759.438)" fill="#e2eaf0"/>
        </g>
        <g id="Group_49518" data-name="Group 49518" transform="translate(28.955 73.733)">
          <path id="Path_96956" data-name="Path 96956" d="M886.872,915.948a1.121,1.121,0,0,1-1.024-.662l-3.5-7.8a1.12,1.12,0,0,1,.564-1.482l10.4-4.671a1.122,1.122,0,0,1,1.482.564l3.5,7.8a1.12,1.12,0,0,1-.564,1.482l-10.4,4.671A1.113,1.113,0,0,1,886.872,915.948Zm-2.021-8.36,2.584,5.756,8.357-3.752-2.585-5.757Z" transform="translate(-882.247 -901.232)" fill="#e2eaf0"/>
        </g>
        <g id="Group_49519" data-name="Group 49519" transform="translate(2.4 5.346)">
          <path id="Path_96957" data-name="Path 96957" d="M819.337,752.4a1.122,1.122,0,0,1-1.121-1.1l-.257-14.491a1.122,1.122,0,0,1,1.882-.845l10.659,9.82a1.121,1.121,0,0,1-.3,1.848l-10.4,4.67A1.125,1.125,0,0,1,819.337,752.4Zm.91-13.011.18,10.17,7.3-3.278Z" transform="translate(-817.959 -735.668)" fill="#e2eaf0"/>
        </g>
        <g id="Group_49520" data-name="Group 49520">
          <path id="Path_96958" data-name="Path 96958" d="M816.839,732.915a1.121,1.121,0,0,1-1.024-.662l-3.568-7.945a1.121,1.121,0,0,1,2.046-.919l3.568,7.945a1.122,1.122,0,0,1-1.022,1.581Z" transform="translate(-812.148 -722.725)" fill="#e2eaf0"/>
        </g>
      </g>
      <g id="Group_49529" data-name="Group 49529" transform="translate(469.23 591.253)">
        <g id="Group_49522" data-name="Group 49522" transform="translate(0 3.466)">
          <path id="Path_96959" data-name="Path 96959" d="M865.74,477.494H821.69V437.523h44.05Zm-41.807-2.243H863.5V439.766H823.933Z" transform="translate(-821.69 -437.523)" fill="#e2eaf0"/>
        </g>
        <g id="Group_49523" data-name="Group 49523" transform="translate(1.632 13.663)">
          <rect id="Rectangle_47026" data-name="Rectangle 47026" width="41.58" height="2.243" fill="#e2eaf0"/>
        </g>
        <g id="Group_49524" data-name="Group 49524" transform="translate(8.158 0)">
          <rect id="Rectangle_47027" data-name="Rectangle 47027" width="2.243" height="8.158" fill="#e2eaf0"/>
        </g>
        <g id="Group_49525" data-name="Group 49525" transform="translate(33.649 0)">
          <rect id="Rectangle_47028" data-name="Rectangle 47028" width="2.243" height="8.158" fill="#e2eaf0"/>
        </g>
        <g id="Group_49526" data-name="Group 49526" transform="translate(13.256 15.295)">
          <rect id="Rectangle_47029" data-name="Rectangle 47029" width="2.243" height="27.531" fill="#e2eaf0"/>
        </g>
        <g id="Group_49527" data-name="Group 49527" transform="translate(28.551 15.295)">
          <rect id="Rectangle_47030" data-name="Rectangle 47030" width="2.243" height="27.531" fill="#e2eaf0"/>
        </g>
        <g id="Group_49528" data-name="Group 49528" transform="translate(2.651 26.919)">
          <rect id="Rectangle_47031" data-name="Rectangle 47031" width="39.767" height="2.243" fill="#e2eaf0"/>
        </g>
      </g>
      <g id="Group_49538" data-name="Group 49538" transform="translate(-1094.716 -107.396)">
        <g id="Group_49530" data-name="Group 49530" transform="translate(1426.344 466.408)">
          <path id="Path_96960" data-name="Path 96960" d="M1411.543,705.761l-6.2-13.8,16.4,2.067Zm-2.772-11.263,3.339,7.431,5.492-6.318Z" transform="translate(-1290.344 -711.963)" fill="#e2eaf0"/>
        </g>
        <g id="Group_49531" data-name="Group 49531" transform="translate(1584.975 413.871)">
          <path id="Path_96961" data-name="Path 96961" d="M1886.9,453.262l-1.89-.886,3.635-7.749,7.446,3.023.883-16.414,12.75,13.13-1.5,1.454-9.425-9.705-.783,14.571-8.324-3.38Z" transform="translate(-1885.01 -431.236)" fill="#e2eaf0"/>
        </g>
        <g id="Group_49532" data-name="Group 49532" transform="translate(1453.085 466.307)">
          <path id="Path_96962" data-name="Path 96962" d="M1937.923,691.719a5.889,5.889,0,1,1,5.89-5.889A5.9,5.9,0,0,1,1937.923,691.719Zm0-9.691a3.8,3.8,0,1,0,3.8,3.8A3.806,3.806,0,0,0,1937.923,682.027Z" transform="translate(-1932.033 -679.94)" fill="#e2eaf0"/>
        </g>
        <g id="Group_49533" data-name="Group 49533" transform="translate(1493.566 413.871)">
          <path id="Path_96963" data-name="Path 96963" d="M1493.518,400.186a5.889,5.889,0,1,1,5.889-5.889A5.9,5.9,0,0,1,1493.518,400.186Zm0-9.691a3.8,3.8,0,1,0,3.8,3.8A3.806,3.806,0,0,0,1493.518,390.5Z" transform="translate(-1487.629 -388.408)" fill="#e2eaf0"/>
        </g>
      </g>
      <g id="Group_49607" data-name="Group 49607" transform="translate(-94.202 -567.327)">
        <path id="Path_97044" data-name="Path 97044" d="M234.146,92.559c0-3.91-4.09-7.079-9.133-7.079H53.769c-5.045,0-9.133,3.17-9.133,7.079v10.2h189.51Z" transform="translate(443.404 897.149)" fill="#e2eaf0"/>
        <path id="Path_97045" data-name="Path 97045" d="M196.527,184.079a29.1,29.1,0,1,0,29.5,29.025,29.259,29.259,0,0,0-29.5-29.025m.118,46.751a17.654,17.654,0,1,1,17.8-17.7,17.753,17.753,0,0,1-17.8,17.7" transform="translate(409.347 869.313)" fill="#e2eaf0"/>
        <path id="Path_97046" data-name="Path 97046" d="M9.427,170.885l-6.6-14.68,17.447,2.2ZM6.478,158.9l3.552,7.906,5.843-6.722Z" transform="translate(454.264 878.775)" fill="#e2eaf0"/>
        <path id="Path_97047" data-name="Path 97047" d="M327.445,235.791l-2.013-.939,4.637-9.957-12.055,2.628-.039-7.853-5.749-1.007.383-2.187,7.577,1.328.035,6.965,13.752-3Z" transform="translate(373.885 863.117)" fill="#e2eaf0"/>
        <path id="Path_97048" data-name="Path 97048" d="M265.536,142.518a6.266,6.266,0,1,1,6.266-6.267,6.274,6.274,0,0,1-6.266,6.267m0-10.312a4.046,4.046,0,1,0,4.045,4.045,4.05,4.05,0,0,0-4.045-4.045" transform="translate(387.643 885.587)" fill="#e2eaf0"/>
        <path id="Path_97049" data-name="Path 97049" d="M214.175,52.643l-7.784-2.822.038-6.548a20.389,20.389,0,0,1-2.585-2.356l-6.517.629-3.512-7.5,4.657-4.6a20.809,20.809,0,0,1-.157-3.493l-5.056-4.162,2.818-7.784,6.55.037a20.77,20.77,0,0,1,2.357-2.583l-.628-6.516,7.495-3.512,4.6,4.657a20.358,20.358,0,0,1,3.495-.157L224.113.878,231.9,3.7l-.035,6.548a21.069,21.069,0,0,1,2.585,2.356l6.515-.63,3.179,6.79-2.01.941-2.514-5.37-6.079.588-.375-.427a18.692,18.692,0,0,0-3.067-2.8l-.46-.335.033-6.111L224.83,3.5l-3.886,4.717-.569-.038a18.214,18.214,0,0,0-4.14.187l-.563.09-4.3-4.347L206.718,6.29l.585,6.083-.429.375a18.436,18.436,0,0,0-2.794,3.061l-.335.461-6.114-.034-1.751,4.836,4.72,3.885-.039.57a18.484,18.484,0,0,0,.186,4.141l.089.563-4.345,4.293,2.183,4.66,6.082-.587.375.43a18.276,18.276,0,0,0,3.061,2.789l.464.335-.037,6.114,4.837,1.754,3.886-4.719.57.038a18.361,18.361,0,0,0,4.141-.186l.562-.09,4.3,4.344,5.367-2.514.942,2.01-6.785,3.178-4.607-4.653a20.814,20.814,0,0,1-3.494.157Zm4.979-15.63a10.268,10.268,0,1,1,4.338-.973,10.229,10.229,0,0,1-4.338.973m-.014-18.286a8.051,8.051,0,1,0,2.737.484,8.007,8.007,0,0,0-2.737-.484" transform="translate(404.792 919.128)" fill="#e2eaf0"/>
        <path id="Path_97050" data-name="Path 97050" d="M136.7,54.543a3.782,3.782,0,1,1,3.782-3.782,3.787,3.787,0,0,1-3.782,3.782m0-5.344a1.562,1.562,0,1,0,1.561,1.562A1.563,1.563,0,0,0,136.7,49.2" transform="translate(420.468 907.152)" fill="#e2eaf0"/>
        <path id="Path_97051" data-name="Path 97051" d="M125.625,38.461l-1.588-1.553a14.467,14.467,0,0,1,20.43-.289l-1.544,1.6a12.246,12.246,0,0,0-17.3.246" transform="translate(422.776 910.903)" fill="#e2eaf0"/>
        <path id="Path_97052" data-name="Path 97052" d="M112.881,24.342,111.3,22.785a27.783,27.783,0,0,1,39.325-.278l-1.561,1.578a25.564,25.564,0,0,0-36.181.257" transform="translate(426.085 915.592)" fill="#e2eaf0"/>
        <rect id="Rectangle_47066" data-name="Rectangle 47066" width="2.221" height="7.631" transform="translate(649.918 1114.505) rotate(-38.901)" fill="#e2eaf0"/>
        <rect id="Rectangle_47067" data-name="Rectangle 47067" width="2.221" height="7.617" transform="translate(635.126 1127.032) rotate(-38.898)" fill="#e2eaf0"/>
        <path id="Path_97053" data-name="Path 97053" d="M247.079,299.19l-9.427-11.683,33.857-27.318,9.427,11.683Zm-6.3-11.35,6.638,8.227,30.4-24.53-6.638-8.227Z" transform="translate(393.259 851.761)" fill="#e2eaf0"/>
        <path id="Path_97054" data-name="Path 97054" d="M277.636,318.411a5.976,5.976,0,0,1-4.665-2.225l-14.759-16.358,1.649-1.488,14.8,16.405a3.79,3.79,0,0,0,2.57,1.426,3.734,3.734,0,0,0,2.765-.813l10.511-8.481a3.765,3.765,0,0,0,.566-5.3l-14.758-16.36,1.649-1.488,14.8,16.406a5.987,5.987,0,0,1-.859,8.465l-10.511,8.481a5.957,5.957,0,0,1-3.754,1.325" transform="translate(387.918 845.644)" fill="#e2eaf0"/>
        <path id="Path_97055" data-name="Path 97055" d="M206.862,264.5H37.386V107.327H233.373l.036,129.072h-2.221l-.036-126.851H39.606V262.277H206.862Z" transform="translate(445.287 891.473)" fill="#e2eaf0"/>
        <path id="Path_97056" data-name="Path 97056" d="M233.373,101.547H37.386V86.979A10.46,10.46,0,0,1,47.835,76.53h175.09a10.46,10.46,0,0,1,10.449,10.449ZM39.607,99.326H231.153V86.979a8.237,8.237,0,0,0-8.228-8.228H47.835a8.237,8.237,0,0,0-8.228,8.228Z" transform="translate(445.287 899.474)" fill="#e2eaf0"/>
        <path id="Path_97057" data-name="Path 97057" d="M60.468,96.711A4.316,4.316,0,1,1,64.784,92.4a4.321,4.321,0,0,1-4.316,4.315m0-6.411a2.1,2.1,0,1,0,2.1,2.1,2.1,2.1,0,0,0-2.1-2.1" transform="translate(440.412 896.474)" fill="#fff"/>
        <path id="Path_97058" data-name="Path 97058" d="M75.867,96.711A4.316,4.316,0,1,1,80.183,92.4a4.321,4.321,0,0,1-4.316,4.315m0-6.411a2.1,2.1,0,1,0,2.1,2.1,2.1,2.1,0,0,0-2.1-2.1" transform="translate(436.411 896.474)" fill="#fff"/>
        <path id="Path_97059" data-name="Path 97059" d="M91.265,96.711A4.316,4.316,0,1,1,95.581,92.4a4.321,4.321,0,0,1-4.316,4.315m0-6.411a2.1,2.1,0,1,0,2.1,2.1,2.1,2.1,0,0,0-2.1-2.1" transform="translate(432.411 896.474)" fill="#fff"/>
        <path id="Path_97060" data-name="Path 97060" d="M119.072,153.257H61.241V133.841h57.831Zm-55.61-2.221h53.39V136.062H63.462Z" transform="translate(439.09 884.585)" fill="#e2eaf0"/>
        <rect id="Rectangle_47068" data-name="Rectangle 47068" width="36.571" height="2.221" transform="translate(501.19 1049.244)" fill="#e2eaf0"/>
        <rect id="Rectangle_47069" data-name="Rectangle 47069" width="19.781" height="2.221" transform="translate(501.189 1063.772)" fill="#e2eaf0"/>
        <rect id="Rectangle_47070" data-name="Rectangle 47070" width="54.79" height="2.221" transform="translate(502.38 1120.693)" fill="#e2eaf0"/>
        <rect id="Rectangle_47071" data-name="Rectangle 47071" width="37.166" height="2.221" transform="translate(502.38 1135.221)" fill="#e2eaf0"/>
        <rect id="Rectangle_47072" data-name="Rectangle 47072" width="20.972" height="2.221" transform="translate(502.38 1091.875)" fill="#e2eaf0"/>
        <rect id="Rectangle_47073" data-name="Rectangle 47073" width="46.455" height="2.221" transform="translate(502.38 1078.014)" fill="#e2eaf0"/>
        <rect id="Rectangle_47074" data-name="Rectangle 47074" width="20.876" height="2.221" transform="translate(502.38 1106.403)" fill="#e2eaf0"/>
        <path id="Path_97061" data-name="Path 97061" d="M196.721,233.082a20.338,20.338,0,0,1-.051-40.677h.053a20.338,20.338,0,0,1,.049,40.677Zm0-38.456h-.047a18.118,18.118,0,0,0,.045,36.235h.045a18.118,18.118,0,0,0-.044-36.235" transform="translate(409.177 869.371)" fill="#e2eaf0"/>
        <path id="Path_97062" data-name="Path 97062" d="M192.345,241.172a32.8,32.8,0,0,1-.082-65.608h.085a32.8,32.8,0,0,1,.079,65.608Zm0-63.388h-.078a30.584,30.584,0,0,0,.076,61.167h.077a30.584,30.584,0,0,0-.075-61.167" transform="translate(413.552 873.746)" fill="#e2eaf0"/>
        <path id="Path_97063" data-name="Path 97063" d="M197.46,254.494l-9-10.256a42.3,42.3,0,0,1-8.443-.124l-9.294,10-14.53-6.262.886-13.619a43.105,43.105,0,0,1-5.891-6.051l-13.636.5-5.851-14.7,10.259-9a43.272,43.272,0,0,1,.126-8.445l-10-9.293,6.259-14.53,13.625.885a42.584,42.584,0,0,1,6.053-5.888l-.508-13.641,14.7-5.845,9.008,10.256a42.582,42.582,0,0,1,8.441.122L198.96,148.6l14.53,6.261-.894,13.626a42.716,42.716,0,0,1,5.89,6.052l13.639-.509,5.852,14.7-10.259,9.006a42.205,42.205,0,0,1-.129,8.444l10.006,9.29L231.34,230l-13.627-.889a42.638,42.638,0,0,1-6.05,5.888l.494,13.645Zm-8.079-12.576,8.715,9.934,11.785-4.688-.479-13.213.451-.349a40.378,40.378,0,0,0,6.509-6.335l.361-.442,13.2.862,5.016-11.657-9.693-9,.074-.566a40.031,40.031,0,0,0,.138-9.08l-.056-.568,9.934-8.721L230.642,176.3l-13.207.493-.349-.45a40.517,40.517,0,0,0-6.338-6.512l-.441-.361.865-13.2-11.65-5.02-9,9.69-.566-.071a40.66,40.66,0,0,0-9.082-.131l-.568.056-8.724-9.931-11.788,4.687.491,13.211-.452.349a40.255,40.255,0,0,0-6.512,6.332l-.362.441-13.194-.858-5.021,11.653,9.684,9-.071.566a41.1,41.1,0,0,0-.137,9.09l.054.566-9.931,8.714,4.692,11.793,13.2-.486.349.449a40.872,40.872,0,0,0,6.341,6.512l.442.361-.859,13.189,11.652,5.022,9-9.689.567.073a40.137,40.137,0,0,0,9.079.132Z" transform="translate(420.785 880.848)" fill="#e2eaf0"/>
        <path id="Path_97064" data-name="Path 97064" d="M295.286,82.045l-.4-2.184a29.683,29.683,0,1,0-34.309-22.412l-2.161.507a31.932,31.932,0,1,1,36.87,24.089" transform="translate(388.084 914.496)" fill="#e2eaf0"/>
        <path id="Path_97065" data-name="Path 97065" d="M298.82,74.91l-.581-2.144A19.04,19.04,0,1,0,275.4,61.055l-2.08.778a21.271,21.271,0,1,1,25.5,13.078" transform="translate(384.342 910.754)" fill="#e2eaf0"/>
        <rect id="Rectangle_47075" data-name="Rectangle 47075" width="2.221" height="6.481" transform="translate(671.564 927.356)" fill="#e2eaf0"/>
        <rect id="Rectangle_47076" data-name="Rectangle 47076" width="2.221" height="6.481" transform="translate(682.153 927.356)" fill="#e2eaf0"/>
        <path id="Path_97066" data-name="Path 97066" d="M308.22,9.111H286.094V0H308.22Zm-19.9-2.221H306V2.221H288.315Z" transform="translate(380.674 919.356)" fill="#e2eaf0"/>
        <path id="Path_97067" data-name="Path 97067" d="M330.113,30.275l-1.57-1.57,4.9-4.9-2.652-2.651-5.136,5.136-1.57-1.57,6.706-6.706,5.792,5.792Z" transform="translate(370.805 914.676)" fill="#e2eaf0"/>
        <rect id="Rectangle_47077" data-name="Rectangle 47077" width="14.945" height="2.22" transform="translate(676.802 964.349) rotate(-45)" fill="#e2eaf0"/>
        <path id="Path_97068" data-name="Path 97068" d="M73.655,8.619H71.434v-6.4h-6.4V0h8.619Z" transform="translate(438.104 919.356)" fill="#e2eaf0"/>
        <rect id="Rectangle_47078" data-name="Rectangle 47078" width="23.951" height="2.221" transform="translate(455.534 984.788)" fill="#e2eaf0"/>
        <path id="Path_97069" data-name="Path 97069" d="M.152,32.421,0,30.207A73.192,73.192,0,0,0,53.344,1.326l1.77,1.341A75.4,75.4,0,0,1,.152,32.421" transform="translate(455 919.012)" fill="#e2eaf0"/>
        <path id="Path_97070" data-name="Path 97070" d="M26.222,79.422H24V54.568h-8.92V79.222H12.86V52.348H26.222Z" transform="translate(451.659 905.757)" fill="#e2eaf0"/>
        <path id="Path_97071" data-name="Path 97071" d="M41.421,68.548H39.2V41.53H52.562v22.1H50.341V43.751h-8.92Z" transform="translate(444.816 908.567)" fill="#e2eaf0"/>
        <path id="Path_97072" data-name="Path 97072" d="M77.96,59.475H75.739V27.758h-8.92V59.475H64.6V25.538H77.96Z" transform="translate(438.218 912.722)" fill="#e2eaf0"/>
      </g>
    </g>
  </g>
</svg>
