<svg xmlns="http://www.w3.org/2000/svg" width="33" height="35" viewBox="0 0 33 35">
  <g id="icon-lang-ar" transform="translate(-956 -67)">
    <g id="Terms" transform="translate(956 67)">
      <rect id="Rectangle" width="33" height="35" rx="10" fill="#142f52"/>
    </g>
    <g id="Terms-2" data-name="Terms" transform="translate(960.1 70)">
      <path id="Sign_up_my_Account" data-name="Sign up my Account" d="M15.18,13.953a13,13,0,0,0-2.164.75,5.9,5.9,0,0,0-1.332.82,2.5,2.5,0,0,0-.676.844,2.013,2.013,0,0,0-.187.82,1.992,1.992,0,0,0,.145.734,1.65,1.65,0,0,0,.5.664,2.816,2.816,0,0,0,.953.484,5.065,5.065,0,0,0,1.5.188,8.88,8.88,0,0,0,1.43-.121,10.76,10.76,0,0,0,1.547-.379V20.57a10.987,10.987,0,0,1-1.559.383,9.039,9.039,0,0,1-1.449.117,6.754,6.754,0,0,1-2.066-.281,4,4,0,0,1-1.437-.781,3.125,3.125,0,0,1-.844-1.187,4.248,4.248,0,0,1,.113-3.289,4.406,4.406,0,0,1,1.172-1.445,4.261,4.261,0,0,1-.734-1.187,3.612,3.612,0,0,1-.266-1.383A3.155,3.155,0,0,1,10.91,9.09,3.665,3.665,0,0,1,12.1,8.4a4.34,4.34,0,0,1,1.48-.246,5.38,5.38,0,0,1,.977.094v1.875q-.273-.039-.59-.07t-.613-.031a3.7,3.7,0,0,0-.727.07,1.79,1.79,0,0,0-.629.25,1.331,1.331,0,0,0-.445.484,1.59,1.59,0,0,0-.168.773,2.638,2.638,0,0,0,.16.9,2.025,2.025,0,0,0,.5.773,10.462,10.462,0,0,1,1.469-.656q.781-.281,1.672-.508Z" transform="translate(-0.1)" fill="#fff"/>
    </g>
  </g>
</svg>
