<svg xmlns="http://www.w3.org/2000/svg" width="35" height="35" viewBox="0 0 35 35">
  <g id="icon-twitter" transform="translate(-1153 -682.05)">
    <g id="Group_48965" data-name="Group 48965" transform="translate(1153 682.05)">
      <path id="Path_96368" data-name="Path 96368" d="M485.239,360.476a17.5,17.5,0,1,1,17.5,17.5A17.5,17.5,0,0,1,485.239,360.476Z" transform="translate(-485.239 -342.976)" fill="#fff"/>
      <g id="Group_48964" data-name="Group 48964" transform="translate(9.833 11.269)">
        <path id="Path_96369" data-name="Path 96369" d="M521.563,371.779a6.273,6.273,0,0,1-1.807.5,3.156,3.156,0,0,0,1.384-1.74,6.3,6.3,0,0,1-2,.763,3.149,3.149,0,0,0-5.361,2.869,8.931,8.931,0,0,1-6.484-3.287,3.15,3.15,0,0,0,.973,4.2,3.127,3.127,0,0,1-1.425-.394c0,.013,0,.027,0,.04a3.148,3.148,0,0,0,2.524,3.085,3.155,3.155,0,0,1-1.421.054,3.149,3.149,0,0,0,2.939,2.184,6.348,6.348,0,0,1-4.657,1.3A8.946,8.946,0,0,0,520,373.814q0-.2-.009-.407a6.38,6.38,0,0,0,1.57-1.629Zm0,0" transform="translate(-506.229 -370.304)" fill="#23b3ce"/>
      </g>
    </g>
  </g>
</svg>
