<svg id="icon-phone" xmlns="http://www.w3.org/2000/svg" width="33" height="35" viewBox="0 0 33 35">
  <rect id="Rectangle" width="33" height="35" rx="10" fill="#437f96"/>
  <g id="phone_call" data-name="phone call" transform="translate(-60.925 -107.925)">
    <g id="Group_48849" data-name="Group 48849" transform="translate(68 118.682)">
      <path id="Path_95051" data-name="Path 95051" d="M72.435,136.586a22.351,22.351,0,0,1-2.23-2.624,12.016,12.016,0,0,1-1.976-3.607,5.245,5.245,0,0,1,.046-3.213c.385-1.056,1.493-2.447,2.758-2.313a3.62,3.62,0,0,1,2.489,2.1,1.85,1.85,0,0,1,.2,1.4c-.213.617-.893.936-1.267,1.471a2.039,2.039,0,0,0,.083,2.234,12.772,12.772,0,0,0,4.411,4.411,2.039,2.039,0,0,0,2.234.083c.534-.375.853-1.054,1.471-1.267a1.85,1.85,0,0,1,1.4.2,3.62,3.62,0,0,1,2.1,2.489c.134,1.264-1.257,2.373-2.313,2.758a5.245,5.245,0,0,1-3.213.046,12.015,12.015,0,0,1-3.607-1.976A21.756,21.756,0,0,1,72.435,136.586Z" transform="translate(-68 -124.82)" fill="none" stroke="#fff" stroke-linecap="round" stroke-linejoin="round" stroke-width="1.2"/>
    </g>
    <g id="Group_48850" data-name="Group 48850" transform="translate(75.264 116)">
      <path id="Path_95052" data-name="Path 95052" d="M91.892,116.727a8.208,8.208,0,0,1,10.859,10.859" transform="translate(-91.892 -116)" fill="none" stroke="#fff" stroke-linecap="round" stroke-linejoin="round" stroke-width="1.2"/>
      <path id="Path_95053" data-name="Path 95053" d="M106.026,132.353a4.987,4.987,0,0,0-5.777-5.777" transform="translate(-97.708 -123.308)" fill="none" stroke="#fff" stroke-linecap="round" stroke-linejoin="round" stroke-width="1.2"/>
    </g>
  </g>
</svg>
