<svg xmlns="http://www.w3.org/2000/svg" width="35" height="35" viewBox="0 0 35 35">
  <g id="icon-facebook" transform="translate(-1153 -682.05)">
    <g id="Group_48965" data-name="Group 48965" transform="translate(1153 682.05)">
      <path id="Path_96368" data-name="Path 96368" d="M485.239,360.476a17.5,17.5,0,1,1,17.5,17.5A17.5,17.5,0,0,1,485.239,360.476Z" transform="translate(-485.239 -342.976)" fill="#fff"/>
      <path id="Path_96403" data-name="Path 96403" d="M71.8,78.827c.449-.017.9,0,1.347,0h.185V76.488c-.24-.023-.49-.058-.741-.07-.461-.021-.922-.043-1.383-.032a3.377,3.377,0,0,0-1.95.6,2.922,2.922,0,0,0-1.172,1.949,6.766,6.766,0,0,0-.081,1c-.014.524,0,1.048,0,1.572v.2H65.77v2.608h2.221v6.554H70.7V84.326h2.214c.113-.868.225-1.727.341-2.621-.178,0-.338,0-.5,0-.629,0-2.074,0-2.074,0s.007-1.292.022-1.853C70.73,79.084,71.186,78.849,71.8,78.827Z" transform="translate(-52.052 -66.126)" fill="#23b3ce" fill-rule="evenodd"/>
    </g>
  </g>
</svg>
