<svg xmlns="http://www.w3.org/2000/svg" xmlns:xlink="http://www.w3.org/1999/xlink" width="1366" height="867" viewBox="0 0 1366 867">
  <defs>
    <linearGradient id="linear-gradient" x1="0.5" x2="0.5" y2="1" gradientUnits="objectBoundingBox">
      <stop offset="0" stop-color="#30eaff"/>
      <stop offset="1" stop-color="#194378"/>
    </linearGradient>
    <clipPath id="clip-path">
      <rect id="Rectangle_46981" data-name="Rectangle 46981" width="1366" height="867" transform="translate(0 -99)" fill="#fff" stroke="#707070" stroke-width="1"/>
    </clipPath>
    <linearGradient id="linear-gradient-2" x1="0.5" x2="0.5" y2="1" gradientUnits="objectBoundingBox">
      <stop offset="0" stop-color="#14303a"/>
      <stop offset="1" stop-color="#056f95"/>
    </linearGradient>
    <clipPath id="clip-path-2">
      <circle id="Ellipse_1865" data-name="Ellipse 1865" cx="158.45" cy="158.45" r="158.45" transform="translate(-2170 -187)" fill="#06bbed" opacity="0.3"/>
    </clipPath>
    <linearGradient id="linear-gradient-4" x1="1.019" y1="1.224" x2="-0.11" y2="0" xlink:href="#linear-gradient"/>
    <clipPath id="clip-path-3">
      <circle id="Ellipse_1868" data-name="Ellipse 1868" cx="152.726" cy="152.726" r="152.726" transform="translate(-1064 -437)" opacity="0.2" fill="url(#linear-gradient)"/>
    </clipPath>
    <linearGradient id="linear-gradient-6" x1="0.633" y1="0.003" x2="0.156" y2="1.838" xlink:href="#linear-gradient"/>
    <linearGradient id="linear-gradient-7" x1="1.158" y1="-2.23" x2="-1.308" y2="7.214" xlink:href="#linear-gradient"/>
    <linearGradient id="linear-gradient-8" x1="0.885" y1="-1.11" x2="-0.532" y2="4.316" xlink:href="#linear-gradient"/>
    <linearGradient id="linear-gradient-9" x1="0.806" y1="-0.79" x2="-0.3" y2="3.49" xlink:href="#linear-gradient"/>
    <linearGradient id="linear-gradient-10" x1="0.765" y1="-0.632" x2="-0.185" y2="3.069" xlink:href="#linear-gradient"/>
    <linearGradient id="linear-gradient-11" x1="0.741" y1="-0.535" x2="-0.115" y2="2.805" xlink:href="#linear-gradient"/>
    <linearGradient id="linear-gradient-12" x1="0.724" y1="-0.464" x2="-0.065" y2="2.618" xlink:href="#linear-gradient"/>
    <linearGradient id="linear-gradient-13" x1="0.711" y1="-0.407" x2="-0.028" y2="2.474" xlink:href="#linear-gradient"/>
    <linearGradient id="linear-gradient-14" x1="0.7" y1="-0.356" x2="0.003" y2="2.357" xlink:href="#linear-gradient"/>
    <linearGradient id="linear-gradient-15" x1="0.691" y1="-0.31" x2="0.029" y2="2.261" xlink:href="#linear-gradient"/>
    <linearGradient id="linear-gradient-16" x1="0.682" y1="-0.268" x2="0.052" y2="2.18" xlink:href="#linear-gradient"/>
    <linearGradient id="linear-gradient-17" x1="0.674" y1="-0.228" x2="0.071" y2="2.112" xlink:href="#linear-gradient"/>
    <linearGradient id="linear-gradient-18" x1="0.667" y1="-0.191" x2="0.088" y2="2.053" xlink:href="#linear-gradient"/>
    <linearGradient id="linear-gradient-19" x1="0.661" y1="-0.155" x2="0.103" y2="2.001" xlink:href="#linear-gradient"/>
    <linearGradient id="linear-gradient-20" x1="0.654" y1="-0.121" x2="0.116" y2="1.956" xlink:href="#linear-gradient"/>
    <linearGradient id="linear-gradient-21" x1="0.649" y1="-0.089" x2="0.128" y2="1.919" xlink:href="#linear-gradient"/>
    <linearGradient id="linear-gradient-22" x1="0.643" y1="-0.057" x2="0.138" y2="1.887" xlink:href="#linear-gradient"/>
    <linearGradient id="linear-gradient-23" x1="0.638" y1="-0.027" x2="0.148" y2="1.86" xlink:href="#linear-gradient"/>
    <linearGradient id="linear-gradient-24" x1="0.629" y1="0.033" x2="0.163" y2="1.819" xlink:href="#linear-gradient"/>
    <linearGradient id="linear-gradient-25" x1="0.624" y1="0.062" x2="0.169" y2="1.805" xlink:href="#linear-gradient"/>
    <linearGradient id="linear-gradient-26" x1="0.62" y1="0.092" x2="0.175" y2="1.795" xlink:href="#linear-gradient"/>
    <linearGradient id="linear-gradient-27" x1="0.616" y1="0.121" x2="0.179" y2="1.789" xlink:href="#linear-gradient"/>
    <linearGradient id="linear-gradient-28" x1="0.612" y1="0.151" x2="0.182" y2="1.788" xlink:href="#linear-gradient"/>
    <linearGradient id="linear-gradient-29" x1="0.608" y1="0.182" x2="0.184" y2="1.793" xlink:href="#linear-gradient"/>
    <linearGradient id="linear-gradient-30" x1="0.604" y1="0.214" x2="0.184" y2="1.806" xlink:href="#linear-gradient"/>
    <linearGradient id="linear-gradient-31" x1="0.6" y1="0.247" x2="0.182" y2="1.829" xlink:href="#linear-gradient"/>
    <linearGradient id="linear-gradient-32" x1="0.598" y1="0.283" x2="0.176" y2="1.872" xlink:href="#linear-gradient"/>
    <linearGradient id="linear-gradient-33" x1="0.604" y1="0.464" x2="0.034" y2="2.604" xlink:href="#linear-gradient"/>
    <linearGradient id="linear-gradient-34" x1="1.863" y1="-5.822" x2="-1.93" y2="8.712" xlink:href="#linear-gradient"/>
    <linearGradient id="linear-gradient-35" x1="0.609" y1="0.663" x2="-0.114" y2="3.367" xlink:href="#linear-gradient"/>
    <linearGradient id="linear-gradient-36" x1="0.61" y1="0.833" x2="-0.227" y2="3.964" xlink:href="#linear-gradient"/>
    <linearGradient id="linear-gradient-37" x1="0.612" y1="1.012" x2="-0.347" y2="4.603" xlink:href="#linear-gradient"/>
    <linearGradient id="linear-gradient-38" x1="0.616" y1="1.216" x2="-0.49" y2="5.374" xlink:href="#linear-gradient"/>
    <linearGradient id="linear-gradient-39" x1="0.625" y1="1.478" x2="-0.687" y2="6.456" xlink:href="#linear-gradient"/>
    <linearGradient id="linear-gradient-40" x1="0.647" y1="1.911" x2="-1.046" y2="8.396" xlink:href="#linear-gradient"/>
    <linearGradient id="linear-gradient-41" x1="0.742" y1="3.261" x2="-2.299" y2="14.911" xlink:href="#linear-gradient"/>
  </defs>
  <g id="login-bg" transform="translate(0 99)" clip-path="url(#clip-path)">
    <g id="Group_49418" data-name="Group 49418" transform="translate(2083 619.841)">
      <g id="Group_49413" data-name="Group 49413" transform="translate(-718 147.159) rotate(180)">
        <rect id="Rectangle_46980" data-name="Rectangle 46980" width="1366" height="886" transform="translate(0 -20)" fill="url(#linear-gradient-2)"/>
      </g>
      <circle id="Ellipse_1863" data-name="Ellipse 1863" cx="181" cy="181" r="181" transform="translate(-2310 -258.5)" fill="#06bbed" opacity="0.3"/>
      <circle id="Ellipse_1864" data-name="Ellipse 1864" cx="85.5" cy="85.5" r="85.5" transform="translate(-2017 39)" opacity="0.3" fill="url(#linear-gradient)"/>
      <g id="Mask_Group_48540" data-name="Mask Group 48540" transform="translate(-22.5 39.6)" clip-path="url(#clip-path-2)">
        <g id="Group_49415" data-name="Group 49415" transform="matrix(-0.891, -0.454, 0.454, -0.891, -1864.199, 416.446)" opacity="0.1">
          <path id="Path_96761" data-name="Path 96761" d="M367.43,6.08c-.944-2.021-1.843-4.044-2.749-6.08C326.19,37.587,103.642,254.756,0,355.911c2.365.639,4.734,1.245,7.091,1.828C12.132,352.821,362.4,10.994,367.43,6.08Z" transform="translate(92.282 196.847)" fill="#248aac"/>
          <path id="Path_96762" data-name="Path 96762" d="M0,69.478a314.8,314.8,0,0,0,42.665-32.91l.032-.027,8.045-7.854.149-.147C59.046,20.07,66.338,10.6,71.187,0,63.186,7.81,11.506,58.247,0,69.478Z" transform="translate(499.188 421.632)" fill="#248aac"/>
          <path id="Path_96763" data-name="Path 96763" d="M0,120.932q9.286-4.322,18.265-9.08l.014-.006C64.08,67.141,41.1,89.567,122.794,9.839a2.918,2.918,0,0,0,.065-.319A69.151,69.151,0,0,0,123.92,0C35.646,86.14,63.145,59.3,0,120.932Z" transform="translate(452.71 395.796)" fill="#248aac"/>
          <path id="Path_96764" data-name="Path 96764" d="M158.681,7.2l0-.012A48.894,48.894,0,0,0,157.092,0C59.9,94.84,93.576,61.975,0,153.3q7.5-2.759,14.875-5.761l.011-.006C96.48,67.9,63.589,100,158.681,7.2Z" transform="translate(417.395 378.145)" fill="#248aac"/>
          <path id="Path_96765" data-name="Path 96765" d="M184.7,5.759A65.017,65.017,0,0,0,181.626,0C77.428,101.69,116.708,63.352,0,177.271q6.613-1.993,13.171-4.122C21.11,165.4,177.783,12.514,184.7,5.759Z" transform="translate(386.71 364.406)" fill="#248aac"/>
          <path id="Path_96766" data-name="Path 96766" d="M205.168,4.986c-1.218-1.677-2.5-3.329-3.845-4.986C162.688,37.7,39.533,157.872,0,196.455c.614-.149,11.556-2.855,12.143-3.084C13.1,192.438,204.193,5.939,205.168,4.986Z" transform="translate(358.741 352.768)" fill="#248aac"/>
          <path id="Path_96767" data-name="Path 96767" d="M222.293,4.69c-1.346-1.554-2.742-3.118-4.153-4.69C143.158,73.177,93.5,121.645,0,212.892q5.678-1.118,11.351-2.333C39.286,183.288,5.066,216.686,222.293,4.69Z" transform="translate(332.7 342.032)" fill="#248aac"/>
          <path id="Path_96768" data-name="Path 96768" d="M237.566,4.7q-2.076-2.309-4.139-4.7C155.446,76.093,77.1,152.546,0,227.784c3.587-.547,7.158-1.134,10.751-1.742C196.515,44.762,87.71,150.951,237.566,4.7Z" transform="translate(308.044 331.442)" fill="#248aac"/>
          <path id="Path_96769" data-name="Path 96769" d="M251.8,4.875c-1.34-1.614-2.669-3.233-3.977-4.875C70.877,172.705,177.187,68.935,0,241.858c3.424-.4,6.841-.816,10.271-1.275l.013,0C169.816,84.865,161.079,93.4,251.8,4.875Z" transform="translate(284.588 320.538)" fill="#248aac"/>
          <path id="Path_96770" data-name="Path 96770" d="M265.411,4.982Q263.47,2.51,261.555,0C155.374,103.617,127.838,130.488,0,255.257c3.279-.281,6.56-.56,9.856-.878l.013,0C123.626,143.347,176.7,91.559,265.411,4.982Z" transform="translate(262.084 309.376)" fill="#248aac"/>
          <path id="Path_96771" data-name="Path 96771" d="M278.435,5.093c-1.25-1.681-2.5-3.373-3.724-5.093C35.086,233.83,123.821,147.246,0,268.063q4.738-.218,9.514-.522C205,76.766,95.25,183.856,278.435,5.093Z" transform="translate(240.434 297.956)" fill="#248aac"/>
          <path id="Path_96772" data-name="Path 96772" d="M290.972,5.193C289.75,3.472,288.553,1.742,287.353,0,279.734,7.434,101.577,181.286,93.228,189.433L0,280.416q4.577-.066,9.166-.208C95.377,196.086,99.482,192.088,290.972,5.193Z" transform="translate(219.529 286.27)" fill="#248aac"/>
          <path id="Path_96773" data-name="Path 96773" d="M303.107,5.344c-1.168-1.77-2.34-3.554-3.5-5.344L0,292.381q4.437.08,8.885.08C187.186,118.483,57.324,245.2,303.107,5.344Z" transform="translate(199.3 274.307)" fill="#248aac"/>
          <path id="Path_96774" data-name="Path 96774" d="M314.85,5.455l-.006-.013C313.7,3.631,312.583,1.826,311.481,0,281.636,29.123,29.843,274.826,0,303.963q4.267.209,8.6.354Z" transform="translate(179.736 262.102)" fill="#248aac"/>
          <path id="Path_96775" data-name="Path 96775" d="M326.192,5.585Q324.543,2.8,322.932,0L0,315.169c2.9.27,5.659.5,8.267.677C64.408,261.039,191.916,136.629,326.192,5.585Z" transform="translate(160.848 249.605)" fill="#248aac"/>
          <path id="Path_96776" data-name="Path 96776" d="M337.092,5.692c-1.067-1.885-2.107-3.78-3.142-5.692C328.911,4.885,46.665,280.34,0,325.87c2.727.363,5.382.7,7.963.987C84.561,252.121,98.752,238.239,337.092,5.692Z" transform="translate(142.69 236.858)" fill="#248aac"/>
          <path id="Path_96777" data-name="Path 96777" d="M347.531,5.82q-1.54-2.9-3-5.82C343.605.9,55.949,281.628,0,336.237c2.585.449,5.147.878,7.655,1.283C212.76,137.338,347.531,5.82,347.531,5.82Z" transform="translate(125.257 223.794)" fill="#248aac"/>
          <path id="Path_96778" data-name="Path 96778" d="M357.647,5.963Q356.187,2.992,354.782,0C343.663,10.856,11.973,334.556,0,346.24c2.464.554,4.927,1.067,7.367,1.558C97.151,260.167,328.893,34.044,357.647,5.963Z" transform="translate(108.445 210.466)" fill="#248aac"/>
          <path id="Path_96779" data-name="Path 96779" d="M376.821,6.227c-.877-2.076-1.75-4.139-2.6-6.227C367.51,6.552,7.12,358.243,0,365.191c2.246.744,4.508,1.453,6.77,2.132C169.074,208.929,154.314,223.351,376.821,6.227Z" transform="translate(76.799 182.925)" fill="#248aac"/>
          <path id="Path_96780" data-name="Path 96780" d="M385.735,6.348Q384.487,3.184,383.292,0C313.775,67.862,96.849,279.533,0,374.053c2.116.868,4.264,1.694,6.412,2.491C58.979,325.243,331.442,59.354,385.735,6.348Z" transform="translate(62.107 168.669)" fill="#248aac"/>
          <path id="Path_96781" data-name="Path 96781" d="M394.123,6.489Q392.938,3.257,391.815,0C381.328,10.238,25,357.981,0,382.374c1.961.988,3.973,1.958,6.013,2.885C111.776,282.016,371.608,28.457,394.123,6.489Z" transform="translate(48.297 154.106)" fill="#248aac"/>
          <path id="Path_96782" data-name="Path 96782" d="M401.818,6.64q-1.1-3.307-2.147-6.64C208.55,186.509,164.465,229.5,0,390.037c1.8,1.139,3.638,2.264,5.529,3.338Z" transform="translate(35.505 139.2)" fill="#248aac"/>
          <path id="Path_96783" data-name="Path 96783" d="M408.642,6.826c-.677-2.271-1.334-4.537-1.973-6.826C274.894,128.593,404.34,2.294,0,396.861c1.585,1.342,3.229,2.646,4.95,3.921C167.631,242.045,73.646,333.725,408.642,6.826Z" transform="translate(23.947 123.911)" fill="#248aac"/>
          <path id="Path_96784" data-name="Path 96784" d="M414.3,7q-.932-3.485-1.8-7C335.8,74.827,319.861,90.41,0,402.551c1.319,1.595,2.734,3.136,4.22,4.635C59.511,353.226,356.915,62.987,414.3,7Z" transform="translate(13.938 108.25)" fill="#248aac"/>
          <path id="Path_96785" data-name="Path 96785" d="M418.309,7.112c-.014-.038-.011-.069-.027-.107C417.739,4.7,417.2,2.367,416.651,0,219.557,192.308,144.816,265.275,0,406.581a59.156,59.156,0,0,0,3.22,5.6C100.338,317.427,339.273,84.246,418.309,7.112Z" transform="translate(5.977 92.253)" fill="#248aac"/>
          <path id="Path_96786" data-name="Path 96786" d="M419.538,7q-.869-3.487-1.8-7C324.515,90.96,91.328,318.538,0,407.669a49.877,49.877,0,0,0,1.8,6.984C66.684,351.322,354.582,70.378,419.538,7Z" transform="translate(0.937 76.372)" fill="#248aac"/>
          <path id="Path_96787" data-name="Path 96787" d="M416.278,6.707c-.667-2.248-1.358-4.485-2.088-6.707C412.569,1.581,9.9,394.522,1.155,403.055l.006.013A46.779,46.779,0,0,0,0,412.934C45.338,368.692,369.187,52.668,416.278,6.707Z" transform="translate(0 61.023)" fill="#248aac"/>
          <path id="Path_96788" data-name="Path 96788" d="M307.652,6.309c-.8-2.138-1.631-4.246-2.5-6.309C276.589,27.874,61.3,237.986,35.981,262.677,35.5,263.82,18.1,286.632,0,306.545,31.708,275.606,278.263,34.99,307.652,6.309Z" transform="translate(103.692 46.485)" fill="#248aac"/>
          <path id="Path_96789" data-name="Path 96789" d="M46.265,0C35.62,9.168,26.333,16.309,16.758,25.547A117.024,117.024,0,0,0,0,45.147C44.625,1.606,36.375,9.659,46.265,0Z" transform="translate(9.659 399.652)" fill="#248aac"/>
          <path id="Path_96790" data-name="Path 96790" d="M242.825,5.766c-.967-1.969-1.992-3.9-3.065-5.766C93.323,142.919,170.82,67.273,13.051,221.247Q6.753,232.143,0,242.732C204.657,43.024,175.77,71.212,242.825,5.766Z" transform="translate(162.541 33.134)" fill="#248aac"/>
          <path id="Path_96791" data-name="Path 96791" d="M209.539,5.049c-1.2-1.742-2.469-3.43-3.8-5.049C69.325,133.142,83.253,119.529,8.462,192.528c-2.738,5.719-5.543,11.374-8.462,17C132.528,80.2,104.04,107.988,209.539,5.049Z" transform="translate(188.496 21.282)" fill="#248aac"/>
          <path id="Path_96792" data-name="Path 96792" d="M182.967,4.122A59.46,59.46,0,0,0,178.231,0C153.838,23.8,32.417,142.279,6.147,167.929Q3.173,175.354,0,182.684Z" transform="translate(205.95 11.374)" fill="#248aac"/>
          <path id="Path_96793" data-name="Path 96793" d="M158.712,2.918A53.967,53.967,0,0,0,152.746,0C64.855,85.771,6.751,142.466,4.759,144.409c-1.554,4.474-3.12,8.954-4.759,13.4C111.7,48.781,76.084,83.544,158.712,2.918Z" transform="translate(218.796 3.967)" fill="#248aac"/>
          <path id="Path_96794" data-name="Path 96794" d="M133.842,1.233A50.644,50.644,0,0,0,126.133,0C57.6,66.864,83.907,41.2,4.669,118.525l-.007.019C3.082,122.953,1.533,127.366,0,131.817,5.925,126.035,128.065,6.868,133.842,1.233Z" transform="translate(229.254)" fill="#248aac"/>
          <path id="Path_96795" data-name="Path 96795" d="M103.669,0A72.179,72.179,0,0,0,92.933,1.738C36.463,56.842,56.326,37.457,6.328,86.247l-.007.017C4.086,91.169,2,96.147,0,101.176.47,100.717,38.877,63.235,103.669,0Z" transform="translate(240.426 0.032)" fill="#248aac"/>
          <path id="Path_96796" data-name="Path 96796" d="M57.713,0A114.159,114.159,0,0,0,26.469,21.991,164.174,164.174,0,0,0,0,56.326C30.2,26.859,17.431,39.323,57.713,0Z" transform="translate(258.056 7.942)" fill="#248aac"/>
        </g>
      </g>
      <g id="Group_49417" data-name="Group 49417" opacity="0.2">
        <circle id="Ellipse_1866" data-name="Ellipse 1866" cx="175.5" cy="175.5" r="175.5" transform="translate(-1053 -54)" fill="url(#linear-gradient-4)"/>
        <circle id="Ellipse_1867" data-name="Ellipse 1867" cx="253.5" cy="253.5" r="253.5" transform="translate(-1020 -468)" fill="url(#linear-gradient)"/>
        <g id="Mask_Group_48541" data-name="Mask Group 48541" transform="translate(56.547 278.547)" clip-path="url(#clip-path-3)">
          <g id="Group_49416" data-name="Group 49416" transform="translate(-1189.073 -584.971)" opacity="0.2">
            <path id="Path_96797" data-name="Path 96797" d="M1869.6,230c-.78-1.67-1.523-3.342-2.272-5.025-31.812,31.064-215.74,210.548-301.4,294.149,1.955.528,3.913,1.029,5.861,1.511Z" transform="translate(-1489.661 -62.29)" fill="url(#linear-gradient-6)"/>
            <path id="Path_96798" data-name="Path 96798" d="M1778.753,399.968a260.166,260.166,0,0,0,35.261-27.2l.027-.022,6.649-6.491.123-.122c6.74-7,12.766-14.823,16.773-23.587C1830.974,349,1788.262,390.686,1778.753,399.968Z" transform="translate(-1366.19 5.919)" fill="url(#linear-gradient-7)"/>
            <path id="Path_96799" data-name="Path 96799" d="M1754.444,428.98q7.675-3.572,15.095-7.5l.011,0c37.854-36.947,18.864-18.414,86.379-84.306a2.333,2.333,0,0,0,.054-.264,57.122,57.122,0,0,0,.877-7.868C1783.9,400.226,1806.632,378.046,1754.444,428.98Z" transform="translate(-1380.293 -1.921)" fill="url(#linear-gradient-8)"/>
            <path id="Path_96800" data-name="Path 96800" d="M1867.118,325.75l0-.009a40.411,40.411,0,0,0-1.31-5.938c-80.327,78.382-52.494,51.221-129.832,126.7q6.2-2.28,12.294-4.761l.009,0C1815.711,375.916,1788.527,402.446,1867.118,325.75Z" transform="translate(-1391.009 -7.277)" fill="url(#linear-gradient-9)"/>
            <path id="Path_96801" data-name="Path 96801" d="M1872.576,317.375a53.643,53.643,0,0,0-2.544-4.759c-86.117,84.044-53.653,52.359-150.109,146.509q5.466-1.647,10.886-3.407C1737.37,449.317,1866.856,322.958,1872.576,317.375Z" transform="translate(-1400.32 -11.446)" fill="url(#linear-gradient-10)"/>
            <path id="Path_96802" data-name="Path 96802" d="M1874.86,310.65c-1.007-1.386-2.067-2.751-3.178-4.121-31.93,31.158-133.714,130.477-166.387,162.364.507-.123,9.551-2.359,10.036-2.549C1716.119,465.573,1874.054,311.437,1874.86,310.65Z" transform="translate(-1408.807 -14.978)" fill="url(#linear-gradient-11)"/>
            <path id="Path_96803" data-name="Path 96803" d="M1875.393,304.79c-1.112-1.285-2.266-2.577-3.432-3.876-61.97,60.479-103.012,100.536-180.286,175.949q4.693-.924,9.381-1.928C1724.144,452.4,1695.862,480,1875.393,304.79Z" transform="translate(-1416.709 -18.235)" fill="url(#linear-gradient-12)"/>
            <path id="Path_96804" data-name="Path 96804" d="M1875.12,299.256q-1.716-1.908-3.421-3.881c-64.448,62.889-129.2,126.074-192.919,188.257,2.964-.452,5.916-.937,8.885-1.44C1841.192,332.37,1751.269,420.131,1875.12,299.256Z" transform="translate(-1424.19 -21.449)" fill="url(#linear-gradient-13)"/>
            <path id="Path_96805" data-name="Path 96805" d="M1874.617,293.7c-1.108-1.334-2.206-2.672-3.287-4.029-146.242,142.736-58.38,56.972-204.82,199.888,2.83-.327,5.654-.675,8.489-1.054l.011,0C1806.859,359.81,1799.638,366.863,1874.617,293.7Z" transform="translate(-1431.308 -24.757)" fill="url(#linear-gradient-14)"/>
            <path id="Path_96806" data-name="Path 96806" d="M1874.1,287.952q-1.6-2.043-3.187-4.118C1783.152,369.471,1760.4,391.678,1654.741,494.8c2.71-.232,5.422-.463,8.146-.725l.011,0C1756.914,402.306,1800.774,359.5,1874.1,287.952Z" transform="translate(-1438.136 -28.144)" fill="url(#linear-gradient-15)"/>
            <path id="Path_96807" data-name="Path 96807" d="M1873.535,282.071c-1.033-1.389-2.07-2.787-3.078-4.21-198.043,193.253-124.706,121.694-227.04,221.546q3.916-.18,7.863-.431C1812.841,341.306,1722.139,429.812,1873.535,282.071Z" transform="translate(-1444.706 -31.609)" fill="url(#linear-gradient-16)"/>
            <path id="Path_96808" data-name="Path 96808" d="M1872.962,276.041c-1.01-1.422-2-2.852-2.991-4.292l-160.438,156.56-77.05,75.195q3.783-.055,7.575-.172C1711.309,433.808,1714.7,430.5,1872.962,276.041Z" transform="translate(-1451.049 -35.155)" fill="url(#linear-gradient-17)"/>
            <path id="Path_96809" data-name="Path 96809" d="M1872.411,269.909c-.965-1.463-1.934-2.937-2.893-4.417L1621.9,507.136q3.667.066,7.343.066C1776.606,363.414,1669.279,468.139,1872.411,269.909Z" transform="translate(-1457.187 -38.785)" fill="url(#linear-gradient-18)"/>
            <path id="Path_96810" data-name="Path 96810" d="M1871.884,263.616l0-.011c-.942-1.5-1.869-2.988-2.78-4.5-24.666,24.069-232.765,227.135-257.429,251.216q3.527.173,7.1.292Z" transform="translate(-1463.124 -42.489)" fill="url(#linear-gradient-19)"/>
            <path id="Path_96811" data-name="Path 96811" d="M1871.378,257.188q-1.363-2.3-2.694-4.616L1601.791,513.05c2.394.223,4.677.414,6.833.559C1655.022,468.312,1760.4,365.491,1871.378,257.188Z" transform="translate(-1468.856 -46.281)" fill="url(#linear-gradient-20)"/>
            <path id="Path_96812" data-name="Path 96812" d="M1870.89,250.609c-.882-1.558-1.741-3.124-2.6-4.7-4.165,4.037-237.433,231.692-276,269.322,2.254.3,4.448.577,6.581.815C1662.181,454.275,1673.909,442.8,1870.89,250.609Z" transform="translate(-1474.365 -50.149)" fill="url(#linear-gradient-21)"/>
            <path id="Path_96813" data-name="Path 96813" d="M1870.4,243.882q-1.273-2.394-2.479-4.81c-.765.746-238.5,232.757-284.744,277.889,2.136.371,4.254.725,6.327,1.06C1759.016,352.578,1870.4,243.882,1870.4,243.882Z" transform="translate(-1479.655 -54.113)" fill="url(#linear-gradient-22)"/>
            <path id="Path_96814" data-name="Path 96814" d="M1869.967,237.03q-1.207-2.456-2.367-4.929c-9.19,8.972-283.322,276.5-293.217,286.157,2.037.458,4.072.882,6.088,1.288C1654.676,447.121,1846.2,260.237,1869.967,237.03Z" transform="translate(-1484.756 -58.157)" fill="url(#linear-gradient-23)"/>
            <path id="Path_96815" data-name="Path 96815" d="M1869.262,222.843c-.725-1.716-1.446-3.421-2.15-5.147-5.545,5.415-303.4,296.077-309.281,301.819,1.857.615,3.726,1.2,5.6,1.762C1697.566,390.369,1685.367,402.288,1869.262,222.843Z" transform="translate(-1494.359 -66.515)" fill="url(#linear-gradient-24)"/>
            <path id="Path_96816" data-name="Path 96816" d="M1868.945,215.486q-1.031-2.614-2.019-5.246c-57.453,56.086-236.736,231.025-316.779,309.143,1.749.717,3.524,1.4,5.3,2.059C1598.892,479.044,1824.073,259.294,1868.945,215.486Z" transform="translate(-1498.817 -70.84)" fill="url(#linear-gradient-25)"/>
            <path id="Path_96817" data-name="Path 96817" d="M1868.654,207.986q-.979-2.671-1.907-5.363c-8.667,8.462-303.164,295.861-323.823,316.02,1.621.817,3.284,1.618,4.97,2.384C1635.3,435.7,1850.046,226.142,1868.654,207.986Z" transform="translate(-1503.008 -75.259)" fill="url(#linear-gradient-26)"/>
            <path id="Path_96818" data-name="Path 96818" d="M1868.323,200.315q-.912-2.733-1.774-5.488C1708.593,348.971,1672.158,384.5,1536.233,517.18c1.487.942,3.007,1.871,4.57,2.759Z" transform="translate(-1506.889 -79.782)" fill="url(#linear-gradient-27)"/>
            <path id="Path_96819" data-name="Path 96819" d="M1867.918,192.471c-.56-1.877-1.1-3.75-1.631-5.641-108.908,106.278-1.925,1.9-336.1,327.993,1.31,1.109,2.669,2.187,4.091,3.241C1668.73,386.873,1591.054,462.643,1867.918,192.471Z" transform="translate(-1510.396 -84.422)" fill="url(#linear-gradient-28)"/>
            <path id="Path_96820" data-name="Path 96820" d="M1867.362,184.421q-.77-2.88-1.49-5.782c-63.388,61.843-76.563,74.721-340.919,332.7,1.09,1.318,2.26,2.591,3.488,3.83C1574.137,470.57,1819.932,230.7,1867.362,184.421Z" transform="translate(-1513.433 -89.174)" fill="url(#linear-gradient-29)"/>
            <path id="Path_96821" data-name="Path 96821" d="M1866.508,176.15c-.011-.032-.01-.057-.022-.088-.449-1.909-.893-3.833-1.348-5.79C1702.246,329.209,1640.475,389.514,1520.789,506.3a48.874,48.874,0,0,0,2.661,4.628C1603.716,432.616,1801.188,239.9,1866.508,176.15Z" transform="translate(-1515.849 -94.028)" fill="url(#linear-gradient-30)"/>
            <path id="Path_96822" data-name="Path 96822" d="M1864.888,167.748q-.718-2.882-1.49-5.782c-77.044,75.176-269.766,263.262-345.245,336.926a41.213,41.213,0,0,0,1.487,5.772C1573.266,452.323,1811.2,220.132,1864.888,167.748Z" transform="translate(-1517.379 -98.847)" fill="url(#linear-gradient-31)"/>
            <path id="Path_96823" data-name="Path 96823" d="M1861.7,159.481c-.551-1.858-1.122-3.707-1.726-5.543L1518.617,487.051l.005.011a38.656,38.656,0,0,0-.959,8.154C1555.133,458.651,1822.785,197.467,1861.7,159.481Z" transform="translate(-1517.663 -103.504)" fill="url(#linear-gradient-32)"/>
            <path id="Path_96824" data-name="Path 96824" d="M1826.162,151.549c-.661-1.767-1.348-3.51-2.068-5.215-23.6,23.037-201.533,196.688-222.459,217.094-.4.945-14.778,19.8-29.737,36.255C1598.1,374.113,1801.873,175.252,1826.162,151.549Z" transform="translate(-1486.199 -107.916)" fill="url(#linear-gradient-33)"/>
            <path id="Path_96825" data-name="Path 96825" d="M1560.952,331.051c-8.8,7.577-16.473,13.479-24.386,21.114a96.715,96.715,0,0,0-13.85,16.2C1559.6,332.378,1552.778,339.034,1560.952,331.051Z" transform="translate(-1514.732 -0.751)" fill="url(#linear-gradient-34)"/>
            <path id="Path_96826" data-name="Path 96826" d="M1803.365,144.117c-.8-1.628-1.646-3.222-2.533-4.766-121.026,118.118-56.977,55.6-187.369,182.854q-5.2,9-10.786,17.756C1771.82,174.909,1747.946,198.205,1803.365,144.117Z" transform="translate(-1468.342 -111.967)" fill="url(#linear-gradient-35)"/>
            <path id="Path_96827" data-name="Path 96827" d="M1789.429,137.325c-.992-1.439-2.04-2.835-3.138-4.173-112.744,110.037-101.233,98.787-163.045,159.119-2.263,4.726-4.581,9.4-6.994,14.052C1725.782,199.435,1702.238,222.4,1789.429,137.325Z" transform="translate(-1460.466 -115.563)" fill="url(#linear-gradient-36)"/>
            <path id="Path_96828" data-name="Path 96828" d="M1776.6,131.377a49.151,49.151,0,0,0-3.914-3.407c-20.16,19.67-120.511,117.589-142.222,138.788q-2.458,6.137-5.08,12.194Z" transform="translate(-1455.17 -118.57)" fill="url(#linear-gradient-37)"/>
            <path id="Path_96829" data-name="Path 96829" d="M1763.271,126.507a44.636,44.636,0,0,0-4.93-2.411c-72.64,70.887-120.661,117.744-122.307,119.349-1.285,3.7-2.579,7.4-3.933,11.075C1724.419,164.412,1694.981,193.143,1763.271,126.507Z" transform="translate(-1451.272 -120.817)" fill="url(#linear-gradient-38)"/>
            <path id="Path_96830" data-name="Path 96830" d="M1748.186,123.04a41.846,41.846,0,0,0-6.371-1.019c-56.636,55.261-34.9,34.049-100.386,97.957l-.006.016c-1.305,3.644-2.585,7.291-3.853,10.969Z" transform="translate(-1448.098 -122.021)" fill="url(#linear-gradient-39)"/>
            <path id="Path_96831" data-name="Path 96831" d="M1729.092,122.038a59.652,59.652,0,0,0-8.873,1.436c-46.672,45.542-30.255,29.52-71.576,69.844l-.006.014c-1.847,4.053-3.574,8.168-5.224,12.324C1643.8,205.277,1675.544,174.3,1729.092,122.038Z" transform="translate(-1444.708 -122.011)" fill="url(#linear-gradient-40)"/>
            <path id="Path_96832" data-name="Path 96832" d="M1700.332,126.175a94.35,94.35,0,0,0-25.823,18.175,135.682,135.682,0,0,0-21.876,28.376C1677.594,148.373,1667.04,158.674,1700.332,126.175Z" transform="translate(-1439.359 -119.611)" fill="url(#linear-gradient-41)"/>
          </g>
        </g>
      </g>
    </g>
  </g>
</svg>
