<svg xmlns="http://www.w3.org/2000/svg" width="205.492" height="51.984" viewBox="0 0 205.492 51.984">
  <g id="Group_48993" data-name="Group 48993" transform="translate(-1598 -2493.014)">
    <path id="Path_95015" data-name="Path 95015" d="M90.79,54.09H92.4V49.823h3.572V48.35H92.4V46.089h3.572V44.628H90.79Z" transform="translate(1611.916 2490.754)" fill="#636569"/>
    <path id="Path_95016" data-name="Path 95016" d="M97.04,54.09h1.612V44.628H97.04V54.09Z" transform="translate(1612.914 2490.754)" fill="#636569"/>
    <path id="Path_95017" data-name="Path 95017" d="M107.766,51.493l-5.961-6.865H100.53V54.09h1.519V47.283l5.914,6.807h1.345V44.628h-1.542Z" transform="translate(1613.471 2490.754)" fill="#636569"/>
    <path id="Path_95018" data-name="Path 95018" d="M113.23,44.578,109.16,54.1h1.67l1.16-2.714h3.723l1.16,2.714h1.67L114.3,44.578Zm1.8,5.334h-2.4l1.16-2.795Z" transform="translate(1614.849 2490.746)" fill="#636569"/>
    <path id="Path_95019" data-name="Path 95019" d="M125.626,51.493l-5.961-6.865H118.39V54.09h1.531V47.283l5.9,6.807h1.345V44.628h-1.542Z" transform="translate(1616.323 2490.754)" fill="#636569"/>
    <path id="Path_95020" data-name="Path 95020" d="M132.761,52.7a3.479,3.479,0,0,1-2.516-.928,3.352,3.352,0,0,1-.015-4.74l.015-.015a3.474,3.474,0,0,1,2.516-.951,6.23,6.23,0,0,1,3.062.893l.22.128V45.324h-.081a8.434,8.434,0,0,0-3.27-.765,5.063,5.063,0,0,0-3.618,1.4A4.635,4.635,0,0,0,127.6,49.44a4.78,4.78,0,0,0,.638,2.424,4.708,4.708,0,0,0,1.751,1.751,5.363,5.363,0,0,0,2.679.638,6.893,6.893,0,0,0,3.4-.812h.081v-1.89l-.232.151A5.811,5.811,0,0,1,132.761,52.7Z" transform="translate(1617.793 2490.743)" fill="#636569"/>
    <path id="Path_95021" data-name="Path 95021" d="M138.312,52.606v-2.54h3.746V48.594h-3.746v-2.5H142.2V44.628h-5.5v9.451h5.613V52.606Z" transform="translate(1619.246 2490.754)" fill="#636569"/>
    <path id="Path_95022" data-name="Path 95022" d="M69.88,28.874h1.647V26H73.3a.8.8,0,0,1,.777.789v2.087H76.4v1.867H74.078v4.847c0,1.45.3,1.832,1.392,1.832a1.885,1.885,0,0,0,.707-.116v1.9a6.826,6.826,0,0,1-1.5.162,3.17,3.17,0,0,1-2.667-.974c-.406-.51-.487-.939-.487-2.528V30.741H69.88Z" transform="translate(1608.578 2487.78)" fill="#636569"/>
    <path id="Path_95023" data-name="Path 95023" d="M14.59,23.568h1.763a.776.776,0,0,1,.789.764h0v5.091A6.55,6.55,0,0,1,19.461,29c2.957,0,4.824,1.995,4.824,5.161,0,3.63-2.319,5.624-6.6,5.624a16.417,16.417,0,0,1-3.1-.313Zm2.551,14.09a8.249,8.249,0,0,0,.986.07c2.319,0,3.56-1.16,3.56-3.479,0-2.064-1.078-3.235-2.957-3.235a3.968,3.968,0,0,0-1.589.3Z" transform="translate(1599.75 2487.392)" fill="#636569"/>
    <path id="Path_95024" data-name="Path 95024" d="M31.4,23.568h1.763a.765.765,0,0,1,.789.741V39.421a19.8,19.8,0,0,1-3.989.441c-3.792,0-5.8-1.8-5.8-5.242a5.179,5.179,0,0,1,5.555-5.532,5.6,5.6,0,0,1,1.67.209Zm0,7.723a4.59,4.59,0,0,0-1.415-.162,3.026,3.026,0,0,0-3.227,2.811,3.078,3.078,0,0,0,.015.575,2.9,2.9,0,0,0,2.479,3.266,2.954,2.954,0,0,0,.64.016,5.107,5.107,0,0,0,1.508-.22Z" transform="translate(1601.276 2487.392)" fill="#636569"/>
    <path id="Path_95025" data-name="Path 95025" d="M36.846,28.488v6.158c0,1.612.533,2.145,2.169,2.145a9.635,9.635,0,0,0,1.693-.151V28.523h2.551v9.938a21.48,21.48,0,0,1-4.465.487,5.143,5.143,0,0,1-3.479-.963c-.731-.7-.986-1.542-.986-3.282V28.488h2.516" transform="translate(1602.901 2488.177)" fill="#636569"/>
    <path id="Path_95026" data-name="Path 95026" d="M43.78,23.568h1.751a.776.776,0,0,1,.8.753V39.664H43.78Z" transform="translate(1604.41 2487.392)" fill="#636569"/>
    <path id="Path_95027" data-name="Path 95027" d="M139.16,23.568h1.763a.777.777,0,0,1,.789.765V39.664H139.16Z" transform="translate(1619.639 2487.392)" fill="#636569"/>
    <path id="Path_95028" data-name="Path 95028" d="M51.5,23.568h1.925a.765.765,0,0,1,.777.753V37.229h6.3v2.435h-9Z" transform="translate(1605.643 2487.392)" fill="#636569"/>
    <path id="Path_95029" data-name="Path 95029" d="M76.82,25.288h2.574v1.9H76.82Zm0,3.711h2.551V39.436H76.82Z" transform="translate(1609.686 2487.666)" fill="#636569"/>
    <path id="Path_95030" data-name="Path 95030" d="M94.155,23.548a.788.788,0,0,1,.777.789V34.982c0,2.319-.278,6.3-4.21,8.118L89.4,40.781a5.027,5.027,0,0,0,2.134-1.937c.533-1.009.684-2.192.684-5.276V23.548Z" transform="translate(1611.694 2487.388)" fill="#636569"/>
    <path id="Path_95031" data-name="Path 95031" d="M105.69,28.526c1.879,0,5.126-.719,7.4.232a13.515,13.515,0,0,1,3.537-.51c3.769,0,4.221,1.971,4.221,3.885v6.784H118.3v-6.61c0-1.832-1.45-2.377-3.665-1.867v8.477h-2.54v-6.6c0-1.438-.87-2.482-3.827-1.867v8.466h-2.551Z" transform="translate(1614.295 2488.139)" fill="#636569"/>
    <path id="Path_95032" data-name="Path 95032" d="M10.056,25.062a1.158,1.158,0,0,0-1.16-.823H6.727C4.234,29.955,2.553,34.026.5,39.557H3.376c1.3-3.734,3.131-8.535,4.778-12.664C8.792,28.7,9.7,31.4,10.021,32.53H7.62l-.777,2.18h3.908c.406,1.16,1.16,3.479,1.612,4.847h3.05c-2.006-5.706-4.047-11.318-5.358-14.5" transform="translate(1597.5 2487.499)" fill="#636569"/>
    <path id="Path_95033" data-name="Path 95033" d="M122.511,34.252c.406,3.8,5.207,2.957,6.656,1.624v2.134a6.9,6.9,0,0,1-3.8,1.032,4.871,4.871,0,0,1-5.311-4.386,4.934,4.934,0,0,1,0-.925c0-3.293,2.006-5.462,5.068-5.462,4.639,0,4.639,4.488,4.639,5.984h-7.19m4.72-1.751c-.1-1.45-.835-2.261-2.215-2.261a2.423,2.423,0,0,0-2.5,2.261Z" transform="translate(1616.585 2488.142)" fill="#636569"/>
    <path id="Path_95034" data-name="Path 95034" d="M131.973,34.252c.406,3.8,5.2,2.957,6.656,1.624v2.134a6.972,6.972,0,0,1-3.8,1.032A4.871,4.871,0,0,1,129.5,33.73c0-3.293,2.018-5.462,5.079-5.462,4.639,0,4.639,4.488,4.639,5.984h-7.19m4.72-1.751c-.1-1.45-.835-2.261-2.215-2.261a2.423,2.423,0,0,0-2.5,2.261Z" transform="translate(1618.094 2488.142)" fill="#636569"/>
    <path id="Path_95035" data-name="Path 95035" d="M69.848,28.515V38.581c-2.238.464-9.788,1.913-9.788-4.952,0-3.375,2.169-5.381,5.566-5.381,1.832,0,2.922.267,4.221.267M67.3,30.451c-.58-.116-4.639-.951-4.639,3.177s4.128,3.317,4.639,3.119Z" transform="translate(1607.01 2488.139)" fill="#636569"/>
    <path id="Path_95036" data-name="Path 95036" d="M105.356,28.525V38.591c-2.238.464-9.776,1.913-9.776-4.952,0-3.375,2.169-5.381,5.555-5.381,1.832,0,2.922.267,4.221.267M102.8,30.45c-.568-.1-4.639-.939-4.639,3.189s4.128,3.317,4.639,3.119Z" transform="translate(1612.681 2488.141)" fill="#636569"/>
    <path id="Path_95037" data-name="Path 95037" d="M80.36,29.277h1.647c0-2.424.394-3.711,1.426-4.639a4.691,4.691,0,0,1,3.224-1.16,5.107,5.107,0,0,1,1.078.1v2.041a4.209,4.209,0,0,0-.8-.081,2.2,2.2,0,0,0-1.832.789c-.417.51-.545,1.229-.545,2.946h2.574v1.867H84.57v8.5H82.007v-8.5H80.36Z" transform="translate(1610.251 2487.377)" fill="#636569"/>
    <path id="Path_95038" data-name="Path 95038" d="M158.058,34.827a.464.464,0,0,1,.151.475.4.4,0,0,1-.394.278h-2.563a1.067,1.067,0,0,1-.661-.151,1.171,1.171,0,0,1-.383-.638l-.765-2.319a.4.4,0,0,1,.626-.464l3.989,2.888" transform="translate(1621.916 2488.727)" fill="#4c86a0"/>
    <path id="Path_95039" data-name="Path 95039" d="M156.686,27.53a.22.22,0,0,0-.162.209.258.258,0,0,0,.093.186s1.241.916,1.38,1a.363.363,0,0,0,.348,0l3-.974v5.485l-6.262-4.546a1.83,1.83,0,0,0-1.774-.313l-3.479,1.16a.626.626,0,0,0-.424.777l.007.023c.093.278,2.319,7.12,2.516,7.712a2.32,2.32,0,0,0,2.574,1.867h8.512a.233.233,0,0,0,.232-.209V38.431a.232.232,0,0,0-.232-.232H155.1c-1.021,0-1.218-.255-1.438-.951-.151-.475-1.96-6.042-1.971-6.065h0l1.624-.533a1.226,1.226,0,0,1,1.16.313l8.013,5.671a.476.476,0,0,0,.765-.406V25.408l-6.564,2.122" transform="translate(1621.271 2487.686)" fill="#4c86a0"/>
    <path id="Path_95040" data-name="Path 95040" d="M159.948,14.034a.43.43,0,0,1-.406-.29.394.394,0,0,1,.162-.452l2.111-1.508a1.044,1.044,0,0,1,.638-.267,1.155,1.155,0,0,1,.673.3l1.971,1.519a.4.4,0,0,1,.162.441.429.429,0,0,1-.394.313h-4.917" transform="translate(1622.89 2485.468)" fill="#4c86a0"/>
    <path id="Path_95041" data-name="Path 95041" d="M167.232,20.159a.219.219,0,0,0,0-.267.216.216,0,0,0-.174-.1h-1.682a.414.414,0,0,0-.313.162l-1.855,2.563-3.235-4.442h7.735a1.824,1.824,0,0,0,1.624-.789l2.134-2.934a.616.616,0,0,0-.112-.863l-.027-.019L164.762,8.7a2.317,2.317,0,0,0-3.131,0l-6.888,5.01a.267.267,0,0,0-.07.313l.858,1.16a.257.257,0,0,0,.336,0l6.4-4.639c.835-.591,1.16-.51,1.716-.081.406.3,5.137,3.746,5.16,3.746a.068.068,0,0,1,0,.07l-1.009,1.392a1.232,1.232,0,0,1-1.16.464H157.2a.485.485,0,0,0-.487.486.494.494,0,0,0,.1.3L163.2,25.7s3.978-5.485,4.059-5.578" transform="translate(1622.112 2484.921)" fill="#4c86a0"/>
    <path id="Path_95042" data-name="Path 95042" d="M151.345,23.886a.442.442,0,0,1-.406.29.4.4,0,0,1-.383-.29l-.789-2.435a1.012,1.012,0,0,1,.487-1.241l2.018-1.461a.426.426,0,0,1,.649.464c0,.162-1.519,4.639-1.519,4.639" transform="translate(1621.323 2486.61)" fill="#4c86a0"/>
    <path id="Path_95043" data-name="Path 95043" d="M159.193,20.134a.208.208,0,0,0-.244-.093.221.221,0,0,0-.151.139c0,.058-.475,1.473-.522,1.612a.408.408,0,0,0,0,.359l1.867,2.551-5.218,1.7,2.389-7.352a1.821,1.821,0,0,0-.255-1.786l-2.122-2.934a.615.615,0,0,0-.852-.172l-.029.021-6.564,4.778a2.319,2.319,0,0,0-.974,2.969c.1.336,2.632,8.118,2.632,8.118a.244.244,0,0,0,.267.162l1.392-.441a.233.233,0,0,0,.141-.3l0,0L148.5,21.932c-.3-.974-.128-1.229.464-1.658l5.161-3.746h0s.661.916,1.009,1.38a1.219,1.219,0,0,1,.081,1.264L152.2,28.449a.488.488,0,0,0,.322.609.494.494,0,0,0,.3-.006L163.148,25.7s-3.978-5.485-4.059-5.578" transform="translate(1620.781 2485.874)" fill="#4c86a0"/>
    <path id="Path_95044" data-name="Path 95044" d="M170.649,31.939a.428.428,0,0,1,.5,0,.394.394,0,0,1,.139.452l-.789,2.435a1.077,1.077,0,0,1-.359.591,1.167,1.167,0,0,1-.719.162h-2.5a.417.417,0,0,1-.244-.742c.128-.1,3.978-2.888,3.978-2.888" transform="translate(1624.007 2488.716)" fill="#4c86a0"/>
    <path id="Path_95045" data-name="Path 95045" d="M162.7,32.3a.21.21,0,0,0,.151.22.244.244,0,0,0,.209,0l1.368-.986a.422.422,0,0,0,.162-.325v-3.2l5.218,1.693-6.251,4.546a1.81,1.81,0,0,0-.847,1.589v3.63a.627.627,0,0,0,.615.638h8.141a2.32,2.32,0,0,0,2.54-1.832c.1-.336,2.632-8.118,2.632-8.118a.255.255,0,0,0-.128-.3L175.12,29.4a.232.232,0,0,0-.289.157v.006L172.383,37.1c-.325.963-.615,1.067-1.345,1.067H164.66V36.431a1.16,1.16,0,0,1,.673-1.055l7.909-5.8a.5.5,0,0,0,.092-.7.493.493,0,0,0-.242-.17l-10.321-3.34v6.888" transform="translate(1623.397 2487.679)" fill="#4c86a0"/>
    <path id="Path_95046" data-name="Path 95046" d="M171.613,19.164a.439.439,0,0,1,.151-.475.393.393,0,0,1,.475,0l2.076,1.5a1.145,1.145,0,0,1,.452.522,1.161,1.161,0,0,1-.081.742s-.719,2.215-.765,2.377a.407.407,0,0,1-.383.278.418.418,0,0,1-.417-.278l-1.508-4.639" transform="translate(1624.817 2486.6)" fill="#4c86a0"/>
    <path id="Path_95047" data-name="Path 95047" d="M169.682,27.853a.2.2,0,0,0,.255-.07.184.184,0,0,0,0-.2c0-.058-.475-1.473-.522-1.624a.369.369,0,0,0-.255-.244l-3-.986,3.224-4.43s2.215,6.83,2.389,7.352a1.8,1.8,0,0,0,1.252,1.287L176.5,30.1a.615.615,0,0,0,.79-.364l.01-.03c.093-.29,2.319-7.132,2.5-7.723a2.318,2.318,0,0,0-.963-2.98l-6.888-5a.232.232,0,0,0-.313,0l-.858,1.16a.244.244,0,0,0,.058.336l6.413,4.639c.812.6.823.916.6,1.612-.162.464-1.971,6.042-1.971,6.053h0l-1.635-.522a1.161,1.161,0,0,1-.8-.974l-3.027-9.277a.5.5,0,0,0-.87-.116l-6.425,8.79,6.552,2.122" transform="translate(1623.466 2485.855)" fill="#4c86a0"/>
    <path id="Path_95048" data-name="Path 95048" d="M174.975,12.365h-.545V9.188a5.142,5.142,0,0,1,.8-.07c.835,0,1.287.371,1.287,1.044a.964.964,0,0,1-.626.951l.939,1.252h-.661l-.858-1.16h-.359Zm0-1.577h.278c.429,0,.707-.2.707-.6s-.255-.58-.731-.58h-.255Z" transform="translate(1625.27 2485.084)" fill="#636569"/>
    <path id="Path_95049" data-name="Path 95049" d="M175.616,13.88A2.876,2.876,0,1,1,178.492,11h0A2.876,2.876,0,0,1,175.616,13.88Zm0-5.276a1.7,1.7,0,1,0,.035-.035h-.035Z" transform="translate(1625 2484.927)" fill="#636569"/>
  </g>
</svg>
