<svg xmlns="http://www.w3.org/2000/svg" width="188.531" height="55.546" viewBox="0 0 188.531 55.546">
  <g id="logo-ar" transform="translate(-217.635 -317.639)">
    <g id="Symbol" transform="translate(369.551 317.639)">
      <g id="Group_49363" data-name="Group 49363" transform="translate(0 0)">
        <path id="Path_96492" data-name="Path 96492" d="M845.323,428.729a.431.431,0,0,1,.151.479.4.4,0,0,1-.395.276H842.5a1.062,1.062,0,0,1-.674-.157,1.117,1.117,0,0,1-.376-.641s-.728-2.238-.777-2.394a.424.424,0,0,1,.137-.459.419.419,0,0,1,.5-.019c.139.1,4.01,2.916,4.01,2.916" transform="translate(-832.408 -397.949)" fill="#4f86a0"/>
        <path id="Path_96493" data-name="Path 96493" d="M829.8,398.482a.214.214,0,0,0-.165.211.232.232,0,0,0,.092.188c.047.032,1.253.914,1.384,1a.394.394,0,0,0,.356.058l3.029-.985,0,5.527s-5.86-4.262-6.3-4.579a1.836,1.836,0,0,0-1.791-.313c-.867.278-3.111,1-3.474,1.124a.614.614,0,0,0-.412.8c.092.286,2.337,7.176,2.527,7.773a2.328,2.328,0,0,0,2.545,1.862l8.578,0a.249.249,0,0,0,.242-.213v-1.467a.24.24,0,0,0-.242-.233l-7.982.006c-1.026-.01-1.219-.261-1.448-.957-.149-.477-1.974-6.091-1.98-6.109a.05.05,0,0,1,.03-.061c.028-.011,1.082-.353,1.639-.534a1.223,1.223,0,0,1,1.228.312c.342.248,7.695,5.588,7.977,5.79a.494.494,0,0,0,.777-.419c0-.485,0-10.926,0-10.926l-6.608,2.147" transform="translate(-818.913 -376.104)" fill="#4f86a0"/>
        <g id="Group_49360" data-name="Group 49360" transform="translate(9.682)">
          <path id="Path_96494" data-name="Path 96494" d="M868.819,335.78a.431.431,0,0,1-.4-.3.4.4,0,0,1,.156-.456l2.084-1.516a1.076,1.076,0,0,1,.64-.268,1.125,1.125,0,0,1,.681.3s1.9,1.383,2.035,1.482a.42.42,0,0,1-.236.761l-4.957,0" transform="translate(-862.697 -329.232)" fill="#4f86a0"/>
          <path id="Path_96495" data-name="Path 96495" d="M858.932,329.8a.213.213,0,0,0,.009-.268.235.235,0,0,0-.185-.1c-.057,0-1.553,0-1.71,0a.4.4,0,0,0-.321.163l-1.87,2.578L851.6,327.7s7.247,0,7.79,0a1.832,1.832,0,0,0,1.632-.8c.539-.736,1.927-2.643,2.15-2.952a.616.616,0,0,0-.138-.892c-.243-.176-6.107-4.433-6.613-4.8a2.328,2.328,0,0,0-3.153-.01l-6.938,5.045a.248.248,0,0,0-.07.315l.862,1.187a.239.239,0,0,0,.333.046l6.454-4.7c.836-.6,1.138-.506,1.734-.077.4.3,5.177,3.768,5.192,3.778a.049.049,0,0,1,.012.066c-.017.027-.667.921-1.011,1.4a1.225,1.225,0,0,1-1.178.47c-.421,0-9.51,0-9.855,0a.5.5,0,0,0-.383.8l6.425,8.835,4.084-5.619" transform="translate(-846.233 -317.639)" fill="#4f86a0"/>
        </g>
        <g id="Group_49361" data-name="Group 49361" transform="translate(0 6.98)">
          <path id="Path_96496" data-name="Path 96496" d="M825.321,370.98a.43.43,0,0,1-.407.292.4.4,0,0,1-.386-.289l-.8-2.451a1.085,1.085,0,0,1-.058-.691,1.139,1.139,0,0,1,.494-.556s1.9-1.383,2.038-1.478a.42.42,0,0,1,.651.46c-.052.162-1.535,4.714-1.535,4.714" transform="translate(-819.765 -360.344)" fill="#4f86a0"/>
          <path id="Path_96497" data-name="Path 96497" d="M821.495,350.906a.21.21,0,0,0-.251-.092.229.229,0,0,0-.15.146c-.018.053-.482,1.475-.528,1.625a.393.393,0,0,0,.055.357l1.873,2.576-5.254,1.711s2.241-6.89,2.406-7.408a1.835,1.835,0,0,0-.255-1.8c-.532-.739-1.917-2.65-2.143-2.957a.613.613,0,0,0-.888-.146c-.244.177-6.1,4.44-6.613,4.806a2.327,2.327,0,0,0-.983,3l2.654,8.157a.249.249,0,0,0,.278.164l1.4-.453a.241.241,0,0,0,.146-.3l-2.47-7.589c-.309-.98-.13-1.239.463-1.673.407-.291,5.182-3.76,5.2-3.771a.047.047,0,0,1,.065.008c.02.025.669.92,1.014,1.394a1.222,1.222,0,0,1,.084,1.265c-.131.4-2.937,9.045-3.042,9.375a.5.5,0,0,0,.639.611c.461-.151,10.39-3.382,10.39-3.382s-4.01-5.519-4.084-5.619" transform="translate(-808.572 -344.791)" fill="#4f86a0"/>
          <path id="Path_96498" data-name="Path 96498" d="M904.294,425.745a.431.431,0,0,1,.5.005.4.4,0,0,1,.142.459l-.8,2.452a1.071,1.071,0,0,1-.359.593,1.127,1.127,0,0,1-.727.159h-2.518a.421.421,0,0,1-.255-.756c.135-.1,4.01-2.912,4.01-2.912" transform="translate(-876.584 -404.876)" fill="#4f86a0"/>
          <path id="Path_96499" data-name="Path 96499" d="M882.843,403.28a.21.21,0,0,0,.149.223.226.226,0,0,0,.206-.03c.048-.033,1.258-.91,1.384-1a.4.4,0,0,0,.164-.323c0-.1,0-3.183,0-3.183L890,400.669s-5.864,4.255-6.3,4.577a1.833,1.833,0,0,0-.851,1.6c0,.912-.006,3.271-.005,3.652a.617.617,0,0,0,.635.641c.3,0,7.546,0,8.173,0a2.329,2.329,0,0,0,2.558-1.845c.106-.333,2.646-8.159,2.646-8.159a.249.249,0,0,0-.128-.3l-1.4-.453a.235.235,0,0,0-.3.158l-2.463,7.59c-.326.974-.624,1.079-1.357,1.082-.5,0-6.4-.006-6.422-.006a.049.049,0,0,1-.049-.045c0-.033,0-1.138,0-1.723a1.227,1.227,0,0,1,.677-1.073c.341-.248,7.693-5.591,7.972-5.8a.5.5,0,0,0-.159-.87l-10.393-3.372s0,6.823,0,6.945" transform="translate(-863.749 -383.084)" fill="#4f86a0"/>
        </g>
        <g id="Group_49362" data-name="Group 49362" transform="translate(19.586 6.825)">
          <path id="Path_96500" data-name="Path 96500" d="M923.252,366.118a.432.432,0,0,1,.159-.475.4.4,0,0,1,.481.007l2.085,1.514a1.077,1.077,0,0,1,.453.525,1.133,1.133,0,0,1-.073.74s-.727,2.238-.781,2.393a.42.42,0,0,1-.8.01l-1.529-4.714" transform="translate(-913.343 -360.069)" fill="#4f86a0"/>
          <path id="Path_96501" data-name="Path 96501" d="M891.368,358.224a.211.211,0,0,0,.258-.072.23.23,0,0,0,.036-.206c-.018-.053-.478-1.476-.529-1.625a.4.4,0,0,0-.254-.256l-3.03-.983,3.247-4.472s2.235,6.891,2.406,7.408a1.832,1.832,0,0,0,1.264,1.305c.865.285,3.107,1.017,3.471,1.132a.615.615,0,0,0,.806-.4c.092-.286,2.328-7.179,2.526-7.774a2.33,2.33,0,0,0-.966-3c-.283-.2-6.942-5.039-6.942-5.039a.25.25,0,0,0-.321.031l-.861,1.187a.237.237,0,0,0,.058.331l6.459,4.688c.825.612.833.926.609,1.626-.158.474-1.983,6.088-1.99,6.105a.048.048,0,0,1-.058.032c-.03-.007-1.081-.35-1.64-.531a1.227,1.227,0,0,1-.81-.975c-.13-.4-2.941-9.044-3.048-9.373a.5.5,0,0,0-.876-.118l-6.419,8.841s6.487,2.109,6.607,2.146" transform="translate(-884.761 -344.188)" fill="#4f86a0"/>
        </g>
      </g>
      <g id="Group_49365" data-name="Group 49365" transform="translate(30.82 0.014)">
        <g id="Group_49364" data-name="Group 49364" transform="translate(1.975 1.194)">
          <path id="Path_96502" data-name="Path 96502" d="M936.7,325.612h-.552V322.4a5.792,5.792,0,0,1,.8-.06c.845,0,1.3.374,1.3,1.051a.979.979,0,0,1-.639.953l.97,1.267h-.666l-.856-1.143H936.7Zm0-1.6h.271c.439,0,.721-.189.721-.606,0-.368-.255-.585-.742-.585-.065,0-.19.005-.25.011Z" transform="translate(-936.143 -322.341)" fill="#646569"/>
        </g>
        <path id="Path_96503" data-name="Path 96503" d="M931.358,323.489a2.9,2.9,0,1,1,2.9-2.9A2.9,2.9,0,0,1,931.358,323.489Zm0-5.313a2.416,2.416,0,1,0,2.415,2.416A2.418,2.418,0,0,0,931.358,318.176Z" transform="translate(-928.46 -317.695)" fill="#646569"/>
      </g>
    </g>
    <g id="Logotype_Arab_POS" data-name="Logotype Arab POS" transform="translate(217.635 335.674)">
      <g id="Group_49372" data-name="Group 49372" transform="translate(83.768 22.885)">
        <g id="Group_49366" data-name="Group 49366">
          <path id="Path_96504" data-name="Path 96504" d="M550.651,490.123h-2.81a4.469,4.469,0,0,1-3.317-.959,3.716,3.716,0,0,1-1.041-2.639v-4.994h1.466v4.828a2.121,2.121,0,0,0,.667,1.756,3.192,3.192,0,0,0,2,.541h1.564V476.813h2.629v1.467h-1.16v8.648h18.182v-6.407H570.3v7.873H550.651v1.729Z" transform="translate(-543.483 -476.813)" fill="#646569"/>
        </g>
        <g id="Group_49367" data-name="Group 49367" transform="translate(22.666 12.661)">
          <path id="Path_96505" data-name="Path 96505" d="M632.593,527.875a.89.89,0,0,1-.94-.9.942.942,0,0,1,1.882,0,.891.891,0,0,1-.943.9Z" transform="translate(-631.653 -526.064)" fill="#646569"/>
        </g>
        <g id="Group_49368" data-name="Group 49368" transform="translate(25.336 12.661)">
          <path id="Path_96506" data-name="Path 96506" d="M642.98,527.875a.891.891,0,0,1-.942-.9.949.949,0,0,1,1.9,0,.9.9,0,0,1-.953.9Z" transform="translate(-642.038 -526.064)" fill="#646569"/>
        </g>
        <g id="Group_49369" data-name="Group 49369" transform="translate(48.017 0.705)">
          <path id="Path_96507" data-name="Path 96507" d="M731.2,481.369a.907.907,0,1,1,.943-.914.907.907,0,0,1-.943.914Z" transform="translate(-730.265 -479.556)" fill="#646569"/>
        </g>
        <g id="Group_49370" data-name="Group 49370" transform="translate(50.687 0.705)">
          <path id="Path_96508" data-name="Path 96508" d="M741.592,481.369a.907.907,0,1,1,0-1.813.908.908,0,1,1,0,1.813Z" transform="translate(-740.649 -479.556)" fill="#646569"/>
        </g>
        <g id="Group_49371" data-name="Group 49371" transform="translate(28.461)">
          <path id="Path_96509" data-name="Path 96509" d="M657.64,491.439a5.92,5.92,0,0,1-2.181-.483l-.159-.062.458-1.418.184.08a3.933,3.933,0,0,0,1.781.414c1.171,0,1.713-.456,1.713-1.438v-.138h-.483c-2.979,0-4.759-1.453-4.759-3.888,0-2.309,2-3.984,4.759-3.984H660.9v6.407h2.448a4.352,4.352,0,0,1-.251-1.454,4.172,4.172,0,1,1,8.088,1.454h4.2v-6.407h1.465v6.407h4.273V476.813h1.467v10.115h3.522V476.813h1.469v11.581H670.2a3.894,3.894,0,0,1-2.975,1.26,4.076,4.076,0,0,1-2.968-1.26l-3.352.026c0,1.379-.567,3.019-3.264,3.019Zm9.584-8.718a2.726,2.726,0,1,0,2.754,2.74,2.67,2.67,0,0,0-2.754-2.74ZM658.5,482a2.7,2.7,0,0,0-2.835,2.5c0,1.673,1.424,2.422,2.835,2.422h.94V482Z" transform="translate(-654.194 -476.813)" fill="#646569"/>
        </g>
      </g>
      <g id="Group_49373" data-name="Group 49373" transform="translate(0 0)">
        <path id="Path_96510" data-name="Path 96510" d="M633.177,387.792H631.4v16.251h2.573V388.581a.788.788,0,0,0-.8-.789" transform="translate(-525.033 -387.792)" fill="#646569"/>
        <path id="Path_96511" data-name="Path 96511" d="M460.524,395.66h-2.6v1.92h2.6s0-1.562,0-1.92" transform="translate(-396.151 -393.637)" fill="#646569"/>
        <rect id="Rectangle_46976" data-name="Rectangle 46976" width="2.6" height="1.92" transform="translate(129.738 17.741)" fill="#646569"/>
        <path id="Path_96512" data-name="Path 96512" d="M361.1,458.723h2.6s0-1.562,0-1.92h-2.6Z" transform="translate(-324.221 -439.062)" fill="#646569"/>
        <path id="Path_96513" data-name="Path 96513" d="M266.412,458.723h2.6s0-1.562,0-1.92h-2.6Z" transform="translate(-253.873 -439.062)" fill="#646569"/>
        <path id="Path_96514" data-name="Path 96514" d="M280.252,458.723h2.6s0-1.562,0-1.92h-2.6Z" transform="translate(-264.155 -439.062)" fill="#646569"/>
        <path id="Path_96515" data-name="Path 96515" d="M489.214,458.723h2.6s0-1.562,0-1.92h-2.6Z" transform="translate(-419.397 -439.062)" fill="#646569"/>
        <path id="Path_96516" data-name="Path 96516" d="M503.057,458.723h2.6s0-1.562,0-1.92h-2.6Z" transform="translate(-429.682 -439.062)" fill="#646569"/>
        <path id="Path_96517" data-name="Path 96517" d="M691.54,417.735l0-.005c-2.147,0-3.471-1.192-3.471-3.253a3.176,3.176,0,0,1,3.493-3.342,4.006,4.006,0,0,1,2.43.738V409.66a6.4,6.4,0,0,0-2.8-.608,5.433,5.433,0,0,0-5.77,5.641,5.523,5.523,0,0,0,.821,3.042h-3.029c-1.65,0-2.189-.54-2.189-2.168v-6.222H678.45v6.222c0,1.628-.54,2.168-2.19,2.168h-3.413v-3.042a5.434,5.434,0,0,0-5.771-5.641,6.4,6.4,0,0,0-2.8.608v2.213a4.007,4.007,0,0,1,2.43-.738,3.176,3.176,0,0,1,3.494,3.342v3.258h-6.778v2.229h13.053a7.474,7.474,0,0,1,6.525,0h11.847v-2.229Z" transform="translate(-548.82 -403.587)" fill="#646569"/>
        <path id="Path_96518" data-name="Path 96518" d="M441.317,395.341a3.176,3.176,0,0,1,3.493,3.342v3.258h-5.923v-5.862a4,4,0,0,1,2.43-.738m-19.105.155v6.362c-.515.2-4.677.98-4.677-3.146,0-4.171,4.093-3.33,4.677-3.217m37.439-7.7h-1.773V401.94h-3.949V388.581a.789.789,0,0,0-.8-.789h-1.773V401.94h-3.9V398.9a5.434,5.434,0,0,0-5.771-5.641,6.389,6.389,0,0,0-2.8.608v-5.284a.789.789,0,0,0-.8-.789h-1.774V401.94h-2.343c-1.65,0-2.19-.54-2.19-2.168v-6.222H429.2v6.222c0,1.628-.54,2.168-2.189,2.168h-2.23v-8.394c-1.313,0-2.41-.265-4.26-.265-3.424,0-5.615,2.021-5.615,5.43a5.838,5.838,0,0,0,.819,3.228H412.3v-.005c-2.148,0-3.471-1.192-3.471-3.253v-5.132h-2.647V398.9c0,3.277,2.148,5.271,5.554,5.271H427.23a5.775,5.775,0,0,0,3.263-.75,5.658,5.658,0,0,0,3.135.746l26.823,0V388.581a.789.789,0,0,0-.8-.789" transform="translate(-357.711 -387.792)" fill="#646569"/>
        <path id="Path_96519" data-name="Path 96519" d="M242.14,398.712c0-4.17,4.094-3.33,4.677-3.217v3.366h-.008v1.02c0,.171,0,.332.008.488v1.489c-.516.2-4.677.98-4.677-3.146m12.915-5.455a6.391,6.391,0,0,0-2.8.608v2.213a4.006,4.006,0,0,1,2.43-.738,3.176,3.176,0,0,1,3.493,3.342v3.258h-6.606c-1.543,0-2.115-.472-2.182-1.867v-6.527c-1.313,0-2.409-.265-4.26-.265-3.391,0-5.569,1.985-5.611,5.333h-.007v1.158c0,1.628-.54,2.168-2.19,2.168h-.677c-1.65,0-2.19-.54-2.19-2.168v-6.222h-2.576v6.222c0,1.628-.54,2.168-2.19,2.168h-.81c-1.649,0-2.189-.54-2.189-2.168l0-11.191a.789.789,0,0,0-.8-.789h-1.773l-.007,17.281a10.032,10.032,0,0,1-1.708.15c-1.65,0-2.19-.539-2.19-2.168v-6.222h-2.575v6.331c0,1.752.256,2.618.994,3.312a5.241,5.241,0,0,0,3.556.976,22.019,22.019,0,0,0,4.5-.5v-3a7.882,7.882,0,0,0,1.664.2v.008h1.554a5.775,5.775,0,0,0,3.263-.75,5.491,5.491,0,0,0,2.964.742l1.538,0a5.122,5.122,0,0,0,3.423-.973,2.7,2.7,0,0,0,.2-.207c2.166,1.671,5.761,1.176,7.585.824a7.262,7.262,0,0,0,2.48.36h9.468V398.9a5.434,5.434,0,0,0-5.771-5.641" transform="translate(-217.635 -387.792)" fill="#646569"/>
      </g>
    </g>
  </g>
</svg>
