<svg xmlns="http://www.w3.org/2000/svg" xmlns:xlink="http://www.w3.org/1999/xlink" width="262" height="356" viewBox="0 0 262 356">
  <defs>
    <clipPath id="clip-path">
      <rect id="Rectangle_47276" data-name="Rectangle 47276" width="262" height="356" transform="translate(1042 325)" fill="#fff" stroke="#707070" stroke-width="1"/>
    </clipPath>
  </defs>
  <g id="password-tab-bg" transform="translate(-1042 -325)" clip-path="url(#clip-path)">
    <g id="Group_49856" data-name="Group 49856" transform="translate(774.473 31.272)">
      <g id="Group_49851" data-name="Group 49851" transform="translate(-1233.848 -95.802)">
        <g id="Group_49845" data-name="Group 49845" transform="translate(1579.439 441.417)">
          <path id="Path_97486" data-name="Path 97486" d="M1886.808,452.185l-1.8-.843,3.457-7.37,7.082,2.875.839-15.611,12.126,12.487-1.424,1.383-8.964-9.23-.745,13.859-7.917-3.215Z" transform="translate(-1885.01 -431.236)" fill="#e2eaf0"/>
        </g>
        <g id="Group_49846" data-name="Group 49846" transform="translate(1528.242 469.782)">
          <path id="Path_97487" data-name="Path 97487" d="M1493.23,399.61a5.6,5.6,0,1,1,5.6-5.6A5.607,5.607,0,0,1,1493.23,399.61Zm0-9.217a3.616,3.616,0,1,0,3.616,3.616A3.619,3.619,0,0,0,1493.23,390.393Z" transform="translate(-1487.629 -388.408)" fill="#e2eaf0"/>
        </g>
        <g id="Group_49850" data-name="Group 49850" transform="translate(1539.443 413.159)">
          <g id="Group_49847" data-name="Group 49847" transform="translate(14.309 21.496)">
            <path id="Path_97488" data-name="Path 97488" d="M1800.861,462.693a3.381,3.381,0,1,1,3.381-3.381A3.385,3.385,0,0,1,1800.861,462.693Zm0-4.777a1.4,1.4,0,1,0,1.4,1.4A1.4,1.4,0,0,0,1800.861,457.916Z" transform="translate(-1797.48 -455.931)" fill="#e2eaf0"/>
          </g>
          <g id="Group_49848" data-name="Group 49848" transform="translate(8.43 11.942)">
            <path id="Path_97489" data-name="Path 97489" d="M1782.816,435.09,1781.4,433.7a12.933,12.933,0,0,1,18.263-.258l-1.38,1.427a10.949,10.949,0,0,0-15.464.219Z" transform="translate(-1781.397 -429.797)" fill="#e2eaf0"/>
          </g>
          <g id="Group_49849" data-name="Group 49849" transform="translate(0 0)">
            <path id="Path_97490" data-name="Path 97490" d="M1759.754,405.937l-1.415-1.392a24.84,24.84,0,0,1,35.156-.248l-1.4,1.412a22.855,22.855,0,0,0-32.345.228Z" transform="translate(-1758.339 -397.131)" fill="#e2eaf0"/>
          </g>
        </g>
      </g>
      <g id="Group_49857" data-name="Group 49857" transform="translate(323.527 -620.272)">
        <path id="Path_97329" data-name="Path 97329" d="M26.568,315.859l-4.937-10.99,13.061,1.646Zm-2.208-8.97,2.659,5.918,4.374-5.032Z" transform="translate(31.591 794.343)" fill="#e2eaf0"/>
        <path id="Path_97331" data-name="Path 97331" d="M553.01,302.227a4.691,4.691,0,1,1,4.691-4.691,4.7,4.7,0,0,1-4.691,4.691m0-7.719a3.028,3.028,0,1,0,3.029,3.028,3.031,3.031,0,0,0-3.029-3.028" transform="translate(-462.566 772.69)" fill="#e2eaf0"/>
        <path id="Path_97332" data-name="Path 97332" d="M108.606,10.7A4.691,4.691,0,1,1,113.3,6a4.7,4.7,0,0,1-4.69,4.691m0-7.719A3.028,3.028,0,1,0,111.634,6a3.031,3.031,0,0,0-3.028-3.028" transform="translate(-18.161 1031.722)" fill="#e2eaf0"/>
        <path id="Path_97344" data-name="Path 97344" d="M94.936,385.5c-8.421-11.747-13.945-22.663-16.368-32.374-.1-.4-.4-1.624-.889-3.686a31.679,31.679,0,1,0,21.372,42.219Z" transform="translate(21.871 751.718)" fill="#e2eaf0"/>
        <path id="Path_97345" data-name="Path 97345" d="M285.355,217.757h-1.981V206.684a8.266,8.266,0,0,0-16.513,0v8.858H264.88v-8.858a10.245,10.245,0,0,1,20.475,0Z" transform="translate(-122.313 847.965)" fill="#e2eaf0"/>
        <path id="Path_97346" data-name="Path 97346" d="M336.047,228.94h-1.981V217.867a8.266,8.266,0,0,0-16.513,0v8.859h-1.981v-8.859a10.245,10.245,0,0,1,20.475,0Z" transform="translate(-154.512 840.862)" fill="#e2eaf0"/>
        <path id="Path_97347" data-name="Path 97347" d="M165.335,225.972l-7.93-11.867c-8.331-11.618-13.768-22.345-16.14-31.857-.2-.816-1.141-4.728-3.006-12.524l-.5-2.1c-1.039-4.34-2.47-10.329-3.467-14.511l-.223-.931.924-.254a14.338,14.338,0,0,1,15.829,5.984l1.753,2.714,3.352,8.429a36.682,36.682,0,0,0,3.71,6.71,1.964,1.964,0,0,0,2.262.8,1.93,1.93,0,0,0,1.4-1.9V90.244A10.275,10.275,0,0,1,175.52,80.151a10.53,10.53,0,0,1,8.252,10.532v44.052H181.79V90.683a8.55,8.55,0,0,0-6.645-8.587,8.294,8.294,0,0,0-9.868,8.148V174.67A3.978,3.978,0,0,1,158,176.881a38.606,38.606,0,0,1-3.912-7.09l-3.315-8.336L149.163,159a12.353,12.353,0,0,0-12.716-5.377c.978,4.1,2.275,9.528,3.236,13.542l.5,2.1c1.865,7.789,2.8,11.7,3,12.505,2.312,9.268,7.644,19.768,15.846,31.21l7.948,11.894Z" transform="translate(-39.224 922.2)" fill="#e2eaf0"/>
        <path id="Path_97348" data-name="Path 97348" d="M374.976,327.449l-1.7-1.011c10.082-17,8.859-44.3,8.845-44.571V235.321a6.766,6.766,0,0,0-6.935-6.566,7.131,7.131,0,0,0-4.914,1.943,7.428,7.428,0,0,0-1.145,1.429,6.2,6.2,0,0,0-.876,3.194v3.249h-1.981v-3.249a8.278,8.278,0,0,1,1.17-4.232,9.409,9.409,0,0,1,1.464-1.824,9.124,9.124,0,0,1,6.282-2.491,8.747,8.747,0,0,1,8.916,8.547v46.5c.055,1.092,1.268,28.111-9.121,45.631" transform="translate(-186.711 828.948)" fill="#e2eaf0"/>
        <path id="Path_97349" data-name="Path 97349" d="M214.392,512.32l-1.981-.027.153-11.371,70.043-.532v10.721h-1.981v-8.724l-66.107.5Z" transform="translate(-88.987 655.153)" fill="#e2eaf0"/>
        <path id="Path_97350" data-name="Path 97350" d="M192.994,540.18l-.475-11.313,84.973-.348v11.62h-1.981v-9.631l-80.926.331.388,9.259Z" transform="translate(-76.351 637.286)" fill="#e2eaf0"/>
        <g id="Group_49841" data-name="Group 49841" transform="translate(-235.739 100.892)">
          <path id="Path_97353" data-name="Path 97353" d="M94.1,157.555a2.375,2.375,0,0,1-2.588-1.9,94.776,94.776,0,0,1-2.293-10.728,2.019,2.019,0,0,0-.046-.3l-.114-.014a2.511,2.511,0,0,1-1.567-.7,3.552,3.552,0,0,1-.9-2.072,2.3,2.3,0,0,0-.291-.945c-.157-.209-.534-.182-1.664.009-.242.041-.5.083-.768.123-.074.01-7.684.773-10.4-3.143-2.373-3.422-.149-10.247,1.071-11.557.931-1,2.771-.9,4.248-.824.266.014.5.027.682.027,1.116,0,1.77.97,2.346,1.825.48.712.977,1.448,1.557,1.532A2.864,2.864,0,0,0,85.285,128c1.967-1.615,1.736-2.066,1.117-3.271a6.3,6.3,0,0,1-.876-3.882,10.582,10.582,0,0,1,3.631-5.071c2.446-1.956,7.323-2.226,8.85-2.164l-.084,2.1c-1.581-.067-5.669.279-7.451,1.7a9.584,9.584,0,0,0-2.867,3.724,4.258,4.258,0,0,0,.667,2.629c.92,1.793,1.383,3.363-1.653,5.856a4.614,4.614,0,0,1-3.545,1.34c-1.5-.219-2.364-1.5-3-2.436a5.394,5.394,0,0,0-.689-.9c-.2,0-.44-.015-.709-.029a7.031,7.031,0,0,0-2.609.166c-.725.809-2.509,6.56-.874,8.919,1.782,2.57,7.559,2.377,8.368,2.26.254-.037.495-.077.723-.115,1.35-.228,2.743-.461,3.693.8a4.031,4.031,0,0,1,.681,1.846,1.76,1.76,0,0,0,.324.954c.048.049.108.064.363.1.884.123,1.81.481,1.965,2.208a96.357,96.357,0,0,0,2.169,10.182,1.922,1.922,0,0,0,.245.529c.01-.008.079.005.263.006.128,0,.312,0,.57-.021a3.3,3.3,0,0,0,2.967-1.535,12.47,12.47,0,0,0,1.327-2.085,8.918,8.918,0,0,1,1.371-2.05,42.355,42.355,0,0,0,.48-7.672v-.366l6.076-7.686,1.649,1.3-5.624,7.113c-.019,7.725-.739,8.438-1.013,8.71a6.806,6.806,0,0,0-1.09,1.647,14.4,14.4,0,0,1-1.543,2.408,5.337,5.337,0,0,1-4.467,2.308c-.209.013-.406.021-.591.021" transform="translate(193.259 791.605)" fill="#e2eaf0"/>
          <path id="Path_97354" data-name="Path 97354" d="M15.735,138.259l-.921-1.89c3.472-1.691,3.448-3.652,3.42-5.923-.021-1.751-.045-3.737,1.749-5.3l.063-.051c3.087-2.287,5.93.419,6.864,1.309l.1.1c.986.175,1.067.107,2.149-.826l.686-.586a2.933,2.933,0,0,0,1.218-2.535,3.36,3.36,0,0,0-.1-1.136,6.271,6.271,0,0,1-.113-2.28,6.1,6.1,0,0,1,.64-2.09,5.1,5.1,0,0,0,.467-1.314,5.216,5.216,0,0,0-.311-3.682,3.738,3.738,0,0,0-1.967-1.6l.777-1.952a5.77,5.77,0,0,1,3.024,2.526,7.242,7.242,0,0,1,.536,5.134,7.1,7.1,0,0,1-.629,1.793,4.035,4.035,0,0,0-.452,1.449,4.209,4.209,0,0,0,.087,1.6,5.388,5.388,0,0,1,.13,1.764A4.924,4.924,0,0,1,31.2,126.7l-.668.571c-1.665,1.434-2.085,1.634-4.154,1.256a1.772,1.772,0,0,1-.918-.6c-1.285-1.227-2.678-2.214-4.129-1.167-.979.872-1.016,1.962-1,3.658.03,2.479.068,5.563-4.6,7.838" transform="translate(228.57 794.734)" fill="#e2eaf0"/>
          <path id="Path_97355" data-name="Path 97355" d="M35.742,155.545a35.9,35.9,0,0,1-8.727-1.083A35.665,35.665,0,1,1,54.748,89.715l-1.124,1.776A33.572,33.572,0,1,0,68.237,128.02c.261-1.044.474-2.106.634-3.157l2.079.315c-.17,1.117-.4,2.245-.673,3.353a35.706,35.706,0,0,1-34.534,27.015" transform="translate(237.65 809.637)" fill="#e2eaf0"/>
        </g>
        <g id="Group_49840" data-name="Group 49840" transform="translate(-259.884 134.576)">
          <rect id="Rectangle_47184" data-name="Rectangle 47184" width="58.834" height="1.735" transform="translate(354.614 858.217)" fill="#e2eaf0"/>
          <rect id="Rectangle_47254" data-name="Rectangle 47254" width="58.834" height="1.735" transform="translate(330.628 858.217)" fill="#e2eaf0"/>
          <rect id="Rectangle_47185" data-name="Rectangle 47185" width="56.608" height="1.822" transform="translate(356.84 840.003)" fill="#e2eaf0"/>
          <rect id="Rectangle_47253" data-name="Rectangle 47253" width="56.608" height="1.822" transform="translate(330.628 840.003)" fill="#e2eaf0"/>
          <path id="Path_97333" data-name="Path 97333" d="M466.041,411.778v-1.916A6.568,6.568,0,0,0,472.6,403.3V364.024a6.568,6.568,0,0,0-6.562-6.559h-49.42v-1.916h49.42a8.486,8.486,0,0,1,8.478,8.475V403.3a8.486,8.486,0,0,1-8.478,8.475" transform="translate(-60.058 466.951)" fill="#e2eaf0"/>
          <path id="Path_97483" data-name="Path 97483" d="M423.15,411.778H462.52v-1.916H423.15a6.568,6.568,0,0,1-6.562-6.559V364.024a6.568,6.568,0,0,1,6.562-6.559h49.42v-1.916H423.15a8.486,8.486,0,0,0-8.478,8.475V403.3a8.486,8.486,0,0,0,8.478,8.475" transform="translate(-85.058 466.951)" fill="#e2eaf0"/>
          <text id="_" data-name="****" transform="translate(371.283 863.825)" fill="#e2eaf0" font-size="24" font-family="Arial-BoldMT, Arial" font-weight="700" letter-spacing="0.2em"><tspan x="-25.88" y="0">****</tspan></text>
        </g>
        <path id="Path_97473" data-name="Path 97473" d="M33.245,135.762,27.3,122.523l15.733,1.983Zm-2.354-10.58,2.948,6.561,4.849-5.578Z" transform="translate(16.722 1090.292)" fill="#e2eaf0"/>
        <path id="Path_97474" data-name="Path 97474" d="M344.655,209.844l-.545-14.992-11.638,11.575L328,197.2l-6.749,2.835-1.031-2.453,9.075-3.814,3.941,8.142,13.307-13.235.766,21.073Z" transform="translate(-174.902 1009.591)" fill="#e2eaf0"/>
        <g id="Group_49838" data-name="Group 49838" transform="translate(-29.134 1099.213)">
          <path id="Path_97463" data-name="Path 97463" d="M266.269,151.961a11.477,11.477,0,1,0-2.369-22.709l.452,2.15a9.281,9.281,0,1,1-7.363,9.081,9.267,9.267,0,0,1,.418-2.761l-2.1-.653a11.485,11.485,0,0,0,10.961,14.891" transform="translate(-207.287 -82.188)" fill="#e2eaf0"/>
          <path id="Path_97464" data-name="Path 97464" d="M262.553,158.425a21.656,21.656,0,1,0-12.582-39.283l1.278,1.788a19.447,19.447,0,1,1-4.9,5.067l-1.829-1.218a21.659,21.659,0,0,0,18.035,33.646" transform="translate(-203.571 -78.473)" fill="#e2eaf0"/>
          <path id="Path_97465" data-name="Path 97465" d="M325.88,125.154a3.136,3.136,0,0,0,2.176-5.4L300.471,92.407V78.853L286.718,65.1V81.867l.325.322,39.478,39.141a.953.953,0,0,1,.3.683.936.936,0,0,1-.276.675.95.95,0,0,1-1.323.012L285.643,83.461H268.882l13.753,13.753h13.759l27.293,27.058a3.15,3.15,0,0,0,2.194.882m-31.7-30.138H283.545l-9.358-9.357h10.551Zm4.1-15.253V90.228l-9.357-9.277V70.406Z" transform="translate(-268.882 -65.1)" fill="#e2eaf0"/>
          <path id="Path_97466" data-name="Path 97466" d="M275.641,115.03l1.733-1.352c-.618-.791-1.284-1.565-1.98-2.3l-1.6,1.511c.648.684,1.268,1.4,1.842,2.14m-3.882-4.094,1.444-1.658c-.76-.662-1.56-1.294-2.38-1.881l-1.279,1.787c.763.547,1.508,1.136,2.215,1.752m-34.234-3.188c.813-.478,1.654-.92,2.5-1.314l-.927-1.993c-.909.423-1.813.9-2.687,1.411Zm29.647-.094,1.1-1.9c-.872-.506-1.778-.975-2.694-1.394l-.914,2c.851.39,1.695.826,2.506,1.3m-24.533-2.285c.884-.311,1.794-.583,2.706-.809l-.527-2.133c-.98.242-1.959.535-2.91.87Zm19.405-.062.719-2.077c-.955-.33-1.936-.616-2.913-.851l-.514,2.137c.909.218,1.821.484,2.708.791m-13.929-1.291c.925-.136,1.872-.229,2.812-.276l-.111-2.195c-1.01.051-2.026.151-3.021.3Zm8.45-.027.306-2.177c-1-.14-2.014-.233-3.022-.278l-.1,2.2c.938.04,1.884.127,2.812.258" transform="translate(-193.448 -74.842)" fill="#e2eaf0"/>
          <path id="Path_97467" data-name="Path 97467" d="M269.435,170.309c.2,0,.4,0,.6-.006.742-.014,1.49-.054,2.223-.119l-.2-2.189c-.681.061-1.377.1-2.07.111-.19,0-.379.005-.569.005h-.183l-.013,2.2h.206Zm-3.234-.163.222-2.187c-.934-.095-1.873-.236-2.79-.42l-.432,2.155c.988.2,2,.35,3,.452m9.066-.374c.994-.185,1.988-.42,2.956-.7l-.61-2.112c-.9.259-1.824.478-2.748.651Zm-15.009-.815.637-2.1c-.894-.271-1.788-.59-2.659-.948l-.837,2.033c.935.385,1.9.727,2.859,1.018m20.837-.865c.936-.371,1.865-.793,2.765-1.253l-1-1.956c-.837.429-1.7.821-2.572,1.166Zm-26.444-1.443,1.029-1.943c-.829-.438-1.645-.923-2.428-1.439l-1.211,1.834c.842.555,1.72,1.076,2.61,1.548m31.839-1.324c.846-.543,1.678-1.134,2.474-1.759l-1.358-1.728c-.741.581-1.514,1.132-2.3,1.637Zm-36.9-2.013,1.379-1.711c-.728-.587-1.438-1.218-2.11-1.875l-1.537,1.571c.722.706,1.485,1.384,2.268,2.015m41.666-1.733c.73-.7,1.434-1.434,2.093-2.2l-1.662-1.439c-.613.708-1.27,1.4-1.949,2.044Zm-46-2.5,1.68-1.417c-.607-.718-1.184-1.473-1.718-2.243l-1.806,1.252c.573.827,1.193,1.637,1.844,2.407m-3.451-4.982,1.919-1.073c-.459-.819-.881-1.67-1.257-2.528l-2.013.883c.4.922.859,1.836,1.352,2.717m-2.434-5.552,2.088-.686c-.292-.889-.544-1.8-.749-2.72l-2.144.48c.221.985.492,1.969.805,2.926m-1.325-5.914,2.18-.273c-.116-.926-.188-1.873-.216-2.815l-2.2.064c.03,1.012.108,2.029.232,3.024m2.016-5.914c.062-.939.168-1.883.319-2.8l-2.169-.354c-.161.99-.276,2.005-.343,3.015Zm.906-5.566c.238-.9.525-1.81.851-2.691l-2.06-.763c-.352.947-.66,1.922-.916,2.895Zm1.958-5.287c.411-.848.867-1.683,1.353-2.48l-1.878-1.144c-.522.856-1.011,1.753-1.453,2.664Z" transform="translate(-210.454 -80.377)" fill="#e2eaf0"/>
          <path id="Path_97468" data-name="Path 97468" d="M284.384,100.282,285.8,98.6a40.787,40.787,0,0,0-26.227-9.559,40.369,40.369,0,0,0-24.914,8.5L236,99.28a38.188,38.188,0,0,1,23.569-8.04,38.588,38.588,0,0,1,24.812,9.043" transform="translate(-200.59 -71.502)" fill="#e2eaf0"/>
          <path id="Path_97469" data-name="Path 97469" d="M290.67,176.482a40.553,40.553,0,0,0,15.051-2.87l-.812-2.043a38.567,38.567,0,0,1-45.048-59.034l-1.754-1.323a40.758,40.758,0,0,0,32.562,65.269" transform="translate(-231.688 -77.43)" fill="#e2eaf0"/>
        </g>
        <path id="Path_97477" data-name="Path 97477" d="M182.464,12.854A5.637,5.637,0,1,1,188.1,7.217a5.644,5.644,0,0,1-5.637,5.637m0-9.076A3.439,3.439,0,1,0,185.9,7.217a3.443,3.443,0,0,0-3.439-3.439" transform="translate(-92.965 1175.885)" fill="#e2eaf0"/>
        <g id="Group_49842" data-name="Group 49842" transform="translate(-283.999 83.011)">
          <path id="Path_97478" data-name="Path 97478" d="M90.379,55.672l-33.857-.063V7.184H91.8l8.956,9.473V47.9H98.8V17.435l-7.843-8.3H58.477V53.658l31.9.059Z" transform="translate(310.581 1108.069)" fill="#e2eaf0"/>
          <path id="Path_97479" data-name="Path 97479" d="M117.442,19.617H107.274V8.684h1.956v8.978h8.212Z" transform="translate(292.912 1107.547)" fill="#e2eaf0"/>
          <path id="Path_97480" data-name="Path 97480" d="M74.362,28.409,70.2,24.244l1.383-1.383,2.782,2.782,4.766-4.766,1.383,1.383Z" transform="translate(305.82 1103.302)" fill="#e2eaf0"/>
          <path id="Path_97481" data-name="Path 97481" d="M74.362,46.5,70.2,42.337l1.383-1.383,2.782,2.782,4.766-4.766,1.383,1.383Z" transform="translate(305.82 1097.004)" fill="#e2eaf0"/>
          <path id="Path_97482" data-name="Path 97482" d="M74.362,64.945,70.2,60.781,71.579,59.4l2.782,2.782,4.766-4.766L80.511,58.8Z" transform="translate(305.82 1090.583)" fill="#e2eaf0"/>
          <rect id="Rectangle_47250" data-name="Rectangle 47250" width="12.713" height="1.956" transform="translate(390.29 1140.22)" fill="#e2eaf0"/>
          <rect id="Rectangle_47251" data-name="Rectangle 47251" width="12.713" height="1.956" transform="translate(390.29 1129.938)" fill="#e2eaf0"/>
          <rect id="Rectangle_47252" data-name="Rectangle 47252" width="12.56" height="1.956" transform="translate(390.289 1150.587)" fill="#e2eaf0"/>
        </g>
        <rect id="Rectangle_47277" data-name="Rectangle 47277" width="78" height="16" transform="translate(123 1171)" fill="#e2eaf0"/>
      </g>
    </g>
  </g>
</svg>
