<svg xmlns="http://www.w3.org/2000/svg" xmlns:xlink="http://www.w3.org/1999/xlink" width="262" height="356" viewBox="0 0 262 356">
  <defs>
    <clipPath id="clip-path">
      <rect id="Rectangle_47232" data-name="Rectangle 47232" width="262" height="356" transform="translate(1042 325)" fill="#fff" stroke="#707070" stroke-width="1"/>
    </clipPath>
  </defs>
  <g id="personal-tab-bg" transform="translate(-1042 -325)" clip-path="url(#clip-path)">
    <g id="Group_49834" data-name="Group 49834" transform="translate(774.473 31.272)">
      <g id="Group_49821" data-name="Group 49821" transform="translate(360.798 591.253)">
        <path id="Path_97412" data-name="Path 97412" d="M911.151,616.643a1.139,1.139,0,0,1-.164-.012,1.122,1.122,0,0,1-.86-.651l-5.286-11.765a1.121,1.121,0,0,1,1.163-1.572l13.982,1.762a1.121,1.121,0,0,1,.706,1.849l-8.7,10A1.122,1.122,0,0,1,911.151,616.643Zm-3.445-11.524,3.749,8.344,6.166-7.094Z" transform="translate(-904.743 -602.636)" fill="#e2eaf0"/>
      </g>
      <g id="Group_49822" data-name="Group 49822" transform="translate(397.276 596.728)">
        <path id="Path_97413" data-name="Path 97413" d="M571.179,421.261a1.122,1.122,0,0,1-.865-1.834l5.33-6.479a1.12,1.12,0,0,1,1.532-.19l6.325,4.664,4.668-14.908a1.121,1.121,0,0,1,2.043-.223l8.779,15.3a1.121,1.121,0,1,1-1.945,1.117l-7.5-13.074-4.371,13.962a1.122,1.122,0,0,1-1.736.567l-6.734-4.966-4.654,5.658A1.117,1.117,0,0,1,571.179,421.261Z" transform="translate(-570.058 -401.728)" fill="#e2eaf0"/>
      </g>
      <g id="Group_49829" data-name="Group 49829" transform="translate(-1093.289 -105.802)">
        <g id="Group_49823" data-name="Group 49823" transform="translate(1579.439 441.417)">
          <path id="Path_97414" data-name="Path 97414" d="M1886.808,452.185l-1.8-.843,3.457-7.37,7.082,2.875.839-15.611,12.126,12.487-1.424,1.383-8.964-9.23-.745,13.859-7.917-3.215Z" transform="translate(-1885.01 -431.236)" fill="#e2eaf0"/>
        </g>
        <g id="Group_49824" data-name="Group 49824" transform="translate(1528.242 469.782)">
          <path id="Path_97415" data-name="Path 97415" d="M1493.23,399.61a5.6,5.6,0,1,1,5.6-5.6A5.607,5.607,0,0,1,1493.23,399.61Zm0-9.217a3.616,3.616,0,1,0,3.616,3.616A3.619,3.619,0,0,0,1493.23,390.393Z" transform="translate(-1487.629 -388.408)" fill="#e2eaf0"/>
        </g>
        <g id="Group_49828" data-name="Group 49828" transform="translate(1539.443 413.159)">
          <g id="Group_49825" data-name="Group 49825" transform="translate(14.309 21.496)">
            <path id="Path_97416" data-name="Path 97416" d="M1800.861,462.693a3.381,3.381,0,1,1,3.381-3.381A3.385,3.385,0,0,1,1800.861,462.693Zm0-4.777a1.4,1.4,0,1,0,1.4,1.4A1.4,1.4,0,0,0,1800.861,457.916Z" transform="translate(-1797.48 -455.931)" fill="#e2eaf0"/>
          </g>
          <g id="Group_49826" data-name="Group 49826" transform="translate(8.43 11.942)">
            <path id="Path_97417" data-name="Path 97417" d="M1782.816,435.09,1781.4,433.7a12.933,12.933,0,0,1,18.263-.258l-1.38,1.427a10.949,10.949,0,0,0-15.464.219Z" transform="translate(-1781.397 -429.797)" fill="#e2eaf0"/>
          </g>
          <g id="Group_49827" data-name="Group 49827" transform="translate(0 0)">
            <path id="Path_97418" data-name="Path 97418" d="M1759.754,405.937l-1.415-1.392a24.84,24.84,0,0,1,35.156-.248l-1.4,1.412a22.855,22.855,0,0,0-32.345.228Z" transform="translate(-1758.339 -397.131)" fill="#e2eaf0"/>
          </g>
        </g>
      </g>
      <g id="Group_49833" data-name="Group 49833" transform="translate(288.136 -558.408)">
        <g id="Group_49830" data-name="Group 49830" transform="translate(213 914.972)">
          <rect id="Rectangle_47222" data-name="Rectangle 47222" width="2.029" height="41.326" transform="translate(23.913 1.063)" fill="#e2eaf0"/>
          <path id="Path_97420" data-name="Path 97420" d="M309.151,269.507a24.768,24.768,0,0,0,14.439-4.6l-1.177-1.654a22.706,22.706,0,0,1-7.681,3.546c3.239-3.461,8.52-11.024,8.127-23.251-.586-18.275-11.555-23.618-12.023-23.836l-.227-.107-.25.012s-.778.037-1.207.037a24.928,24.928,0,0,0,0,49.857m1.977-2.113q-.981.084-1.977.084a22.9,22.9,0,0,1,0-45.8c.3,0,.747-.016,1.032-.027,1.5.806,10.141,6.135,10.648,21.957.519,16.112-9.61,23.7-9.712,23.773Z" transform="translate(-284.223 -219.602)" fill="#e2eaf0"/>
          <path id="Path_97421" data-name="Path 97421" d="M319.33,273.343l1.2-1.639c-.1-.074-10.23-7.715-9.712-23.772a34.877,34.877,0,0,1,3.14-14.1l-1.827-.882a36.86,36.86,0,0,0-3.341,14.913c-.554,17.173,10.09,25.145,10.543,25.477" transform="translate(-297.759 -223.924)" fill="#e2eaf0"/>
          <rect id="Rectangle_47223" data-name="Rectangle 47223" width="34.521" height="2.029" transform="translate(2.18 15.797)" fill="#e2eaf0"/>
          <rect id="Rectangle_47224" data-name="Rectangle 47224" width="33.829" height="2.029" transform="translate(3.347 32.128)" fill="#e2eaf0"/>
        </g>
        <path id="Path_97422" data-name="Path 97422" d="M60.217,13.824,55.27,2.813,68.356,4.462ZM58.6,5.277,60.768,10.1,64.331,6Z" transform="translate(38.11 919.09)" fill="#e2eaf0"/>
        <path id="Path_97423" data-name="Path 97423" d="M308.015,146.177a4.628,4.628,0,1,1,4.629-4.629,4.634,4.634,0,0,1-4.629,4.629m0-7.228a2.6,2.6,0,1,0,2.6,2.6,2.6,2.6,0,0,0-2.6-2.6" transform="translate(-84.204 1007.68)" fill="#e2eaf0"/>
        <g id="Group_49831" data-name="Group 49831" transform="translate(-69.833 206)">
          <path id="Path_97435" data-name="Path 97435" d="M247.343,51.611h-2.029V10.773h45V50.221h-2.029V12.8H247.343Z" transform="translate(-23.406 916.513)" fill="#e2eaf0"/>
          <path id="Path_97436" data-name="Path 97436" d="M281.728,33.071a4.365,4.365,0,0,1-3.37-1.658c-.673-.688-1.064-1.047-1.919-1.047s-1.245.359-1.917,1.047a4.251,4.251,0,0,1-6.738,0c-.672-.688-1.063-1.047-1.917-1.047s-1.246.359-1.917,1.047a4.249,4.249,0,0,1-6.736,0c-.672-.688-1.062-1.047-1.916-1.047V28.337A4.361,4.361,0,0,1,258.664,30c.672.688,1.062,1.047,1.916,1.047s1.245-.359,1.917-1.047a4.251,4.251,0,0,1,6.738,0c.672.688,1.063,1.047,1.918,1.047S272.4,30.683,273.07,30a4.252,4.252,0,0,1,6.738,0c.673.688,1.064,1.048,1.92,1.048s1.246-.359,1.919-1.047a4.365,4.365,0,0,1,3.369-1.658v2.029c-.855,0-1.246.359-1.919,1.047a4.365,4.365,0,0,1-3.369,1.658" transform="translate(-26.638 910.828)" fill="#e2eaf0"/>
          <rect id="Rectangle_47225" data-name="Rectangle 47225" width="13.21" height="2.029" transform="translate(228.659 958.99)" fill="#e2eaf0"/>
          <rect id="Rectangle_47226" data-name="Rectangle 47226" width="13.21" height="2.029" transform="translate(228.659 951.463)" fill="#e2eaf0"/>
          <rect id="Rectangle_47227" data-name="Rectangle 47227" width="18.784" height="2.029" transform="translate(228.659 966.515)" fill="#e2eaf0"/>
          <path id="Path_97437" data-name="Path 97437" d="M301.311,87.629,282.132,53.358l8.845-4.934L310.157,82.7ZM284.9,54.139l17.2,30.731,5.3-2.957L290.2,51.183Z" transform="translate(-35.324 904.326)" fill="#e2eaf0"/>
          <path id="Path_97438" data-name="Path 97438" d="M281.968,50.6l-.874-11.129,9.516,6.257-1.115,1.7-6.054-3.981.549,7Z" transform="translate(-34.988 907.224)" fill="#e2eaf0"/>
          <rect id="Rectangle_47228" data-name="Rectangle 47228" width="8.099" height="2.029" transform="translate(263.551 985.399) rotate(-29.146)" fill="#e2eaf0"/>
          <path id="Path_97439" data-name="Path 97439" d="M240.368,27.869a3.91,3.91,0,0,1,0-7.82v2.029a1.881,1.881,0,0,0,0,3.762Z" transform="translate(-20.54 913.51)" fill="#e2eaf0"/>
          <path id="Path_97440" data-name="Path 97440" d="M240.368,60.941a3.91,3.91,0,0,1,0-7.82V55.15a1.881,1.881,0,0,0,0,3.762Z" transform="translate(-20.54 902.805)" fill="#e2eaf0"/>
          <path id="Path_97441" data-name="Path 97441" d="M240.368,44.145a3.91,3.91,0,0,1,0-7.82v2.029a1.881,1.881,0,0,0,0,3.762Z" transform="translate(-20.54 908.242)" fill="#e2eaf0"/>
          <rect id="Rectangle_47229" data-name="Rectangle 47229" width="27.198" height="2.029" transform="translate(229.859 979.021)" fill="#e2eaf0"/>
        </g>
        <g id="Group_49837" data-name="Group 49837" transform="translate(-698.727 1.124)">
          <path id="Path_97356" data-name="Path 97356" d="M1298.517,11.132a.841.841,0,0,1-.131-.01.89.89,0,0,1-.682-.516l-4.2-9.35a.891.891,0,0,1,.1-.9.9.9,0,0,1,.828-.354l11.111,1.4a.891.891,0,0,1,.561,1.469l-6.911,7.949a.891.891,0,0,1-.672.306m-2.737-9.158,2.979,6.631,4.9-5.638Z" transform="translate(-467.285 938.8)" fill="#e2eaf0"/>
          <path id="Path_97357" data-name="Path 97357" d="M1563.632,179.235a.891.891,0,0,1-.725-1.408l6.949-9.758-11.532,1.479a.891.891,0,0,1-.986-1.065l1.35-6.511-5.63-1.483a.891.891,0,1,1,.454-1.723l6.447,1.7a.891.891,0,0,1,.646,1.043l-1.268,6.115,12.315-1.579a.891.891,0,0,1,.839,1.4l-8.131,11.418a.888.888,0,0,1-.727.374" transform="translate(-641.244 832.171)" fill="#e2eaf0"/>
          <path id="Path_97358" data-name="Path 97358" d="M1057.973,336.827a5.284,5.284,0,1,1,5.284-5.284,5.29,5.29,0,0,1-5.284,5.284m0-8.785a3.5,3.5,0,1,0,3.5,3.5,3.505,3.505,0,0,0-3.5-3.5" transform="translate(-305.573 719.639)" fill="#e2eaf0"/>
          <path id="Path_97359" data-name="Path 97359" d="M1039.192,181.618l-6.247-2.265.03-5.255a16.419,16.419,0,0,1-2.075-1.891l-5.231.5-2.819-6.019,3.738-3.694a16.588,16.588,0,0,1-.125-2.8l-4.059-3.341,2.262-6.247,5.258.03a16.658,16.658,0,0,1,1.891-2.073l-.5-5.231,6.016-2.819,3.694,3.738a16.3,16.3,0,0,1,2.805-.126l3.343-4.057,6.247,2.262-.029,5.256a16.892,16.892,0,0,1,2.075,1.891l5.23-.506,2.552,5.449-1.614.756-2.019-4.31-4.879.472-.3-.343a15.033,15.033,0,0,0-2.462-2.244l-.37-.269.026-4.905-3.882-1.406-3.12,3.786-.457-.03a14.7,14.7,0,0,0-3.323.15l-.453.073-3.448-3.489-3.738,1.751.469,4.884-.344.3a14.816,14.816,0,0,0-2.243,2.457l-.269.37-4.908-.027-1.405,3.881,3.789,3.119-.031.457a14.882,14.882,0,0,0,.149,3.325l.072.451L1025,167.076l1.752,3.741,4.883-.471.3.345a14.621,14.621,0,0,0,2.457,2.238l.372.269-.029,4.908,3.882,1.408,3.119-3.788.457.032a14.824,14.824,0,0,0,3.324-.149l.451-.072,3.451,3.487,4.307-2.018.757,1.614-5.446,2.551-3.7-3.735a16.343,16.343,0,0,1-2.8.125Zm4-12.546a8.247,8.247,0,1,1,3.483-.782,8.228,8.228,0,0,1-3.483.782m-.01-14.678a6.461,6.461,0,1,0,2.2.389,6.42,6.42,0,0,0-2.2-.389" transform="translate(-285.229 844.711)" fill="#e2eaf0"/>
          <path id="Path_97360" data-name="Path 97360" d="M1272.624,208.172H1153.755a4.476,4.476,0,0,0-4.723,4.178v26.194h42.687l18.52-10.954,20.388,11.542,46.72-.118V212.35a4.476,4.476,0,0,0-4.723-4.178" transform="translate(-370.29 798.962)" fill="#e2eaf0"/>
          <rect id="Rectangle_47192" data-name="Rectangle 47192" width="6.277" height="2.377" transform="translate(884.833 1013.666)" fill="#e2eaf0"/>
          <rect id="Rectangle_47193" data-name="Rectangle 47193" width="49.345" height="2.377" transform="translate(826.809 1013.666)" fill="#e2eaf0"/>
          <path id="Path_97361" data-name="Path 97361" d="M1305.95,165.559v-9.176h-33.88v10.071h-7.106V156.331a5.5,5.5,0,0,1,5.377-5.618h39.21a5.5,5.5,0,0,1,5.377,5.618v9.228Z" transform="translate(-448.167 837.56)" fill="#e2eaf0"/>
          <path id="Path_97362" data-name="Path 97362" d="M1437.691,301.112l-9.731-.572-7.1,62.962h-19.346l6.738,8.716,22.382.418Z" transform="translate(-539.894 736.915)" fill="#e2eaf0"/>
          <path id="Path_97363" data-name="Path 97363" d="M1292.749,313.1l-21.283-12.049-.207-24.457,21.076-12.408,21.283,12.049.207,24.456ZM1273.24,300.01l19.492,11.035,19.3-11.363-.19-22.4-19.492-11.035-19.3,11.363Z" transform="translate(-452.395 761.333)" fill="#e2eaf0"/>
          <path id="Path_97364" data-name="Path 97364" d="M1319.02,328.889a8.658,8.658,0,1,1,4.379-1.2,8.664,8.664,0,0,1-4.379,1.2m-.026-15.539a6.9,6.9,0,1,0,1.736.222,6.938,6.938,0,0,0-1.736-.222" transform="translate(-478.649 729.509)" fill="#e2eaf0"/>
          <rect id="Rectangle_47194" data-name="Rectangle 47194" width="1.782" height="12.355" transform="translate(781.049 1042.924) rotate(-5.062)" fill="#e2eaf0"/>
          <path id="Path_97365" data-name="Path 97365" d="M1319.778,375.312h-23.224l-8.867-12.541H1250.88l-10.4,12.541h-5.185v-1.782h4.347l10.4-12.541h38.567l8.868,12.541h20.7l7.742-70.333,1.772.195Z" transform="translate(-428.237 735.13)" fill="#e2eaf0"/>
          <path id="Path_97366" data-name="Path 97366" d="M1265.75,231.091h-47.611v-1.782h45.828V200.856a4.028,4.028,0,0,0-4.023-4.023h-123.7a4.028,4.028,0,0,0-4.024,4.023v28.453h46.065v1.782h-47.847V200.856a5.813,5.813,0,0,1,5.806-5.806h123.7a5.812,5.812,0,0,1,5.805,5.806Z" transform="translate(-357.803 807.777)" fill="#e2eaf0"/>
          <path id="Path_97367" data-name="Path 97367" d="M1309.416,156.725h-1.782V144.072a4.732,4.732,0,0,0-4.727-4.727H1261.94a4.732,4.732,0,0,0-4.727,4.727v7.912h-1.782v-7.912a6.517,6.517,0,0,1,6.509-6.509h40.967a6.517,6.517,0,0,1,6.509,6.509Z" transform="translate(-441.763 846.393)" fill="#e2eaf0"/>
          <path id="Path_97368" data-name="Path 97368" d="M1343.852,174.711h-1.782V166.12h-21.411v-1.782h23.193Z" transform="translate(-485.578 828.408)" fill="#e2eaf0"/>
          <path id="Path_97369" data-name="Path 97369" d="M1150.916,63.276c-6.485,0-12.36-2.333-16.118-6.4a9.65,9.65,0,0,1-2.5-6.588V49.139H1146.5l4.979-6.678-4.979-6.679h-14.208V34.89a9.605,9.605,0,0,1,2.566-6.654,22.35,22.35,0,0,1,16.056-6.485c11.075,0,20.085,9.314,20.085,20.763s-9.01,20.763-20.085,20.763M1134.1,50.922a7.8,7.8,0,0,0,2.008,4.744c3.371,3.649,8.907,5.828,14.809,5.828,10.092,0,18.3-8.515,18.3-18.981s-8.211-18.98-18.3-18.98a20.545,20.545,0,0,0-14.762,5.928A7.7,7.7,0,0,0,1134.122,34H1147.4l6.308,8.461-6.308,8.461Z" transform="translate(-359.046 924.19)" fill="#e2eaf0"/>
          <path id="Path_97370" data-name="Path 97370" d="M1442.675,63.275c-11.075,0-20.086-9.314-20.086-20.763s9.01-20.763,20.086-20.763c6.485,0,12.36,2.333,16.117,6.4a9.65,9.65,0,0,1,2.5,6.588v1.147h-14.208l-4.979,6.678,4.979,6.679H1461.3v.891a9.6,9.6,0,0,1-2.566,6.654,22.348,22.348,0,0,1-16.055,6.485m0-39.744c-10.092,0-18.3,8.515-18.3,18.98s8.211,18.981,18.3,18.981a20.541,20.541,0,0,0,14.761-5.928,7.7,7.7,0,0,0,2.032-4.538h-13.274l-6.308-8.462,6.308-8.461h13.3a7.8,7.8,0,0,0-2.008-4.744c-3.371-3.649-8.907-5.828-14.808-5.828" transform="translate(-554.049 924.19)" fill="#e2eaf0"/>
          <rect id="Rectangle_47195" data-name="Rectangle 47195" width="58.957" height="1.782" transform="translate(810.95 970.258)" fill="#e2eaf0"/>
          <rect id="Rectangle_47196" data-name="Rectangle 47196" width="58.465" height="1.782" transform="translate(810.95 960.903)" fill="#e2eaf0"/>
          <rect id="Rectangle_47197" data-name="Rectangle 47197" width="16.313" height="1.782" transform="translate(890.743 1108.66)" fill="#e2eaf0"/>
          <rect id="Rectangle_47198" data-name="Rectangle 47198" width="74.982" height="1.782" transform="translate(811.825 1108.66)" fill="#e2eaf0"/>
          <rect id="Rectangle_47199" data-name="Rectangle 47199" width="31.358" height="1.782" transform="translate(787.871 1047.248)" fill="#e2eaf0"/>
          <rect id="Rectangle_47200" data-name="Rectangle 47200" width="23.478" height="1.782" transform="translate(861.355 1047.248)" fill="#e2eaf0"/>
          <path id="Path_97371" data-name="Path 97371" d="M1576.69,387.059h-9.063a.892.892,0,0,1-.891-.891V340.99a.891.891,0,0,1,1.783,0v44.286h7.28V340.494a.891.891,0,0,1,1.783,0v45.674a.892.892,0,0,1-.891.891" transform="translate(-650.879 710.675)" fill="#e2eaf0"/>
          <path id="Path_97372" data-name="Path 97372" d="M1577.582,487.32h-10.845v-8.579h10.845Zm-9.063-1.782h7.28v-5.014h-7.28Z" transform="translate(-650.88 617.21)" fill="#e2eaf0"/>
          <path id="Path_97373" data-name="Path 97373" d="M1576.691,319.715h-9.062a.891.891,0,0,1-.819-1.242l4.531-10.589a.891.891,0,0,1,1.639,0l4.531,10.589a.891.891,0,0,1-.82,1.242m-7.712-1.782h6.361l-3.18-7.433Z" transform="translate(-650.88 732.345)" fill="#e2eaf0"/>
          <path id="Path_97374" data-name="Path 97374" d="M1581.432,301.864a.891.891,0,0,1-.891-.891v-6.922a.891.891,0,0,1,1.782,0v6.922a.891.891,0,0,1-.891.891" transform="translate(-660.152 741.872)" fill="#e2eaf0"/>
          <rect id="Rectangle_47201" data-name="Rectangle 47201" width="5.898" height="1.782" transform="translate(765.047 1109.773) rotate(-38.915)" fill="#e2eaf0"/>
          <rect id="Rectangle_47202" data-name="Rectangle 47202" width="5.898" height="1.782" transform="translate(757.369 1100.256) rotate(-38.922)" fill="#e2eaf0"/>
          <path id="Path_97375" data-name="Path 97375" d="M1071.586,503.1l-14.75-18.281,6.622-5.343,14.75,18.28Zm-12.243-18.013,12.511,15.506,3.847-3.1-12.511-15.506Z" transform="translate(-308.358 616.716)" fill="#e2eaf0"/>
          <path id="Path_97376" data-name="Path 97376" d="M1040.768,524.091a3.446,3.446,0,0,1-2.69-1.283l-4.459-5.526a3.46,3.46,0,0,1,.519-4.859l9.726-8.026,1.135,1.375-9.734,8.032a1.677,1.677,0,0,0-.259,2.359l4.459,5.526a1.675,1.675,0,0,0,2.353.252l9.725-8.026,1.135,1.375-9.733,8.032a3.457,3.457,0,0,1-2.176.769" transform="translate(-292.249 599.976)" fill="#e2eaf0"/>
          <path id="Path_97377" data-name="Path 97377" d="M1117.419,419.629a28.061,28.061,0,0,1-2.979-.159,27.457,27.457,0,1,1,2.979.159m-.078-53.3a25.745,25.745,0,1,0,20.074,9.574,25.633,25.633,0,0,0-20.074-9.574m.046,46.856a21.1,21.1,0,1,1,13.238-4.674,21.086,21.086,0,0,1-13.238,4.674m-.057-40.442a19.382,19.382,0,1,0,2.092.112,19.667,19.667,0,0,0-2.092-.112" transform="translate(-330.525 693.917)" fill="#e2eaf0"/>
          <path id="Path_97378" data-name="Path 97378" d="M1155.139,432.331l-8.654-4.55-8.654,4.55,1.653-9.636-7-6.825,9.676-1.405,4.327-8.768,4.327,8.768,9.676,1.405-7,6.825Zm-8.654-6.563,6.287,3.3-1.2-7,5.086-4.957-7.029-1.021-3.143-6.369-3.143,6.369-7.029,1.021,5.086,4.957-1.2,7Z" transform="translate(-359.173 666.277)" fill="#e2eaf0"/>
          <rect id="Rectangle_47203" data-name="Rectangle 47203" width="6.438" height="1.782" transform="translate(892.22 1117.227)" fill="#e2eaf0"/>
          <rect id="Rectangle_47204" data-name="Rectangle 47204" width="84.164" height="1.782" transform="translate(799.399 1117.227)" fill="#e2eaf0"/>
        </g>
      </g>
    </g>
  </g>
</svg>
