<svg xmlns="http://www.w3.org/2000/svg" xmlns:xlink="http://www.w3.org/1999/xlink" width="262" height="356" viewBox="0 0 262 356">
  <defs>
    <clipPath id="clip-path">
      <rect id="Rectangle_47307" data-name="Rectangle 47307" width="262" height="356" fill="#fff" stroke="#707070" stroke-width="1"/>
    </clipPath>
  </defs>
  <g id="personal-tab-ar-bg" clip-path="url(#clip-path)">
    <g id="Group_49890" data-name="Group 49890" transform="translate(-10.976 13.628)">
      <g id="Group_49877" data-name="Group 49877" transform="translate(163.48 283.897)">
        <path id="Path_97520" data-name="Path 97520" d="M914.56,616.643a1.139,1.139,0,0,0,.164-.012,1.122,1.122,0,0,0,.86-.651l5.286-11.765a1.121,1.121,0,0,0-1.163-1.572l-13.982,1.762a1.121,1.121,0,0,0-.706,1.849l8.7,10A1.122,1.122,0,0,0,914.56,616.643ZM918,605.119l-3.749,8.344-6.166-7.094Z" transform="translate(-904.743 -602.636)" fill="#e2eaf0"/>
      </g>
      <g id="Group_49878" data-name="Group 49878" transform="translate(114.146 289.371)">
        <path id="Path_97521" data-name="Path 97521" d="M598.018,421.261a1.122,1.122,0,0,0,.865-1.834l-5.33-6.479a1.12,1.12,0,0,0-1.532-.19l-6.325,4.664-4.668-14.908a1.121,1.121,0,0,0-2.043-.223l-8.779,15.3a1.121,1.121,0,1,0,1.945,1.117l7.5-13.074,4.371,13.962a1.122,1.122,0,0,0,1.736.567l6.734-4.966,4.654,5.658A1.117,1.117,0,0,0,598.018,421.261Z" transform="translate(-570.058 -401.728)" fill="#e2eaf0"/>
      </g>
      <g id="Group_49885" data-name="Group 49885" transform="translate(30.849 0)">
        <g id="Group_49879" data-name="Group 49879" transform="translate(0 28.258)">
          <path id="Path_97522" data-name="Path 97522" d="M1906.717,452.185l1.8-.843-3.457-7.37-7.082,2.875-.839-15.611-12.126,12.487,1.424,1.383,8.964-9.23.745,13.859,7.917-3.215Z" transform="translate(-1885.01 -431.236)" fill="#e2eaf0"/>
        </g>
        <g id="Group_49880" data-name="Group 49880" transform="translate(63.5 56.623)">
          <path id="Path_97523" data-name="Path 97523" d="M1493.23,399.61a5.6,5.6,0,1,0-5.6-5.6A5.607,5.607,0,0,0,1493.23,399.61Zm0-9.217a3.616,3.616,0,1,1-3.616,3.616A3.619,3.619,0,0,1,1493.23,390.393Z" transform="translate(-1487.629 -388.408)" fill="#e2eaf0"/>
        </g>
        <g id="Group_49884" data-name="Group 49884" transform="translate(28.345)">
          <g id="Group_49881" data-name="Group 49881" transform="translate(14.085 21.496)">
            <path id="Path_97524" data-name="Path 97524" d="M1800.861,462.693a3.381,3.381,0,1,0-3.381-3.381A3.385,3.385,0,0,0,1800.861,462.693Zm0-4.777a1.4,1.4,0,1,1-1.4,1.4A1.4,1.4,0,0,1,1800.861,457.916Z" transform="translate(-1797.48 -455.931)" fill="#e2eaf0"/>
          </g>
          <g id="Group_49882" data-name="Group 49882" transform="translate(8.463 11.942)">
            <path id="Path_97525" data-name="Path 97525" d="M1798.241,435.09l1.419-1.388a12.933,12.933,0,0,0-18.263-.258l1.38,1.427a10.949,10.949,0,0,1,15.464.219Z" transform="translate(-1781.397 -429.797)" fill="#e2eaf0"/>
          </g>
          <g id="Group_49883" data-name="Group 49883" transform="translate(0 0)">
            <path id="Path_97526" data-name="Path 97526" d="M1792.079,405.937l1.415-1.392a24.84,24.84,0,0,0-35.156-.248l1.4,1.412a22.855,22.855,0,0,1,32.345.228Z" transform="translate(-1758.339 -397.131)" fill="#e2eaf0"/>
          </g>
        </g>
      </g>
      <g id="Group_49889" data-name="Group 49889" transform="translate(0 49.207)">
        <g id="Group_49886" data-name="Group 49886">
          <rect id="Rectangle_47286" data-name="Rectangle 47286" width="2.029" height="41.326" transform="translate(13.425 1.063)" fill="#e2eaf0"/>
          <path id="Path_97527" data-name="Path 97527" d="M298.662,269.507a24.768,24.768,0,0,1-14.439-4.6l1.177-1.654a22.706,22.706,0,0,0,7.681,3.546c-3.239-3.461-8.52-11.024-8.127-23.251.586-18.275,11.555-23.618,12.023-23.836l.227-.107.25.012s.778.037,1.207.037a24.928,24.928,0,0,1,0,49.857m-1.977-2.113q.981.084,1.977.084a22.9,22.9,0,0,0,0-45.8c-.3,0-.747-.016-1.032-.027-1.5.806-10.141,6.135-10.648,21.957-.519,16.112,9.61,23.7,9.712,23.773Z" transform="translate(-284.223 -219.602)" fill="#e2eaf0"/>
          <path id="Path_97528" data-name="Path 97528" d="M309.963,273.343l-1.2-1.639c.1-.074,10.23-7.715,9.712-23.772a34.877,34.877,0,0,0-3.14-14.1l1.827-.882a36.86,36.86,0,0,1,3.341,14.913c.554,17.173-10.09,25.145-10.543,25.477" transform="translate(-292.167 -223.924)" fill="#e2eaf0"/>
          <rect id="Rectangle_47287" data-name="Rectangle 47287" width="34.521" height="2.029" transform="translate(2.666 15.797)" fill="#e2eaf0"/>
          <rect id="Rectangle_47288" data-name="Rectangle 47288" width="33.829" height="2.029" transform="translate(2.191 32.128)" fill="#e2eaf0"/>
        </g>
        <path id="Path_97529" data-name="Path 97529" d="M63.409,13.824,68.356,2.813,55.27,4.462Zm1.616-8.546L62.858,10.1,59.295,6Z" transform="translate(90.632 4.118)" fill="#e2eaf0"/>
        <path id="Path_97530" data-name="Path 97530" d="M308.015,146.177a4.628,4.628,0,1,0-4.629-4.629,4.634,4.634,0,0,0,4.629,4.629m0-7.228a2.6,2.6,0,1,1-2.6,2.6,2.6,2.6,0,0,1,2.6-2.6" transform="translate(-279.458 92.708)" fill="#e2eaf0"/>
        <g id="Group_49887" data-name="Group 49887" transform="translate(47.367 218.314)">
          <path id="Path_97531" data-name="Path 97531" d="M288.282,51.611h2.029V10.773h-45V50.221h2.029V12.8h40.939Z" transform="translate(-237.387 -10.773)" fill="#e2eaf0"/>
          <path id="Path_97532" data-name="Path 97532" d="M260.586,33.071a4.365,4.365,0,0,0,3.37-1.658c.673-.688,1.064-1.047,1.919-1.047s1.245.359,1.917,1.047a4.251,4.251,0,0,0,6.738,0c.672-.688,1.063-1.047,1.917-1.047s1.246.359,1.917,1.047a4.249,4.249,0,0,0,6.736,0c.672-.688,1.062-1.047,1.916-1.047V28.337A4.361,4.361,0,0,0,283.649,30c-.672.688-1.062,1.047-1.916,1.047s-1.245-.359-1.917-1.047a4.251,4.251,0,0,0-6.738,0c-.672.688-1.063,1.047-1.918,1.047s-1.245-.359-1.917-1.047a4.252,4.252,0,0,0-6.738,0c-.673.688-1.064,1.048-1.92,1.048s-1.246-.359-1.919-1.047a4.365,4.365,0,0,0-3.369-1.658v2.029c.855,0,1.246.359,1.919,1.047a4.365,4.365,0,0,0,3.369,1.658" transform="translate(-240.843 -16.458)" fill="#e2eaf0"/>
          <rect id="Rectangle_47289" data-name="Rectangle 47289" width="13.21" height="2.029" transform="translate(32.963 31.704)" fill="#e2eaf0"/>
          <rect id="Rectangle_47290" data-name="Rectangle 47290" width="13.21" height="2.029" transform="translate(32.963 24.177)" fill="#e2eaf0"/>
          <rect id="Rectangle_47291" data-name="Rectangle 47291" width="18.784" height="2.029" transform="translate(27.39 39.229)" fill="#e2eaf0"/>
          <path id="Path_97533" data-name="Path 97533" d="M290.977,87.629l19.179-34.271-8.845-4.934L282.132,82.7Zm16.416-33.489L290.2,84.87l-5.3-2.957,17.2-30.731Z" transform="translate(-282.132 -22.96)" fill="#e2eaf0"/>
          <path id="Path_97534" data-name="Path 97534" d="M289.735,50.6l.874-11.129-9.516,6.257,1.115,1.7,6.054-3.981-.549,7Z" transform="translate(-261.882 -20.062)" fill="#e2eaf0"/>
          <rect id="Rectangle_47292" data-name="Rectangle 47292" width="8.099" height="2.029" transform="translate(10.293 59.885) rotate(-150.854)" fill="#e2eaf0"/>
          <path id="Path_97535" data-name="Path 97535" d="M236.458,27.869a3.91,3.91,0,0,0,0-7.82v2.029a1.881,1.881,0,0,1,0,3.762Z" transform="translate(-181.453 -13.776)" fill="#e2eaf0"/>
          <path id="Path_97536" data-name="Path 97536" d="M236.458,60.941a3.91,3.91,0,0,0,0-7.82V55.15a1.881,1.881,0,0,1,0,3.762Z" transform="translate(-181.453 -24.481)" fill="#e2eaf0"/>
          <path id="Path_97537" data-name="Path 97537" d="M236.458,44.145a3.91,3.91,0,0,0,0-7.82v2.029a1.881,1.881,0,0,1,0,3.762Z" transform="translate(-181.453 -19.044)" fill="#e2eaf0"/>
          <rect id="Rectangle_47293" data-name="Rectangle 47293" width="27.198" height="2.029" transform="translate(17.776 51.735)" fill="#e2eaf0"/>
        </g>
        <g id="Group_49888" data-name="Group 49888" transform="translate(19.684 24.953)">
          <path id="Path_97538" data-name="Path 97538" d="M1301.227,11.132a.841.841,0,0,0,.131-.01.89.89,0,0,0,.682-.516l4.2-9.35a.891.891,0,0,0-.1-.9.9.9,0,0,0-.828-.354l-11.111,1.4a.891.891,0,0,0-.561,1.469l6.911,7.949a.891.891,0,0,0,.672.306m2.737-9.158L1300.985,8.6l-4.9-5.638Z" transform="translate(-1201.048 -0.001)" fill="#e2eaf0"/>
          <path id="Path_97539" data-name="Path 97539" d="M1561.416,179.235a.891.891,0,0,0,.725-1.408l-6.949-9.758,11.532,1.479a.891.891,0,0,0,.986-1.065l-1.35-6.511,5.63-1.483a.891.891,0,1,0-.454-1.723l-6.447,1.7a.891.891,0,0,0-.646,1.043l1.268,6.115-12.315-1.579a.891.891,0,0,0-.839,1.4l8.131,11.418a.888.888,0,0,0,.727.374" transform="translate(-1552.393 -106.629)" fill="#e2eaf0"/>
          <path id="Path_97540" data-name="Path 97540" d="M1057.973,336.827a5.284,5.284,0,1,0-5.284-5.284,5.29,5.29,0,0,0,5.284,5.284m0-8.785a3.5,3.5,0,1,1-3.5,3.5,3.505,3.505,0,0,1,3.5-3.5" transform="translate(-878.962 -219.162)" fill="#e2eaf0"/>
          <path id="Path_97541" data-name="Path 97541" d="M1046.457,181.618l6.247-2.265-.03-5.255a16.419,16.419,0,0,0,2.075-1.891l5.231.5,2.819-6.019L1059.061,163a16.588,16.588,0,0,0,.125-2.8l4.059-3.341-2.262-6.247-5.258.03a16.658,16.658,0,0,0-1.891-2.073l.5-5.231-6.016-2.819-3.694,3.738a16.3,16.3,0,0,0-2.805-.126l-3.343-4.057-6.247,2.262.029,5.256a16.892,16.892,0,0,0-2.075,1.891l-5.23-.506-2.552,5.449,1.614.756,2.019-4.31,4.879.472.3-.343a15.033,15.033,0,0,1,2.462-2.244l.37-.269-.026-4.905,3.882-1.406,3.12,3.786.457-.03a14.7,14.7,0,0,1,3.323.15l.453.073,3.448-3.489,3.738,1.751-.469,4.884.344.3a14.816,14.816,0,0,1,2.243,2.457l.269.37,4.908-.027,1.405,3.881-3.789,3.119.031.457a14.882,14.882,0,0,1-.149,3.325l-.072.451,3.488,3.446-1.752,3.741-4.883-.471-.3.345a14.621,14.621,0,0,1-2.457,2.238l-.372.269.029,4.908-3.882,1.408-3.119-3.788-.457.032a14.824,14.824,0,0,1-3.324-.149l-.451-.072-3.451,3.487L1031.923,177l-.757,1.614,5.446,2.551,3.7-3.735a16.343,16.343,0,0,0,2.8.125Zm-4-12.546a8.247,8.247,0,1,0-3.483-.782,8.228,8.228,0,0,0,3.483.782m.01-14.678a6.461,6.461,0,1,1-2.2.389,6.42,6.42,0,0,1,2.2-.389" transform="translate(-869.01 -94.09)" fill="#e2eaf0"/>
          <path id="Path_97542" data-name="Path 97542" d="M1153.755,208.172h118.869a4.476,4.476,0,0,1,4.723,4.178v26.194H1234.66l-18.52-10.954-20.388,11.542-46.72-.118V212.35a4.476,4.476,0,0,1,4.723-4.178" transform="translate(-1124.677 -139.838)" fill="#e2eaf0"/>
          <rect id="Rectangle_47294" data-name="Rectangle 47294" width="6.277" height="2.377" transform="translate(40.301 74.865)" fill="#e2eaf0"/>
          <rect id="Rectangle_47295" data-name="Rectangle 47295" width="49.345" height="2.377" transform="translate(55.258 74.865)" fill="#e2eaf0"/>
          <path id="Path_97543" data-name="Path 97543" d="M1273.942,165.559v-9.176h33.88v10.071h7.106V156.331a5.5,5.5,0,0,0-5.377-5.618h-39.21a5.5,5.5,0,0,0-5.377,5.618v9.228Z" transform="translate(-1200.315 -101.24)" fill="#e2eaf0"/>
          <path id="Path_97544" data-name="Path 97544" d="M1401.516,301.112l9.731-.572,7.1,62.962h19.346l-6.738,8.716-22.382.418Z" transform="translate(-1367.902 -201.885)" fill="#e2eaf0"/>
          <path id="Path_97545" data-name="Path 97545" d="M1292.335,313.1l21.283-12.049.207-24.457-21.076-12.408-21.283,12.049-.207,24.456Zm19.509-13.093-19.492,11.035-19.3-11.363.19-22.4,19.492-11.035,19.3,11.363Z" transform="translate(-1201.278 -177.467)" fill="#e2eaf0"/>
          <path id="Path_97546" data-name="Path 97546" d="M1318.986,328.889a8.658,8.658,0,1,0-4.379-1.2,8.664,8.664,0,0,0,4.379,1.2m.026-15.539a6.9,6.9,0,1,1-1.736.222,6.938,6.938,0,0,1,1.736-.222" transform="translate(-1227.947 -209.292)" fill="#e2eaf0"/>
          <rect id="Rectangle_47296" data-name="Rectangle 47296" width="1.782" height="12.355" transform="translate(149.271 116.431) rotate(-174.938)" fill="#e2eaf0"/>
          <path id="Path_97547" data-name="Path 97547" d="M1243.212,375.312h23.224l8.867-12.541h36.807l10.4,12.541h5.185v-1.782h-4.347l-10.4-12.541h-38.567l-8.868,12.541h-20.7l-7.742-70.333-1.772.195Z" transform="translate(-1203.343 -203.67)" fill="#e2eaf0"/>
          <path id="Path_97548" data-name="Path 97548" d="M1130.443,231.091h47.611v-1.782h-45.828V200.856a4.028,4.028,0,0,1,4.023-4.023h123.7a4.028,4.028,0,0,1,4.024,4.023v28.453H1217.9v1.782h47.847V200.856a5.813,5.813,0,0,0-5.806-5.806h-123.7a5.812,5.812,0,0,0-5.805,5.806Z" transform="translate(-1106.979 -131.023)" fill="#e2eaf0"/>
          <path id="Path_97549" data-name="Path 97549" d="M1255.431,156.725h1.782V144.072a4.732,4.732,0,0,1,4.727-4.727h40.967a4.732,4.732,0,0,1,4.727,4.727v7.912h1.782v-7.912a6.517,6.517,0,0,0-6.509-6.509H1261.94a6.517,6.517,0,0,0-6.509,6.509Z" transform="translate(-1191.674 -92.407)" fill="#e2eaf0"/>
          <path id="Path_97550" data-name="Path 97550" d="M1320.658,174.711h1.782V166.12h21.411v-1.782h-23.193Z" transform="translate(-1247.521 -110.393)" fill="#e2eaf0"/>
          <path id="Path_97551" data-name="Path 97551" d="M1152.38,63.276c6.485,0,12.36-2.333,16.118-6.4a9.65,9.65,0,0,0,2.5-6.588V49.139h-14.208l-4.979-6.678,4.979-6.679H1171V34.89a9.605,9.605,0,0,0-2.566-6.654,22.35,22.35,0,0,0-16.056-6.485c-11.075,0-20.085,9.314-20.085,20.763s9.01,20.763,20.085,20.763M1169.2,50.922a7.8,7.8,0,0,1-2.008,4.744c-3.371,3.649-8.907,5.828-14.809,5.828-10.092,0-18.3-8.515-18.3-18.981s8.211-18.98,18.3-18.98a20.545,20.545,0,0,1,14.762,5.928A7.7,7.7,0,0,1,1169.173,34H1155.9l-6.308,8.461,6.308,8.461Z" transform="translate(-1012.838 -14.611)" fill="#e2eaf0"/>
          <path id="Path_97552" data-name="Path 97552" d="M1441.211,63.275c11.075,0,20.086-9.314,20.086-20.763s-9.01-20.763-20.086-20.763c-6.485,0-12.36,2.333-16.117,6.4a9.65,9.65,0,0,0-2.5,6.588v1.147H1436.8l4.979,6.678-4.979,6.679h-14.208v.891a9.6,9.6,0,0,0,2.566,6.654,22.348,22.348,0,0,0,16.055,6.485m0-39.744c10.092,0,18.3,8.515,18.3,18.98s-8.211,18.981-18.3,18.981a20.541,20.541,0,0,1-14.761-5.928,7.7,7.7,0,0,1-2.032-4.538h13.274L1444,42.564l-6.308-8.461h-13.3a7.8,7.8,0,0,1,2.008-4.744c3.371-3.649,8.907-5.828,14.808-5.828" transform="translate(-1398.425 -14.61)" fill="#e2eaf0"/>
          <rect id="Rectangle_47297" data-name="Rectangle 47297" width="58.957" height="1.782" transform="translate(61.504 31.458)" fill="#e2eaf0"/>
          <rect id="Rectangle_47298" data-name="Rectangle 47298" width="58.465" height="1.782" transform="translate(61.996 22.103)" fill="#e2eaf0"/>
          <rect id="Rectangle_47299" data-name="Rectangle 47299" width="16.313" height="1.782" transform="translate(24.355 169.86)" fill="#e2eaf0"/>
          <rect id="Rectangle_47300" data-name="Rectangle 47300" width="74.982" height="1.782" transform="translate(44.604 169.86)" fill="#e2eaf0"/>
          <rect id="Rectangle_47301" data-name="Rectangle 47301" width="31.358" height="1.782" transform="translate(112.183 108.448)" fill="#e2eaf0"/>
          <rect id="Rectangle_47302" data-name="Rectangle 47302" width="23.478" height="1.782" transform="translate(46.578 108.448)" fill="#e2eaf0"/>
          <path id="Path_97553" data-name="Path 97553" d="M1567.627,387.059h9.063a.892.892,0,0,0,.891-.891V340.99a.891.891,0,0,0-1.783,0v44.286h-7.28V340.494a.891.891,0,0,0-1.783,0v45.674a.892.892,0,0,0,.891.891" transform="translate(-1562.027 -228.125)" fill="#e2eaf0"/>
          <path id="Path_97554" data-name="Path 97554" d="M1566.737,487.32h10.845v-8.579h-10.845Zm9.063-1.782h-7.28v-5.014h7.28Z" transform="translate(-1562.029 -321.59)" fill="#e2eaf0"/>
          <path id="Path_97555" data-name="Path 97555" d="M1567.628,319.715h9.063a.891.891,0,0,0,.819-1.242l-4.531-10.589a.891.891,0,0,0-1.639,0l-4.531,10.589a.891.891,0,0,0,.82,1.242m7.712-1.782h-6.361l3.18-7.433Z" transform="translate(-1562.029 -206.456)" fill="#e2eaf0"/>
          <path id="Path_97556" data-name="Path 97556" d="M1581.432,301.864a.891.891,0,0,0,.891-.891v-6.922a.891.891,0,0,0-1.782,0v6.922a.891.891,0,0,0,.891.891" transform="translate(-1571.302 -196.928)" fill="#e2eaf0"/>
          <rect id="Rectangle_47303" data-name="Rectangle 47303" width="5.898" height="1.782" transform="matrix(-0.778, -0.628, 0.628, -0.778, 165.244, 172.36)" fill="#e2eaf0"/>
          <rect id="Rectangle_47304" data-name="Rectangle 47304" width="5.898" height="1.782" transform="translate(172.922 162.842) rotate(-141.078)" fill="#e2eaf0"/>
          <path id="Path_97557" data-name="Path 97557" d="M1063.457,503.1l14.75-18.281-6.622-5.343-14.75,18.28Zm12.243-18.013-12.511,15.506-3.847-3.1,12.511-15.506Z" transform="translate(-895.274 -322.084)" fill="#e2eaf0"/>
          <path id="Path_97558" data-name="Path 97558" d="M1044.764,524.091a3.446,3.446,0,0,0,2.69-1.283l4.459-5.526a3.46,3.46,0,0,0-.519-4.859l-9.726-8.026-1.135,1.375,9.734,8.032a1.677,1.677,0,0,1,.259,2.359l-4.459,5.526a1.675,1.675,0,0,1-2.353.252l-9.725-8.026-1.135,1.375,9.733,8.032a3.457,3.457,0,0,0,2.176.769" transform="translate(-861.872 -338.824)" fill="#e2eaf0"/>
          <path id="Path_97559" data-name="Path 97559" d="M1117.315,419.629a28.061,28.061,0,0,0,2.979-.159,27.457,27.457,0,1,0-2.979.159m.078-53.3a25.745,25.745,0,1,1-20.074,9.574,25.633,25.633,0,0,1,20.074-9.574m-.046,46.856a21.1,21.1,0,1,0-13.238-4.674,21.086,21.086,0,0,0,13.238,4.674m.057-40.442a19.382,19.382,0,1,1-2.092.112,19.667,19.667,0,0,1,2.092-.112" transform="translate(-972.798 -244.883)" fill="#e2eaf0"/>
          <path id="Path_97560" data-name="Path 97560" d="M1137.831,432.331l8.654-4.55,8.654,4.55-1.653-9.636,7-6.825-9.676-1.405-4.327-8.768-4.327,8.768-9.676,1.405,7,6.825Zm8.654-6.563-6.287,3.3,1.2-7-5.086-4.957,7.029-1.021,3.143-6.369,3.143,6.369,7.029,1.021-5.086,4.957,1.2,7Z" transform="translate(-1002.386 -272.523)" fill="#e2eaf0"/>
          <rect id="Rectangle_47305" data-name="Rectangle 47305" width="6.438" height="1.782" transform="translate(32.753 178.427)" fill="#e2eaf0"/>
          <rect id="Rectangle_47306" data-name="Rectangle 47306" width="84.164" height="1.782" transform="translate(47.848 178.427)" fill="#e2eaf0"/>
        </g>
      </g>
    </g>
  </g>
</svg>
