<svg xmlns="http://www.w3.org/2000/svg" xmlns:xlink="http://www.w3.org/1999/xlink" width="262" height="356" viewBox="0 0 262 356">
  <defs>
    <clipPath id="clip-path">
      <rect id="Rectangle_47219" data-name="Rectangle 47219" width="262" height="356" transform="translate(1042 325)" fill="#fff" stroke="#707070" stroke-width="1"/>
    </clipPath>
  </defs>
  <g id="quetsion-tab-bg" transform="translate(-1042 -325)" clip-path="url(#clip-path)">
    <g id="Group_49819" data-name="Group 49819" transform="translate(774.473 31.272)">
      <g id="Group_49794" data-name="Group 49794" transform="translate(360.798 591.253)">
        <path id="Path_97379" data-name="Path 97379" d="M911.151,616.643a1.139,1.139,0,0,1-.164-.012,1.122,1.122,0,0,1-.86-.651l-5.286-11.765a1.121,1.121,0,0,1,1.163-1.572l13.982,1.762a1.121,1.121,0,0,1,.706,1.849l-8.7,10A1.122,1.122,0,0,1,911.151,616.643Zm-3.445-11.524,3.749,8.344,6.166-7.094Z" transform="translate(-904.743 -602.636)" fill="#e2eaf0"/>
      </g>
      <g id="Group_49795" data-name="Group 49795" transform="translate(415.276 596.728)">
        <path id="Path_97380" data-name="Path 97380" d="M571.179,421.261a1.122,1.122,0,0,1-.865-1.834l5.33-6.479a1.12,1.12,0,0,1,1.532-.19l6.325,4.664,4.668-14.908a1.121,1.121,0,0,1,2.043-.223l8.779,15.3a1.121,1.121,0,1,1-1.945,1.117l-7.5-13.074-4.371,13.962a1.122,1.122,0,0,1-1.736.567l-6.734-4.966-4.654,5.658A1.117,1.117,0,0,1,571.179,421.261Z" transform="translate(-570.058 -401.728)" fill="#e2eaf0"/>
      </g>
      <g id="Group_49800" data-name="Group 49800" transform="translate(303.918 458.66)">
        <g id="Group_49796" data-name="Group 49796" transform="translate(2.912 15.165)">
          <path id="Path_97381" data-name="Path 97381" d="M846.363,824.921a1.118,1.118,0,0,1-1.023-.662l-26.042-58a1.121,1.121,0,0,1,2.046-.919l25.583,56.975,8.357-3.753L829.445,761.02a1.121,1.121,0,1,1,2.046-.918l26.3,58.567a1.12,1.12,0,0,1-.563,1.482l-10.4,4.671A1.118,1.118,0,0,1,846.363,824.921Z" transform="translate(-819.199 -759.438)" fill="#e2eaf0"/>
        </g>
        <g id="Group_49797" data-name="Group 49797" transform="translate(28.955 73.733)">
          <path id="Path_97382" data-name="Path 97382" d="M886.872,915.948a1.121,1.121,0,0,1-1.024-.662l-3.5-7.8a1.12,1.12,0,0,1,.564-1.482l10.4-4.671a1.122,1.122,0,0,1,1.482.564l3.5,7.8a1.12,1.12,0,0,1-.564,1.482l-10.4,4.671A1.113,1.113,0,0,1,886.872,915.948Zm-2.021-8.36,2.584,5.756,8.357-3.752-2.585-5.757Z" transform="translate(-882.247 -901.232)" fill="#e2eaf0"/>
        </g>
        <g id="Group_49798" data-name="Group 49798" transform="translate(2.4 5.346)">
          <path id="Path_97383" data-name="Path 97383" d="M819.337,752.4a1.122,1.122,0,0,1-1.121-1.1l-.257-14.491a1.122,1.122,0,0,1,1.882-.845l10.659,9.82a1.121,1.121,0,0,1-.3,1.848l-10.4,4.67A1.125,1.125,0,0,1,819.337,752.4Zm.91-13.011.18,10.17,7.3-3.278Z" transform="translate(-817.959 -735.668)" fill="#e2eaf0"/>
        </g>
        <g id="Group_49799" data-name="Group 49799">
          <path id="Path_97384" data-name="Path 97384" d="M816.839,732.915a1.121,1.121,0,0,1-1.024-.662l-3.568-7.945a1.121,1.121,0,0,1,2.046-.919l3.568,7.945a1.122,1.122,0,0,1-1.022,1.581Z" transform="translate(-812.148 -722.725)" fill="#e2eaf0"/>
        </g>
      </g>
      <g id="Group_49817" data-name="Group 49817" transform="translate(-1094.716 -107.396)">
        <g id="Group_49809" data-name="Group 49809" transform="translate(1348.344 485.303)">
          <path id="Path_97386" data-name="Path 97386" d="M1411.543,705.761l-6.2-13.8,16.4,2.067Zm-2.772-11.263,3.339,7.431,5.492-6.318Z" transform="translate(-1290.344 -711.963)" fill="#e2eaf0"/>
        </g>
        <g id="Group_49810" data-name="Group 49810" transform="translate(1583.085 442.871)">
          <path id="Path_97387" data-name="Path 97387" d="M1886.9,453.262l-1.89-.886,3.635-7.749,7.446,3.023.883-16.414,12.75,13.13-1.5,1.454-9.425-9.705-.783,14.571-8.324-3.38Z" transform="translate(-1885.01 -431.236)" fill="#e2eaf0"/>
        </g>
        <g id="Group_49811" data-name="Group 49811" transform="translate(1603.798 479.101)">
          <path id="Path_97388" data-name="Path 97388" d="M1937.923,691.719a5.889,5.889,0,1,1,5.89-5.889A5.9,5.9,0,0,1,1937.923,691.719Zm0-9.691a3.8,3.8,0,1,0,3.8,3.8A3.806,3.806,0,0,0,1937.923,682.027Z" transform="translate(-1932.033 -679.94)" fill="#e2eaf0"/>
        </g>
        <g id="Group_49812" data-name="Group 49812" transform="translate(1508.566 446.408)">
          <path id="Path_97389" data-name="Path 97389" d="M1493.518,400.186a5.889,5.889,0,1,1,5.889-5.889A5.9,5.9,0,0,1,1493.518,400.186Zm0-9.691a3.8,3.8,0,1,0,3.8,3.8A3.806,3.806,0,0,0,1493.518,390.5Z" transform="translate(-1487.629 -388.408)" fill="#e2eaf0"/>
        </g>
        <g id="Group_49816" data-name="Group 49816" transform="translate(1541.032 413.159)">
          <g id="Group_49813" data-name="Group 49813" transform="translate(15.045 22.602)">
            <path id="Path_97390" data-name="Path 97390" d="M1801.035,463.041a3.555,3.555,0,1,1,3.555-3.555A3.559,3.559,0,0,1,1801.035,463.041Zm0-5.022a1.468,1.468,0,1,0,1.468,1.468A1.469,1.469,0,0,0,1801.035,458.018Z" transform="translate(-1797.48 -455.931)" fill="#e2eaf0"/>
          </g>
          <g id="Group_49814" data-name="Group 49814" transform="translate(8.863 12.556)">
            <path id="Path_97391" data-name="Path 97391" d="M1782.889,435.362,1781.4,433.9a13.6,13.6,0,0,1,19.2-.271l-1.451,1.5a11.512,11.512,0,0,0-16.259.23Z" transform="translate(-1781.397 -429.797)" fill="#e2eaf0"/>
          </g>
          <g id="Group_49815" data-name="Group 49815" transform="translate(0 0)">
            <path id="Path_97392" data-name="Path 97392" d="M1759.827,406.389l-1.488-1.463a26.118,26.118,0,0,1,36.964-.261l-1.468,1.484a24.031,24.031,0,0,0-34.009.24Z" transform="translate(-1758.339 -397.131)" fill="#e2eaf0"/>
          </g>
        </g>
      </g>
      <g id="Group_49818" data-name="Group 49818" transform="translate(364.703 379.084)">
        <path id="Path_97393" data-name="Path 97393" d="M762.556,82.09H654.48a3.516,3.516,0,0,0-3.516,3.516v72.454a3.516,3.516,0,0,0,3.516,3.516h41.773l9.685,12.912,9.686-12.912h46.931a3.517,3.517,0,0,0,3.516-3.516V85.606a3.517,3.517,0,0,0-3.516-3.516m-54.038,67.827a27.494,27.494,0,1,1,27.494-27.494,27.494,27.494,0,0,1-27.494,27.494" transform="translate(-598.377 -30.234)" fill="#e2eaf0"/>
        <path id="Path_97395" data-name="Path 97395" d="M681.686,41.6l-1.9-.458,1.228-5.094.464-.19a13.913,13.913,0,0,0,2.7-1.472l.411-.287,4.3,1.511,2.3-2.838-2.374-3.886.2-.462a13.631,13.631,0,0,0,.873-2.947l.087-.5,4.107-1.966-.383-3.63-4.426-1.07-.188-.465a13.658,13.658,0,0,0-1.469-2.7l-.287-.412,1.513-4.3-2.837-2.3-3.885,2.377-.463-.2a13.693,13.693,0,0,0-2.949-.874l-.495-.087-1.964-4.106-3.632.383-1.068,4.426-.465.189a13.592,13.592,0,0,0-2.7,1.469l-.411.289-4.3-1.513-2.3,2.837,2.376,3.886-.2.463a13.755,13.755,0,0,0-.873,2.947l-.087.494L657.86,23.4l-.847-1.763,3.832-1.839a15.617,15.617,0,0,1,.711-2.4l-2.578-4.215L663.015,8.2l4.657,1.641a15.627,15.627,0,0,1,2.2-1.2l1.159-4.8L677.4,3.17l2.132,4.454a15.691,15.691,0,0,1,2.4.711l4.214-2.578,4.984,4.032-1.641,4.661a15.793,15.793,0,0,1,1.2,2.2l4.8,1.16.672,6.374-4.454,2.133a15.548,15.548,0,0,1-.71,2.4l2.576,4.216-4.033,4.983-4.659-1.64a15.986,15.986,0,0,1-2.2,1.2Zm-5.427-10.714a7.839,7.839,0,1,1,.836-.044,7.768,7.768,0,0,1-.836.044m.029-13.7a5.983,5.983,0,0,0-.628.034,5.833,5.833,0,1,0,.628-.034" transform="translate(-593.483 0.939)" fill="#e2eaf0"/>
        <path id="Path_97396" data-name="Path 97396" d="M830.958,279.171l-5.807-12.928,15.363,1.936Zm-2.6-10.552,3.128,6.962,5.145-5.919Z" transform="translate(-659.034 -94.361)" fill="#e2eaf0"/>
        <path id="Path_97397" data-name="Path 97397" d="M752.477,29.225,750.7,28.4l4.083-8.768-10.613,2.314-.035-6.915-5.062-.887.338-1.926,6.671,1.169.031,6.133,12.109-2.64Z" transform="translate(-629.06 -5.902)" fill="#e2eaf0"/>
        <path id="Path_97398" data-name="Path 97398" d="M628.68,244.168a5.517,5.517,0,1,1,5.517-5.517,5.524,5.524,0,0,1-5.517,5.517m0-9.079a3.562,3.562,0,1,0,3.562,3.562,3.566,3.566,0,0,0-3.562-3.562" transform="translate(-588.695 -82.831)" fill="#e2eaf0"/>
        <path id="Path_97399" data-name="Path 97399" d="M590.979,247.186h-1.955v-105a8.6,8.6,0,0,1,8.586-8.586h21.96v1.955H597.61a6.638,6.638,0,0,0-6.631,6.631Z" transform="translate(-576.808 -48.169)" fill="#e2eaf0"/>
        <path id="Path_97400" data-name="Path 97400" d="M864.53,247.186h-1.955v-105a6.638,6.638,0,0,0-6.632-6.631H832.68V133.6h23.263a8.6,8.6,0,0,1,8.587,8.586Z" transform="translate(-661.655 -48.169)" fill="#e2eaf0"/>
        <path id="Path_97401" data-name="Path 97401" d="M603.658,248.559H601.7V148.012a1.74,1.74,0,0,1,1.738-1.738h20.544v1.955H603.658Z" transform="translate(-581.223 -52.584)" fill="#e2eaf0"/>
        <path id="Path_97402" data-name="Path 97402" d="M856.266,247.337h-1.955V148.229H832.68v-1.955h21.847a1.741,1.741,0,0,1,1.739,1.738Z" transform="translate(-661.655 -52.584)" fill="#e2eaf0"/>
        <path id="Path_97403" data-name="Path 97403" d="M770.887,320.5H591.315a11.643,11.643,0,0,1-11.63-11.63v-2.5h91.866l.283.486a5.05,5.05,0,0,0,4.4,2.558h9.738a5.051,5.051,0,0,0,4.4-2.558l.283-.486h91.866v2.5a11.644,11.644,0,0,1-11.63,11.63M581.64,308.33v.544a9.686,9.686,0,0,0,9.675,9.675H770.887a9.686,9.686,0,0,0,9.675-9.675v-.544H691.748a7.075,7.075,0,0,1-5.778,3.044h-9.738a7.072,7.072,0,0,1-5.779-3.044Z" transform="translate(-573.556 -108.336)" fill="#e2eaf0"/>
        <path id="Path_97404" data-name="Path 97404" d="M702.63,172.462,692.456,158.9h-46.5a4.5,4.5,0,0,1-4.494-4.494V76.085a4.5,4.5,0,0,1,4.494-4.495h113.29a4.5,4.5,0,0,1,4.494,4.495V154.4a4.5,4.5,0,0,1-4.494,4.494H712.8ZM645.957,73.545a2.541,2.541,0,0,0-2.539,2.539V154.4a2.541,2.541,0,0,0,2.539,2.539h47.476l9.2,12.26,9.2-12.26h47.42a2.541,2.541,0,0,0,2.539-2.539V76.085a2.541,2.541,0,0,0-2.539-2.539Z" transform="translate(-595.068 -26.577)" fill="#e2eaf0"/>
        <rect id="Rectangle_47212" data-name="Rectangle 47212" width="11.647" height="1.955" transform="translate(143.992 152.235)" fill="#e2eaf0"/>
        <rect id="Rectangle_47213" data-name="Rectangle 47213" width="72.091" height="1.955" transform="translate(60.254 152.235)" fill="#e2eaf0"/>
        <rect id="Rectangle_47214" data-name="Rectangle 47214" width="72.091" height="1.955" transform="translate(60.254 180.563)" fill="#e2eaf0"/>
        <rect id="Rectangle_47215" data-name="Rectangle 47215" width="62.712" height="1.955" transform="translate(92.927 166.398)" fill="#e2eaf0"/>
        <rect id="Rectangle_47216" data-name="Rectangle 47216" width="21.089" height="1.955" transform="translate(60.254 166.398)" fill="#e2eaf0"/>
        <g id="Group_49820" data-name="Group 49820" transform="matrix(-0.259, -0.966, 0.966, -0.259, 5.442, 88.038)">
          <rect id="Rectangle_47217" data-name="Rectangle 47217" width="2.014" height="6.34" transform="translate(32.488 17.866) rotate(128.901)" fill="#e2eaf0"/>
          <rect id="Rectangle_47218" data-name="Rectangle 47218" width="2.014" height="6.34" transform="translate(24.234 28.095) rotate(128.898)" fill="#e2eaf0"/>
          <path id="Path_97406" data-name="Path 97406" d="M875.378,62.926l7.193,5.8L866.658,88.454l-7.194-5.8Zm4.361,6.107-4.058-3.275L862.3,82.347l4.059,3.275Z" transform="translate(-851.022 -58.376)" fill="#e2eaf0"/>
          <path id="Path_97407" data-name="Path 97407" d="M883.162,76.071a3.745,3.745,0,0,1,2.36.833l10.469,8.639L894.709,87.1l-10.462-8.633a1.748,1.748,0,0,0-2.451.27L877,84.673a1.752,1.752,0,0,0,.264,2.46l10.469,8.639-1.282,1.553-10.461-8.632a3.766,3.766,0,0,1-.557-5.285l4.793-5.94a3.756,3.756,0,0,1,2.931-1.4" transform="translate(-874.604 -76.071)" fill="#e2eaf0"/>
          <path id="Path_97408" data-name="Path 97408" d="M34.73,58.87l-.344-1.984a27.638,27.638,0,1,0-31.149-19.1l-1.924.591A29.654,29.654,0,1,1,34.73,58.87m.022-7.049-.45-1.963a20.731,20.731,0,0,0,8.369-36.337A20.734,20.734,0,0,0,11.383,39.46l-1.775.952a22.747,22.747,0,1,1,25.144,11.41" transform="translate(38.779 0.866) rotate(30)" fill="#e2eaf0"/>
          <path id="Path_97411" data-name="Path 97411" d="M34.73,58.87l-.344-1.984a27.638,27.638,0,1,0-31.149-19.1l-1.924.591A29.654,29.654,0,1,1,34.73,58.87m.022-7.049-.45-1.963a20.731,20.731,0,0,0,8.369-36.337A20.734,20.734,0,0,0,11.383,39.46l-1.775.952a22.747,22.747,0,1,1,25.144,11.41" transform="translate(38.779 0.866) rotate(30)" fill="#e2eaf0"/>
        </g>
        <path id="Path_97410" data-name="Path 97410" d="M820.79,39.744c.043-6.408,5.456-9.266,11.561-9.266s11.734,2.642,11.605,9.137c0,6.279-5.759,6.928-8.27,8.617-1.17.78-1.646,1.992-1.646,4.026v.216h-5.715v-.26c.042-5.932,2.468-7.274,4.763-8.487s4.937-1.558,4.937-4.157c0-3.334-3.074-4.114-5.759-4.114-2.771,0-5.629,1.559-5.672,4.287ZM834.6,57.715c0,4.546-6.928,4.546-6.928,0,0-4.59,6.928-4.59,6.928,0" transform="translate(-721.515 47.739)" fill="#e2eaf0"/>
      </g>
    </g>
  </g>
</svg>
