<svg xmlns="http://www.w3.org/2000/svg" xmlns:xlink="http://www.w3.org/1999/xlink" width="262" height="356" viewBox="0 0 262 356">
  <defs>
    <clipPath id="clip-path">
      <rect id="Rectangle_47285" data-name="Rectangle 47285" width="262" height="356" fill="#fff" stroke="#707070" stroke-width="1"/>
    </clipPath>
  </defs>
  <g id="quetsion-tab-ar-bg" clip-path="url(#clip-path)">
    <g id="Group_49876" data-name="Group 49876" transform="translate(-44.138 12.035)">
      <g id="Group_49858" data-name="Group 49858" transform="translate(196.643 285.49)">
        <path id="Path_97491" data-name="Path 97491" d="M914.56,616.643a1.139,1.139,0,0,0,.164-.012,1.122,1.122,0,0,0,.86-.651l5.286-11.765a1.121,1.121,0,0,0-1.163-1.572l-13.982,1.762a1.121,1.121,0,0,0-.706,1.849l8.7,10A1.122,1.122,0,0,0,914.56,616.643ZM918,605.119l-3.749,8.344-6.166-7.094Z" transform="translate(-904.743 -602.636)" fill="#e2eaf0"/>
      </g>
      <g id="Group_49859" data-name="Group 49859" transform="translate(129.308 290.965)">
        <path id="Path_97492" data-name="Path 97492" d="M598.018,421.261a1.122,1.122,0,0,0,.865-1.834l-5.33-6.479a1.12,1.12,0,0,0-1.532-.19l-6.325,4.664-4.668-14.908a1.121,1.121,0,0,0-2.043-.223l-8.779,15.3a1.121,1.121,0,1,0,1.945,1.117l7.5-13.074,4.371,13.962a1.122,1.122,0,0,0,1.736.567l6.734-4.966,4.654,5.658A1.117,1.117,0,0,0,598.018,421.261Z" transform="translate(-570.058 -401.728)" fill="#e2eaf0"/>
      </g>
      <g id="Group_49864" data-name="Group 49864" transform="translate(224.643 152.897)">
        <g id="Group_49860" data-name="Group 49860" transform="translate(3.504 15.165)">
          <path id="Path_97493" data-name="Path 97493" d="M830.723,824.921a1.118,1.118,0,0,0,1.023-.662l26.042-58a1.121,1.121,0,0,0-2.046-.919l-25.583,56.975-8.357-3.753,25.839-57.545a1.121,1.121,0,1,0-2.046-.918l-26.3,58.567a1.12,1.12,0,0,0,.563,1.482l10.4,4.671A1.118,1.118,0,0,0,830.723,824.921Z" transform="translate(-819.199 -759.438)" fill="#e2eaf0"/>
        </g>
        <g id="Group_49861" data-name="Group 49861" transform="translate(0 73.733)">
          <path id="Path_97494" data-name="Path 97494" d="M893.771,915.948a1.121,1.121,0,0,0,1.024-.662l3.5-7.8a1.12,1.12,0,0,0-.564-1.482l-10.4-4.671a1.122,1.122,0,0,0-1.482.564l-3.5,7.8a1.12,1.12,0,0,0,.564,1.482l10.4,4.671A1.113,1.113,0,0,0,893.771,915.948Zm2.021-8.36-2.584,5.756-8.357-3.752,2.585-5.757Z" transform="translate(-882.247 -901.232)" fill="#e2eaf0"/>
        </g>
        <g id="Group_49862" data-name="Group 49862" transform="translate(29.802 5.346)">
          <path id="Path_97495" data-name="Path 97495" d="M829.483,752.4a1.122,1.122,0,0,0,1.121-1.1l.257-14.491a1.122,1.122,0,0,0-1.882-.845l-10.659,9.82a1.121,1.121,0,0,0,.3,1.848l10.4,4.67A1.125,1.125,0,0,0,829.483,752.4Zm-.91-13.011-.18,10.17-7.3-3.278Z" transform="translate(-817.959 -735.668)" fill="#e2eaf0"/>
        </g>
        <g id="Group_49863" data-name="Group 49863" transform="translate(39.293)">
          <path id="Path_97496" data-name="Path 97496" d="M813.269,732.915a1.121,1.121,0,0,0,1.024-.662l3.568-7.945a1.121,1.121,0,0,0-2.046-.919l-3.568,7.945a1.122,1.122,0,0,0,1.022,1.581Z" transform="translate(-812.148 -722.725)" fill="#e2eaf0"/>
        </g>
      </g>
      <g id="Group_49873" data-name="Group 49873" transform="translate(52.804)">
        <g id="Group_49865" data-name="Group 49865" transform="translate(135.834 52.144)">
          <path id="Path_97497" data-name="Path 97497" d="M1415.544,705.761l6.2-13.8-16.4,2.067Zm2.772-11.263-3.339,7.431-5.492-6.318Z" transform="translate(-1405.344 -691.963)" fill="#e2eaf0"/>
        </g>
        <g id="Group_49866" data-name="Group 49866" transform="translate(7.78 29.712)">
          <path id="Path_97498" data-name="Path 97498" d="M1907.833,453.262l1.89-.886-3.635-7.749-7.446,3.023-.883-16.414-12.75,13.13,1.5,1.454,9.425-9.705.783,14.571,8.324-3.38Z" transform="translate(-1885.01 -431.236)" fill="#e2eaf0"/>
        </g>
        <g id="Group_49867" data-name="Group 49867" transform="translate(0 65.942)">
          <path id="Path_97499" data-name="Path 97499" d="M1937.923,691.719a5.889,5.889,0,1,0-5.89-5.889A5.9,5.9,0,0,0,1937.923,691.719Zm0-9.691a3.8,3.8,0,1,1-3.8,3.8A3.806,3.806,0,0,1,1937.923,682.027Z" transform="translate(-1932.033 -679.94)" fill="#e2eaf0"/>
        </g>
        <g id="Group_49868" data-name="Group 49868" transform="translate(95.233 33.249)">
          <path id="Path_97500" data-name="Path 97500" d="M1493.518,400.186a5.889,5.889,0,1,0-5.889-5.889A5.9,5.9,0,0,0,1493.518,400.186Zm0-9.691a3.8,3.8,0,1,1-3.8,3.8A3.806,3.806,0,0,1,1493.518,390.5Z" transform="translate(-1487.629 -388.408)" fill="#e2eaf0"/>
        </g>
        <g id="Group_49872" data-name="Group 49872" transform="translate(37.582)">
          <g id="Group_49869" data-name="Group 49869" transform="translate(14.809 22.602)">
            <path id="Path_97501" data-name="Path 97501" d="M1801.035,463.041a3.555,3.555,0,1,0-3.555-3.555A3.559,3.559,0,0,0,1801.035,463.041Zm0-5.022a1.468,1.468,0,1,1-1.468,1.468A1.469,1.469,0,0,1,1801.035,458.018Z" transform="translate(-1797.48 -455.931)" fill="#e2eaf0"/>
          </g>
          <g id="Group_49870" data-name="Group 49870" transform="translate(8.899 12.556)">
            <path id="Path_97502" data-name="Path 97502" d="M1799.107,435.362l1.492-1.459a13.6,13.6,0,0,0-19.2-.271l1.451,1.5a11.512,11.512,0,0,1,16.259.23Z" transform="translate(-1781.397 -429.797)" fill="#e2eaf0"/>
          </g>
          <g id="Group_49871" data-name="Group 49871" transform="translate(0 0)">
            <path id="Path_97503" data-name="Path 97503" d="M1793.815,406.389l1.488-1.463a26.118,26.118,0,0,0-36.964-.261l1.468,1.484a24.031,24.031,0,0,1,34.009.24Z" transform="translate(-1758.339 -397.131)" fill="#e2eaf0"/>
          </g>
        </g>
      </g>
      <g id="Group_49875" data-name="Group 49875" transform="translate(0 53.193)">
        <path id="Path_97504" data-name="Path 97504" d="M654.48,82.09H762.556a3.516,3.516,0,0,1,3.516,3.516v72.454a3.516,3.516,0,0,1-3.516,3.516H720.783L711.1,174.489l-9.686-12.912H654.48a3.517,3.517,0,0,1-3.516-3.516V85.606a3.517,3.517,0,0,1,3.516-3.516m54.038,67.827a27.494,27.494,0,1,0-27.494-27.494,27.494,27.494,0,0,0,27.494,27.494" transform="translate(-609.698 -10.106)" fill="#e2eaf0"/>
        <path id="Path_97505" data-name="Path 97505" d="M671.486,41.6l1.9-.458-1.228-5.094-.464-.19a13.913,13.913,0,0,1-2.7-1.472l-.411-.287-4.3,1.511-2.3-2.838,2.374-3.886-.2-.462a13.631,13.631,0,0,1-.873-2.947l-.087-.5L659.1,23.013l.383-3.63,4.426-1.07.188-.465a13.658,13.658,0,0,1,1.469-2.7l.287-.412-1.513-4.3,2.837-2.3,3.885,2.377.463-.2a13.693,13.693,0,0,1,2.949-.874l.495-.087,1.964-4.106,3.632.383,1.068,4.426.465.189a13.592,13.592,0,0,1,2.7,1.469l.411.289,4.3-1.513,2.3,2.837-2.376,3.886.2.463a13.755,13.755,0,0,1,.873,2.947l.087.494,4.727,2.268.847-1.763-3.832-1.839a15.617,15.617,0,0,0-.711-2.4l2.578-4.215L690.158,8.2,685.5,9.84a15.627,15.627,0,0,0-2.2-1.2l-1.159-4.8-6.377-.671-2.132,4.454a15.691,15.691,0,0,0-2.4.711l-4.214-2.578L662.04,9.789l1.641,4.661a15.793,15.793,0,0,0-1.2,2.2l-4.8,1.16-.672,6.374,4.454,2.133a15.548,15.548,0,0,0,.71,2.4L659.6,32.927l4.033,4.983,4.659-1.64a15.986,15.986,0,0,0,2.2,1.2Zm5.427-10.714a7.839,7.839,0,1,0-.836-.044,7.768,7.768,0,0,0,.836.044m-.029-13.7a5.983,5.983,0,0,1,.628.034,5.833,5.833,0,1,1-.628-.034" transform="translate(-550.727 21.067)" fill="#e2eaf0"/>
        <path id="Path_97506" data-name="Path 97506" d="M834.706,279.171l5.807-12.928-15.363,1.936Zm2.6-10.552-3.128,6.962-5.145-5.919Z" transform="translate(-797.669 -74.233)" fill="#e2eaf0"/>
        <path id="Path_97507" data-name="Path 97507" d="M744.825,29.225,746.6,28.4l-4.083-8.768,10.613,2.314.035-6.915,5.062-.887-.338-1.926-6.671,1.169-.031,6.133-12.109-2.64Z" transform="translate(-659.281 14.225)" fill="#e2eaf0"/>
        <path id="Path_97508" data-name="Path 97508" d="M628.679,244.168a5.517,5.517,0,1,0-5.517-5.517,5.524,5.524,0,0,0,5.517,5.517m0-9.079a3.562,3.562,0,1,1-3.562,3.562,3.566,3.566,0,0,1,3.562-3.562" transform="translate(-459.702 -62.703)" fill="#e2eaf0"/>
        <path id="Path_97509" data-name="Path 97509" d="M617.615,247.186h1.955v-105a8.6,8.6,0,0,0-8.586-8.586h-21.96v1.955h21.96a6.638,6.638,0,0,1,6.631,6.631Z" transform="translate(-422.825 -28.042)" fill="#e2eaf0"/>
        <path id="Path_97510" data-name="Path 97510" d="M832.68,247.186h1.955v-105a6.638,6.638,0,0,1,6.632-6.631H864.53V133.6H841.267a8.6,8.6,0,0,0-8.587,8.586Z" transform="translate(-826.593 -28.042)" fill="#e2eaf0"/>
        <path id="Path_97511" data-name="Path 97511" d="M622.03,248.559h1.955V148.012a1.74,1.74,0,0,0-1.738-1.738H601.7v1.955H622.03Z" transform="translate(-435.504 -32.456)" fill="#e2eaf0"/>
        <path id="Path_97512" data-name="Path 97512" d="M832.68,247.337h1.955V148.229h21.631v-1.955H834.419a1.741,1.741,0,0,0-1.739,1.738Z" transform="translate(-818.329 -32.456)" fill="#e2eaf0"/>
        <path id="Path_97513" data-name="Path 97513" d="M591.315,320.5H770.887a11.643,11.643,0,0,0,11.63-11.63v-2.5H690.651l-.283.486a5.05,5.05,0,0,1-4.4,2.558h-9.738a5.051,5.051,0,0,1-4.4-2.558l-.283-.486H579.685v2.5a11.644,11.644,0,0,0,11.63,11.63M780.562,308.33v.544a9.686,9.686,0,0,1-9.675,9.675H591.315a9.686,9.686,0,0,1-9.675-9.675v-.544h88.814a7.075,7.075,0,0,0,5.778,3.044h9.738a7.072,7.072,0,0,0,5.779-3.044Z" transform="translate(-579.685 -88.208)" fill="#e2eaf0"/>
        <path id="Path_97514" data-name="Path 97514" d="M702.574,172.462,712.748,158.9h46.5a4.5,4.5,0,0,0,4.494-4.494V76.085a4.5,4.5,0,0,0-4.494-4.495H645.957a4.5,4.5,0,0,0-4.494,4.495V154.4a4.5,4.5,0,0,0,4.494,4.494H692.4Zm56.673-98.916a2.541,2.541,0,0,1,2.539,2.539V154.4a2.541,2.541,0,0,1-2.539,2.539H711.77l-9.2,12.26-9.2-12.26h-47.42a2.541,2.541,0,0,1-2.539-2.539V76.085a2.541,2.541,0,0,1,2.539-2.539Z" transform="translate(-601.174 -6.449)" fill="#e2eaf0"/>
        <rect id="Rectangle_47278" data-name="Rectangle 47278" width="11.647" height="1.955" transform="translate(53.323 172.362)" fill="#e2eaf0"/>
        <rect id="Rectangle_47279" data-name="Rectangle 47279" width="72.091" height="1.955" transform="translate(76.616 172.362)" fill="#e2eaf0"/>
        <rect id="Rectangle_47280" data-name="Rectangle 47280" width="72.091" height="1.955" transform="translate(76.616 200.69)" fill="#e2eaf0"/>
        <rect id="Rectangle_47281" data-name="Rectangle 47281" width="62.712" height="1.955" transform="translate(53.323 186.526)" fill="#e2eaf0"/>
        <rect id="Rectangle_47282" data-name="Rectangle 47282" width="21.089" height="1.955" transform="translate(127.618 186.526)" fill="#e2eaf0"/>
        <g id="Group_49874" data-name="Group 49874" transform="matrix(0.259, -0.966, 0.966, 0.259, 124.792, 87.072)">
          <rect id="Rectangle_47283" data-name="Rectangle 47283" width="2.014" height="6.34" transform="translate(27.554 67.62) rotate(-128.901)" fill="#e2eaf0"/>
          <rect id="Rectangle_47284" data-name="Rectangle 47284" width="2.014" height="6.34" transform="translate(19.3 57.391) rotate(-128.898)" fill="#e2eaf0"/>
          <path id="Path_97515" data-name="Path 97515" d="M15.915,25.528l7.193-5.8L7.194,0,0,5.8Zm4.361-6.107L16.217,22.7,2.832,6.107,6.891,2.832Z" transform="translate(8.442 51.426)" fill="#e2eaf0"/>
          <path id="Path_97516" data-name="Path 97516" d="M8.558,21.255a3.745,3.745,0,0,0,2.36-.833l10.469-8.639-1.282-1.554L9.644,18.861a1.748,1.748,0,0,1-2.451-.27L2.4,12.652a1.752,1.752,0,0,1,.264-2.46L13.133,1.553,11.851,0,1.39,8.632a3.766,3.766,0,0,0-.557,5.285l4.793,5.94a3.756,3.756,0,0,0,2.931,1.4" transform="translate(0 60.25)" fill="#e2eaf0"/>
          <path id="Path_97517" data-name="Path 97517" d="M34.73,0l-.344,1.984a27.638,27.638,0,1,1-31.149,19.1l-1.924-.591A29.654,29.654,0,1,0,34.73,0m.022,7.049L34.3,9.012a20.731,20.731,0,0,1,8.369,36.337A20.734,20.734,0,0,1,11.383,19.411l-1.775-.952A22.747,22.747,0,1,0,34.752,7.049" transform="translate(9.344 29.655) rotate(-30)" fill="#e2eaf0"/>
          <path id="Path_97518" data-name="Path 97518" d="M34.73,0l-.344,1.984a27.638,27.638,0,1,1-31.149,19.1l-1.924-.591A29.654,29.654,0,1,0,34.73,0m.022,7.049L34.3,9.012a20.731,20.731,0,0,1,8.369,36.337A20.734,20.734,0,0,1,11.383,19.411l-1.775-.952A22.747,22.747,0,1,0,34.752,7.049" transform="translate(9.344 29.655) rotate(-30)" fill="#e2eaf0"/>
        </g>
        <path id="Path_97519" data-name="Path 97519" d="M843.958,39.744c-.043-6.408-5.456-9.266-11.561-9.266s-11.734,2.642-11.605,9.137c0,6.279,5.759,6.928,8.27,8.617,1.17.78,1.646,1.992,1.646,4.026v.216h5.715v-.26c-.042-5.932-2.468-7.274-4.763-8.487s-4.937-1.558-4.937-4.157c0-3.334,3.074-4.114,5.759-4.114,2.771,0,5.629,1.559,5.672,4.287Zm-13.813,17.97c0,4.546,6.928,4.546,6.928,0,0-4.59-6.928-4.59-6.928,0" transform="translate(-734.272 67.867)" fill="#e2eaf0"/>
      </g>
    </g>
  </g>
</svg>
