<svg xmlns="http://www.w3.org/2000/svg" xmlns:xlink="http://www.w3.org/1999/xlink" width="1366" height="867" viewBox="0 0 1366 867"><defs><style>.a{fill:url(#a);}.b,.e{opacity:0.2;}.as,.b{fill:url(#b);}.c{fill:#06bbed;}.as,.c{opacity:0.3;}.d{clip-path:url(#c);}.f{fill:url(#e);}.g{clip-path:url(#f);}.h{fill:url(#g);}.i{fill:url(#h);}.j{fill:url(#i);}.k{fill:url(#j);}.l{fill:url(#k);}.m{fill:url(#l);}.n{fill:url(#m);}.o{fill:url(#n);}.p{fill:url(#o);}.q{fill:url(#p);}.r{fill:url(#q);}.s{fill:url(#r);}.t{fill:url(#s);}.u{fill:url(#t);}.v{fill:url(#u);}.w{fill:url(#v);}.x{fill:url(#w);}.y{fill:url(#x);}.z{fill:url(#y);}.aa{fill:url(#z);}.ab{fill:url(#aa);}.ac{fill:url(#ab);}.ad{fill:url(#ac);}.ae{fill:url(#ad);}.af{fill:url(#ae);}.ag{fill:url(#af);}.ah{fill:url(#ag);}.ai{fill:url(#ah);}.aj{fill:url(#ai);}.ak{fill:url(#aj);}.al{fill:url(#ak);}.am{fill:url(#al);}.an{fill:url(#am);}.ao{fill:url(#an);}.ap{fill:url(#ao);}.aq{fill:url(#ap);}.ar{fill:url(#aq);}.at{clip-path:url(#as);}.au{opacity:0.1;}.av{fill:#248aac;}</style><linearGradient id="a" x1="0.5" x2="0.5" y2="1" gradientUnits="objectBoundingBox"><stop offset="0" stop-color="#14303a"/><stop offset="1" stop-color="#056f95"/></linearGradient><linearGradient id="b" x1="0.5" x2="0.5" y2="1" gradientUnits="objectBoundingBox"><stop offset="0" stop-color="#30eaff"/><stop offset="1" stop-color="#194378"/></linearGradient><clipPath id="c"><rect class="a" width="867" height="1366" transform="translate(0 867) rotate(-90)"/></clipPath><linearGradient id="e" x1="1.323" y1="1.169" x2="0.097" y2="0.031" xlink:href="#b"/><clipPath id="f"><circle class="b" cx="185.9" cy="185.9" r="185.9" transform="translate(-1064 -437)"/></clipPath><linearGradient id="g" x1="0.633" y1="0.003" x2="0.156" y2="1.838" xlink:href="#b"/><linearGradient id="h" x1="1.158" y1="-2.23" x2="-1.308" y2="7.214" xlink:href="#b"/><linearGradient id="i" x1="0.885" y1="-1.11" x2="-0.532" y2="4.316" xlink:href="#b"/><linearGradient id="j" x1="0.806" y1="-0.79" x2="-0.3" y2="3.49" xlink:href="#b"/><linearGradient id="k" x1="0.765" y1="-0.632" x2="-0.185" y2="3.069" xlink:href="#b"/><linearGradient id="l" x1="0.741" y1="-0.535" x2="-0.115" y2="2.805" xlink:href="#b"/><linearGradient id="m" x1="0.724" y1="-0.464" x2="-0.065" y2="2.618" xlink:href="#b"/><linearGradient id="n" x1="0.711" y1="-0.407" x2="-0.028" y2="2.474" xlink:href="#b"/><linearGradient id="o" x1="0.7" y1="-0.356" x2="0.003" y2="2.357" xlink:href="#b"/><linearGradient id="p" x1="0.691" y1="-0.31" x2="0.029" y2="2.261" xlink:href="#b"/><linearGradient id="q" x1="0.682" y1="-0.268" x2="0.052" y2="2.18" xlink:href="#b"/><linearGradient id="r" x1="0.674" y1="-0.228" x2="0.071" y2="2.112" xlink:href="#b"/><linearGradient id="s" x1="0.667" y1="-0.191" x2="0.088" y2="2.053" xlink:href="#b"/><linearGradient id="t" x1="0.661" y1="-0.155" x2="0.103" y2="2.001" xlink:href="#b"/><linearGradient id="u" x1="0.654" y1="-0.121" x2="0.116" y2="1.956" xlink:href="#b"/><linearGradient id="v" x1="0.649" y1="-0.089" x2="0.128" y2="1.919" xlink:href="#b"/><linearGradient id="w" x1="0.643" y1="-0.057" x2="0.138" y2="1.887" xlink:href="#b"/><linearGradient id="x" x1="0.638" y1="-0.027" x2="0.148" y2="1.86" xlink:href="#b"/><linearGradient id="y" x1="0.629" y1="0.033" x2="0.163" y2="1.819" xlink:href="#b"/><linearGradient id="z" x1="0.624" y1="0.062" x2="0.169" y2="1.805" xlink:href="#b"/><linearGradient id="aa" x1="0.62" y1="0.092" x2="0.175" y2="1.795" xlink:href="#b"/><linearGradient id="ab" x1="0.616" y1="0.121" x2="0.179" y2="1.789" xlink:href="#b"/><linearGradient id="ac" x1="0.612" y1="0.151" x2="0.182" y2="1.788" xlink:href="#b"/><linearGradient id="ad" x1="0.608" y1="0.182" x2="0.184" y2="1.793" xlink:href="#b"/><linearGradient id="ae" x1="0.604" y1="0.214" x2="0.184" y2="1.806" xlink:href="#b"/><linearGradient id="af" x1="0.6" y1="0.247" x2="0.182" y2="1.829" xlink:href="#b"/><linearGradient id="ag" x1="0.598" y1="0.283" x2="0.176" y2="1.872" xlink:href="#b"/><linearGradient id="ah" x1="0.604" y1="0.464" x2="0.034" y2="2.604" xlink:href="#b"/><linearGradient id="ai" x1="1.863" y1="-5.822" x2="-1.93" y2="8.712" xlink:href="#b"/><linearGradient id="aj" x1="0.609" y1="0.663" x2="-0.114" y2="3.367" xlink:href="#b"/><linearGradient id="ak" x1="0.61" y1="0.833" x2="-0.227" y2="3.964" xlink:href="#b"/><linearGradient id="al" x1="0.612" y1="1.012" x2="-0.347" y2="4.603" xlink:href="#b"/><linearGradient id="am" x1="0.616" y1="1.216" x2="-0.49" y2="5.374" xlink:href="#b"/><linearGradient id="an" x1="0.625" y1="1.478" x2="-0.687" y2="6.456" xlink:href="#b"/><linearGradient id="ao" x1="0.647" y1="1.911" x2="-1.046" y2="8.396" xlink:href="#b"/><linearGradient id="ap" x1="0.742" y1="3.261" x2="-2.299" y2="14.911" xlink:href="#b"/><linearGradient id="aq" x1="1.527" y1="0.33" x2="-0.022" y2="0.248" xlink:href="#b"/><clipPath id="as"><circle class="c" cx="158.45" cy="158.45" r="158.45" transform="translate(-2170 -187)"/></clipPath></defs><g class="d"><g transform="translate(2083 619.841)"><rect class="a" width="867" height="1371" transform="translate(-2088 247.159) rotate(-90)"/><g class="e" transform="translate(-1853.529 -443.434) rotate(-90)"><circle class="f" cx="144.5" cy="144.5" r="144.5" transform="translate(-975.5 -235.726)"/><g class="g" transform="translate(130.407 229.926)"><g class="e" transform="translate(-1216.24 -617.112)"><path class="h" d="M1935.559,231.094c-.95-2.033-1.854-4.068-2.766-6.116-38.721,37.812-262.6,256.281-366.864,358.041,2.379.642,4.762,1.252,7.134,1.839C1578.133,579.911,1930.495,236.037,1935.559,231.094Z" transform="translate(-1473.095 -26.952)"/><path class="i" d="M1778.753,412.441a316.679,316.679,0,0,0,42.92-33.107l.033-.027,8.093-7.9.15-.148c8.2-8.521,15.539-18.043,20.417-28.71C1842.317,350.4,1790.328,401.143,1778.753,412.441Z" transform="translate(-1276.577 81.609)"/><path class="j" d="M1754.444,450.69q9.342-4.348,18.374-9.134l.014-.006c46.076-44.972,22.961-22.413,105.141-102.618a2.786,2.786,0,0,0,.066-.321,69.52,69.52,0,0,0,1.068-9.577C1790.3,415.69,1817.968,388.691,1754.444,450.69Z" transform="translate(-1299.024 69.131)"/><path class="k" d="M1895.6,327.042l0-.012a49.167,49.167,0,0,0-1.595-7.228c-97.775,95.407-63.9,62.346-158.032,154.217q7.544-2.776,14.964-5.8l.011-.006C1833.031,388.105,1799.943,420.4,1895.6,327.042Z" transform="translate(-1316.079 60.606)"/><path class="l" d="M1905.734,318.409a65.332,65.332,0,0,0-3.1-5.793c-104.823,102.3-65.307,63.731-182.714,178.332q6.653-2.005,13.25-4.147C1741.16,479.01,1898.772,325.2,1905.734,318.409Z" transform="translate(-1330.899 53.971)"/><path class="m" d="M1911.691,311.545c-1.225-1.687-2.516-3.349-3.868-5.016-38.866,37.925-162.758,158.818-202.528,197.631.617-.15,11.625-2.872,12.216-3.1C1718.47,500.119,1910.71,312.5,1911.691,311.545Z" transform="translate(-1344.407 48.35)"/><path class="n" d="M1915.3,305.632c-1.354-1.564-2.758-3.137-4.177-4.718-75.431,73.616-125.387,122.373-219.446,214.167q5.712-1.125,11.419-2.346C1731.2,485.3,1696.772,518.9,1915.3,305.632Z" transform="translate(-1356.984 43.166)"/><path class="o" d="M1917.767,300.1q-2.089-2.322-4.164-4.724c-78.447,76.549-157.265,153.459-234.823,229.148,3.608-.55,7.2-1.141,10.815-1.752C1876.47,340.405,1767.014,447.23,1917.767,300.1Z" transform="translate(-1368.891 38.051)"/><path class="p" d="M1919.82,294.577c-1.348-1.623-2.685-3.252-4-4.9-178.007,173.739-71.061,69.347-249.309,243.306,3.445-.4,6.882-.821,10.333-1.283l.013,0C1837.344,375.045,1828.554,383.629,1919.82,294.577Z" transform="translate(-1380.219 32.785)"/><path class="q" d="M1921.741,288.846q-1.954-2.487-3.879-5.012C1811.045,388.072,1783.344,415.1,1654.741,540.619c3.3-.283,6.6-.564,9.915-.883l.013,0C1779.107,428.039,1832.494,375.941,1921.741,288.846Z" transform="translate(-1391.088 27.394)"/><path class="r" d="M1923.519,282.985c-1.258-1.691-2.52-3.393-3.747-5.124-241.06,235.23-151.793,148.127-276.355,269.668q4.766-.219,9.571-.525C1849.642,355.087,1739.238,462.817,1923.519,282.985Z" transform="translate(-1401.544 21.879)"/><path class="s" d="M1925.2,276.973c-1.229-1.731-2.433-3.472-3.641-5.224L1726.269,462.316l-93.786,91.528q4.6-.066,9.221-.21C1728.431,469.009,1732.56,464.987,1925.2,276.973Z" transform="translate(-1411.64 16.235)"/><path class="t" d="M1926.824,270.868c-1.175-1.781-2.354-3.576-3.522-5.376L1621.9,559.623q4.463.081,8.938.081C1810.21,384.684,1679.57,512.156,1926.824,270.868Z" transform="translate(-1421.41 10.457)"/><path class="u" d="M1928.4,264.6l-.006-.013c-1.147-1.821-2.275-3.637-3.384-5.474-30.024,29.3-283.324,276.471-313.346,305.783q4.293.211,8.648.356Z" transform="translate(-1430.858 4.563)"/><path class="v" d="M1929.935,258.19q-1.659-2.8-3.28-5.618L1601.791,569.628c2.914.271,5.693.5,8.317.681C1666.584,515.173,1794.856,390.019,1929.935,258.19Z" transform="translate(-1439.981 -1.473)"/><path class="w" d="M1931.4,251.631c-1.073-1.9-2.12-3.8-3.16-5.726-5.07,4.914-289.005,282.018-335.949,327.821,2.743.365,5.415.7,8.011.992C1677.361,499.536,1691.637,485.57,1931.4,251.631Z" transform="translate(-1448.75 -7.629)"/><path class="x" d="M1932.787,244.927q-1.549-2.914-3.018-5.855c-.931.908-290.31,283.314-346.593,338.25,2.6.452,5.178.883,7.7,1.291C1797.21,377.232,1932.787,244.927,1932.787,244.927Z" transform="translate(-1457.17 -13.938)"/><path class="y" d="M1934.171,238.1q-1.469-2.989-2.882-6c-11.186,10.921-344.862,336.559-356.906,348.313,2.479.558,4.956,1.073,7.411,1.568C1672.116,493.825,1905.245,266.349,1934.171,238.1Z" transform="translate(-1465.289 -20.375)"/><path class="z" d="M1936.908,223.96c-.883-2.089-1.76-4.164-2.617-6.264-6.749,6.591-369.3,360.388-376.46,367.377,2.26.748,4.535,1.462,6.811,2.144C1727.918,427.875,1713.069,442.384,1936.908,223.96Z" transform="translate(-1480.572 -33.676)"/><path class="aa" d="M1938.191,216.626q-1.254-3.182-2.458-6.386c-69.933,68.268-288.158,281.206-385.586,376.292,2.129.873,4.289,1.7,6.451,2.506C1609.48,537.43,1883.573,269.949,1938.191,216.626Z" transform="translate(-1487.668 -40.561)"/><path class="ab" d="M1939.406,209.151q-1.192-3.251-2.322-6.528c-10.55,10.3-369.014,360.124-394.161,384.663,1.973.994,4,1.97,6.049,2.9C1655.369,486.328,1916.756,231.251,1939.406,209.151Z" transform="translate(-1494.337 -47.595)"/><path class="ac" d="M1940.456,201.507q-1.11-3.326-2.16-6.68C1746.031,382.453,1701.682,425.7,1536.233,587.2c1.81,1.146,3.66,2.277,5.563,3.358Z" transform="translate(-1500.516 -54.793)"/><path class="ad" d="M1941.276,193.7c-.681-2.285-1.343-4.564-1.985-6.866-132.563,129.363-2.343,2.308-409.1,399.236,1.594,1.35,3.249,2.662,4.98,3.945C1698.823,430.324,1604.275,522.552,1941.276,193.7Z" transform="translate(-1506.098 -62.178)"/><path class="ae" d="M1941.736,185.677q-.937-3.505-1.813-7.038c-77.156,75.275-93.194,90.951-414.97,404.96,1.327,1.6,2.751,3.154,4.245,4.662C1584.82,533.98,1884,242,1941.736,185.677Z" transform="translate(-1510.931 -69.741)"/><path class="af" d="M1941.6,177.427c-.014-.038-.011-.069-.027-.108-.546-2.323-1.086-4.666-1.641-7.047-198.274,193.46-273.463,266.863-419.145,409.015a59.482,59.482,0,0,0,3.239,5.634C1621.728,489.6,1862.093,255.022,1941.6,177.427Z" transform="translate(-1514.776 -77.467)"/><path class="ag" d="M1940.2,169q-.874-3.508-1.814-7.038c-93.779,91.5-328.362,320.445-420.236,410.109a50.165,50.165,0,0,0,1.81,7.026C1585.237,515.391,1874.858,232.766,1940.2,169Z" transform="translate(-1517.211 -85.137)"/><path class="ah" d="M1936.433,160.685c-.671-2.262-1.366-4.512-2.1-6.747-1.631,1.591-406.71,396.884-415.508,405.468l.006.014a47.047,47.047,0,0,0-1.167,9.925C1563.272,524.837,1889.06,206.921,1936.433,160.685Z" transform="translate(-1517.663 -92.549)"/><path class="ai" d="M1881.39,152.681c-.8-2.15-1.641-4.272-2.517-6.347-28.732,28.041-245.308,239.411-270.78,264.25-.485,1.15-17.987,24.1-36.2,44.13C1603.794,423.589,1851.826,181.534,1881.39,152.681Z" transform="translate(-1467.584 -99.571)"/><path class="aj" d="M1569.257,331.051c-10.709,9.223-20.051,16.406-29.683,25.7a117.723,117.723,0,0,0-16.859,19.717C1567.607,332.667,1559.308,340.768,1569.257,331.051Z" transform="translate(-1512.998 70.993)"/><path class="ak" d="M1846.956,145.152c-.973-1.981-2-3.922-3.083-5.8-147.314,143.775-69.353,67.676-228.067,222.572q-6.335,10.96-13.129,21.613C1808.56,182.633,1779.5,210.989,1846.956,145.152Z" transform="translate(-1439.163 -106.019)"/><path class="al" d="M1827.045,138.232c-1.208-1.752-2.483-3.451-3.82-5.08C1685.992,267.091,1700,253.4,1624.765,326.833c-2.755,5.753-5.576,11.442-8.513,17.1C1749.573,213.832,1720.915,241.786,1827.045,138.232Z" transform="translate(-1426.628 -111.743)"/><path class="am" d="M1809.443,132.117a59.8,59.8,0,0,0-4.764-4.147C1780.14,151.912,1657.992,271.1,1631.565,296.9q-2.992,7.469-6.183,14.843Z" transform="translate(-1418.198 -116.528)"/><path class="an" d="M1791.762,127.031a54.331,54.331,0,0,0-6-2.935c-88.418,86.285-146.87,143.319-148.874,145.273-1.564,4.5-3.139,9.007-4.787,13.481C1744.472,173.169,1708.639,208.14,1791.762,127.031Z" transform="translate(-1411.994 -120.105)"/><path class="ao" d="M1772.213,123.262a50.936,50.936,0,0,0-7.755-1.241c-68.937,67.265-42.478,41.445-122.191,119.234l-.007.019c-1.589,4.435-3.147,8.874-4.689,13.352C1643.53,248.81,1766.4,128.93,1772.213,123.262Z" transform="translate(-1406.943 -122.021)"/><path class="ap" d="M1747.7,122.038a72.607,72.607,0,0,0-10.8,1.748c-56.809,55.434-36.827,35.933-87.124,85.015l-.008.017c-2.248,4.934-4.351,9.942-6.359,15C1643.886,223.358,1682.523,185.652,1747.7,122.038Z" transform="translate(-1401.547 -122.005)"/><path class="aq" d="M1710.693,126.175a114.847,114.847,0,0,0-31.432,22.123,165.159,165.159,0,0,0-26.627,34.54C1683.016,153.195,1670.169,165.733,1710.693,126.175Z" transform="translate(-1393.033 -118.185)"/></g></g><circle class="ar" cx="228.5" cy="228.5" r="228.5" transform="translate(-915 -63.773)"/></g><g transform="translate(78 -476)"><circle class="c" cx="181" cy="181" r="181" transform="translate(-2310 -258.5)"/><circle class="as" cx="85.5" cy="85.5" r="85.5" transform="translate(-2017 39)"/><g class="at" transform="translate(-22.5 39.6)"><g class="au" transform="matrix(-0.891, -0.454, 0.454, -0.891, -1864.199, 416.446)"><path class="av" d="M367.43,6.08c-.944-2.021-1.843-4.044-2.749-6.08C326.19,37.587,103.642,254.756,0,355.911c2.365.639,4.734,1.245,7.091,1.828C12.132,352.821,362.4,10.994,367.43,6.08Z" transform="translate(92.282 196.847)"/><path class="av" d="M0,69.478a314.8,314.8,0,0,0,42.665-32.91l.032-.027,8.045-7.854.149-.147C59.046,20.07,66.338,10.6,71.187,0,63.186,7.81,11.506,58.247,0,69.478Z" transform="translate(499.188 421.632)"/><path class="av" d="M0,120.932q9.286-4.322,18.265-9.08l.014-.006C64.08,67.141,41.1,89.567,122.794,9.839a2.918,2.918,0,0,0,.065-.319A69.151,69.151,0,0,0,123.92,0C35.646,86.14,63.145,59.3,0,120.932Z" transform="translate(452.71 395.796)"/><path class="av" d="M158.681,7.2l0-.012A48.894,48.894,0,0,0,157.092,0C59.9,94.84,93.576,61.975,0,153.3q7.5-2.759,14.875-5.761l.011-.006C96.48,67.9,63.589,100,158.681,7.2Z" transform="translate(417.395 378.145)"/><path class="av" d="M184.7,5.759A65.017,65.017,0,0,0,181.626,0C77.428,101.69,116.708,63.352,0,177.271q6.613-1.993,13.171-4.122C21.11,165.4,177.783,12.514,184.7,5.759Z" transform="translate(386.71 364.406)"/><path class="av" d="M205.168,4.986c-1.218-1.677-2.5-3.329-3.845-4.986C162.688,37.7,39.533,157.872,0,196.455c.614-.149,11.556-2.855,12.143-3.084C13.1,192.438,204.193,5.939,205.168,4.986Z" transform="translate(358.741 352.768)"/><path class="av" d="M222.293,4.69c-1.346-1.554-2.742-3.118-4.153-4.69C143.158,73.177,93.5,121.645,0,212.892q5.678-1.118,11.351-2.333C39.286,183.288,5.066,216.686,222.293,4.69Z" transform="translate(332.7 342.032)"/><path class="av" d="M237.566,4.7q-2.076-2.309-4.139-4.7C155.446,76.093,77.1,152.546,0,227.784c3.587-.547,7.158-1.134,10.751-1.742C196.515,44.762,87.71,150.951,237.566,4.7Z" transform="translate(308.044 331.442)"/><path class="av" d="M251.8,4.875c-1.34-1.614-2.669-3.233-3.977-4.875C70.877,172.705,177.187,68.935,0,241.858c3.424-.4,6.841-.816,10.271-1.275l.013,0C169.816,84.865,161.079,93.4,251.8,4.875Z" transform="translate(284.588 320.538)"/><path class="av" d="M265.411,4.982Q263.47,2.51,261.555,0C155.374,103.617,127.838,130.488,0,255.257c3.279-.281,6.56-.56,9.856-.878l.013,0C123.626,143.347,176.7,91.559,265.411,4.982Z" transform="translate(262.084 309.376)"/><path class="av" d="M278.435,5.093c-1.25-1.681-2.5-3.373-3.724-5.093C35.086,233.83,123.821,147.246,0,268.063q4.738-.218,9.514-.522C205,76.766,95.25,183.856,278.435,5.093Z" transform="translate(240.434 297.956)"/><path class="av" d="M290.972,5.193C289.75,3.472,288.553,1.742,287.353,0,279.734,7.434,101.577,181.286,93.228,189.433L0,280.416q4.577-.066,9.166-.208C95.377,196.086,99.482,192.088,290.972,5.193Z" transform="translate(219.529 286.27)"/><path class="av" d="M303.107,5.344c-1.168-1.77-2.34-3.554-3.5-5.344L0,292.381q4.437.08,8.885.08C187.186,118.483,57.324,245.2,303.107,5.344Z" transform="translate(199.3 274.307)"/><path class="av" d="M314.85,5.455l-.006-.013C313.7,3.631,312.583,1.826,311.481,0,281.636,29.123,29.843,274.826,0,303.963q4.267.209,8.6.354Z" transform="translate(179.736 262.102)"/><path class="av" d="M326.192,5.585Q324.543,2.8,322.932,0L0,315.169c2.9.27,5.659.5,8.267.677C64.408,261.039,191.916,136.629,326.192,5.585Z" transform="translate(160.848 249.605)"/><path class="av" d="M337.092,5.692c-1.067-1.885-2.107-3.78-3.142-5.692C328.911,4.885,46.665,280.34,0,325.87c2.727.363,5.382.7,7.963.987C84.561,252.121,98.752,238.239,337.092,5.692Z" transform="translate(142.69 236.858)"/><path class="av" d="M347.531,5.82q-1.54-2.9-3-5.82C343.605.9,55.949,281.628,0,336.237c2.585.449,5.147.878,7.655,1.283C212.76,137.338,347.531,5.82,347.531,5.82Z" transform="translate(125.257 223.794)"/><path class="av" d="M357.647,5.963Q356.187,2.992,354.782,0C343.663,10.856,11.973,334.556,0,346.24c2.464.554,4.927,1.067,7.367,1.558C97.151,260.167,328.893,34.044,357.647,5.963Z" transform="translate(108.445 210.466)"/><path class="av" d="M376.821,6.227c-.877-2.076-1.75-4.139-2.6-6.227C367.51,6.552,7.12,358.243,0,365.191c2.246.744,4.508,1.453,6.77,2.132C169.074,208.929,154.314,223.351,376.821,6.227Z" transform="translate(76.799 182.925)"/><path class="av" d="M385.735,6.348Q384.487,3.184,383.292,0C313.775,67.862,96.849,279.533,0,374.053c2.116.868,4.264,1.694,6.412,2.491C58.979,325.243,331.442,59.354,385.735,6.348Z" transform="translate(62.107 168.669)"/><path class="av" d="M394.123,6.489Q392.938,3.257,391.815,0C381.328,10.238,25,357.981,0,382.374c1.961.988,3.973,1.958,6.013,2.885C111.776,282.016,371.608,28.457,394.123,6.489Z" transform="translate(48.297 154.106)"/><path class="av" d="M401.818,6.64q-1.1-3.307-2.147-6.64C208.55,186.509,164.465,229.5,0,390.037c1.8,1.139,3.638,2.264,5.529,3.338Z" transform="translate(35.505 139.2)"/><path class="av" d="M408.642,6.826c-.677-2.271-1.334-4.537-1.973-6.826C274.894,128.593,404.34,2.294,0,396.861c1.585,1.342,3.229,2.646,4.95,3.921C167.631,242.045,73.646,333.725,408.642,6.826Z" transform="translate(23.947 123.911)"/><path class="av" d="M414.3,7q-.932-3.485-1.8-7C335.8,74.827,319.861,90.41,0,402.551c1.319,1.595,2.734,3.136,4.22,4.635C59.511,353.226,356.915,62.987,414.3,7Z" transform="translate(13.938 108.25)"/><path class="av" d="M418.309,7.112c-.014-.038-.011-.069-.027-.107C417.739,4.7,417.2,2.367,416.651,0,219.557,192.308,144.816,265.275,0,406.581a59.156,59.156,0,0,0,3.22,5.6C100.338,317.427,339.273,84.246,418.309,7.112Z" transform="translate(5.977 92.253)"/><path class="av" d="M419.538,7q-.869-3.487-1.8-7C324.515,90.96,91.328,318.538,0,407.669a49.877,49.877,0,0,0,1.8,6.984C66.684,351.322,354.582,70.378,419.538,7Z" transform="translate(0.937 76.372)"/><path class="av" d="M416.278,6.707c-.667-2.248-1.358-4.485-2.088-6.707C412.569,1.581,9.9,394.522,1.155,403.055l.006.013A46.779,46.779,0,0,0,0,412.934C45.338,368.692,369.187,52.668,416.278,6.707Z" transform="translate(0 61.023)"/><path class="av" d="M307.652,6.309c-.8-2.138-1.631-4.246-2.5-6.309C276.589,27.874,61.3,237.986,35.981,262.677,35.5,263.82,18.1,286.632,0,306.545,31.708,275.606,278.263,34.99,307.652,6.309Z" transform="translate(103.692 46.485)"/><path class="av" d="M46.265,0C35.62,9.168,26.333,16.309,16.758,25.547A117.024,117.024,0,0,0,0,45.147C44.625,1.606,36.375,9.659,46.265,0Z" transform="translate(9.659 399.652)"/><path class="av" d="M242.825,5.766c-.967-1.969-1.992-3.9-3.065-5.766C93.323,142.919,170.82,67.273,13.051,221.247Q6.753,232.143,0,242.732C204.657,43.024,175.77,71.212,242.825,5.766Z" transform="translate(162.541 33.134)"/><path class="av" d="M209.539,5.049c-1.2-1.742-2.469-3.43-3.8-5.049C69.325,133.142,83.253,119.529,8.462,192.528c-2.738,5.719-5.543,11.374-8.462,17C132.528,80.2,104.04,107.988,209.539,5.049Z" transform="translate(188.496 21.282)"/><path class="av" d="M182.967,4.122A59.46,59.46,0,0,0,178.231,0C153.838,23.8,32.417,142.279,6.147,167.929Q3.173,175.354,0,182.684Z" transform="translate(205.95 11.374)"/><path class="av" d="M158.712,2.918A53.967,53.967,0,0,0,152.746,0C64.855,85.771,6.751,142.466,4.759,144.409c-1.554,4.474-3.12,8.954-4.759,13.4C111.7,48.781,76.084,83.544,158.712,2.918Z" transform="translate(218.796 3.967)"/><path class="av" d="M133.842,1.233A50.644,50.644,0,0,0,126.133,0C57.6,66.864,83.907,41.2,4.669,118.525l-.007.019C3.082,122.953,1.533,127.366,0,131.817,5.925,126.035,128.065,6.868,133.842,1.233Z" transform="translate(229.254)"/><path class="av" d="M103.669,0A72.179,72.179,0,0,0,92.933,1.738C36.463,56.842,56.326,37.457,6.328,86.247l-.007.017C4.086,91.169,2,96.147,0,101.176.47,100.717,38.877,63.235,103.669,0Z" transform="translate(240.426 0.032)"/><path class="av" d="M57.713,0A114.159,114.159,0,0,0,26.469,21.991,164.174,164.174,0,0,0,0,56.326C30.2,26.859,17.431,39.323,57.713,0Z" transform="translate(258.056 7.942)"/></g></g></g></g></g></svg>