<svg xmlns="http://www.w3.org/2000/svg" xmlns:xlink="http://www.w3.org/1999/xlink" width="1366" height="867" viewBox="0 0 1366 867">
  <defs>
    <linearGradient id="linear-gradient" x1="0.5" y1="1" x2="0.5" gradientUnits="objectBoundingBox">
      <stop offset="0" stop-color="#14303a"/>
      <stop offset="1" stop-color="#056f95"/>
    </linearGradient>
    <linearGradient id="linear-gradient-2" x1="0.5" y1="1" x2="0.5" gradientUnits="objectBoundingBox">
      <stop offset="0" stop-color="#30eaff"/>
      <stop offset="1" stop-color="#194378"/>
    </linearGradient>
    <clipPath id="clip-path">
      <rect id="Rectangle_46922" data-name="Rectangle 46922" width="867" height="1366" transform="translate(0 867) rotate(-90)" fill="url(#linear-gradient)"/>
    </clipPath>
    <linearGradient id="linear-gradient-4" x1="1.323" y1="-0.169" x2="0.097" y2="0.969" xlink:href="#linear-gradient-2"/>
    <clipPath id="clip-path-2">
      <circle id="Ellipse_1823" data-name="Ellipse 1823" cx="185.9" cy="185.9" r="185.9" opacity="0.2" fill="url(#linear-gradient-2)"/>
    </clipPath>
    <linearGradient id="linear-gradient-5" x1="0.633" y1="0.997" x2="0.156" y2="-0.838" xlink:href="#linear-gradient-2"/>
    <linearGradient id="linear-gradient-6" x1="1.158" y1="3.23" x2="-1.308" y2="-6.214" xlink:href="#linear-gradient-2"/>
    <linearGradient id="linear-gradient-7" x1="0.885" y1="2.11" x2="-0.532" y2="-3.316" xlink:href="#linear-gradient-2"/>
    <linearGradient id="linear-gradient-8" x1="0.806" y1="1.79" x2="-0.3" y2="-2.49" xlink:href="#linear-gradient-2"/>
    <linearGradient id="linear-gradient-9" x1="0.765" y1="1.632" x2="-0.185" y2="-2.069" xlink:href="#linear-gradient-2"/>
    <linearGradient id="linear-gradient-10" x1="0.741" y1="1.535" x2="-0.115" y2="-1.805" xlink:href="#linear-gradient-2"/>
    <linearGradient id="linear-gradient-11" x1="0.724" y1="1.464" x2="-0.065" y2="-1.618" xlink:href="#linear-gradient-2"/>
    <linearGradient id="linear-gradient-12" x1="0.711" y1="1.407" x2="-0.028" y2="-1.474" xlink:href="#linear-gradient-2"/>
    <linearGradient id="linear-gradient-13" x1="0.7" y1="1.356" x2="0.003" y2="-1.357" xlink:href="#linear-gradient-2"/>
    <linearGradient id="linear-gradient-14" x1="0.691" y1="1.31" x2="0.029" y2="-1.261" xlink:href="#linear-gradient-2"/>
    <linearGradient id="linear-gradient-15" x1="0.682" y1="1.268" x2="0.052" y2="-1.18" xlink:href="#linear-gradient-2"/>
    <linearGradient id="linear-gradient-16" x1="0.674" y1="1.228" x2="0.071" y2="-1.112" xlink:href="#linear-gradient-2"/>
    <linearGradient id="linear-gradient-17" x1="0.667" y1="1.191" x2="0.088" y2="-1.053" xlink:href="#linear-gradient-2"/>
    <linearGradient id="linear-gradient-18" x1="0.661" y1="1.155" x2="0.103" y2="-1.001" xlink:href="#linear-gradient-2"/>
    <linearGradient id="linear-gradient-19" x1="0.654" y1="1.121" x2="0.116" y2="-0.956" xlink:href="#linear-gradient-2"/>
    <linearGradient id="linear-gradient-20" x1="0.649" y1="1.089" x2="0.128" y2="-0.919" xlink:href="#linear-gradient-2"/>
    <linearGradient id="linear-gradient-21" x1="0.643" y1="1.057" x2="0.138" y2="-0.887" xlink:href="#linear-gradient-2"/>
    <linearGradient id="linear-gradient-22" x1="0.638" y1="1.027" x2="0.148" y2="-0.86" xlink:href="#linear-gradient-2"/>
    <linearGradient id="linear-gradient-23" x1="0.629" y1="0.967" x2="0.163" y2="-0.819" xlink:href="#linear-gradient-2"/>
    <linearGradient id="linear-gradient-24" x1="0.624" y1="0.938" x2="0.169" y2="-0.805" xlink:href="#linear-gradient-2"/>
    <linearGradient id="linear-gradient-25" x1="0.62" y1="0.908" x2="0.175" y2="-0.795" xlink:href="#linear-gradient-2"/>
    <linearGradient id="linear-gradient-26" x1="0.616" y1="0.879" x2="0.179" y2="-0.789" xlink:href="#linear-gradient-2"/>
    <linearGradient id="linear-gradient-27" x1="0.612" y1="0.849" x2="0.182" y2="-0.788" xlink:href="#linear-gradient-2"/>
    <linearGradient id="linear-gradient-28" x1="0.608" y1="0.818" x2="0.184" y2="-0.793" xlink:href="#linear-gradient-2"/>
    <linearGradient id="linear-gradient-29" x1="0.604" y1="0.786" x2="0.184" y2="-0.806" xlink:href="#linear-gradient-2"/>
    <linearGradient id="linear-gradient-30" x1="0.6" y1="0.753" x2="0.182" y2="-0.829" xlink:href="#linear-gradient-2"/>
    <linearGradient id="linear-gradient-31" x1="0.598" y1="0.717" x2="0.176" y2="-0.872" xlink:href="#linear-gradient-2"/>
    <linearGradient id="linear-gradient-32" x1="0.604" y1="0.536" x2="0.034" y2="-1.604" xlink:href="#linear-gradient-2"/>
    <linearGradient id="linear-gradient-33" x1="1.863" y1="6.822" x2="-1.93" y2="-7.712" xlink:href="#linear-gradient-2"/>
    <linearGradient id="linear-gradient-34" x1="0.609" y1="0.337" x2="-0.114" y2="-2.367" xlink:href="#linear-gradient-2"/>
    <linearGradient id="linear-gradient-35" x1="0.61" y1="0.167" x2="-0.227" y2="-2.964" xlink:href="#linear-gradient-2"/>
    <linearGradient id="linear-gradient-36" x1="0.612" y1="-0.012" x2="-0.347" y2="-3.603" xlink:href="#linear-gradient-2"/>
    <linearGradient id="linear-gradient-37" x1="0.616" y1="-0.216" x2="-0.49" y2="-4.374" xlink:href="#linear-gradient-2"/>
    <linearGradient id="linear-gradient-38" x1="0.625" y1="-0.478" x2="-0.687" y2="-5.456" xlink:href="#linear-gradient-2"/>
    <linearGradient id="linear-gradient-39" x1="0.647" y1="-0.911" x2="-1.046" y2="-7.396" xlink:href="#linear-gradient-2"/>
    <linearGradient id="linear-gradient-40" x1="0.742" y1="-2.261" x2="-2.299" y2="-13.911" xlink:href="#linear-gradient-2"/>
    <linearGradient id="linear-gradient-41" x1="1.527" y1="0.67" x2="-0.022" y2="0.752" xlink:href="#linear-gradient-2"/>
    <linearGradient id="linear-gradient-42" y1="0" y2="1" xlink:href="#linear-gradient-2"/>
    <clipPath id="clip-path-3">
      <circle id="Ellipse_1824" data-name="Ellipse 1824" cx="158.45" cy="158.45" r="158.45" fill="#06bbed" opacity="0.3"/>
    </clipPath>
  </defs>
  <g id="user-account-bg-ar" clip-path="url(#clip-path)">
    <g id="Group_49036" data-name="Group 49036" transform="translate(0 -114.659)">
      <rect id="Rectangle_31215" data-name="Rectangle 31215" width="867" height="1371" transform="translate(0 981.659) rotate(-90)" fill="url(#linear-gradient)"/>
      <g id="Group_49037" data-name="Group 49037" transform="translate(743.303 1266.566) rotate(-90)" opacity="0.2">
        <circle id="Ellipse_1822" data-name="Ellipse 1822" cx="144.5" cy="144.5" r="144.5" transform="translate(0 339.953)" fill="url(#linear-gradient-4)"/>
        <g id="Mask_Group_41" data-name="Mask Group 41" transform="translate(41.907 228.5)" clip-path="url(#clip-path-2)">
          <g id="Group_48720" data-name="Group 48720" transform="translate(-152.24 -18.249)" opacity="0.2">
            <path id="Path_94877" data-name="Path 94877" d="M369.63,353.764c-.95,2.033-1.854,4.068-2.766,6.116C328.143,322.068,104.263,103.6,0,1.839,2.379,1.2,4.762.587,7.134,0,12.2,4.947,364.566,348.821,369.63,353.764Z" transform="translate(92.834 12.256)" fill="url(#linear-gradient-5)"/>
            <path id="Path_94878" data-name="Path 94878" d="M0,0A316.679,316.679,0,0,1,42.92,33.107l.033.027,8.093,7.9.15.148c8.2,8.521,15.539,18.043,20.417,28.71C63.564,62.037,11.575,11.3,0,0Z" transform="translate(502.176 76.112)" fill="url(#linear-gradient-6)"/>
            <path id="Path_94879" data-name="Path 94879" d="M0,0Q9.342,4.348,18.374,9.134l.014.006C64.464,54.112,41.349,31.553,123.529,111.758a2.786,2.786,0,0,1,.066.321,69.52,69.52,0,0,1,1.068,9.577C35.859,35,63.523,62,0,0Z" transform="translate(455.42 50.341)" fill="url(#linear-gradient-7)"/>
            <path id="Path_94880" data-name="Path 94880" d="M159.631,146.977l0,.012a49.167,49.167,0,0,1-1.595,7.228C60.257,58.809,94.136,91.87,0,0Q7.544,2.776,14.964,5.8l.011.006C97.058,85.914,63.97,53.622,159.631,146.977Z" transform="translate(419.893 35.536)" fill="url(#linear-gradient-8)"/>
            <path id="Path_94881" data-name="Path 94881" d="M185.81,172.539a65.332,65.332,0,0,1-3.1,5.793C77.891,76.033,117.407,114.6,0,0Q6.653,2.005,13.25,4.147C21.236,11.938,178.848,165.744,185.81,172.539Z" transform="translate(389.025 25.242)" fill="url(#linear-gradient-9)"/>
            <path id="Path_94882" data-name="Path 94882" d="M206.4,192.615c-1.225,1.687-2.516,3.349-3.868,5.016C163.662,159.706,39.77,38.814,0,0,.617.15,11.625,2.872,12.216,3.1,13.175,4.041,205.415,191.657,206.4,192.615Z" transform="translate(360.888 17.651)" fill="url(#linear-gradient-10)"/>
            <path id="Path_94883" data-name="Path 94883" d="M223.624,209.449c-1.354,1.564-2.758,3.137-4.177,4.718C144.015,140.551,94.059,91.793,0,0Q5.712,1.125,11.419,2.346C39.521,29.782,5.1-3.816,223.624,209.449Z" transform="translate(334.692 11.915)" fill="url(#linear-gradient-11)"/>
            <path id="Path_94884" data-name="Path 94884" d="M238.988,224.424q-2.089,2.322-4.164,4.724C156.377,152.6,77.559,75.689,0,0,3.608.55,7.2,1.141,10.815,1.752,197.691,184.118,88.235,77.293,238.988,224.424Z" transform="translate(309.888 7.588)" fill="url(#linear-gradient-12)"/>
            <path id="Path_94885" data-name="Path 94885" d="M253.31,238.4c-1.348,1.623-2.685,3.252-4,4.9C71.3,69.567,178.248,173.958,0,0,3.445.4,6.882.821,10.333,1.283l.013,0C170.833,157.933,162.043,149.349,253.31,238.4Z" transform="translate(286.292 4.399)" fill="url(#linear-gradient-13)"/>
            <path id="Path_94886" data-name="Path 94886" d="M267,251.773q-1.954,2.487-3.879,5.012C156.3,152.547,128.6,125.516,0,0,3.3.283,6.6.564,9.915.883l.013,0C124.366,112.579,177.753,164.678,267,251.773Z" transform="translate(263.653 2.148)" fill="url(#linear-gradient-14)"/>
            <path id="Path_94887" data-name="Path 94887" d="M280.1,264.544c-1.258,1.691-2.52,3.393-3.747,5.124C35.3,34.438,124.562,121.54,0,0Q4.766.219,9.571.525C206.225,192.442,95.821,84.711,280.1,264.544Z" transform="translate(241.873 0.754)" fill="url(#linear-gradient-15)"/>
            <path id="Path_94888" data-name="Path 94888" d="M292.713,276.871c-1.229,1.731-2.433,3.472-3.641,5.224L93.786,91.528,0,0Q4.6.066,9.221.21C95.948,84.835,100.077,88.856,292.713,276.871Z" transform="translate(220.843 0.083)" fill="url(#linear-gradient-16)"/>
            <path id="Path_94889" data-name="Path 94889" d="M304.921,288.836c-1.175,1.781-2.354,3.576-3.522,5.376L0,.081Q4.463,0,8.938,0C188.307,175.02,57.667,47.548,304.921,288.836Z" transform="translate(200.493 0)" fill="url(#linear-gradient-17)"/>
            <path id="Path_94890" data-name="Path 94890" d="M316.735,300.651l-.006.013c-1.147,1.821-2.275,3.637-3.384,5.474C283.322,276.842,30.022,29.668,0,.356Q4.293.145,8.648,0Z" transform="translate(180.812 0.352)" fill="url(#linear-gradient-18)"/>
            <path id="Path_94891" data-name="Path 94891" d="M328.144,312.119q-1.659,2.8-3.28,5.618L0,.681C2.914.41,5.693.177,8.317,0,64.793,55.136,193.065,180.29,328.144,312.119Z" transform="translate(161.81 1.325)" fill="url(#linear-gradient-19)"/>
            <path id="Path_94892" data-name="Path 94892" d="M339.11,323.088c-1.073,1.9-2.12,3.8-3.16,5.726C330.88,323.9,46.944,46.8,0,.992,2.743.627,5.415.29,8.011,0,85.067,75.183,99.343,89.149,339.11,323.088Z" transform="translate(143.544 3.072)" fill="url(#linear-gradient-20)"/>
            <path id="Path_94893" data-name="Path 94893" d="M349.611,333.686q-1.549,2.914-3.018,5.855C345.662,338.632,56.284,56.226,0,1.291,2.6.839,5.178.408,7.7,0,214.034,201.38,349.611,333.686,349.611,333.686Z" transform="translate(126.007 5.487)" fill="url(#linear-gradient-21)"/>
            <path id="Path_94894" data-name="Path 94894" d="M359.788,343.881q-1.469,2.989-2.882,6C345.72,338.96,12.044,13.321,0,1.568,2.479,1.01,4.956.494,7.411,0,97.733,88.156,330.862,315.633,359.788,343.881Z" transform="translate(109.094 8.555)" fill="url(#linear-gradient-22)"/>
            <path id="Path_94895" data-name="Path 94895" d="M379.077,363.258c-.883,2.089-1.76,4.164-2.617,6.264C369.71,362.931,7.163,9.134,0,2.144,2.26,1.4,4.535.683,6.811,0,170.087,159.342,155.238,144.834,379.077,363.258Z" transform="translate(77.259 16.62)" fill="url(#linear-gradient-23)"/>
            <path id="Path_94896" data-name="Path 94896" d="M388.044,372.413q-1.254,3.182-2.458,6.386C315.654,310.53,97.429,97.592,0,2.506,2.129,1.633,4.289.8,6.451,0,59.333,51.608,333.426,319.089,388.044,372.413Z" transform="translate(62.479 21.684)" fill="url(#linear-gradient-24)"/>
            <path id="Path_94897" data-name="Path 94897" d="M396.482,381.037q-1.192,3.251-2.322,6.528C383.611,377.266,25.146,27.441,0,2.9,1.973,1.908,4,.933,6.049,0,112.445,103.861,373.832,358.938,396.482,381.037Z" transform="translate(48.587 27.568)" fill="url(#linear-gradient-25)"/>
            <path id="Path_94898" data-name="Path 94898" d="M404.223,389.05q-1.11,3.326-2.16,6.68C209.8,208.1,165.449,164.861,0,3.358,1.81,2.212,3.66,1.081,5.563,0Z" transform="translate(35.717 34.398)" fill="url(#linear-gradient-26)"/>
            <path id="Path_94899" data-name="Path 94899" d="M411.088,396.315c-.681,2.285-1.343,4.564-1.985,6.866C276.54,273.818,406.76,400.873,0,3.945,1.594,2.595,3.249,1.283,4.98,0,168.634,159.687,74.087,67.459,411.088,396.315Z" transform="translate(24.09 42.328)" fill="url(#linear-gradient-27)"/>
            <path id="Path_94900" data-name="Path 94900" d="M416.783,402.585q-.937,3.505-1.813,7.038C337.813,334.347,321.776,318.672,0,4.662,1.327,3.058,2.751,1.508,4.245,0,59.867,54.282,359.052,346.259,416.783,402.585Z" transform="translate(14.021 51.641)" fill="url(#linear-gradient-28)"/>
            <path id="Path_94901" data-name="Path 94901" d="M420.813,407.493c-.014.038-.011.069-.027.108-.546,2.323-1.086,4.666-1.641,7.047C220.872,221.189,145.683,147.785,0,5.634A59.482,59.482,0,0,1,3.239,0C100.939,95.321,341.3,329.9,420.813,407.493Z" transform="translate(6.012 62.708)" fill="url(#linear-gradient-29)"/>
            <path id="Path_94902" data-name="Path 94902" d="M422.05,410.1q-.874,3.508-1.814,7.038C326.458,325.63,91.874,96.69,0,7.026A50.165,50.165,0,0,1,1.81,0C67.084,63.71,356.7,346.336,422.05,410.1Z" transform="translate(0.943 76.197)" fill="url(#linear-gradient-30)"/>
            <path id="Path_94903" data-name="Path 94903" d="M418.77,408.659c-.671,2.262-1.366,4.512-2.1,6.747C415.039,413.816,9.959,18.522,1.161,9.938l.006-.014A47.047,47.047,0,0,1,0,0C45.609,44.507,371.4,362.423,418.77,408.659Z" transform="translate(0 93.367)" fill="url(#linear-gradient-31)"/>
            <path id="Path_94904" data-name="Path 94904" d="M309.493,302.032c-.8,2.15-1.641,4.272-2.517,6.347C278.244,280.339,61.668,68.969,36.2,44.13,35.711,42.98,18.209,20.032,0,0,31.9,31.124,279.929,273.18,309.493,302.032Z" transform="translate(104.313 215.019)" fill="url(#linear-gradient-32)"/>
            <path id="Path_94905" data-name="Path 94905" d="M46.542,45.417c-10.709-9.223-20.051-16.406-29.683-25.7A117.723,117.723,0,0,1,0,0C44.892,43.8,36.593,35.7,46.542,45.417Z" transform="translate(9.717 122.7)" fill="url(#linear-gradient-33)"/>
            <path id="Path_94906" data-name="Path 94906" d="M244.279,238.384c-.973,1.981-2,3.922-3.083,5.8C93.882,100.41,171.843,176.509,13.129,21.613Q6.794,10.653,0,0C205.883,200.9,176.822,172.547,244.279,238.384Z" transform="translate(163.514 292.644)" fill="url(#linear-gradient-34)"/>
            <path id="Path_94907" data-name="Path 94907" d="M210.793,205.706c-1.208,1.752-2.483,3.451-3.82,5.08C69.74,76.847,83.752,90.541,8.513,17.1,5.758,11.352,2.937,5.662,0,0,133.321,130.105,104.663,102.151,210.793,205.706Z" transform="translate(189.624 337.967)" fill="url(#linear-gradient-35)"/>
            <path id="Path_94908" data-name="Path 94908" d="M184.062,179.63a59.794,59.794,0,0,1-4.764,4.147C154.759,159.835,32.611,40.647,6.183,14.843Q3.192,7.373,0,0Z" transform="translate(207.183 374.942)" fill="url(#linear-gradient-36)"/>
            <path id="Path_94909" data-name="Path 94909" d="M159.662,155.819a54.331,54.331,0,0,1-6,2.935C65.243,72.469,6.791,15.435,4.787,13.481,3.224,8.98,1.648,4.474,0,0,112.372,109.681,76.539,74.71,159.662,155.819Z" transform="translate(220.106 407.417)" fill="url(#linear-gradient-37)"/>
            <path id="Path_94910" data-name="Path 94910" d="M134.643,131.365a50.938,50.938,0,0,1-7.755,1.241C57.95,65.341,84.41,91.161,4.7,13.371l-.007-.019C3.1,8.917,1.543,4.478,0,0,5.96,5.816,128.832,125.7,134.643,131.365Z" transform="translate(230.627 437.556)" fill="url(#linear-gradient-38)"/>
            <path id="Path_94911" data-name="Path 94911" d="M104.29,101.781a72.607,72.607,0,0,1-10.8-1.748C36.681,44.6,56.663,64.1,6.367,15.018L6.359,15C4.11,10.067,2.008,5.058,0,0,.473.462,39.11,38.168,104.29,101.781Z" transform="translate(241.865 468.347)" fill="url(#linear-gradient-39)"/>
            <path id="Path_94912" data-name="Path 94912" d="M58.059,56.663A114.847,114.847,0,0,1,26.627,34.54,165.159,165.159,0,0,1,0,0C30.382,29.643,17.535,17.1,58.059,56.663Z" transform="translate(259.601 505.509)" fill="url(#linear-gradient-40)"/>
          </g>
        </g>
        <circle id="Ellipse_1821" data-name="Ellipse 1821" cx="228.5" cy="228.5" r="228.5" transform="translate(60.5 0)" fill="url(#linear-gradient-41)"/>
      </g>
      <g id="Group_49038" data-name="Group 49038" transform="translate(1051)">
        <circle id="Ellipse_1820" data-name="Ellipse 1820" cx="181" cy="181" r="181" transform="translate(102)" fill="#06bbed" opacity="0.3"/>
        <circle id="Ellipse_1825" data-name="Ellipse 1825" cx="85.5" cy="85.5" r="85.5" transform="translate(0 297.5)" opacity="0.3" fill="url(#linear-gradient-42)"/>
        <g id="Mask_Group_42" data-name="Mask Group 42" transform="translate(29.6 111.1)" clip-path="url(#clip-path-3)">
          <g id="Group_48840" data-name="Group 48840" transform="matrix(0.891, -0.454, 0.454, 0.891, -246.208, 98.451)" opacity="0.1">
            <path id="Path_94877-2" data-name="Path 94877" d="M367.43,351.659c-.944,2.021-1.843,4.044-2.749,6.08C326.19,320.152,103.642,102.983,0,1.828,2.365,1.189,4.734.583,7.091,0,12.132,4.918,362.4,346.745,367.43,351.659Z" transform="translate(92.282 12.183)" fill="#248aac"/>
            <path id="Path_94878-2" data-name="Path 94878" d="M0,0A314.8,314.8,0,0,1,42.665,32.91l.032.027,8.045,7.854.149.147c8.155,8.47,15.446,17.936,20.3,28.539C63.186,61.668,11.506,11.231,0,0Z" transform="translate(499.188 75.659)" fill="#248aac"/>
            <path id="Path_94879-2" data-name="Path 94879" d="M0,0Q9.286,4.322,18.265,9.08l.014.006c45.8,44.7,22.825,22.28,104.516,102.008a2.918,2.918,0,0,1,.065.319,69.151,69.151,0,0,1,1.061,9.52C35.646,34.791,63.146,61.629,0,0Z" transform="translate(452.71 50.041)" fill="#248aac"/>
            <path id="Path_94880-2" data-name="Path 94880" d="M158.681,146.1l0,.012a48.894,48.894,0,0,1-1.585,7.185C59.9,58.459,93.576,91.324,0,0Q7.5,2.759,14.875,5.761l.011.006C96.48,85.4,63.589,53.3,158.681,146.1Z" transform="translate(417.395 35.325)" fill="#248aac"/>
            <path id="Path_94881-2" data-name="Path 94881" d="M184.7,171.512a65.017,65.017,0,0,1-3.078,5.759C77.428,75.581,116.708,113.919,0,0Q6.613,1.993,13.171,4.122C21.11,11.867,177.783,164.757,184.7,171.512Z" transform="translate(386.71 25.092)" fill="#248aac"/>
            <path id="Path_94882-2" data-name="Path 94882" d="M205.168,191.469c-1.218,1.677-2.5,3.329-3.845,4.986C162.688,158.756,39.533,38.583,0,0,.614.149,11.556,2.855,12.143,3.084,13.1,4.017,204.193,190.517,205.168,191.469Z" transform="translate(358.741 17.546)" fill="#248aac"/>
            <path id="Path_94883-2" data-name="Path 94883" d="M222.293,208.2c-1.346,1.554-2.742,3.118-4.153,4.69C143.158,139.715,93.5,91.247,0,0Q5.678,1.118,11.351,2.333C39.286,29.6,5.066-3.793,222.293,208.2Z" transform="translate(332.7 11.844)" fill="#248aac"/>
            <path id="Path_94884-2" data-name="Path 94884" d="M237.566,223.089q-2.076,2.309-4.139,4.7C155.446,151.691,77.1,75.238,0,0,3.587.547,7.158,1.134,10.751,1.742,196.515,183.022,87.71,76.833,237.566,223.089Z" transform="translate(308.044 7.543)" fill="#248aac"/>
            <path id="Path_94885-2" data-name="Path 94885" d="M251.8,236.983c-1.34,1.614-2.669,3.233-3.977,4.875C70.877,69.153,177.187,172.923,0,0,3.424.4,6.841.816,10.271,1.275l.013,0C169.816,156.993,161.079,148.46,251.8,236.983Z" transform="translate(284.588 4.373)" fill="#248aac"/>
            <path id="Path_94886-2" data-name="Path 94886" d="M265.411,250.274q-1.942,2.472-3.856,4.982C155.374,151.64,127.838,124.769,0,0,3.279.281,6.56.56,9.856.878l.013,0C123.626,111.909,176.7,163.7,265.411,250.274Z" transform="translate(262.084 2.136)" fill="#248aac"/>
            <path id="Path_94887-2" data-name="Path 94887" d="M278.435,262.97c-1.25,1.681-2.5,3.373-3.724,5.093C35.086,34.233,123.821,120.817,0,0Q4.738.218,9.514.522C205,191.3,95.25,84.207,278.435,262.97Z" transform="translate(240.434 0.749)" fill="#248aac"/>
            <path id="Path_94888-2" data-name="Path 94888" d="M290.972,275.223c-1.222,1.721-2.419,3.451-3.619,5.193C279.734,272.983,101.577,99.13,93.228,90.983L0,0Q4.577.066,9.166.208C95.377,84.33,99.482,88.328,290.972,275.223Z" transform="translate(219.529 0.082)" fill="#248aac"/>
            <path id="Path_94889-2" data-name="Path 94889" d="M303.107,287.117c-1.168,1.77-2.34,3.554-3.5,5.344L0,.08Q4.437,0,8.885,0C187.186,173.979,57.324,47.265,303.107,287.117Z" transform="translate(199.3 0)" fill="#248aac"/>
            <path id="Path_94890-2" data-name="Path 94890" d="M314.85,298.862l-.006.013c-1.14,1.811-2.262,3.616-3.363,5.441C281.636,275.195,29.843,29.492,0,.354Q4.267.144,8.6,0Z" transform="translate(179.735 0.35)" fill="#248aac"/>
            <path id="Path_94891-2" data-name="Path 94891" d="M326.192,310.261q-1.649,2.785-3.26,5.585L0,.677C2.9.407,5.659.176,8.267,0,64.408,54.808,191.916,179.217,326.192,310.261Z" transform="translate(160.847 1.317)" fill="#248aac"/>
            <path id="Path_94892-2" data-name="Path 94892" d="M337.092,321.165c-1.067,1.885-2.107,3.78-3.142,5.692C328.911,321.972,46.665,46.517,0,.987,2.727.623,5.382.289,7.963,0,84.561,74.736,98.752,88.618,337.092,321.165Z" transform="translate(142.69 3.053)" fill="#248aac"/>
            <path id="Path_94893-2" data-name="Path 94893" d="M347.531,331.7q-1.54,2.9-3,5.82C343.605,336.617,55.949,55.892,0,1.283,2.585.834,5.147.405,7.655,0,212.76,200.182,347.531,331.7,347.531,331.7Z" transform="translate(125.257 5.455)" fill="#248aac"/>
            <path id="Path_94894-2" data-name="Path 94894" d="M357.647,341.835q-1.46,2.971-2.865,5.963C343.663,336.942,11.973,13.242,0,1.558,2.464,1,4.927.491,7.367,0,97.151,87.632,328.893,313.755,357.647,341.835Z" transform="translate(108.445 8.504)" fill="#248aac"/>
            <path id="Path_94895-2" data-name="Path 94895" d="M376.821,361.1c-.877,2.076-1.75,4.139-2.6,6.227C367.51,360.771,7.12,9.08,0,2.132,2.246,1.388,4.508.679,6.77,0,169.074,158.394,154.314,143.973,376.821,361.1Z" transform="translate(76.799 16.521)" fill="#248aac"/>
            <path id="Path_94896-2" data-name="Path 94896" d="M385.735,370.2q-1.247,3.163-2.443,6.348C313.775,308.682,96.849,97.012,0,2.491,2.116,1.623,4.264.8,6.412,0,58.979,51.3,331.442,317.19,385.735,370.2Z" transform="translate(62.107 21.555)" fill="#248aac"/>
            <path id="Path_94897-2" data-name="Path 94897" d="M394.123,378.77q-1.185,3.232-2.308,6.489C381.328,375.021,25,27.278,0,2.885,1.961,1.9,3.973.927,6.013,0,111.776,103.243,371.608,356.8,394.123,378.77Z" transform="translate(48.297 27.404)" fill="#248aac"/>
            <path id="Path_94898-2" data-name="Path 94898" d="M401.818,386.735q-1.1,3.307-2.147,6.64C208.55,206.866,164.465,163.88,0,3.338,1.8,2.2,3.638,1.075,5.529,0Z" transform="translate(35.505 34.193)" fill="#248aac"/>
            <path id="Path_94899-2" data-name="Path 94899" d="M408.642,393.956c-.677,2.271-1.334,4.537-1.973,6.826C274.895,272.189,404.34,398.488,0,3.921,1.585,2.579,3.229,1.275,4.95,0,167.631,158.737,73.646,67.057,408.642,393.956Z" transform="translate(23.947 42.076)" fill="#248aac"/>
            <path id="Path_94900-2" data-name="Path 94900" d="M414.3,400.189q-.932,3.485-1.8,7C335.8,332.358,319.861,316.775,0,4.635,1.319,3.04,2.734,1.5,4.22,0,59.511,53.959,356.915,344.2,414.3,400.189Z" transform="translate(13.938 51.333)" fill="#248aac"/>
            <path id="Path_94901-2" data-name="Path 94901" d="M418.309,405.069c-.014.038-.011.069-.027.107-.543,2.31-1.08,4.638-1.631,7.005C219.557,219.873,144.816,146.906,0,5.6A59.156,59.156,0,0,1,3.22,0C100.339,94.754,339.273,327.935,418.309,405.069Z" transform="translate(5.976 62.335)" fill="#248aac"/>
            <path id="Path_94902-2" data-name="Path 94902" d="M419.538,407.657q-.869,3.487-1.8,7C324.515,323.693,91.328,96.115,0,6.984A49.877,49.877,0,0,1,1.8,0C66.685,63.331,354.582,344.275,419.538,407.657Z" transform="translate(0.937 75.743)" fill="#248aac"/>
            <path id="Path_94903-2" data-name="Path 94903" d="M416.278,406.227c-.667,2.248-1.358,4.485-2.088,6.707C412.569,411.353,9.9,18.412,1.155,9.879l.006-.013A46.779,46.779,0,0,1,0,0C45.338,44.242,369.187,360.266,416.278,406.227Z" transform="translate(0 92.811)" fill="#248aac"/>
            <path id="Path_94904-2" data-name="Path 94904" d="M307.652,300.235c-.8,2.138-1.631,4.246-2.5,6.309C276.589,278.67,61.3,68.558,35.981,43.867,35.5,42.724,18.1,19.913,0,0,31.708,30.939,278.263,271.554,307.652,300.235Z" transform="translate(103.692 213.739)" fill="#248aac"/>
            <path id="Path_94905-2" data-name="Path 94905" d="M46.265,45.147C35.62,35.979,26.333,28.838,16.758,19.6A117.024,117.024,0,0,1,0,0C44.625,43.541,36.375,35.488,46.265,45.147Z" transform="translate(9.659 121.97)" fill="#248aac"/>
            <path id="Path_94906-2" data-name="Path 94906" d="M242.825,236.965c-.967,1.969-1.992,3.9-3.065,5.766C93.324,99.813,170.82,175.458,13.051,21.484Q6.753,10.589,0,0C204.657,199.708,175.77,171.52,242.825,236.965Z" transform="translate(162.541 290.903)" fill="#248aac"/>
            <path id="Path_94907-2" data-name="Path 94907" d="M209.539,204.482c-1.2,1.742-2.469,3.43-3.8,5.049C69.325,76.389,83.254,90,8.462,17,5.724,11.284,2.92,5.629,0,0,132.528,129.331,104.04,101.543,209.539,204.482Z" transform="translate(188.496 335.956)" fill="#248aac"/>
            <path id="Path_94908-2" data-name="Path 94908" d="M182.967,178.561a59.46,59.46,0,0,1-4.736,4.122C153.838,158.884,32.417,40.4,6.147,14.754Q3.173,7.329,0,0Z" transform="translate(205.95 372.711)" fill="#248aac"/>
            <path id="Path_94909-2" data-name="Path 94909" d="M158.712,154.892a53.967,53.967,0,0,1-5.965,2.918C64.855,72.038,6.751,15.343,4.759,13.4,3.2,8.927,1.639,4.447,0,0,111.7,109.028,76.084,74.265,158.712,154.892Z" transform="translate(218.796 404.992)" fill="#248aac"/>
            <path id="Path_94910-2" data-name="Path 94910" d="M133.842,130.583a50.644,50.644,0,0,1-7.709,1.233C57.6,64.952,83.907,90.618,4.669,13.292l-.007-.019C3.082,8.864,1.533,4.451,0,0,5.925,5.782,128.065,124.949,133.842,130.583Z" transform="translate(229.254 434.952)" fill="#248aac"/>
            <path id="Path_94911-2" data-name="Path 94911" d="M103.669,101.176a72.179,72.179,0,0,1-10.736-1.738C36.463,44.334,56.326,63.719,6.328,14.928l-.007-.017C4.086,10.007,2,5.028,0,0,.47.459,38.877,37.94,103.669,101.176Z" transform="translate(240.426 465.56)" fill="#248aac"/>
            <path id="Path_94912-2" data-name="Path 94912" d="M57.713,56.326A114.159,114.159,0,0,1,26.469,34.335,164.174,164.174,0,0,1,0,0C30.2,29.467,17.431,17,57.713,56.326Z" transform="translate(258.056 502.501)" fill="#248aac"/>
          </g>
        </g>
      </g>
    </g>
  </g>
</svg>
