<svg xmlns="http://www.w3.org/2000/svg" xmlns:xlink="http://www.w3.org/1999/xlink" width="262" height="356" viewBox="0 0 262 356">
  <defs>
    <clipPath id="clip-path">
      <rect id="Rectangle_47158" data-name="Rectangle 47158" width="262" height="356" fill="#fff" stroke="#707070" stroke-width="1"/>
    </clipPath>
  </defs>
  <g id="vehicle-tab-ar-bg" clip-path="url(#clip-path)">
    <g id="Group_49730" data-name="Group 49730" transform="translate(-11.871 13.628)">
      <g id="Group_49717" data-name="Group 49717" transform="translate(164.375 283.897)">
        <path id="Path_97216" data-name="Path 97216" d="M914.56,616.643a1.139,1.139,0,0,0,.164-.012,1.122,1.122,0,0,0,.86-.651l5.286-11.765a1.121,1.121,0,0,0-1.163-1.572l-13.982,1.762a1.121,1.121,0,0,0-.706,1.849l8.7,10A1.122,1.122,0,0,0,914.56,616.643ZM918,605.119l-3.749,8.344-6.166-7.094Z" transform="translate(-904.743 -602.636)" fill="#e2eaf0"/>
      </g>
      <g id="Group_49718" data-name="Group 49718" transform="translate(115.041 289.371)">
        <path id="Path_97217" data-name="Path 97217" d="M598.018,421.261a1.122,1.122,0,0,0,.865-1.834l-5.33-6.479a1.12,1.12,0,0,0-1.532-.19l-6.325,4.664-4.668-14.908a1.121,1.121,0,0,0-2.043-.223l-8.779,15.3a1.121,1.121,0,1,0,1.945,1.117l7.5-13.074,4.371,13.962a1.122,1.122,0,0,0,1.736.567l6.734-4.966,4.654,5.658A1.117,1.117,0,0,0,598.018,421.261Z" transform="translate(-570.058 -401.728)" fill="#e2eaf0"/>
      </g>
      <g id="Group_49725" data-name="Group 49725" transform="translate(31.744 0)">
        <g id="Group_49719" data-name="Group 49719" transform="translate(0 28.258)">
          <path id="Path_97218" data-name="Path 97218" d="M1906.717,452.185l1.8-.843-3.457-7.37-7.082,2.875-.839-15.611-12.126,12.487,1.424,1.383,8.964-9.23.745,13.859,7.917-3.215Z" transform="translate(-1885.01 -431.236)" fill="#e2eaf0"/>
        </g>
        <g id="Group_49720" data-name="Group 49720" transform="translate(63.5 56.623)">
          <path id="Path_97219" data-name="Path 97219" d="M1493.23,399.61a5.6,5.6,0,1,0-5.6-5.6A5.607,5.607,0,0,0,1493.23,399.61Zm0-9.217a3.616,3.616,0,1,1-3.616,3.616A3.619,3.619,0,0,1,1493.23,390.393Z" transform="translate(-1487.629 -388.408)" fill="#e2eaf0"/>
        </g>
        <g id="Group_49724" data-name="Group 49724" transform="translate(28.345)">
          <g id="Group_49721" data-name="Group 49721" transform="translate(14.085 21.496)">
            <path id="Path_97220" data-name="Path 97220" d="M1800.861,462.693a3.381,3.381,0,1,0-3.381-3.381A3.385,3.385,0,0,0,1800.861,462.693Zm0-4.777a1.4,1.4,0,1,1-1.4,1.4A1.4,1.4,0,0,1,1800.861,457.916Z" transform="translate(-1797.48 -455.931)" fill="#e2eaf0"/>
          </g>
          <g id="Group_49722" data-name="Group 49722" transform="translate(8.463 11.942)">
            <path id="Path_97221" data-name="Path 97221" d="M1798.241,435.09l1.419-1.388a12.933,12.933,0,0,0-18.263-.258l1.38,1.427a10.949,10.949,0,0,1,15.464.219Z" transform="translate(-1781.397 -429.797)" fill="#e2eaf0"/>
          </g>
          <g id="Group_49723" data-name="Group 49723" transform="translate(0 0)">
            <path id="Path_97222" data-name="Path 97222" d="M1792.079,405.937l1.415-1.392a24.84,24.84,0,0,0-35.156-.248l1.4,1.412a22.855,22.855,0,0,1,32.345.228Z" transform="translate(-1758.339 -397.131)" fill="#e2eaf0"/>
          </g>
        </g>
      </g>
      <g id="Group_49729" data-name="Group 49729" transform="translate(0 49.207)">
        <rect id="Rectangle_47146" data-name="Rectangle 47146" width="35" height="15" transform="translate(13.262 192.029)" fill="#e2eaf0"/>
        <path id="Path_97223" data-name="Path 97223" d="M50.633,0H4.6L-1.767,15.624s1.4,2.7,8.467,5.161c3.7,1.29,11.947.988,20.761.907,7.491-.068,15.524.2,20.173-.907,9.766-2.323,10.3-5.161,10.3-5.161Z" transform="translate(50.096 69.844)" fill="#e2eaf0"/>
        <rect id="Rectangle_47147" data-name="Rectangle 47147" width="35" height="15" transform="translate(110.262 192.029)" fill="#e2eaf0"/>
        <g id="Group_49726" data-name="Group 49726" transform="translate(0.895)">
          <rect id="Rectangle_47148" data-name="Rectangle 47148" width="2.029" height="41.326" transform="translate(13.425 1.063)" fill="#e2eaf0"/>
          <path id="Path_97224" data-name="Path 97224" d="M298.662,269.507a24.768,24.768,0,0,1-14.439-4.6l1.177-1.654a22.706,22.706,0,0,0,7.681,3.546c-3.239-3.461-8.52-11.024-8.127-23.251.586-18.275,11.555-23.618,12.023-23.836l.227-.107.25.012s.778.037,1.207.037a24.928,24.928,0,0,1,0,49.857m-1.977-2.113q.981.084,1.977.084a22.9,22.9,0,0,0,0-45.8c-.3,0-.747-.016-1.032-.027-1.5.806-10.141,6.135-10.648,21.957-.519,16.112,9.61,23.7,9.712,23.773Z" transform="translate(-284.223 -219.602)" fill="#e2eaf0"/>
          <path id="Path_97225" data-name="Path 97225" d="M309.963,273.343l-1.2-1.639c.1-.074,10.23-7.715,9.712-23.772a34.877,34.877,0,0,0-3.14-14.1l1.827-.882a36.86,36.86,0,0,1,3.341,14.913c.554,17.173-10.09,25.145-10.543,25.477" transform="translate(-292.167 -223.924)" fill="#e2eaf0"/>
          <rect id="Rectangle_47149" data-name="Rectangle 47149" width="34.521" height="2.029" transform="translate(2.666 15.797)" fill="#e2eaf0"/>
          <rect id="Rectangle_47150" data-name="Rectangle 47150" width="33.829" height="2.029" transform="translate(2.191 32.128)" fill="#e2eaf0"/>
        </g>
        <path id="Path_97226" data-name="Path 97226" d="M63.409,13.824,68.356,2.813,55.27,4.462Zm1.616-8.546L62.858,10.1,59.295,6Z" transform="translate(91.527 4.118)" fill="#e2eaf0"/>
        <path id="Path_97227" data-name="Path 97227" d="M308.015,146.177a4.628,4.628,0,1,0-4.629-4.629,4.634,4.634,0,0,0,4.629,4.629m0-7.228a2.6,2.6,0,1,1-2.6,2.6,2.6,2.6,0,0,1,2.6-2.6" transform="translate(-278.563 92.708)" fill="#e2eaf0"/>
        <path id="Path_97228" data-name="Path 97228" d="M266.746,227.483a1.014,1.014,0,0,0,1.014-1.014V213.085a26.368,26.368,0,0,0-7.732-18.724l-21.711-21.808V144a7.673,7.673,0,0,0-15.3-.831l-5.147,46.324a12.475,12.475,0,0,0,2.427,8.893l12.34,16.454a12.935,12.935,0,0,1,2.282,10.58,1.014,1.014,0,0,0,1.98.44,14.963,14.963,0,0,0-2.638-12.237l-12.34-16.454a10.444,10.444,0,0,1-2.033-7.451l5.146-46.324a5.644,5.644,0,0,1,11.254.607v28.97a1.016,1.016,0,0,0,.295.716l22.007,22.106a24.351,24.351,0,0,1,7.141,17.292v13.383a1.014,1.014,0,0,0,1.014,1.014" transform="translate(-217.793 -39.103)" fill="#e2eaf0"/>
        <path id="Path_97229" data-name="Path 97229" d="M257.9,219.194a1.014,1.014,0,0,0,.718-1.732l-15.249-15.247a5.687,5.687,0,0,1,8.042-8.042l11.749,11.75a1.015,1.015,0,1,0,1.435-1.434l-11.749-11.75a7.715,7.715,0,0,0-10.91,10.911L257.179,218.9a1.011,1.011,0,0,0,.717.3" transform="translate(-229.722 -56.629)" fill="#e2eaf0"/>
        <path id="Path_97230" data-name="Path 97230" d="M251.54,290.736a1.015,1.015,0,0,0,1.014-1.014V274.815a1.015,1.015,0,0,0-1.014-1.014H209.479a1.015,1.015,0,0,0-1.014,1.014v14.722a1.014,1.014,0,0,0,2.029,0V275.83h40.032v13.892a1.015,1.015,0,0,0,1.014,1.014" transform="translate(-196.279 -83.599)" fill="#e2eaf0"/>
        <path id="Path_97231" data-name="Path 97231" d="M57.255,227.483a1.014,1.014,0,0,0,1.014-1.014V213.085a24.353,24.353,0,0,1,7.14-17.292l22.008-22.106a1.016,1.016,0,0,0,.295-.716V144a5.644,5.644,0,0,1,11.254-.607l5.146,46.324a10.445,10.445,0,0,1-2.033,7.452L89.74,213.623A14.96,14.96,0,0,0,87.1,225.86a1.014,1.014,0,0,0,1.98-.44,12.934,12.934,0,0,1,2.282-10.58l12.34-16.454a12.475,12.475,0,0,0,2.427-8.893l-5.147-46.324a7.673,7.673,0,0,0-15.3.831v28.552L63.972,194.361a26.371,26.371,0,0,0-7.732,18.724v13.383a1.014,1.014,0,0,0,1.014,1.014" transform="translate(53.019 -39.103)" fill="#e2eaf0"/>
        <path id="Path_97232" data-name="Path 97232" d="M77.954,219.194a1.011,1.011,0,0,0,.718-.3l15.247-15.248a7.715,7.715,0,0,0-10.91-10.911l-11.749,11.75a1.014,1.014,0,0,0,1.434,1.434l11.749-11.75a5.686,5.686,0,0,1,8.041,8.042L77.236,217.462a1.014,1.014,0,0,0,.718,1.732" transform="translate(53.099 -56.629)" fill="#e2eaf0"/>
        <path id="Path_97233" data-name="Path 97233" d="M75.273,290.736a1.015,1.015,0,0,0,1.014-1.014V275.83H116.32v13.707a1.014,1.014,0,1,0,2.029,0V274.815a1.015,1.015,0,0,0-1.014-1.014H75.273a1.015,1.015,0,0,0-1.014,1.014v14.906a1.015,1.015,0,0,0,1.014,1.014" transform="translate(28.692 -83.599)" fill="#e2eaf0"/>
        <path id="Path_97234" data-name="Path 97234" d="M124.878,104.8q.282-.765.584-1.522l-1.884-.753q-.311.781-.6,1.572Zm1.625-3.967c.364-.806.749-1.612,1.146-2.4l-1.811-.914c-.409.81-.807,1.643-1.184,2.476Zm2.4-4.743c.429-.764.883-1.535,1.35-2.291l-1.725-1.067c-.483.78-.952,1.576-1.395,2.366Zm2.8-4.523c.492-.725,1.01-1.455,1.541-2.17l-1.629-1.209c-.548.739-1.083,1.492-1.591,2.24Zm3.174-4.275c.55-.68,1.128-1.365,1.717-2.036l-1.524-1.34c-.608.692-1.2,1.4-1.771,2.1Zm3.517-4c.61-.64,1.242-1.276,1.879-1.893l-1.411-1.457c-.656.635-1.307,1.291-1.936,1.95Zm3.833-3.71c.656-.587,1.337-1.173,2.023-1.739l-1.293-1.564c-.706.584-1.407,1.186-2.083,1.792Zm4.115-3.4c.7-.533,1.42-1.064,2.151-1.58l-1.169-1.658c-.753.531-1.5,1.078-2.216,1.626Zm4.364-3.078c.739-.48,1.5-.956,2.267-1.414l-1.042-1.741c-.787.471-1.571.96-2.331,1.455Zm4.586-2.744c.776-.425,1.571-.844,2.366-1.243l-.911-1.813c-.816.41-1.635.841-2.432,1.278Zm69.494-2.072.864-1.835c-.823-.388-1.664-.766-2.5-1.123l-.8,1.866c.814.348,1.632.715,2.434,1.092m-64.717-.329c.81-.371,1.635-.73,2.451-1.069l-.778-1.873c-.838.348-1.685.717-2.517,1.1Zm59.811-1.769.73-1.893c-.849-.328-1.715-.645-2.573-.941l-.662,1.918c.835.288,1.677.6,2.505.916M165,65.912c.833-.311,1.681-.611,2.523-.892l-.643-1.925c-.864.289-1.735.6-2.59.916Zm49.83-1.463.6-1.94c-.867-.266-1.753-.521-2.633-.757l-.527,1.96c.858.23,1.72.478,2.564.737m-44.755-.233c.854-.252,1.722-.492,2.58-.712l-.506-1.965c-.881.227-1.771.472-2.648.731Zm39.6-1.152.459-1.977c-.881-.2-1.782-.4-2.678-.571l-.39,1.991c.874.17,1.751.358,2.609.557m-34.424-.18c.861-.19,1.741-.369,2.616-.53l-.369-2c-.9.166-1.8.349-2.685.544Zm29.185-.845.321-2c-.9-.144-1.81-.274-2.711-.386l-.251,2.013c.878.11,1.767.236,2.642.377M180.5,61.915c.882-.131,1.773-.248,2.647-.348l-.229-2.016c-.9.1-1.812.223-2.716.357Zm18.641-.537.182-2.021c-.9-.081-1.82-.149-2.73-.2l-.114,2.026c.887.05,1.783.116,2.662.195m-13.335-.07c.883-.07,1.779-.126,2.665-.166l-.093-2.027c-.909.041-1.828.1-2.734.171Zm8.005-.229.045-2.028c-.911-.02-1.826-.025-2.739-.014l.024,2.029c.889-.01,1.783,0,2.671.014" transform="translate(-111.548 -14.079)" fill="#e2eaf0"/>
        <path id="Path_97235" data-name="Path 97235" d="M87.936,291.164a3.18,3.18,0,1,0-.849-.117,3.179,3.179,0,0,0,.849.117m0-4.312a1.122,1.122,0,0,1,.306.042,1.14,1.14,0,1,1-.306-.042" transform="translate(48.831 -87.167)" fill="#fff"/>
        <path id="Path_97236" data-name="Path 97236" d="M258.579,291.164a3.169,3.169,0,0,0,2.757-4.729,3.171,3.171,0,0,0-2.76-1.612,3.17,3.17,0,0,0-2.758,4.73,3.145,3.145,0,0,0,1.911,1.494,3.2,3.2,0,0,0,.85.117m0-4.312a1.141,1.141,0,0,1,.994.58,1.14,1.14,0,1,1-.994-.58" transform="translate(-237.22 -87.167)" fill="#fff"/>
        <path id="Path_97237" data-name="Path 97237" d="M29.874,265.332,50.1,256.011l2.04-22.175L33.952,220.982l-11.288,5.2.849,1.843,10.224-4.713,16.271,11.5-1.825,19.842L30.087,263,13.817,251.5,15,238.652l-2.021-.186-1.289,14.012Z" transform="translate(137.22 -66.502)" fill="#e2eaf0"/>
        <path id="Path_97238" data-name="Path 97238" d="M38,257.6a8,8,0,1,0-4.613-1.466A8.007,8.007,0,0,0,38,257.6m.019-13.987a5.979,5.979,0,1,1-4.892,2.527,5.946,5.946,0,0,1,4.892-2.527" transform="translate(130.954 -73.171)" fill="#e2eaf0"/>
        <g id="Group_49727" data-name="Group 49727" transform="translate(48.262 218.314)">
          <path id="Path_97239" data-name="Path 97239" d="M288.282,51.611h2.029V10.773h-45V50.221h2.029V12.8h40.939Z" transform="translate(-237.387 -10.773)" fill="#e2eaf0"/>
          <path id="Path_97240" data-name="Path 97240" d="M260.586,33.071a4.365,4.365,0,0,0,3.37-1.658c.673-.688,1.064-1.047,1.919-1.047s1.245.359,1.917,1.047a4.251,4.251,0,0,0,6.738,0c.672-.688,1.063-1.047,1.917-1.047s1.246.359,1.917,1.047a4.249,4.249,0,0,0,6.736,0c.672-.688,1.062-1.047,1.916-1.047V28.337A4.361,4.361,0,0,0,283.649,30c-.672.688-1.062,1.047-1.916,1.047s-1.245-.359-1.917-1.047a4.251,4.251,0,0,0-6.738,0c-.672.688-1.063,1.047-1.918,1.047s-1.245-.359-1.917-1.047a4.252,4.252,0,0,0-6.738,0c-.673.688-1.064,1.048-1.92,1.048s-1.246-.359-1.919-1.047a4.365,4.365,0,0,0-3.369-1.658v2.029c.855,0,1.246.359,1.919,1.047a4.365,4.365,0,0,0,3.369,1.658" transform="translate(-240.843 -16.458)" fill="#e2eaf0"/>
          <rect id="Rectangle_47151" data-name="Rectangle 47151" width="13.21" height="2.029" transform="translate(32.963 31.704)" fill="#e2eaf0"/>
          <rect id="Rectangle_47152" data-name="Rectangle 47152" width="13.21" height="2.029" transform="translate(32.963 24.177)" fill="#e2eaf0"/>
          <rect id="Rectangle_47153" data-name="Rectangle 47153" width="18.784" height="2.029" transform="translate(27.39 39.229)" fill="#e2eaf0"/>
          <path id="Path_97241" data-name="Path 97241" d="M290.977,87.629l19.179-34.271-8.845-4.934L282.132,82.7Zm16.416-33.489L290.2,84.87l-5.3-2.957,17.2-30.731Z" transform="translate(-282.132 -22.96)" fill="#e2eaf0"/>
          <path id="Path_97242" data-name="Path 97242" d="M289.735,50.6l.874-11.129-9.516,6.257,1.115,1.7,6.054-3.981-.549,7Z" transform="translate(-261.882 -20.062)" fill="#e2eaf0"/>
          <rect id="Rectangle_47154" data-name="Rectangle 47154" width="8.099" height="2.029" transform="translate(10.293 59.885) rotate(-150.854)" fill="#e2eaf0"/>
          <path id="Path_97243" data-name="Path 97243" d="M236.458,27.869a3.91,3.91,0,0,0,0-7.82v2.029a1.881,1.881,0,0,1,0,3.762Z" transform="translate(-181.453 -13.776)" fill="#e2eaf0"/>
          <path id="Path_97244" data-name="Path 97244" d="M236.458,60.941a3.91,3.91,0,0,0,0-7.82V55.15a1.881,1.881,0,0,1,0,3.762Z" transform="translate(-181.453 -24.481)" fill="#e2eaf0"/>
          <path id="Path_97245" data-name="Path 97245" d="M236.458,44.145a3.91,3.91,0,0,0,0-7.82v2.029a1.881,1.881,0,0,1,0,3.762Z" transform="translate(-181.453 -19.044)" fill="#e2eaf0"/>
          <rect id="Rectangle_47155" data-name="Rectangle 47155" width="27.198" height="2.029" transform="translate(17.776 51.735)" fill="#e2eaf0"/>
        </g>
        <path id="Path_97246" data-name="Path 97246" d="M54.708,97.125A32.059,32.059,0,1,0,32.02,87.743a31.985,31.985,0,0,0,22.687,9.382m0-62.112A30.032,30.032,0,1,1,33.455,43.8a29.962,29.962,0,0,1,21.253-8.789" transform="translate(95.17 -5.648)" fill="#e2eaf0"/>
        <path id="Path_97247" data-name="Path 97247" d="M56.1,69.114h2.029C58.126,55.232,46.7,43.5,33.18,43.5v2.029c12.422,0,22.917,10.8,22.917,23.582" transform="translate(116.697 -9.053)" fill="#e2eaf0"/>
        <path id="Path_97248" data-name="Path 97248" d="M33.163,105.362A24.985,24.985,0,0,0,58.119,80.4H56.091a22.954,22.954,0,0,1-22.928,22.928Z" transform="translate(116.715 -20.998)" fill="#e2eaf0"/>
        <path id="Path_97249" data-name="Path 97249" d="M95.021,104.975v-2.029c-12.429,0-22.928-10.87-22.928-23.738H70.064c0,13.967,11.429,25.767,24.957,25.767" transform="translate(54.856 -20.611)" fill="#e2eaf0"/>
        <path id="Path_97250" data-name="Path 97250" d="M70.065,68.46h2.029A22.955,22.955,0,0,1,95.022,45.532V43.5A24.986,24.986,0,0,0,70.065,68.46" transform="translate(54.855 -9.053)" fill="#e2eaf0"/>
        <rect id="Rectangle_47156" data-name="Rectangle 47156" width="6.876" height="2.029" transform="translate(180.152 81.708) rotate(-135)" fill="#e2eaf0"/>
        <rect id="Rectangle_47157" data-name="Rectangle 47157" width="6.876" height="2.029" transform="translate(170.071 91.788) rotate(-135)" fill="#e2eaf0"/>
        <path id="Path_97251" data-name="Path 97251" d="M14.807,130.672l19.328-19.328-6.979-6.979L7.828,123.693Zm16.459-19.328L14.807,127.8l-4.11-4.11,16.459-16.459Z" transform="translate(157.834 -28.754)" fill="#e2eaf0"/>
        <path id="Path_97252" data-name="Path 97252" d="M11.854,142.064a3.983,3.983,0,0,0,2.832-1.172l5.853-5.854a4,4,0,0,0,0-5.662l-9.024-9.024-1.434,1.435,9.024,9.024a1.975,1.975,0,0,1,0,2.792l-5.853,5.853a2.022,2.022,0,0,1-2.792,0l-9.024-9.024L0,131.867l9.023,9.024a3.978,3.978,0,0,0,2.831,1.173" transform="translate(175.551 -33.929)" fill="#e2eaf0"/>
        <path id="Path_97253" data-name="Path 97253" d="M56.352,90.038A11.835,11.835,0,0,0,56.5,66.368l-1.027-.012V77.781l-8.145,8.145.73.718a11.768,11.768,0,0,0,8.294,3.394M57.5,68.464a9.806,9.806,0,0,1-1.151,19.545,9.741,9.741,0,0,1-6.1-2.132L57.5,78.622Z" transform="translate(97.065 -16.451)" fill="#e2eaf0"/>
        <path id="Path_97254" data-name="Path 97254" d="M74.505,83.485,85.978,73.367v-13.4H84.963A14.077,14.077,0,0,0,70.9,74.025a13.926,13.926,0,0,0,2.941,8.606Zm9.443-11.034L74.821,80.5a11.9,11.9,0,0,1-1.89-6.477,12.049,12.049,0,0,1,11.018-11.99Z" transform="translate(63.333 -14.382)" fill="#e2eaf0"/>
        <g id="Group_49728" data-name="Group 49728" transform="translate(30.34 69.04)">
          <path id="Path_97098" data-name="Path 97098" d="M2459.543,106.26h11.946a3.366,3.366,0,0,0,3.363-3.362V98.451a1.015,1.015,0,0,0-2.029,0V102.9a1.335,1.335,0,0,1-1.334,1.333h-11.946a1.334,1.334,0,0,1-1.333-1.333v-9.71a1.015,1.015,0,0,0-.591-.922l-1.984-.913a1.659,1.659,0,0,1-.832-1.3V72.7a7.109,7.109,0,0,1,.585-2.53l1.987-4.068a1.014,1.014,0,0,0-.473-1.36l-6.849-3.28a1.3,1.3,0,0,1-.647-1.184l.388-3.044a.813.813,0,0,1,.756-.666H2461.4a1.015,1.015,0,0,0,.912-.569l6.308-12.922a7.221,7.221,0,0,1,5.844-3.651h42a7.214,7.214,0,0,1,5.843,3.65L2528.616,56a1.014,1.014,0,0,0,.912.569h10.843a.821.821,0,0,1,.759.667l.385,3.041a1.3,1.3,0,0,1-.643,1.185l-6.853,3.28a1.014,1.014,0,0,0-.473,1.361l1.99,4.069a7.113,7.113,0,0,1,.583,2.528V90.055a1.66,1.66,0,0,1-.834,1.3l-1.983.912a1.014,1.014,0,0,0-.591.922v9.71a1.334,1.334,0,0,1-1.331,1.333h-11.946a1.335,1.335,0,0,1-1.334-1.333V98.451a1.015,1.015,0,0,0-2.029,0V102.9a3.366,3.366,0,0,0,3.363,3.362h11.946a3.365,3.365,0,0,0,3.36-3.362v-9.06l1.394-.641a3.665,3.665,0,0,0,2.014-3.142V72.7a8.984,8.984,0,0,0-.789-3.418l-1.541-3.151,5.93-2.838a3.317,3.317,0,0,0,1.78-3.272l-.385-3.041v0a2.838,2.838,0,0,0-2.771-2.435h-10.21l-6.033-12.353a9.19,9.19,0,0,0-7.666-4.789h-42a9.2,9.2,0,0,0-7.667,4.789l-6.03,12.352h-10.213a2.827,2.827,0,0,0-2.769,2.44l-.388,3.041a3.318,3.318,0,0,0,1.785,3.271l5.926,2.838-1.539,3.15a8.986,8.986,0,0,0-.79,3.419V90.055a3.665,3.665,0,0,0,2.011,3.141l1.4.642v9.06A3.366,3.366,0,0,0,2459.543,106.26Z" transform="translate(-2447.37 -37.4)" fill="#e2eaf0"/>
          <path id="Line_413" data-name="Line 413" d="M-.486.529H57.573A1.014,1.014,0,0,0,58.588-.486,1.014,1.014,0,0,0,57.573-1.5H-.486A1.014,1.014,0,0,0-1.5-.486,1.014,1.014,0,0,0-.486.529Z" transform="translate(19.546 56.274)" fill="#e2eaf0"/>
          <path id="Path_97099" data-name="Path 97099" d="M2553.383,144.01h38.638a12.557,12.557,0,0,0,4.9-1.181l3.882-1.989a1.014,1.014,0,0,0-.925-1.806L2596,141.023a10.534,10.534,0,0,1-3.976.958h-38.638a10.513,10.513,0,0,1-3.974-.958l-3.881-1.989a1.014,1.014,0,1,0-.925,1.806l3.881,1.989A12.538,12.538,0,0,0,2553.383,144.01Z" transform="translate(-2524.613 -118.512)" fill="#e2eaf0"/>
          <path id="Line_414" data-name="Line 414" d="M-.486.529h27.3A1.014,1.014,0,0,0,27.832-.486,1.014,1.014,0,0,0,26.818-1.5H-.486A1.014,1.014,0,0,0-1.5-.486,1.014,1.014,0,0,0-.486.529Z" transform="translate(34.924 46.619)" fill="#e2eaf0"/>
          <path id="Path_97100" data-name="Path 97100" d="M2518.492,204.247a3.5,3.5,0,0,0,.78-.089l9.022-2.056a1.014,1.014,0,0,0-.451-1.978l-9.023,2.056a1.006,1.006,0,0,1-1.334-1.063v-2.4a2.486,2.486,0,0,1,1.791-2.27l4.874-1.164a1.014,1.014,0,0,0-.471-1.973l-4.874,1.164a4.521,4.521,0,0,0-3.348,4.244v2.4a3.139,3.139,0,0,0,1.136,2.487A3.024,3.024,0,0,0,2518.492,204.247Z" transform="translate(-2446.592 -161.94)" fill="#e2eaf0"/>
          <path id="Path_97101" data-name="Path 97101" d="M2800.5,204.247a3.026,3.026,0,0,0,1.9-.643,3.139,3.139,0,0,0,1.136-2.487v-2.4a4.521,4.521,0,0,0-3.348-4.244l-4.876-1.164a1.014,1.014,0,1,0-.471,1.973l4.876,1.164a2.485,2.485,0,0,1,1.79,2.27v2.4a1.006,1.006,0,0,1-1.334,1.063l-9.021-2.057a1.014,1.014,0,0,0-.451,1.978l9.021,2.056A3.5,3.5,0,0,0,2800.5,204.247Z" transform="translate(-2776.22 -161.939)" fill="#e2eaf0"/>
        </g>
        <path id="Path_97255" data-name="Path 97255" d="M56.352,90.038A11.835,11.835,0,0,0,56.5,66.368l-1.027-.012V77.781l-8.145,8.145.73.718a11.768,11.768,0,0,0,8.294,3.394" transform="translate(97.065 -16.451)" fill="#e2eaf0"/>
      </g>
    </g>
  </g>
</svg>
