<svg xmlns="http://www.w3.org/2000/svg" xmlns:xlink="http://www.w3.org/1999/xlink" width="262" height="356" viewBox="0 0 262 356">
  <defs>
    <clipPath id="clip-path">
      <rect id="Rectangle_47054" data-name="Rectangle 47054" width="262" height="356" transform="translate(1042 325)" fill="#fff" stroke="#707070" stroke-width="1"/>
    </clipPath>
  </defs>
  <g id="vehicle-tab-bg" transform="translate(-1042 -325)" clip-path="url(#clip-path)">
    <g id="Group_49597" data-name="Group 49597" transform="translate(774.473 31.272)">
      <g id="Group_49548" data-name="Group 49548" transform="translate(360.798 591.253)">
        <path id="Path_96972" data-name="Path 96972" d="M911.151,616.643a1.139,1.139,0,0,1-.164-.012,1.122,1.122,0,0,1-.86-.651l-5.286-11.765a1.121,1.121,0,0,1,1.163-1.572l13.982,1.762a1.121,1.121,0,0,1,.706,1.849l-8.7,10A1.122,1.122,0,0,1,911.151,616.643Zm-3.445-11.524,3.749,8.344,6.166-7.094Z" transform="translate(-904.743 -602.636)" fill="#e2eaf0"/>
      </g>
      <g id="Group_49549" data-name="Group 49549" transform="translate(397.276 596.728)">
        <path id="Path_96973" data-name="Path 96973" d="M571.179,421.261a1.122,1.122,0,0,1-.865-1.834l5.33-6.479a1.12,1.12,0,0,1,1.532-.19l6.325,4.664,4.668-14.908a1.121,1.121,0,0,1,2.043-.223l8.779,15.3a1.121,1.121,0,1,1-1.945,1.117l-7.5-13.074-4.371,13.962a1.122,1.122,0,0,1-1.736.567l-6.734-4.966-4.654,5.658A1.117,1.117,0,0,1,571.179,421.261Z" transform="translate(-570.058 -401.728)" fill="#e2eaf0"/>
      </g>
      <g id="Group_49596" data-name="Group 49596" transform="translate(-1093.289 -105.802)">
        <g id="Group_49589" data-name="Group 49589" transform="translate(1579.439 441.417)">
          <path id="Path_96992" data-name="Path 96992" d="M1886.808,452.185l-1.8-.843,3.457-7.37,7.082,2.875.839-15.611,12.126,12.487-1.424,1.383-8.964-9.23-.745,13.859-7.917-3.215Z" transform="translate(-1885.01 -431.236)" fill="#e2eaf0"/>
        </g>
        <g id="Group_49591" data-name="Group 49591" transform="translate(1528.242 469.782)">
          <path id="Path_96994" data-name="Path 96994" d="M1493.23,399.61a5.6,5.6,0,1,1,5.6-5.6A5.607,5.607,0,0,1,1493.23,399.61Zm0-9.217a3.616,3.616,0,1,0,3.616,3.616A3.619,3.619,0,0,0,1493.23,390.393Z" transform="translate(-1487.629 -388.408)" fill="#e2eaf0"/>
        </g>
        <g id="Group_49595" data-name="Group 49595" transform="translate(1539.443 413.159)">
          <g id="Group_49592" data-name="Group 49592" transform="translate(14.309 21.496)">
            <path id="Path_96995" data-name="Path 96995" d="M1800.861,462.693a3.381,3.381,0,1,1,3.381-3.381A3.385,3.385,0,0,1,1800.861,462.693Zm0-4.777a1.4,1.4,0,1,0,1.4,1.4A1.4,1.4,0,0,0,1800.861,457.916Z" transform="translate(-1797.48 -455.931)" fill="#e2eaf0"/>
          </g>
          <g id="Group_49593" data-name="Group 49593" transform="translate(8.43 11.942)">
            <path id="Path_96996" data-name="Path 96996" d="M1782.816,435.09,1781.4,433.7a12.933,12.933,0,0,1,18.263-.258l-1.38,1.427a10.949,10.949,0,0,0-15.464.219Z" transform="translate(-1781.397 -429.797)" fill="#e2eaf0"/>
          </g>
          <g id="Group_49594" data-name="Group 49594" transform="translate(0 0)">
            <path id="Path_96997" data-name="Path 96997" d="M1759.754,405.937l-1.415-1.392a24.84,24.84,0,0,1,35.156-.248l-1.4,1.412a22.855,22.855,0,0,0-32.345.228Z" transform="translate(-1758.339 -397.131)" fill="#e2eaf0"/>
          </g>
        </g>
      </g>
      <g id="Group_49608" data-name="Group 49608" transform="translate(288.136 -558.408)">
        <rect id="Rectangle_47089" data-name="Rectangle 47089" width="35" height="15" transform="translate(205 1107.001)" fill="#e2eaf0"/>
        <path id="Path_97112" data-name="Path 97112" d="M5.533,0H51.566l6.367,15.624s-1.4,2.7-8.467,5.161c-3.7,1.29-11.947.988-20.761.907-7.491-.068-15.524.2-20.173-.907-9.766-2.323-10.3-5.161-10.3-5.161Z" transform="translate(147 984.816)" fill="#e2eaf0"/>
        <rect id="Rectangle_47088" data-name="Rectangle 47088" width="35" height="15" transform="translate(108 1107.001)" fill="#e2eaf0"/>
        <g id="Group_49610" data-name="Group 49610" transform="translate(213 914.972)">
          <rect id="Rectangle_47055" data-name="Rectangle 47055" width="2.029" height="41.326" transform="translate(23.913 1.063)" fill="#e2eaf0"/>
          <path id="Path_96998" data-name="Path 96998" d="M309.151,269.507a24.768,24.768,0,0,0,14.439-4.6l-1.177-1.654a22.706,22.706,0,0,1-7.681,3.546c3.239-3.461,8.52-11.024,8.127-23.251-.586-18.275-11.555-23.618-12.023-23.836l-.227-.107-.25.012s-.778.037-1.207.037a24.928,24.928,0,0,0,0,49.857m1.977-2.113q-.981.084-1.977.084a22.9,22.9,0,0,1,0-45.8c.3,0,.747-.016,1.032-.027,1.5.806,10.141,6.135,10.648,21.957.519,16.112-9.61,23.7-9.712,23.773Z" transform="translate(-284.223 -219.602)" fill="#e2eaf0"/>
          <path id="Path_96999" data-name="Path 96999" d="M319.33,273.343l1.2-1.639c-.1-.074-10.23-7.715-9.712-23.772a34.877,34.877,0,0,1,3.14-14.1l-1.827-.882a36.86,36.86,0,0,0-3.341,14.913c-.554,17.173,10.09,25.145,10.543,25.477" transform="translate(-297.759 -223.924)" fill="#e2eaf0"/>
          <rect id="Rectangle_47056" data-name="Rectangle 47056" width="34.521" height="2.029" transform="translate(2.18 15.797)" fill="#e2eaf0"/>
          <rect id="Rectangle_47057" data-name="Rectangle 47057" width="33.829" height="2.029" transform="translate(3.347 32.128)" fill="#e2eaf0"/>
        </g>
        <path id="Path_97000" data-name="Path 97000" d="M60.217,13.824,55.27,2.813,68.356,4.462ZM58.6,5.277,60.768,10.1,64.331,6Z" transform="translate(38.11 919.09)" fill="#e2eaf0"/>
        <path id="Path_97002" data-name="Path 97002" d="M308.015,146.177a4.628,4.628,0,1,1,4.629-4.629,4.634,4.634,0,0,1-4.629,4.629m0-7.228a2.6,2.6,0,1,0,2.6,2.6,2.6,2.6,0,0,0-2.6-2.6" transform="translate(-84.204 1007.68)" fill="#e2eaf0"/>
        <path id="Path_97017" data-name="Path 97017" d="M218.807,227.483a1.014,1.014,0,0,1-1.014-1.014V213.085a26.368,26.368,0,0,1,7.732-18.724l21.711-21.808V144a7.673,7.673,0,0,1,15.3-.831l5.147,46.324a12.475,12.475,0,0,1-2.427,8.893l-12.34,16.454a12.935,12.935,0,0,0-2.282,10.58,1.014,1.014,0,0,1-1.98.44,14.963,14.963,0,0,1,2.638-12.237l12.34-16.454a10.444,10.444,0,0,0,2.033-7.451l-5.146-46.324a5.644,5.644,0,0,0-11.254.607v28.97a1.016,1.016,0,0,1-.295.716l-22.007,22.106a24.351,24.351,0,0,0-7.141,17.292v13.383a1.014,1.014,0,0,1-1.014,1.014" transform="translate(-14.498 875.869)" fill="#e2eaf0"/>
        <path id="Path_97018" data-name="Path 97018" d="M246.671,219.194a1.014,1.014,0,0,1-.718-1.732L261.2,202.215a5.687,5.687,0,0,0-8.042-8.042l-11.749,11.75a1.015,1.015,0,0,1-1.435-1.434l11.749-11.75a7.715,7.715,0,0,1,10.91,10.911L247.388,218.9a1.011,1.011,0,0,1-.717.3" transform="translate(-21.582 858.342)" fill="#e2eaf0"/>
        <path id="Path_97019" data-name="Path 97019" d="M209.479,290.736a1.015,1.015,0,0,1-1.014-1.014V274.815a1.015,1.015,0,0,1,1.014-1.014H251.54a1.015,1.015,0,0,1,1.014,1.014v14.722a1.014,1.014,0,1,1-2.029,0V275.83H210.494v13.892a1.015,1.015,0,0,1-1.014,1.014" transform="translate(-11.479 831.373)" fill="#e2eaf0"/>
        <path id="Path_97020" data-name="Path 97020" d="M105.193,227.483a1.014,1.014,0,0,1-1.014-1.014V213.085a24.353,24.353,0,0,0-7.14-17.292L75.031,173.687a1.016,1.016,0,0,1-.295-.716V144a5.644,5.644,0,0,0-11.254-.607l-5.146,46.324a10.445,10.445,0,0,0,2.033,7.452l12.34,16.454a14.96,14.96,0,0,1,2.638,12.237,1.014,1.014,0,0,1-1.98-.44,12.934,12.934,0,0,0-2.282-10.58l-12.34-16.454a12.475,12.475,0,0,1-2.427-8.893l5.147-46.324a7.673,7.673,0,0,1,15.3.831v28.552l21.712,21.808a26.371,26.371,0,0,1,7.732,18.724v13.383a1.014,1.014,0,0,1-1.014,1.014" transform="translate(37.795 875.869)" fill="#e2eaf0"/>
        <path id="Path_97021" data-name="Path 97021" d="M89.179,219.194a1.011,1.011,0,0,1-.718-.3L73.214,203.649a7.715,7.715,0,0,1,10.91-10.911l11.749,11.75a1.014,1.014,0,1,1-1.434,1.434L82.69,194.173a5.686,5.686,0,0,0-8.041,8.042L89.9,217.462a1.014,1.014,0,0,1-.718,1.732" transform="translate(33.03 858.342)" fill="#e2eaf0"/>
        <path id="Path_97022" data-name="Path 97022" d="M117.334,290.736a1.015,1.015,0,0,1-1.014-1.014V275.83H76.288v13.707a1.014,1.014,0,1,1-2.029,0V274.815a1.015,1.015,0,0,1,1.014-1.014h42.061a1.015,1.015,0,0,1,1.014,1.014v14.906a1.015,1.015,0,0,1-1.014,1.014" transform="translate(31.963 831.373)" fill="#e2eaf0"/>
        <path id="Path_97023" data-name="Path 97023" d="M223.739,104.8q-.282-.765-.584-1.522l1.884-.753q.311.781.6,1.572Zm-1.625-3.967c-.364-.806-.749-1.612-1.146-2.4l1.811-.914c.409.81.807,1.643,1.184,2.476Zm-2.4-4.743c-.429-.764-.883-1.535-1.35-2.291l1.725-1.067c.483.78.952,1.576,1.395,2.366Zm-2.8-4.523c-.492-.725-1.01-1.455-1.541-2.17l1.629-1.209c.548.739,1.083,1.492,1.591,2.24ZM213.746,87.3c-.55-.68-1.128-1.365-1.717-2.036l1.524-1.34c.608.692,1.2,1.4,1.771,2.1Zm-3.517-4c-.61-.64-1.242-1.276-1.879-1.893l1.411-1.457c.656.635,1.307,1.291,1.936,1.95Zm-3.833-3.71c-.656-.587-1.337-1.173-2.023-1.739l1.293-1.564c.706.584,1.407,1.186,2.083,1.792Zm-4.115-3.4c-.7-.533-1.42-1.064-2.151-1.58l1.169-1.658c.753.531,1.5,1.078,2.216,1.626Zm-4.364-3.078c-.739-.48-1.5-.956-2.267-1.414l1.042-1.741c.787.471,1.571.96,2.331,1.455Zm-4.586-2.744c-.776-.425-1.571-.844-2.366-1.243l.911-1.813c.816.41,1.635.841,2.432,1.278ZM123.839,68.29l-.864-1.835c.823-.388,1.664-.766,2.5-1.123l.8,1.866c-.814.348-1.632.715-2.434,1.092m64.717-.329c-.81-.371-1.635-.73-2.451-1.069l.778-1.873c.838.348,1.685.717,2.517,1.1Zm-59.811-1.769-.73-1.893c.849-.328,1.715-.645,2.573-.941l.662,1.918c-.835.288-1.677.6-2.505.916m54.873-.281c-.833-.311-1.681-.611-2.523-.892l.643-1.925c.864.289,1.735.6,2.59.916Zm-49.83-1.463-.6-1.94c.867-.266,1.753-.521,2.633-.757l.527,1.96c-.858.23-1.72.478-2.564.737m44.755-.233c-.854-.252-1.722-.492-2.58-.712l.506-1.965c.881.227,1.771.472,2.648.731Zm-39.6-1.152-.459-1.977c.881-.2,1.782-.4,2.678-.571l.39,1.991c-.874.17-1.751.358-2.609.557m34.424-.18c-.861-.19-1.741-.369-2.616-.53l.369-2c.9.166,1.8.349,2.685.544Zm-29.185-.845-.321-2c.9-.144,1.81-.274,2.711-.386l.251,2.013c-.878.11-1.767.236-2.642.377m23.937-.124c-.882-.131-1.773-.248-2.647-.348l.229-2.016c.9.1,1.812.223,2.716.357Zm-18.641-.537-.182-2.021c.9-.081,1.82-.149,2.73-.2l.114,2.026c-.887.05-1.783.116-2.662.195m13.335-.07c-.883-.07-1.779-.126-2.665-.166l.093-2.027c.909.041,1.828.1,2.734.171Zm-8.005-.229-.045-2.028c.911-.02,1.826-.025,2.739-.014l-.024,2.029c-.889-.01-1.783,0-2.671.014" transform="translate(16.194 900.892)" fill="#e2eaf0"/>
        <path id="Path_97024" data-name="Path 97024" d="M87.932,291.164a3.18,3.18,0,1,1,.849-.117,3.179,3.179,0,0,1-.849.117m0-4.312a1.122,1.122,0,0,0-.306.042,1.14,1.14,0,1,0,.306-.042" transform="translate(28.563 827.805)" fill="#fff"/>
        <path id="Path_97025" data-name="Path 97025" d="M258.576,291.164a3.169,3.169,0,0,1-2.757-4.729,3.171,3.171,0,0,1,2.76-1.612,3.17,3.17,0,0,1,2.758,4.73,3.145,3.145,0,0,1-1.911,1.494,3.2,3.2,0,0,1-.85.117m0-4.312a1.141,1.141,0,0,0-.994.58,1.14,1.14,0,1,0,.994-.58" transform="translate(-26.673 827.805)" fill="#fff"/>
        <path id="Path_97026" data-name="Path 97026" d="M33.952,265.332l-20.223-9.321-2.04-22.175,18.185-12.854,11.288,5.2-.849,1.843-10.224-4.713-16.271,11.5,1.825,19.842L33.738,263l16.271-11.5-1.182-12.844,2.021-.186,1.289,14.012Z" transform="translate(52.217 848.47)" fill="#e2eaf0"/>
        <path id="Path_97027" data-name="Path 97027" d="M38.02,257.6a8,8,0,1,1,4.613-1.466A8.007,8.007,0,0,1,38.02,257.6M38,243.615a5.979,5.979,0,1,0,4.892,2.527A5.946,5.946,0,0,0,38,243.615" transform="translate(46.29 841.8)" fill="#e2eaf0"/>
        <g id="Group_49609" data-name="Group 49609" transform="translate(-69.833 206)">
          <path id="Path_97028" data-name="Path 97028" d="M247.343,51.611h-2.029V10.773h45V50.221h-2.029V12.8H247.343Z" transform="translate(-23.406 916.513)" fill="#e2eaf0"/>
          <path id="Path_97029" data-name="Path 97029" d="M281.728,33.071a4.365,4.365,0,0,1-3.37-1.658c-.673-.688-1.064-1.047-1.919-1.047s-1.245.359-1.917,1.047a4.251,4.251,0,0,1-6.738,0c-.672-.688-1.063-1.047-1.917-1.047s-1.246.359-1.917,1.047a4.249,4.249,0,0,1-6.736,0c-.672-.688-1.062-1.047-1.916-1.047V28.337A4.361,4.361,0,0,1,258.664,30c.672.688,1.062,1.047,1.916,1.047s1.245-.359,1.917-1.047a4.251,4.251,0,0,1,6.738,0c.672.688,1.063,1.047,1.918,1.047S272.4,30.683,273.07,30a4.252,4.252,0,0,1,6.738,0c.673.688,1.064,1.048,1.92,1.048s1.246-.359,1.919-1.047a4.365,4.365,0,0,1,3.369-1.658v2.029c-.855,0-1.246.359-1.919,1.047a4.365,4.365,0,0,1-3.369,1.658" transform="translate(-26.638 910.828)" fill="#e2eaf0"/>
          <rect id="Rectangle_47058" data-name="Rectangle 47058" width="13.21" height="2.029" transform="translate(228.659 958.99)" fill="#e2eaf0"/>
          <rect id="Rectangle_47059" data-name="Rectangle 47059" width="13.21" height="2.029" transform="translate(228.659 951.463)" fill="#e2eaf0"/>
          <rect id="Rectangle_47060" data-name="Rectangle 47060" width="18.784" height="2.029" transform="translate(228.659 966.515)" fill="#e2eaf0"/>
          <path id="Path_97030" data-name="Path 97030" d="M301.311,87.629,282.132,53.358l8.845-4.934L310.157,82.7ZM284.9,54.139l17.2,30.731,5.3-2.957L290.2,51.183Z" transform="translate(-35.324 904.326)" fill="#e2eaf0"/>
          <path id="Path_97031" data-name="Path 97031" d="M281.968,50.6l-.874-11.129,9.516,6.257-1.115,1.7-6.054-3.981.549,7Z" transform="translate(-34.988 907.224)" fill="#e2eaf0"/>
          <rect id="Rectangle_47061" data-name="Rectangle 47061" width="8.099" height="2.029" transform="translate(263.551 985.399) rotate(-29.146)" fill="#e2eaf0"/>
          <path id="Path_97032" data-name="Path 97032" d="M240.368,27.869a3.91,3.91,0,0,1,0-7.82v2.029a1.881,1.881,0,0,0,0,3.762Z" transform="translate(-20.54 913.51)" fill="#e2eaf0"/>
          <path id="Path_97033" data-name="Path 97033" d="M240.368,60.941a3.91,3.91,0,0,1,0-7.82V55.15a1.881,1.881,0,0,0,0,3.762Z" transform="translate(-20.54 902.805)" fill="#e2eaf0"/>
          <path id="Path_97034" data-name="Path 97034" d="M240.368,44.145a3.91,3.91,0,0,1,0-7.82v2.029a1.881,1.881,0,0,0,0,3.762Z" transform="translate(-20.54 908.242)" fill="#e2eaf0"/>
          <rect id="Rectangle_47062" data-name="Rectangle 47062" width="27.198" height="2.029" transform="translate(229.859 979.021)" fill="#e2eaf0"/>
        </g>
        <path id="Path_97035" data-name="Path 97035" d="M54.708,97.125A32.059,32.059,0,1,1,77.4,87.743a31.985,31.985,0,0,1-22.687,9.382m0-62.112A30.032,30.032,0,1,0,75.961,43.8a29.962,29.962,0,0,0-21.253-8.789" transform="translate(48.677 909.323)" fill="#e2eaf0"/>
        <path id="Path_97036" data-name="Path 97036" d="M35.209,69.114H33.18C33.18,55.232,44.6,43.5,58.126,43.5v2.029c-12.422,0-22.917,10.8-22.917,23.582" transform="translate(45.26 905.919)" fill="#e2eaf0"/>
        <path id="Path_97037" data-name="Path 97037" d="M58.119,105.362A24.985,24.985,0,0,1,33.163,80.4h2.029a22.954,22.954,0,0,0,22.928,22.928Z" transform="translate(45.265 893.974)" fill="#e2eaf0"/>
        <path id="Path_97038" data-name="Path 97038" d="M70.064,104.975v-2.029c12.429,0,22.928-10.87,22.928-23.738h2.029c0,13.967-11.429,25.767-24.957,25.767" transform="translate(33.321 894.361)" fill="#e2eaf0"/>
        <path id="Path_97039" data-name="Path 97039" d="M95.022,68.46H92.993A22.955,22.955,0,0,0,70.065,45.532V43.5A24.986,24.986,0,0,1,95.022,68.46" transform="translate(33.32 905.919)" fill="#e2eaf0"/>
        <rect id="Rectangle_47063" data-name="Rectangle 47063" width="6.876" height="2.029" transform="translate(71.675 995.245) rotate(-45)" fill="#e2eaf0"/>
        <rect id="Rectangle_47064" data-name="Rectangle 47064" width="6.876" height="2.029" transform="matrix(0.707, -0.707, 0.707, 0.707, 81.756, 1005.326)" fill="#e2eaf0"/>
        <path id="Path_97040" data-name="Path 97040" d="M27.156,130.672,7.828,111.344l6.979-6.979,19.328,19.328ZM10.7,111.344,27.156,127.8l4.11-4.11L14.807,107.234Z" transform="translate(53.466 886.218)" fill="#e2eaf0"/>
        <path id="Path_97041" data-name="Path 97041" d="M9.857,142.064a3.983,3.983,0,0,1-2.832-1.172l-5.853-5.854a4,4,0,0,1,0-5.662l9.024-9.024,1.434,1.435-9.024,9.024a1.975,1.975,0,0,0,0,2.792l5.853,5.853a2.022,2.022,0,0,0,2.792,0l9.024-9.024,1.434,1.434-9.023,9.024a3.978,3.978,0,0,1-2.831,1.173" transform="translate(56 881.043)" fill="#e2eaf0"/>
        <path id="Path_97042" data-name="Path 97042" d="M59.165,90.038a11.835,11.835,0,0,1-.149-23.669l1.027-.012V77.781l8.145,8.145-.73.718a11.768,11.768,0,0,1-8.294,3.394M58.014,68.464a9.806,9.806,0,0,0,1.151,19.545,9.741,9.741,0,0,0,6.1-2.132l-7.255-7.255Z" transform="translate(40.68 898.521)" fill="#e2eaf0"/>
        <path id="Path_97043" data-name="Path 97043" d="M82.374,83.485,70.9,73.367v-13.4h1.014A14.077,14.077,0,0,1,85.978,74.025a13.926,13.926,0,0,1-2.941,8.606ZM72.931,72.451,82.059,80.5a11.9,11.9,0,0,0,1.89-6.477,12.049,12.049,0,0,0-11.018-11.99Z" transform="translate(33.05 900.59)" fill="#e2eaf0"/>
        <g id="Group_49608-2" data-name="Group 49608" transform="translate(126.742 984.011)">
          <path id="Path_97098" data-name="Path 97098" d="M2531.378,106.26h-11.946a3.366,3.366,0,0,1-3.363-3.362V98.451a1.015,1.015,0,0,1,2.029,0V102.9a1.335,1.335,0,0,0,1.334,1.333h11.946a1.334,1.334,0,0,0,1.333-1.333v-9.71a1.015,1.015,0,0,1,.591-.922l1.984-.913a1.659,1.659,0,0,0,.832-1.3V72.7a7.109,7.109,0,0,0-.585-2.53l-1.987-4.068a1.014,1.014,0,0,1,.473-1.36l6.849-3.28a1.3,1.3,0,0,0,.647-1.184l-.388-3.044a.813.813,0,0,0-.756-.666h-10.846a1.015,1.015,0,0,1-.912-.569l-6.308-12.922a7.221,7.221,0,0,0-5.844-3.651h-42a7.214,7.214,0,0,0-5.843,3.65L2462.3,56a1.014,1.014,0,0,1-.912.569H2450.55a.821.821,0,0,0-.759.667l-.385,3.041a1.3,1.3,0,0,0,.643,1.185l6.853,3.28a1.014,1.014,0,0,1,.473,1.361l-1.99,4.069a7.113,7.113,0,0,0-.583,2.528V90.055a1.66,1.66,0,0,0,.834,1.3l1.983.912a1.014,1.014,0,0,1,.591.922v9.71a1.334,1.334,0,0,0,1.331,1.333h11.946a1.335,1.335,0,0,0,1.334-1.333V98.451a1.015,1.015,0,0,1,2.029,0V102.9a3.366,3.366,0,0,1-3.363,3.362h-11.946a3.365,3.365,0,0,1-3.36-3.362v-9.06l-1.394-.641a3.665,3.665,0,0,1-2.014-3.142V72.7a8.984,8.984,0,0,1,.789-3.418l1.541-3.151-5.93-2.838a3.317,3.317,0,0,1-1.78-3.272l.385-3.041v0a2.838,2.838,0,0,1,2.771-2.435h10.21l6.033-12.353a9.19,9.19,0,0,1,7.666-4.789h42a9.2,9.2,0,0,1,7.667,4.789l6.03,12.352h10.213a2.827,2.827,0,0,1,2.769,2.44l.388,3.041a3.318,3.318,0,0,1-1.785,3.271l-5.926,2.838,1.539,3.15a8.986,8.986,0,0,1,.79,3.419V90.055a3.665,3.665,0,0,1-2.011,3.141l-1.4.642v9.06A3.366,3.366,0,0,1,2531.378,106.26Z" transform="translate(-2447.37 -37.4)" fill="#e2eaf0"/>
          <path id="Line_413" data-name="Line 413" d="M57.573.529H-.486A1.014,1.014,0,0,1-1.5-.486,1.014,1.014,0,0,1-.486-1.5H57.573A1.014,1.014,0,0,1,58.588-.486,1.014,1.014,0,0,1,57.573.529Z" transform="translate(19.546 56.274)" fill="#e2eaf0"/>
          <path id="Path_97099" data-name="Path 97099" d="M2592.023,144.01h-38.638a12.557,12.557,0,0,1-4.9-1.181l-3.882-1.989a1.014,1.014,0,0,1,.925-1.806l3.881,1.989a10.534,10.534,0,0,0,3.976.958h38.638a10.513,10.513,0,0,0,3.974-.958l3.881-1.989a1.014,1.014,0,1,1,.925,1.806l-3.881,1.989A12.538,12.538,0,0,1,2592.023,144.01Z" transform="translate(-2524.614 -118.512)" fill="#e2eaf0"/>
          <path id="Line_414" data-name="Line 414" d="M26.818.529H-.486A1.014,1.014,0,0,1-1.5-.486,1.014,1.014,0,0,1-.486-1.5h27.3A1.014,1.014,0,0,1,27.832-.486,1.014,1.014,0,0,1,26.818.529Z" transform="translate(34.924 46.619)" fill="#e2eaf0"/>
          <path id="Path_97100" data-name="Path 97100" d="M2526.05,204.247a3.5,3.5,0,0,1-.78-.089l-9.022-2.056a1.014,1.014,0,0,1,.451-1.978l9.023,2.056a1.006,1.006,0,0,0,1.334-1.063v-2.4a2.486,2.486,0,0,0-1.791-2.27l-4.874-1.164a1.014,1.014,0,0,1,.471-1.973l4.874,1.164a4.521,4.521,0,0,1,3.348,4.244v2.4a3.139,3.139,0,0,1-1.136,2.487A3.024,3.024,0,0,1,2526.05,204.247Z" transform="translate(-2501.769 -161.94)" fill="#e2eaf0"/>
          <path id="Path_97101" data-name="Path 97101" d="M2792.945,204.247a3.026,3.026,0,0,1-1.9-.643,3.139,3.139,0,0,1-1.136-2.487v-2.4a4.521,4.521,0,0,1,3.348-4.244l4.876-1.164a1.014,1.014,0,1,1,.471,1.973l-4.876,1.164a2.485,2.485,0,0,0-1.79,2.27v2.4a1.006,1.006,0,0,0,1.334,1.063l9.021-2.057a1.014,1.014,0,0,1,.451,1.978l-9.021,2.056A3.5,3.5,0,0,1,2792.945,204.247Z" transform="translate(-2721.044 -161.939)" fill="#e2eaf0"/>
        </g>
        <path id="Path_97113" data-name="Path 97113" d="M59.165,90.038a11.835,11.835,0,0,1-.149-23.669l1.027-.012V77.781l8.145,8.145-.73.718a11.768,11.768,0,0,1-8.294,3.394" transform="translate(40.68 898.521)" fill="#e2eaf0"/>
      </g>
    </g>
  </g>
</svg>
