<?xml version="1.0" encoding="UTF-8"?><svg xmlns="http://www.w3.org/2000/svg" xmlns:xlink="http://www.w3.org/1999/xlink" viewBox="0 0 56.81 56.2"><defs><style>.g{fill:#ec562f;}.h{clip-path:url(#e);}.i{fill:none;}.j{clip-path:url(#f);}</style><clipPath id="e"><rect class="i" width="56.81" height="56.2"/></clipPath><clipPath id="f"><rect class="i" y="0" width="56.81" height="56.2"/></clipPath></defs><g id="a"/><g id="b"><g id="c"><g id="d"><g class="h"><g class="j"><path class="g" d="M5.82,47.11l-.12,1.78c-.14-.02-.36-.02-.52-.02-2.24,0-3.34,1.56-3.34,3.98v3.11H0v-8.81H1.85v1.88c.71-1.17,1.83-1.99,3.36-1.99,.21,0,.39,0,.62,.07"/><path class="g" d="M8.42,50.68h5.19c-.28-1.44-1.3-2.15-2.5-2.15s-2.4,.73-2.68,2.15m7.09,1.31h-7.14c.18,1.63,1.37,2.61,2.66,2.61,.98,0,1.97-.28,2.59-1.53l1.65,.36c-.73,1.85-2.29,2.77-4.24,2.77-2.4,0-4.49-1.85-4.49-4.63s2.08-4.67,4.56-4.67,4.31,1.81,4.4,4.46v.64Z"/><path class="g" d="M24.35,51.55c0-1.85-1.42-3.02-2.89-3.02-1.6,0-2.86,1.17-2.86,3.02s1.26,3.02,2.86,3.02c1.47,0,2.89-1.15,2.89-3.02m1.86,4.4h-1.86v-.99c-.78,.78-1.86,1.24-3.2,1.24-2.29,0-4.37-1.86-4.37-4.65s2.08-4.65,4.37-4.65c1.33,0,2.42,.46,3.2,1.26v-4.99h1.86v12.78Z"/><path class="g" d="M30.1,53.2c.12,1.05,1.05,1.49,2.2,1.49,1.07,0,1.74-.48,1.74-1.17,0-.53-.37-.87-1.19-1.05l-1.92-.39c-1.53-.34-2.4-1.15-2.4-2.4,0-1.63,1.37-2.79,3.48-2.79s3.39,1.07,3.71,2.54l-1.76,.37c-.14-.85-.87-1.44-2.01-1.44s-1.56,.53-1.56,1.15c0,.5,.28,.82,1.07,.99l2.09,.46c1.42,.3,2.29,1.14,2.29,2.38,0,1.85-1.51,2.84-3.71,2.84-1.97,0-3.66-.83-3.89-2.61l1.85-.39Z"/><path class="g" d="M39.07,50.68h5.19c-.28-1.44-1.3-2.15-2.5-2.15s-2.4,.73-2.68,2.15m7.09,1.31h-7.14c.18,1.63,1.37,2.61,2.66,2.61,.98,0,1.97-.28,2.59-1.53l1.65,.36c-.73,1.85-2.29,2.77-4.24,2.77-2.4,0-4.49-1.85-4.49-4.63s2.08-4.67,4.56-4.67,4.31,1.81,4.4,4.46v.64Z"/><path class="g" d="M54.96,51.55c0-1.85-1.44-3.02-2.89-3.02-1.62,0-2.88,1.17-2.88,3.02s1.26,3.02,2.88,3.02c1.46,0,2.89-1.15,2.89-3.02m1.85,4.4h-1.85v-1.01c-.76,.8-1.86,1.26-3.2,1.26-2.31,0-4.37-1.86-4.37-4.65s2.06-4.65,4.37-4.65c1.33,0,2.43,.46,3.2,1.26v-1.01h1.85v8.81Z"/><path class="g" d="M37.98,11.52h-.71c-7.29,0-13.22,5.93-13.22,13.22v7.88h-5.22v-8.23c0-9.99,8.13-18.12,18.12-18.12h1.04v5.24Zm0,6.81c-3.91,0-7.09,3.17-7.09,7.09v7.21h-5.23v-7.88c0-6.4,5.21-11.61,11.61-11.61h.71v5.19ZM42.83,0H13.97C11.2,0,8.95,2.25,8.95,5.03v28.86c0,2.78,2.25,5.03,5.03,5.03h28.86c2.78,0,5.03-2.25,5.03-5.03V5.03C47.86,2.25,45.61,0,42.83,0"/></g></g></g></g></g></svg>