<?xml version="1.0" encoding="UTF-8"?><svg xmlns="http://www.w3.org/2000/svg" xmlns:xlink="http://www.w3.org/1999/xlink" viewBox="0 0 72.95 46.27"><defs><style>.g{fill:#151e28;}.h{clip-path:url(#e);}.i{fill:none;}.j{clip-path:url(#f);}</style><clipPath id="e"><rect class="i" width="72.95" height="46.27"/></clipPath><clipPath id="f"><rect class="i" width="72.95" height="46.27"/></clipPath></defs><g id="a"/><g id="b"><g id="c"><g id="d"><g class="h"><g class="j"><path class="g" d="M42.32,15.2c0,.13,.04,.21,.12,.21,.06,0,.11-.02,.18-.07L65.36,.58c.4-.26,.76-.4,1.31-.4h5c.77,0,1.28,.51,1.28,1.28V11c0,1.15-.26,1.82-1.28,2.43l-6.06,3.64c-.08,.05-.15,.08-.2,.08-.07,0-.14-.06-.14-.26V5.75c0-.12-.04-.21-.12-.21-.06,0-.11,.03-.18,.07l-16.62,10.8c-.47,.3-.85,.39-1.28,.39h-11.02c-.77,0-1.28-.51-1.28-1.28V1.76c0-.1-.04-.19-.12-.19-.06,0-.11,.02-.18,.07l-10.96,6.58c-.11,.07-.14,.12-.14,.17,0,.05,.02,.09,.1,.17l7.83,7.83c.1,.1,.18,.18,.18,.27,0,.09-.11,.14-.25,.14h-7.09c-.55,0-.98-.08-1.28-.38l-4.75-4.75s-.09-.07-.14-.08c-.04,0-.1,.02-.15,.05l-7.94,4.77c-.48,.29-.81,.38-1.28,.38H1.28c-.77,0-1.28-.51-1.28-1.28V6.15c0-1.15,.26-1.81,1.28-2.43L7.38,.05C7.44,.02,7.49,0,7.54,0c.09,0,.14,.1,.14,.31V12.83c0,.13,.04,.19,.12,.19,.06,0,.11-.03,.18-.08L28.6,.56c.49-.3,.79-.38,1.36-.38h11.09c.77,0,1.28,.51,1.28,1.28V15.2Z"/><path class="g" d="M72.09,41.41l.83-6.33s.48-2.7-2.14-4.98c0,0-3.82-3.38-4.27-3.82,0,0,.75,1.12,.46,2.69l-1.64,10.26s-.12,.65,.41,1.18c0,0,1.99,2.17,4.39,2.69,0,0,1.71,.32,1.97-1.68"/><path class="g" d="M62.47,24.58l-5.85,2.56s-2.56,.98-3.17,4.4c0,0-.93,5.02-1.07,5.63,0,0,.58-1.22,2.07-1.78l9.64-3.88s.61-.23,.8-.96c0,0,.83-2.82,.04-5.15,0,0-.61-1.62-2.46-.82"/><path class="g" d="M52.84,41.32l5.05,3.92s2.09,1.78,5.38,.67c0,0,4.86-1.59,5.46-1.75,0,0-1.35,.08-2.56-.97l-8.02-6.61s-.5-.43-1.23-.24c0,0-2.88,.62-4.54,2.43,0,0-1.14,1.31,.46,2.55"/><path class="g" d="M11.38,38.87c0-.79,0-1.36,0-1.36,0,0-.76,0-.89,.01-.2,.03-.41,.1-.57,.21-.28,.2-.38,.51-.37,.85v.28c0,1.02,0,4.44,0,4.62h1.83c.2,0,4.17,0,4.17,0v-1.56s-3.97,0-4.17,0v-3.06Z"/><path class="g" d="M3.2,37.52S.15,43.2,0,43.49c.06,0,2.02,0,2.02,0,.21-.34,.37-.71,.58-1.05,1.22,0,2.43,0,3.65,0,.26,.42,.26,.44,.61,1.05h1.99c-.04-.09-3.26-5.97-3.26-5.97H3.2Zm.08,3.6c.38-.73,.74-1.44,1.12-2.19,.4,.75,.77,1.45,1.16,2.19H3.28Z"/><path class="g" d="M38.81,40.49c.08-.09,.73-.29,.73-1.02,0-.23,0-.46,0-.69-.02-.46-.26-.78-.65-.99-.46-.24-.96-.26-1.46-.26-1.37,0-2.74,.01-4.11,0-.8-.01-1.17,.42-1.19,1.15-.02,.99-.01,4.82-.01,4.82,0,0,4.12,0,6.06,0,.37,0,.74-.06,1.06-.28,.36-.25,.49-.62,.52-1.03,.05-.76-.04-1.49-.97-1.68m-4.82-1.51h3.24s.05,0,.08,0c.26,0,.39,.13,.42,.39,.03,.27-.1,.45-.34,.5-.02,0-.05,0-.07,0h-3.32v-.9Zm3.58,3.04s-.08,.02-.12,.02h-3.46v-.9h3.46c.09,0,.17,.02,.24,.07,.1,.05,.18,.13,.21,.29,.05,.26-.08,.48-.32,.53"/><path class="g" d="M47.92,42.38c-.04-.29-.15-.59-.31-.84-.11-.17-.34-.26-.53-.39,.02-.02,.05-.06,.08-.07,.58-.22,.76-.68,.77-1.25,0-.28,.02-.55,0-.83-.03-.37-.15-.71-.4-.99-.36-.4-.85-.46-1.35-.47-1.51-.01-3.02,0-4.53,0-.62,0-1.02,.42-1.02,1.04,0,1.55,0,3.1,0,4.65v.28c.49,0,1.84,0,1.84,0v-1.55c1.03,0,2.01,0,2.99,0,.3,0,.49,.18,.55,.47,.04,.19,.04,.38,.05,.57,0,.16,0,.32,0,.48h1.87c0-.38,.04-.74-.01-1.09m-1.96-2.07c-.08,.09-.24,.14-.36,.14-1.02,.01-2.05,0-3.07,0-.02,0-.03-.02-.06-.03v-1.39h.4c.87,0,1.73,0,2.6,0,.26,0,.52,.04,.6,.33,.09,.32,.13,.67-.12,.94"/><path class="g" d="M21.38,37.53c-.2,.03-.41,.1-.57,.21-.28,.2-.37,.51-.37,.85,0,.21,0,.41,0,.62,0,.72,0,1.44,0,2.16,0,.43-.16,.62-.58,.66-.39,.04-.78,.07-1.17,.04-.47-.04-.7-.11-.73-.66v-.51h-1.77s0,1.01,0,1.26c0,.69,.55,1.15,1.22,1.29,.98,.2,1.96,.14,2.94,.09,.27-.01,.54-.07,.8-.14,.76-.22,1.06-.8,1.08-1.52,.01-.58,.02-1.7,.02-2.65,0-.92,0-1.7,0-1.7,0,0-.76,0-.89,.01"/><path class="g" d="M25.84,37.52s-3.05,5.68-3.2,5.97h2.02c.21-.34,.37-.71,.58-1.05,1.21,0,2.43,0,3.65,0,.26,.42,.26,.44,.61,1.05h1.99c-.04-.09-3.26-5.97-3.26-5.97h-2.38Zm.08,3.6c.38-.73,.74-1.44,1.12-2.19,.4,.75,.77,1.45,1.16,2.19h-2.28Z"/><path class="g" d="M34.99,35.83c.45,0,.81-.36,.81-.81s-.36-.81-.81-.81-.81,.36-.81,.81,.36,.81,.81,.81"/><path class="g" d="M43.91,27.8v4.16h-5.83v-2.67h-4.59v.65c0,.42,.34,.76,.76,.76h2.29v1.26h-11.72v-2.67h-.66c-.42,0-.76,.34-.76,.76v1.91H3.49v-2.67h-.66c-.42,0-.77,.34-.77,.76v3.43c-.4,.87-1.59,1.58-1.59,1.58h1.93c1.07-.89,1.08-1.58,1.08-1.58H44.28c.58,0,1.05-.47,1.05-1.04v-5.39h-.66c-.42,0-.76,.34-.76,.76"/><path class="g" d="M47.23,27.04c-.42,0-.77,.34-.77,.76v5.68h1.04c.21,0,.38-.17,.38-.38v-6.06h-.66Z"/><path class="g" d="M23.54,35.83c.45,0,.81-.36,.81-.81s-.36-.81-.81-.81-.81,.36-.81,.81,.36,.81,.81,.81"/></g></g></g></g></g></svg>