<?xml version="1.0" encoding="UTF-8"?><svg xmlns="http://www.w3.org/2000/svg" xmlns:xlink="http://www.w3.org/1999/xlink" viewBox="0 0 84.13 37.12"><defs><style>.g{fill:#fff;}.h,.i,.j{fill-rule:evenodd;}.h,.k{fill:#3a6fb0;}.i{fill:#d03a34;}.j{fill:#afc350;}.l{clip-path:url(#e);}.m{fill:none;}.n{clip-path:url(#f);}</style><clipPath id="e"><rect class="m" width="84.13" height="37.12"/></clipPath><clipPath id="f"><rect class="m" width="84.13" height="37.12"/></clipPath></defs><g id="a"/><g id="b"><g id="c"><g id="d"><g class="l"><g class="n"><path class="h" d="M65.57,0C75.82,0,84.13,8.31,84.13,18.56s-8.31,18.56-18.56,18.56-18.56-8.31-18.56-18.56S55.33,0,65.57,0"/><path class="j" d="M65.57,3.67c8.22,0,14.89,6.67,14.89,14.89s-6.67,14.89-14.89,14.89-14.89-6.67-14.89-14.89,6.67-14.89,14.89-14.89"/><polygon class="i" points="59.8 16.96 65.42 11.67 71.03 16.96 71.03 24.41 59.8 24.41 59.8 16.96"/><path class="g" d="M72.7,15.18l-5.61-5.3-1.68-1.58-1.68,1.58-5.61,5.3-.77,.73v10.94h16.12V15.92l-.78-.73Zm-1.68,9.22h-11.22v-7.44l5.61-5.3,5.61,5.3v7.44Z"/><path class="k" d="M16.9,4.71l-2.88,5.04h6.64c.94,0,1.71,.77,1.71,1.72,0,.46-.18,.89-.5,1.21-.33,.32-.76,.5-1.21,.5H7.84c.02-.18,.04-.37,.04-.37,0-2.16-1.76-3.92-3.92-3.92S.04,10.65,.04,12.81s1.76,3.92,3.92,3.92c.21,0,.42-.08,.62-.11-.37,.7-1.3,2.44-1.3,2.44l1.39,.74s2.54-4.74,2.7-5.04h13.29c1.82,0,3.29-1.48,3.29-3.3s-1.48-3.29-3.29-3.29h-4.02l2.04-3.46h-1.78ZM3.96,15.15c-1.29,0-2.34-1.05-2.34-2.35s1.05-2.34,2.34-2.34,2.34,1.05,2.34,2.34-1.05,2.35-2.34,2.35m38.15-6.96v4.97h-3.66v-4.97h-1.55v4.97h-3.68v-4.97h-1.54v4.97h-3.81V4.71h-1.58V14.76h17.39v-6.56h-1.58Z"/><path class="k" d="M4.21,25.93l-.47-.25c-.65-.34-1.43-.88-1.43-1.48,0-.36,.09-.61,.29-.81,.2-.19,.46-.29,.82-.29,.27,0,.5,.05,.69,.16,.18,.11,.31,.25,.42,.44l.22,.42,1.45-.86-.2-.37c-.27-.48-.62-.85-1.04-1.09-.42-.24-.92-.37-1.48-.37-.84,0-1.55,.25-2.1,.76-.55,.52-.84,1.18-.84,1.99,0,.65,.2,1.21,.58,1.68,.36,.44,1.04,.92,2.06,1.46,.86,.46,1.2,.76,1.33,.93,.17,.23,.26,.53,.26,.89,0,.52-.13,.91-.39,1.18-.25,.27-.62,.4-1.1,.4-.38,0-.7-.1-.97-.3-.27-.2-.46-.5-.57-.87l-.16-.52L0,29.88l.15,.36c.29,.71,.69,1.24,1.21,1.61,.52,.37,1.15,.55,1.87,.55,.98,0,1.78-.3,2.37-.88,.59-.59,.88-1.39,.88-2.36,0-.73-.17-1.33-.5-1.81-.32-.46-.9-.92-1.79-1.41m23.4-4.22c-.57-.18-1.18-.28-1.84-.28-.74,0-1.46,.14-2.15,.41-.69,.27-1.29,.65-1.78,1.13-.51,.49-.9,1.09-1.17,1.76-.27,.67-.4,1.4-.4,2.17s.13,1.51,.39,2.18c.26,.67,.65,1.26,1.16,1.76,.5,.49,1.09,.88,1.78,1.15,.68,.27,1.41,.4,2.16,.4,.56,0,1.12-.08,1.69-.25,.56-.16,1.11-.41,1.61-.71l.21-.13v-2.19l-.72,.57c-.43,.34-.89,.59-1.36,.77-.48,.17-.97,.26-1.47,.26s-.99-.09-1.43-.27c-.44-.18-.84-.44-1.18-.78-.34-.35-.6-.75-.77-1.19-.17-.46-.26-.98-.26-1.56,0-1.14,.35-2.07,1.04-2.77,.69-.7,1.6-1.05,2.72-1.05,.49,0,.97,.09,1.41,.26,.45,.18,.9,.46,1.34,.84l.72,.62,.03-2.13-.17-.13c-.47-.37-1-.65-1.57-.84m15.71,3.09c-.28-.66-.69-1.26-1.22-1.79h0c-.52-.51-1.13-.91-1.8-1.18-.67-.27-1.39-.4-2.15-.4s-1.48,.14-2.15,.4c-.67,.27-1.28,.66-1.8,1.18-.53,.52-.94,1.13-1.22,1.79-.28,.66-.42,1.37-.42,2.11s.14,1.44,.42,2.1c.28,.66,.69,1.25,1.22,1.78,.53,.52,1.14,.92,1.81,1.19,.67,.27,1.39,.41,2.13,.41s1.46-.14,2.13-.41c.67-.27,1.28-.67,1.82-1.19,.52-.51,.93-1.11,1.21-1.78,.28-.66,.42-1.37,.42-2.1s-.14-1.45-.42-2.11m-1.67,3.58c-.19,.46-.47,.88-.82,1.24-.36,.36-.77,.63-1.23,.82-.45,.18-.94,.28-1.45,.28s-1.01-.09-1.46-.28c-.44-.19-.85-.46-1.21-.83-.36-.36-.63-.78-.83-1.24-.19-.46-.28-.95-.28-1.47s.1-1.01,.28-1.47c.19-.45,.47-.87,.83-1.24,.36-.35,.77-.63,1.22-.82,.45-.18,.94-.28,1.44-.28s1,.09,1.45,.28c.46,.18,.86,.46,1.22,.82,.36,.37,.64,.79,.83,1.24,.19,.46,.28,.95,.28,1.47s-.1,1.01-.29,1.47"/><path class="k" d="M13.96,21.44h-.72l-4.53,10.72h1.86s1.14-2.91,1.27-3.26h3.32c.13,.35,1.23,3.26,1.23,3.26h1.92l-4.34-10.72Zm-1.47,5.82c.22-.52,.72-1.75,1.04-2.54,.31,.79,.8,2.03,1,2.54h-2.05Z"/></g></g></g></g></g></svg>