<?xml version="1.0" encoding="UTF-8"?><svg xmlns="http://www.w3.org/2000/svg" xmlns:xlink="http://www.w3.org/1999/xlink" viewBox="0 0 75.82 51.56"><defs><style>.g{fill-rule:evenodd;}.g,.h{fill:#25549a;}.i{clip-path:url(#e);}.j{fill:none;}.k{clip-path:url(#f);}</style><clipPath id="e"><rect class="j" width="75.82" height="51.56"/></clipPath><clipPath id="f"><rect class="j" y="0" width="75.82" height="51.56"/></clipPath></defs><g id="a"/><g id="b"><g id="c"><g id="d"><g class="i"><polygon class="h" points="8.18 42.23 8.18 45.46 2.93 45.46 2.93 42.23 0 42.23 0 51.25 2.9 51.25 2.9 47.48 8.18 47.48 8.18 51.29 11.08 51.29 11.08 42.23 8.18 42.23"/><polygon class="h" points="20.24 42.23 17.27 45.72 14.27 42.23 11.41 42.23 15.81 47.51 15.81 51.29 18.7 51.29 18.7 47.77 23.07 42.23 20.24 42.23"/><g class="k"><path class="g" d="M23.43,42.23h2.9v7h4.66c.73,0,1.21-.73,1.21-1.5v-5.5h2.9v7.22c0,1.14-1.28,1.8-2.02,1.8h-9.64v-9.02Z"/><path class="g" d="M35.72,42.23h9.65c1.14,0,2.05,.7,2.05,2.11v6.93l-2.9,.02v-5.5c0-.77-.26-1.23-1.25-1.23h-4.36v6.75h-3.19v-9.08Z"/><path class="g" d="M48.3,42.23h8.43c1.69,0,2.99,1.36,2.99,2.4v4.16c-.02,.73-1.04,2.49-2.33,2.49h-9.09v-9.06Zm2.95,7.04h4.45c.64,0,1.14-.48,1.14-1.06v-2.64c0-.64-.53-1.03-1.2-1.03h-4.38v4.73Z"/><path class="g" d="M63.3,42.19h9.04v9.1h-3.23v-2.35h-5.56v2.35h-3.26v-5.9c-.07-1.98,1.69-3.19,3.01-3.19m.22,3.23v1.47h5.57v-2.31h-4.69c-.55,0-.88,.33-.88,.85"/><rect class="h" x="72.92" y="42.21" width="2.9" height="9.35"/><path class="g" d="M38.09,0C19.17,0,3.84,7.57,3.84,16.91s15.33,16.91,34.25,16.91,34.25-7.57,34.25-16.91S57,0,38.09,0m-3.25,3.76c3.91-1.38,15.52,0,20.04,2.17,1.44,1.38-6.44,5.83-15.82,7.76-13.42,2.71-7.04-7.64-4.21-9.93M11.79,23.8c-2.95-2.1-8.72-8.12,.84-14.38,5.05-2.95,7.88-3.61,11.37-4.33,1.69-.36,2.89,.06,1.38,1.32-3.19,3.31-9.81,14.26-10.41,16.67-.48,1.63-1.44,2.04-3.19,.72m27.56,6.98c-5.66,.6-18.23-1.26-18.47-2.89,.24-3.91,19.98-10.41,23.52-6.8,1.5,2.83-1.38,9.51-5.05,9.69m28.76-11.37c-1.44,3.31-6.32,7.04-16.54,9.57-1.57,.36-2.11-.6-1.08-1.51,1.69-1.02,9.81-14.62,10.83-17.33,.6-1.39,1.74-.84,2.47-.3,3.25,2.11,5.72,5.54,4.33,9.57"/></g></g></g></g></g></svg>