<?xml version="1.0" encoding="UTF-8"?><svg xmlns="http://www.w3.org/2000/svg" xmlns:xlink="http://www.w3.org/1999/xlink" viewBox="0 0 73.82 54.37"><defs><style>.g{fill:#2b2b2a;}.h{clip-path:url(#e);}.i{fill:none;}.j{clip-path:url(#f);}.k{fill:#c74639;}</style><clipPath id="e"><rect class="i" width="73.82" height="54.37"/></clipPath><clipPath id="f"><rect class="i" width="73.82" height="54.37"/></clipPath></defs><g id="a"/><g id="b"><g id="c"><g id="d"><g class="h"><polygon class="g" points="46.75 41.51 45.8 41.49 45.14 45.72 46.09 45.73 46.75 41.51"/><g class="j"><path class="g" d="M54.92,41.53c.26,0,.49-.23,.49-.49s-.23-.49-.49-.49-.49,.23-.49,.49,.23,.49,.49,.49"/><path class="g" d="M46.85,41.15h-.41l.03-.23c0-.06,.05-.11,.11-.11h.33l.04-.23h-.57c-.09,0-.16,.07-.17,.15l-.06,.43h-.27l-.05,.23h.98l.04-.23Z"/><path class="g" d="M31.02,41.57c.26,0,.49-.23,.49-.49s-.23-.49-.49-.49-.49,.23-.49,.49,.23,.49,.49,.49"/><path class="g" d="M61.91,41.53c.26,0,.49-.23,.49-.49s-.23-.49-.49-.49-.49,.23-.49,.49,.23,.49,.49,.49"/><path class="g" d="M67.89,41.53c.26,0,.49-.23,.49-.49s-.23-.49-.49-.49-.49,.23-.49,.49,.23,.49,.49,.49"/><path class="g" d="M65.79,41.53c.26,0,.49-.23,.49-.49s-.23-.49-.49-.49-.49,.23-.49,.49,.23,.49,.49,.49"/><path class="g" d="M28.92,41.53c.27,0,.49-.23,.49-.49s-.23-.49-.49-.49-.49,.23-.49,.49,.23,.49,.49,.49"/><path class="g" d="M64.5,41.53c.26,0,.49-.23,.49-.49s-.23-.49-.49-.49-.49,.23-.49,.49,.23,.49,.49,.49"/><path class="g" d="M27.58,41.53c.27,0,.49-.23,.49-.49s-.23-.49-.49-.49-.49,.23-.49,.49,.23,.49,.49,.49"/><path class="g" d="M3.42,41.53c.27,0,.49-.23,.49-.49s-.23-.49-.49-.49-.49,.23-.49,.49,.23,.49,.49,.49"/><path class="g" d="M12.47,41.53c.26,0,.49-.23,.49-.49s-.23-.49-.49-.49-.49,.23-.49,.49,.23,.49,.49,.49"/><path class="g" d="M15.41,41.53c.27,0,.49-.23,.49-.49s-.23-.49-.49-.49-.49,.23-.49,.49,.23,.49,.49,.49"/><path class="g" d="M4.8,41.53c.26,0,.49-.23,.49-.49s-.23-.49-.49-.49-.49,.23-.49,.49,.23,.49,.49,.49"/><path class="g" d="M40.65,46.08c-.26,0-.49,.23-.49,.49s.23,.49,.49,.49,.49-.23,.49-.49-.23-.49-.49-.49"/><path class="g" d="M43.44,44.33c.13-.68-.35-1.24-.89-1.24h-3.33l-.18,.95h3.16c.2,0,.32,.18,.29,.37l-.05,.33h-5.38l.1-.68c.08-.5-.3-.97-.81-.97h-.59l.1-.66h-.89l-.11,.66h-.68c-.54,0-.95,.42-1.04,.94l-.12,.71h-1.98l.28-1.68h-.96l-.43,2.64v.09c-.04,.15-.17,.26-.33,.26h-.76l-.17,.95h.88c.78,0,1.22-.49,1.32-1.21l.02-.09h5.51c.23,0,.47-.14,.55-.35l.02-.07-.07,.42h7.33l.17-.96h-1.01l.05-.41Zm-8.93,.47h-.75l.08-.43c.04-.21,.23-.35,.43-.35h.36l-.13,.77Zm1.73,0h-.67l.11-.77h.33c.17,0,.32,.14,.29,.31l-.06,.47Z"/><path class="g" d="M29.23,43.11h-1.56c-.69,0-.97,.42-1.06,.95l-.17,1.01c-.06,.38,.29,.65,.65,.65h1.76l.38-2.61Zm-1.17,1.71h-.42c-.13,0-.27-.1-.24-.24l.04-.22c.03-.17,.08-.32,.33-.32h.41l-.12,.77Z"/><path class="g" d="M49.47,44.42v.09c-.04,.15-.17,.26-.33,.26h-.68l.71-4.21h-.98l-.84,5.18v.08c-.04,.15-.17,.26-.33,.26h-1.91l-.15,.95h2.01c.78,0,1.21-.49,1.31-1.21v-.07l.02-.04h.78c.78,0,1.21-.48,1.32-1.2v-.07l.66-3.85h-.98l-.62,3.83Z"/><path class="g" d="M21.64,44.47c-.06,.29-.26,.29-.45,.29h-.87c-.28-.87-1.06-1.46-1.82-1.44-.65,.02-1.39,.53-1.8,1.44h-1.25l.22-1.65h-.93l-.26,1.65h-2.12l.28-1.67h-.96l-.43,2.64v.09c-.04,.15-.17,.26-.33,.26h-.76l-.17,.95h.88c.78,0,1.22-.49,1.32-1.21l.02-.1h2.18c.45,0,.64-.12,.88-.4l.08-.11-.07,.51h4.97l.08-.37,.24,.37h.73c.57,0,1.07-.2,1.19-.95l.63-4.17h-.87l-.63,3.88Zm-3.79,.28s-.07-.02,.21-.27c.42-.37,1.1-.09,1.18,.23v.05h-1.39Z"/><path class="g" d="M10.98,40.55h-.9l-.61,3.83v.07c-.04,.21-.26,.3-.45,.3h-.73l.25-1.65h-.9l-.26,1.65h-2.58l.39-2.57h-1.59c-.69,0-.97,.42-1.06,.95l-.17,1c-.05,.38,.29,.66,.65,.66h.84l-.14,.92h3.63c.42,0,.57-.19,.82-.4l.05-.08-.06,.48h1.18c.54,0,.97-.58,1.05-1.17l.6-3.98Zm-7,3.28h-.42c-.13,0-.27-.09-.24-.24l.04-.22c.03-.17,.08-.32,.33-.32h.41l-.12,.77Z"/><path class="g" d="M24.65,46.1c-.15,0-.26-.11-.23-.26v-.09l.89-5.17h-.98l-.85,5.18v.07c-.14,.72,.13,1.21,.91,1.21h1.27l.18-.95h-1.19Z"/><path class="g" d="M65.92,44.62l.12-.84,.12-.77,.17-1.15h-1.54c-.55,0-.98,.44-1.06,.97l-.16,1.04c-.04,.27,.13,.56,.42,.56h.97v.13c-.04,.14-.17,.21-.3,.21h-2.77l.29-1.65h-.96l-.43,2.64v.09c-.04,.15-.17,.26-.33,.26h-.76l-.17,.95h.88c.78,0,1.22-.49,1.33-1.21v-.07l.02-.05h3.06c.58,0,1.04-.53,1.12-1.1m-.78-1.09h-.53s-.08-.02-.07-.06h0l.06-.44v-.08c.03-.13,.16-.22,.29-.22h.37l-.11,.8Z"/><path class="g" d="M69.58,44.42v.09c-.04,.15-.17,.26-.33,.26h-1.34l.28-1.67h-.96l-.43,2.64v.08c-.04,.15-.17,.26-.33,.26h-.76l-.17,.95h.88c.78,0,1.22-.49,1.32-1.21v-.07l.02-.05h1.43c.78,0,1.21-.48,1.32-1.2v-.07l.66-3.85h-.98l-.62,3.83Z"/><path class="g" d="M72.71,46.05h-.08c-.15,0-.26-.11-.23-.27v-.09l.89-5.17h-.98l-.85,5.18v.07c-.14,.72,.13,1.21,.91,1.21h1.27l.18-.95h-1.12Z"/><path class="g" d="M56.3,40.55c-.27,0-.49,.23-.49,.49s.23,.49,.49,.49,.49-.23,.49-.49-.23-.49-.49-.49"/><path class="g" d="M55.17,41.85c-.54,0-.97,.44-1.05,.97l-.16,.96v.08c-.05,.27,.11,.57,.41,.57l1.02,.02-.22,1.31-.02,.08c-.02,.16-.16,.27-.32,.27h-2.17c-.16,0-.26-.11-.23-.27l.02-.08,.23-1.31h-.94l-.27,1.39c-.14,.73,.14,1.22,.91,1.22h2.38c.78,0,1.21-.49,1.33-1.22l.6-3.98h-1.55Zm.19,.84h.3l-.11,.8h-.53s-.08-.02-.07-.06h0l.06-.44v-.08c.03-.13,.16-.21,.29-.21h.06Z"/><path class="g" d="M58.58,41.85h-.11c-.55,0-.98,.44-1.06,.97l-.16,1.04c-.04,.27,.13,.56,.42,.56l1.01,.02-.22,1.3v.08c-.04,.15-.17,.26-.33,.26h-1.14l-.17,.95h1.26c.78,0,1.22-.49,1.33-1.21l.6-3.98h-1.43Zm.23,1.64h-.53s-.08-.02-.07-.06h0l.06-.44v-.08c.03-.13,.16-.22,.29-.22h.37l-.11,.8Z"/><path class="g" d="M5.16,46.03c-.26,0-.49,.23-.49,.49s.23,.49,.49,.49,.49-.23,.49-.49-.23-.49-.49-.49"/><path class="g" d="M6.49,46.03c-.26,0-.49,.23-.49,.49s.23,.49,.49,.49,.49-.23,.49-.49-.23-.49-.49-.49"/><path class="g" d="M48.02,16.49c2.34,0,4.23-1.9,4.23-4.24s-1.9-4.24-4.23-4.24-4.24,1.9-4.24,4.24,1.9,4.24,4.24,4.24"/><path class="k" d="M56.48,0h14.98s4.63,.82,.95,5.58l-18.51,20.97s-3.95,3.95,3.13,5.31c0,0,10.3,2.72,14.93,2.58h-31.4s-3.13-.68-.14-3.94L59.74,9.53s2.04-2.18-.54-2.18h-9.12L56.48,0Z"/><path class="k" d="M38.64,17.7h9.94l-12.66,13.34s-2.91,3.26-9.31,3.4c-6.4,.14-23.63,0-23.63,0,0,0,19.52-2.01,21.71-3.59,0,0,4.55-1.75,7.42-5.8l6.54-7.35Z"/><path class="g" d="M41.33,50.12c-.4,.85-.27,1.54,.02,1.87,.16,.19,.56,.32,.71,.32h1.4l.13-.81h-1.42c-.22,0-.34-.24-.29-.41h1.76l.09-.66c.19-1.45-1.82-1.56-2.4-.31m1.7,.28h-1.04l.02-.03c.31-.56,1.05-.43,1.02-.04v.08Z"/><path class="g" d="M60.29,52.3l.3-2.05,.02-.13c.08-.53-.28-.81-.72-.81h-1.13l-.2,.81h.86c.29,0,.26,.3-.03,.36l-.2,.04c-.6,.13-.98,.34-1.13,.5-.59,.64,.02,1.69,1.07,1.18,.14-.07,.23-.18,.22-.15l-.04,.25h.98Zm-1.56-.77c-.07-.26,.31-.63,.82-.64l-.1,.65c-.21,.21-.64,.27-.72-.01"/><path class="g" d="M66.53,50.12c-.4,.85-.27,1.54,.02,1.87,.16,.19,.56,.32,.71,.32h1.4l.13-.81h-1.42c-.22,0-.34-.24-.29-.41h1.76l.09-.66c.19-1.45-1.82-1.56-2.4-.31m1.7,.28h-1.04l.02-.03c.31-.56,1.05-.43,1.02-.04v.08Z"/><path class="g" d="M34.08,50.74c-.12,.51,0,.95,.29,1.3,.22,.25,1.01,.61,1.72,.08,.13-.1,.83-.8,.72-1.86-.15-1.42-2.27-1.59-2.72,.48m1.19,.8c-.15-.03-.26-.12-.29-.41-.08-.98,.86-1.58,.96-.75,.07,.58-.35,1.23-.67,1.16"/><path class="g" d="M24.28,50.74c-.12,.51,0,.95,.29,1.3,.22,.25,1.01,.61,1.72,.08,.13-.1,.83-.8,.72-1.86-.15-1.42-2.27-1.59-2.72,.48m1.19,.8c-.15-.03-.26-.12-.29-.41-.08-.98,.86-1.58,.96-.75,.07,.58-.35,1.23-.67,1.16"/><path class="g" d="M18.71,49.31c-.35,0-.6,.03-.73,.09-.27,.13-.46,.32-.54,.72l-.26,1.57c-.06,.47,.19,.55,.47,.62h1l-.15,.95c-.02,.14-.15,.22-.28,.22h-1.3l-.15,.9h1.73c.53,0,.91-.44,1-.94l.56-4.12h-1.34Zm.07,2.25h-.52c-.08,0-.2-.03-.18-.11v-.07l.14-.89,.02-.1c.02-.15,.16-.31,.32-.31h.44l-.22,1.48Z"/><path class="g" d="M14.21,50.74c-.12,.51,0,.95,.29,1.3,.22,.25,1.01,.61,1.72,.08,.13-.1,.83-.8,.72-1.86-.15-1.42-2.27-1.59-2.72,.48m1.19,.8c-.15-.03-.26-.12-.29-.41-.08-.98,.86-1.58,.96-.75,.07,.58-.35,1.23-.67,1.16"/><path class="g" d="M11.27,50.74c-.12,.51,0,.95,.29,1.3,.22,.25,1.01,.61,1.72,.08,.13-.1,.83-.8,.72-1.86-.15-1.42-2.27-1.59-2.72,.48m1.19,.8c-.15-.03-.26-.12-.29-.41-.08-.98,.86-1.58,.96-.75,.07,.58-.35,1.23-.67,1.16"/><path class="g" d="M10.63,49.3h-1.27l-.14,.81h.9l-1.28,1.45c-.14,.18-.23,.31-.2,.48,.03,.18,.16,.24,.36,.26h1.72l.19-.8h-.91l1.1-1.29,.08-.1c.26-.31,.12-.81-.54-.81"/><path class="g" d="M5.44,52.29l.3-2.05,.02-.13c.08-.53-.28-.81-.72-.81h-1.13l-.2,.81h.86c.29,0,.26,.3-.03,.36l-.2,.04c-.6,.13-.98,.34-1.13,.5-.59,.64,.02,1.69,1.07,1.18,.14-.07,.23-.18,.22-.15l-.04,.25h.98Zm-1.56-.77c-.07-.26,.31-.63,.82-.64l-.1,.65c-.21,.21-.64,.27-.72-.01"/><path class="g" d="M7.38,49.31c-.35,0-.6,.03-.73,.09-.27,.13-.46,.32-.54,.72l-.26,1.57c-.06,.47,.19,.55,.47,.62h1l-.15,.95c-.02,.14-.15,.22-.28,.22h-1.3l-.15,.9h1.73c.53,0,.91-.44,1-.94l.56-4.12h-1.34Zm.07,2.25h-.52c-.08,0-.2-.03-.18-.11v-.07l.14-.89,.02-.1c.02-.15,.16-.31,.32-.31h.44l-.22,1.48Z"/><polygon class="g" points="33.27 47.96 32.95 49.84 32.05 49.84 32.33 47.96 31.4 47.96 30.71 52.3 31.7 52.3 31.91 50.75 32.8 50.75 32.57 52.3 33.56 52.3 34.19 47.96 33.27 47.96"/><path class="g" d="M39.76,49.51l-.19,.2-.14-.24c-.16-.27-.8-.28-1.05-.03l-.25,.24,.06-.37h-.96l-.46,3h.99l.28-1.86v-.08c.08-.38,.54-.24,.49,.09l-.28,1.85h.97l.26-1.76c.08-.57,.62-.57,.53,.05l-.26,1.71h.99l.31-2.13v-.08c.16-.79-.74-1.12-1.27-.59"/><path class="g" d="M23.52,49.19l.02-.11c.02-.12,.11-.22,.23-.22h1.02l.15-.9h-1.16c-.54,0-1.05,.35-1.14,.9l-.02,.14-.16,.97h-.37l-.15,.75h.41l-.26,1.58h.98l.24-1.58h.71l.11-.75h-.71l.11-.78Z"/><path class="g" d="M28.39,49.83l.03-.19,.05-.33h-.94l-.48,3h.97l.24-1.64c.09-.55,1.19-.54,1.19-.54l.13-.94s-1.1,.09-1.19,.64"/><path class="g" d="M71.31,51.52l-.89-1.39h1.08l.11-.83h-1.48c-.55,0-.94,.61-.62,1.08l.74,1.11h-1.02l-.13,.8h1.87c.38-.02,.53-.47,.34-.78"/><polygon class="g" points="58.12 47.97 57.19 47.97 57.04 48.88 57.98 48.88 58.12 47.97"/><path class="g" d="M3.36,49.18c.08-.11,.09-.1,.14-.19,.29-.47,0-1.02-.53-1.02H.95l-.19,.91h1.36c.07,0,.17,.04,.09,.13l-1.94,2.28-.08,.1c-.43,.48-.06,.92,.42,.92h1.97l.21-.91H1.47l1.89-2.22Z"/><path class="g" d="M55.84,51.2l.46-3.22h-.92l-.56,3.5c-.09,.52-.09,.79,.44,.84h.94l.13-.81h-.29c-.28,0-.25-.1-.21-.31"/><polygon class="g" points="56.99 49.3 56.53 52.3 57.51 52.3 57.95 49.3 56.99 49.3"/><path class="g" d="M54.15,49.3h-.55c-.25,0-.38,.27-.37,.24v-.03l.04-.22h-.94l-.79,5.07h1.02l.29-2.07h.63c.48,0,.89-.36,.97-.84l.21-1.43,.02-.12c.05-.32-.18-.62-.51-.62m-.59,1.92c-.02,.15-.14,.27-.29,.27h-.29l.02-.13,.16-1.19c0-.05,.05-.11,.09-.11h.24c.12,0,.21,.07,.19,.19l-.12,.97Z"/><path class="g" d="M51.76,50.04l.02-.12c.05-.31-.18-.62-.51-.62h-.55c-.25,0-.38,.27-.37,.24v-.03l.03-.22h-.94l-.79,5.07h1.02l.29-2.07h.63c.48,0,.89-.36,.97-.84l.21-1.43Zm-1.13,1.19c-.02,.15-.14,.27-.28,.27h-.29v-.13l.17-1.19c0-.05,.05-.11,.09-.11h.24c.12,0,.21,.07,.19,.19l-.12,.97Z"/><path class="g" d="M48.3,48.15c0-.09-.08-.17-.18-.17h-.9c-.11,0-.2,.07-.24,.16v.02l-2.03,4.15h1.12l.4-.91h1.06l.04,.91h1.06l-.34-4.13v-.04Zm-1.49,2.47l.64-1.59,.03,1.59h-.67Z"/><path class="g" d="M65.27,50.12h1.01l.13-.81h-.97s-.04,0-.06,0c-.24,.01-.46,.07-.5,.08-1.09,.38-1.15,2.15-.83,2.61,.15,.21,.41,.26,.78,.3,.03,0,.06,0,.09,0h1.06l.13-.91h-1c-.7,0-.26-1.28,.16-1.28"/><path class="g" d="M62.71,49.3c-.25,0-.64,.25-.65,.3l.05-.29h-.96l-.46,3h.99l.26-1.76,.02-.1c.06-.42,.81-.57,.73,0v.08l-.28,1.77h.97l.29-1.94v-.07c.11-.69-.28-.99-.95-.99"/></g></g></g></g></g></svg>