<?xml version="1.0" encoding="UTF-8"?><svg xmlns="http://www.w3.org/2000/svg" xmlns:xlink="http://www.w3.org/1999/xlink" viewBox="0 0 65.25 49.14"><defs><style>.g{clip-path:url(#e);}.h{fill:none;}.i{clip-path:url(#f);}</style><clipPath id="e"><rect class="h" width="65.25" height="49.14"/></clipPath><clipPath id="f"><rect class="h" y="0" width="65.26" height="49.14"/></clipPath></defs><g id="a"/><g id="b"><g id="c"><g id="d"><g class="g"><g class="i"><path d="M62.08,44.31h-7.07c-.08-1.78,1.83-1.71,1.83-1.71h7.62v-1.52h-7.75c-5.31,.49-5.12,4.76-5.12,4.76h9.02c1.34,0,1.22,.85,1.22,.85,0,1.09-.98,.98-.98,.98h-10.24v-6.59h-2.93v6.59h-5.36c-1.87,0-1.87-.98-1.87-.98v-5.61h-4.47l-4.64,2.8-4.14-2.8h-10.25c-5.29,.32-5.67,4.27-5.67,4.27h1.89c-.85,.36-1.89,2.32-1.89,2.32H4.88c-1.95,.05-1.89-1.72-1.89-1.72v-4.88H0v4.27c-.06,4.14,3.91,3.78,3.91,3.78H26.11l4.27-2.56,3.6,2.56h4.45l-5.77-4.39,4.73-2.8v4.76c.49,2.19,3.48,2.44,3.48,2.44h21.71c2.68,0,2.68-2.44,2.68-2.44,0-2.29-3.17-2.38-3.17-2.38m-36.51,3.36H14.84c.24-1.79,2.03-1.8,2.03-1.8h6.38v-1.63H14.84c.41-1.72,2.11-1.54,2.11-1.54h7.08v-.65l4.96,3.41-3.41,2.21Z"/><path d="M50.74,21.02c-.25,.11-.7,.15-.7,.15H30.51s-3.23-.18,0-3.95L39.97,3.55s.38-.36,.65-.83c.36-.64,.52-1.48-.71-1.91C37.67,.28,35.23,0,32.62,0,18.94,0,10.19,7.63,10.15,16.56c-.04,8.57,7.63,16.17,22.47,16.16,7.8,0,14.1-2.45,18.04-6.27h-3.85c-3.39,2.72-8.29,4.41-14.19,4.41-12.72,0-19.27-6.39-19.27-14.3S20.9,1.75,32.62,1.74c.5,0,.98,.02,1.45,.05,.32,.2,.33,.76-1.06,2.3,0,0-2.76,3.38-6.44,8.46-3.74,5.2-4.2,6.34-4.2,6.34,0,0-4.03,6.03,5.52,6.35h23.92c2.11-2.51,3.3-5.47,3.3-8.67,0-6.48-4.6-12.25-12.4-14.94l-.86,1.46c7.06,2.4,10.31,7.66,10.31,13.47,0,1.41-.18,2.53-.89,3.67,0,0-.27,.68-.52,.79"/></g></g></g></g></g></svg>