<?xml version="1.0" encoding="UTF-8"?><svg xmlns="http://www.w3.org/2000/svg" xmlns:xlink="http://www.w3.org/1999/xlink" viewBox="0 0 47.99 57.83"><defs><style>.g{clip-path:url(#e);}.h{fill:none;}.i{fill:#ff0016;}.j{clip-path:url(#f);}.k{fill:#015ccf;}</style><clipPath id="e"><rect class="h" width="47.99" height="57.83"/></clipPath><clipPath id="f"><rect class="h" width="47.99" height="57.83"/></clipPath></defs><g id="a"/><g id="b"><g id="c"><g id="d"><g class="g"><g class="j"><path class="i" d="M17.34,12.23c.45-1.45,1.57-.71,1.57-.71,0,0,2.92,2.23,10.94,7.33,8.02,5.1,18.02-1.98,18.02-1.98L24.12,0C13.71,11.04,.38,15,.38,15h.04l30.35,21.3c-.45,1.45-1.57,.71-1.57,.71,0,0-2.92-2.23-10.94-7.33C10.23,24.57,.24,31.66,.24,31.66l23.74,16.87c10.41-11.04,23.74-15,23.74-15h-.04L17.34,12.23Z"/><path class="k" d="M0,55.23l3.65,.02c.06,.34-.04,.34,.16,.52,.3,.28,.77,.34,1.16,.27,.32-.06,.82-.15,.84-.55,.03-.43-.27-.58-.65-.63-.52-.07-1.04-.09-1.56-.17-1.33-.22-2.04-.32-2.61-.68-.57-.36-.62-1.15-.62-1.71,0-.37,.15-.72,.44-1.05,.29-.33,.73-.59,1.32-.77,.59-.19,1.4-.28,2.42-.28,1.26,0,2.22,.17,2.88,.51,.66,.34,1.05,1.1,1.18,1.84h-3.11s-.06-.24-.07-.29c-.12-.43-.53-.56-.93-.64-.33-.07-.7-.08-.99,.1-.18,.11-.32,.23-.32,.38,0,.11,.07,.22,.22,.31,.14,.09,.48,.18,1.02,.26,1.33,.21,2.28,.42,2.86,.63,.57,.21,.99,.48,1.26,.8,.26,.32,.39,.67,.39,1.06,0,.46-.17,.89-.52,1.27-.35,.39-.84,.68-1.46,.88-.63,.2-1.42,.3-2.37,.3-1.67,0-2.83-.23-3.48-.7-.64-.47-1.01-.96-1.09-1.69"/><path class="k" d="M14.82,50.33h2.7v5.08c0,1.04-.65,1.78-1.94,2.22-.6,.2-1.32,.21-2.13,.21-.73,0-1.38,.01-1.99-.14-1.43-.57-2.14-1.33-2.14-2.28v-5.08h2.72v4.35c0,.79,.1,1.38,1.41,1.38s1.35-.61,1.35-1.41l.02-4.32Z"/><path class="k" d="M32.47,50.33h2.7v5.08c0,1.04-.65,1.78-1.94,2.22-.6,.2-1.32,.21-2.13,.21-.73,0-1.38,.01-1.99-.14-1.43-.57-2.14-1.33-2.14-2.28v-5.08h2.72v4.35c0,.79,.1,1.38,1.41,1.38s1.35-.61,1.35-1.41l.02-4.32Z"/><polygon class="k" points="18.08 50.38 26.44 50.38 26.44 51.94 22.35 55.61 26.44 55.61 26.44 57.66 18.08 57.66 18.08 55.9 22.07 52.28 18.08 52.28 18.08 50.38"/><polygon class="k" points="35.84 57.64 35.84 50.37 38.52 50.37 38.52 53.06 41.41 50.37 44.77 50.37 40.92 53.89 44.93 57.64 41.31 57.64 38.55 55.04 38.57 57.64 35.84 57.64"/><rect class="k" x="45.31" y="50.37" width="2.68" height="7.28"/></g></g></g></g></g></svg>