<?xml version="1.0" encoding="UTF-8"?><svg xmlns="http://www.w3.org/2000/svg" viewBox="0 0 56.85 72.07"><defs><style>.e{fill:#14303a;}</style></defs><g id="a"/><g id="b"><g id="c"><path id="d" class="e" d="M13.22,16.17l-7.77,3.63c-.23,.08-.41,.26-.5,.49-.09,.23-.08,.48,.01,.7l4.49,9.66c.11,.23,.38,.34,.62,.23,.12-.06,.21-.16,.25-.29l4.16-13.29h0c.11-.35,.01-.73-.26-.97-.28-.24-.66-.3-1-.16h0Zm8.75,46.18c.76-.02,1.39,.58,1.4,1.34,.02,.76-.58,1.39-1.34,1.4-.02,0-.04,0-.06,0h-4.1c-.76-.02-1.36-.65-1.34-1.4,.02-.73,.61-1.32,1.34-1.34h4.1Zm9.5,0c.76-.02,1.39,.58,1.4,1.34,.02,.76-.58,1.39-1.34,1.4-.02,0-.04,0-.06,0h-4.04c-.76-.02-1.36-.65-1.34-1.4,.02-.73,.61-1.32,1.34-1.34h4.04Zm-19.05,0c.76-.02,1.39,.58,1.4,1.34,.02,.76-.58,1.39-1.34,1.4-.02,0-.04,0-.06,0h-4.12c-.76,.02-1.39-.58-1.4-1.34-.02-.76,.58-1.39,1.34-1.4,.02,0,.04,0,.06,0h4.12Zm9.55-23.55c.77,.06,1.34,.73,1.28,1.49-.05,.68-.6,1.23-1.28,1.28h-4.1c-.77-.06-1.33-.74-1.27-1.5,.06-.68,.59-1.21,1.27-1.27h4.1Zm9.5,0c.77,.06,1.34,.73,1.28,1.49-.05,.68-.6,1.23-1.28,1.28h-4.04c-.77-.06-1.34-.73-1.28-1.49,.05-.68,.6-1.23,1.28-1.28h4.04Zm-19.05,0c.77,.06,1.34,.73,1.28,1.49-.05,.68-.6,1.23-1.28,1.28h-4.12c-.77-.06-1.33-.74-1.27-1.5,.06-.68,.59-1.21,1.27-1.27h4.12Zm28.99,9.02c2.29,.01,4.13,1.88,4.12,4.17,0,1.08-.44,2.12-1.2,2.89-1.62,1.59-4.22,1.6-5.84,.01-.78-.77-1.23-1.82-1.24-2.92,.02-2.29,1.87-4.14,4.16-4.16h.01Zm0,2.76c-.76,.02-1.36,.65-1.34,1.4,.02,.73,.61,1.32,1.34,1.34,.36,0,.7-.14,.96-.39,.26-.25,.4-.6,.39-.96,0-.75-.59-1.37-1.34-1.4h0Zm-5.13-7.2h13.18c.24,0,.48-.1,.66-.26,.17-.17,.27-.4,.27-.64v-4.47c0-.9-.37-1.76-1-2.4-.64-.64-1.5-1-2.4-1H6.16c-.9,0-1.76,.37-2.4,1-.64,.64-1,1.5-1,2.4v27.92c0,.9,.36,1.77,.99,2.42,.64,.64,1.51,1,2.42,.99H46.97c.9,0,1.77-.36,2.42-.99,.64-.64,1-1.51,1-2.42v-4.43c-.01-.5-.41-.9-.91-.91h-13.19c-3.4,0-6.15-2.76-6.14-6.15h0v-4.94c0-3.4,2.74-6.15,6.14-6.16,0,0,.02,0,.02,0l-.02,.04Zm17.78,0h1.89c.5,.01,.9,.41,.91,.91v15.36c-.02,.5-.41,.9-.91,.91h-1.92c-.51,0-.93,.42-.93,.93h0v4.44c-.01,3.38-2.75,6.12-6.13,6.14H6.16c-3.39-.02-6.14-2.77-6.16-6.16v-27.92c.03-3.39,2.79-6.12,6.17-6.12,.37,0,.76-.26,.54-.64L1.36,19.67c-.2-.46-.01-.99,.43-1.23l14.05-6.49h0c.24-.09,.42-.29,.49-.54L19.63,.64c.2-.48,.71-.74,1.22-.61l30.41,9.6c.23,.07,.42,.23,.53,.44,.11,.21,.13,.46,.06,.68l-6.27,19.93c-.07,.29-.01,.59,.16,.83,.18,.23,.46,.37,.76,.36h.49c3.39,0,6.14,2.73,6.16,6.12v4.47c0,.23,.1,.46,.26,.63,.16,.17,.39,.26,.63,.24l.03,.03Zm-.83,2.72h-16.95c-.9,0-1.77,.36-2.42,.99-.64,.64-1,1.51-.99,2.42v4.91c0,.9,.36,1.77,.99,2.42,.64,.64,1.51,1,2.42,.99h16.95c.49,0,.88-.4,.87-.89,0-.02,0-.04,0-.06v-9.86c0-.49-.39-.88-.87-.91h0ZM14.02,31.88h1.94c.4,0,.75-.25,.87-.63l5.09-16.09h0c.07-.23,.23-.42,.44-.53,.21-.1,.46-.12,.68-.06,3.09,.97,5.4-.27,6.32-3.3h0c.07-.23,.23-.43,.44-.54,.22-.11,.47-.13,.7-.06l6.72,2.09c.48,.16,.75,.65,.64,1.14-.97,3.09,.26,5.4,3.29,6.32,.23,.07,.43,.23,.54,.44,.11,.21,.13,.46,.06,.68l-2.93,9.34c-.13,.51,.18,1.03,.69,1.16,.06,.02,.12,.02,.18,.03h2c.39,0,.73-.26,.86-.63l5.83-18.69h0c.07-.23,.05-.47-.06-.68-.11-.21-.3-.37-.53-.44L22.6,3.52c-.44-.17-.93,.05-1.1,.5-.01,.03-.02,.06-.03,.09L13.16,30.7c-.1,.27-.06,.58,.11,.81,.17,.24,.45,.38,.74,.37h0Zm6.76,0h14.16c.39,0,.74-.25,.86-.63l2.64-8.37h0c.11-.39-.04-.8-.37-1.03-2.06-1.41-3.26-3.77-3.2-6.26,0-.41-.25-.78-.64-.91l-2.16-.64h0c-.39-.15-.84-.02-1.09,.33-1.36,2.12-3.73,3.37-6.24,3.3-.41,0-.78,.25-.91,.64l-3.94,12.39c-.06,.28,0,.56,.16,.8,.19,.25,.49,.39,.8,.37h-.06Z"/></g></g></svg>