<?xml version="1.0" encoding="UTF-8"?><svg xmlns="http://www.w3.org/2000/svg" viewBox="0 0 67.56 72.02"><defs><style>.d{fill:#14303a;}</style></defs><g id="a"/><g id="b"><g id="c"><path class="d" d="M67.55,23.4h0s0-.08-.02-.11h0L62.67,1.38c-.18-.8-.89-1.38-1.71-1.38h-21.34c-.05,0-.11-.01-.16,0-.03,0-.06,0-.1,0h-11.27s-.06,0-.09,0-.06,0-.09,0h-11.91c-.06,0-.11,0-.17,0H6.6c-.83,0-1.53,.57-1.71,1.38l-1.74,7.82c-.12,.52,.16,1.07,.66,1.25,.61,.22,1.25-.15,1.39-.76l1.68-7.58h7.88l-1.88,20.34H2.37l1.13-5.08c.12-.52-.16-1.07-.66-1.25-.61-.22-1.25,.15-1.39,.76L.03,23.28h0s-.01,.07-.02,.11h0s0,.08,0,.12H0c0,3.85,2.86,7.02,6.56,7.54v16.46H2.76c-.34,0-.62,.28-.62,.62v5.24c0,.34,.28,.62,.62,.62s.62,.28,.62,.62v16.36c0,.58,.47,1.05,1.05,1.05H63.12c.58,0,1.05-.47,1.05-1.05v-4.03c0-.58-.44-1.08-1.02-1.1-.6-.02-1.09,.46-1.09,1.05v3.02h-7.89v-15.92h7.89v5.48c0,.58,.44,1.08,1.02,1.1,.6,.02,1.09-.46,1.09-1.05v-4.9c0-.34,.28-.62,.62-.62s.62-.28,.62-.62v-5.24c0-.34-.28-.62-.62-.62h-3.8V31.05c3.7-.51,6.55-3.69,6.56-7.53h0s0-.09,0-.12ZM60.67,2.12l4.52,20.34h-10.83l-1.64-20.34h7.96Zm-10.07,0l1.64,20.34h-10.92l-.74-20.34h10.02Zm1.66,22.45c-.49,2.53-2.73,4.45-5.4,4.45s-4.91-1.92-5.4-4.45h10.81ZM29.01,2.12h9.46l.74,20.34h-10.95l.75-20.34Zm10.14,22.45c-.49,2.53-2.73,4.45-5.4,4.45s-4.91-1.92-5.4-4.45h10.81ZM16.88,2.12h10.03l-.75,20.34H15l1.88-20.34Zm9.14,22.45c-.49,2.53-2.73,4.45-5.4,4.45s-4.91-1.92-5.4-4.45h10.81Zm-11.9,2.91c1.34,2.19,3.75,3.65,6.5,3.65s5.24-1.52,6.57-3.77c1.32,2.25,3.77,3.77,6.57,3.77s5.23-1.51,6.56-3.75c1.33,2.24,3.77,3.75,6.56,3.75s5.21-1.5,6.54-3.72c1.16,1.94,3.16,3.32,5.49,3.65v16.46h-2.09v-4.61c0-.39-.31-.7-.7-.7h-2.3v-2.78h1.76c.39,0,.7-.31,.7-.7v-4.08c0-.39-.31-.7-.7-.7h-7.97c-.39,0-.7,.31-.7,.7v4.08c0,.39,.31,.7,.7,.7h4.1v2.78h-10.53c-.39,0-.7,.31-.7,.7v4.61h-7.67v-13.1c0-.39-.31-.7-.7-.7H13.49c-.39,0-.7,.31-.7,.7v13.1h-4.12V31.05c2.3-.32,4.28-1.67,5.45-3.58Zm40.58,16.83v3.2h-12.13v-3.2h12.13Zm-5.7-7v-1.26h5.16v1.26h-5.16Zm-18.32-1.49v11.69H14.89v-11.69h15.78ZM2.21,24.56H13.02c-.49,2.53-2.73,4.45-5.4,4.45s-4.91-1.92-5.4-4.45Zm11.17,45.35H5.49v-15.92h7.89v15.92Zm9.67,0h-7.56v-15.92h7.56v15.92Zm9.67,0h-7.56v-15.92h7.56v15.92h0Zm9.67,0h-7.56v-15.92h7.56v15.92Zm9.67,0h-7.56v-15.92h7.56v15.92h0Zm11.24-20.3v2.27H4.25v-2.27H63.31Zm-3.36-20.6c-2.68,0-4.91-1.92-5.4-4.45h10.81c-.49,2.53-2.73,4.45-5.4,4.45Z"/></g></g></svg>