<?xml version="1.0" encoding="UTF-8"?><svg xmlns="http://www.w3.org/2000/svg" viewBox="0 0 72.76 72.76"><defs><style>.d{fill:#14303a;}</style></defs><g id="a"/><g id="b"><g id="c"><g><path class="d" d="M25.82,30.51c-9.06,0-16.43,7.37-16.43,16.43s7.37,16.43,16.43,16.43,16.43-7.37,16.43-16.43-7.37-16.43-16.43-16.43Zm0,30.51c-7.77,0-14.08-6.32-14.08-14.08s6.32-14.08,14.08-14.08,14.08,6.32,14.08,14.08-6.32,14.08-14.08,14.08Z"/><path class="d" d="M25.82,35.21c-6.47,0-11.74,5.26-11.74,11.74s5.26,11.74,11.74,11.74,11.74-5.26,11.74-11.74-5.26-11.74-11.74-11.74Zm0,2.35c4.36,0,8.03,3,9.08,7.04h-.38c-1.38,0-2.68,.54-3.66,1.52-.54,.54-1.25,.83-2,.83h-.2c-.76,0-1.47-.29-2-.83-.98-.98-2.28-1.52-3.66-1.52h-.2c-1.38,0-2.68,.54-3.66,1.52-.54,.54-1.25,.83-2,.83h-.69c0-5.18,4.21-9.39,9.39-9.39Zm0,18.78c-4.36,0-8.03-3-9.08-7.04h.38c1.38,0,2.68-.54,3.66-1.52,.54-.54,1.25-.83,2-.83h.2c.76,0,1.47,.29,2,.83,.98,.98,2.28,1.52,3.66,1.52h.2c1.38,0,2.68-.54,3.66-1.52,.54-.54,1.25-.83,2-.83h.69c0,5.18-4.21,9.39-9.39,9.39Z"/><path class="d" d="M72.76,46.94c0-2.59-2.11-4.69-4.69-4.69h-15.26c-.41,0-.8,.07-1.17,.17V12.91c0-.65-.52-1.17-1.17-1.17H1.17c-.65,0-1.17,.52-1.17,1.17v58.68c0,.65,.52,1.17,1.17,1.17H68.07c2.59,0,4.69-2.11,4.69-4.69,0-2.05-1.32-3.77-3.15-4.41,.51-.75,.81-1.65,.81-2.63s-.3-1.88-.81-2.63c1.83-.64,3.15-2.37,3.15-4.41,0-1.41-.64-2.66-1.62-3.52,.99-.86,1.62-2.11,1.62-3.52Zm-4.69,14.08c0,1.29-1.05,2.35-2.35,2.35h-15.26c-1.29,0-2.35-1.05-2.35-2.35s1.05-2.35,2.35-2.35h15.26c1.29,0,2.35,1.05,2.35,2.35Zm-19.95-7.04c0,.97,.3,1.88,.81,2.63-1.83,.64-3.15,2.37-3.15,4.41s1.32,3.77,3.15,4.41c-.06,.09-.1,.19-.15,.28H2.35V28.17H49.29v15.71c-.72,.83-1.17,1.89-1.17,3.07,0,1.41,.64,2.66,1.62,3.52-.99,.86-1.62,2.11-1.62,3.52Zm1.17-39.9v11.74H2.35V14.08H49.29ZM2.35,68.07H48.12c0,.86,.25,1.65,.65,2.35H2.35v-2.35Zm68.07,0c0,1.29-1.05,2.35-2.35,2.35h-15.26c-1.29,0-2.35-1.05-2.35-2.35s1.05-2.35,2.35-2.35h15.26c1.29,0,2.35,1.05,2.35,2.35Zm0-14.08c0,1.29-1.05,2.35-2.35,2.35h-15.26c-1.29,0-2.35-1.05-2.35-2.35s1.05-2.35,2.35-2.35h15.26c1.29,0,2.35,1.05,2.35,2.35Zm-17.6-4.69c-1.29,0-2.35-1.05-2.35-2.35s1.05-2.35,2.35-2.35h15.26c1.29,0,2.35,1.05,2.35,2.35s-1.05,2.35-2.35,2.35h-15.26Z"/><path class="d" d="M5.87,23.47H24.65c.65,0,1.17-.52,1.17-1.17v-4.69c0-.65-.52-1.17-1.17-1.17H5.87c-.65,0-1.17,.52-1.17,1.17v4.69c0,.65,.52,1.17,1.17,1.17Zm1.17-4.69H23.47v2.35H7.04v-2.35Z"/><path class="d" d="M35.21,18.78h2.35v2.35h-2.35v-2.35Z"/><path class="d" d="M30.51,18.78h2.35v2.35h-2.35v-2.35Z"/><path class="d" d="M39.9,18.78h2.35v2.35h-2.35v-2.35Z"/><path class="d" d="M44.6,18.78h2.35v2.35h-2.35v-2.35Z"/><path class="d" d="M46.94,9.39c2.59,0,4.69-2.11,4.69-4.69s-2.11-4.69-4.69-4.69-4.69,2.11-4.69,4.69,2.11,4.69,4.69,4.69Zm0-7.04c1.29,0,2.35,1.05,2.35,2.35s-1.05,2.35-2.35,2.35-2.35-1.05-2.35-2.35,1.05-2.35,2.35-2.35Z"/><path class="d" d="M69.24,16.43h-2.35c0,1.29-1.05,2.35-2.35,2.35v2.35c2.59,0,4.69-2.11,4.69-4.69Z"/><path class="d" d="M64.55,24.65c4.53,0,8.22-3.69,8.22-8.22s-3.69-8.22-8.22-8.22-8.22,3.69-8.22,8.22,3.69,8.22,8.22,8.22Zm0-14.08c3.24,0,5.87,2.63,5.87,5.87s-2.63,5.87-5.87,5.87-5.87-2.63-5.87-5.87,2.63-5.87,5.87-5.87Z"/><path class="d" d="M59.85,38.73c3.24,0,5.87-2.63,5.87-5.87s-2.63-5.87-5.87-5.87-5.87,2.63-5.87,5.87,2.63,5.87,5.87,5.87Zm0-9.39c1.94,0,3.52,1.58,3.52,3.52s-1.58,3.52-3.52,3.52-3.52-1.58-3.52-3.52,1.58-3.52,3.52-3.52Z"/></g></g></g></svg>