<svg id="pencil-square" xmlns="http://www.w3.org/2000/svg" width="21.648" height="21.43" viewBox="0 0 21.648 21.43">
  <path id="Path_893" data-name="Path 893" d="M21,2.628a.739.739,0,0,1,0,1.043L19.457,5.215,16.5,2.259,18.043.716a.739.739,0,0,1,1.045,0L21,2.627Zm-2.586,3.63L15.456,3.3,5.388,13.373a.739.739,0,0,0-.179.29L4.019,17.23a.369.369,0,0,0,.467.467l3.568-1.19a.739.739,0,0,0,.29-.177L18.412,6.26Z" transform="translate(0.434 -0.5)" fill="#fff"/>
  <path id="Path_894" data-name="Path 894" d="M1,19.474A2.217,2.217,0,0,0,3.217,21.69H19.474a2.217,2.217,0,0,0,2.217-2.217V10.606a.739.739,0,0,0-1.478,0v8.867a.739.739,0,0,1-.739.739H3.217a.739.739,0,0,1-.739-.739V3.217a.739.739,0,0,1,.739-.739h9.606a.739.739,0,0,0,0-1.478H3.217A2.217,2.217,0,0,0,1,3.217Z" transform="translate(-1 -0.26)" fill="#fff" fill-rule="evenodd"/>
</svg>
