<?xml version="1.0" encoding="UTF-8"?><svg xmlns="http://www.w3.org/2000/svg" xmlns:xlink="http://www.w3.org/1999/xlink" viewBox="0 0 278.56 42.14"><defs><style>.g{fill:#2a3940;}.h{fill:#b2b2b2;}.i{fill:#636569;}.j{fill:#5cb2cb;}.k{clip-path:url(#e);}.l{fill:none;}.m{clip-path:url(#f);}.n{fill:#5a859d;}</style><clipPath id="e"><rect class="l" x="185.53" y="3.05" width="93.03" height="36.65"/></clipPath><clipPath id="f"><rect class="l" x="185.53" y="3.05" width="93.03" height="36.65"/></clipPath></defs><g id="a"/><g id="b"><g id="c"><g><g id="d"><g class="k"><g class="m"><path class="g" d="M273.13,3.15c-1.15,0-2.21,.36-3.08,.97,1.4,.98,2.32,2.6,2.32,4.43s-.92,3.46-2.32,4.43c.87,.61,1.94,.97,3.08,.97,2.98,0,5.4-2.42,5.4-5.4s-2.42-5.4-5.4-5.4"/><path class="j" d="M271.74,8.55c0-1.84-.92-3.46-2.32-4.43-.87-.61-1.94-.97-3.08-.97-2.98,0-5.4,2.42-5.4,5.4s2.42,5.4,5.4,5.4c1.15,0,2.21-.36,3.08-.97,1.4-.98,2.32-2.6,2.32-4.43"/><path class="j" d="M196.27,19.8c.81,0,1.51-.29,2.11-.86,.6-.57,.9-1.25,.9-2.03,0-.84-.3-1.55-.9-2.11-.6-.57-1.3-.86-2.11-.86s-1.55,.28-2.13,.86c-.58,.57-.88,1.28-.88,2.11,0,.79,.29,1.46,.88,2.03,.58,.57,1.3,.86,2.13,.86m78.07-.59c-1,0-1.8,.79-1.8,1.75v7.93c0,.56-.18,.65-.27,.68-.39,.17-.9,.26-1.5,.26h-9.72v-3.72c0-2.31-.65-4.07-1.92-5.21-1.25-1.12-3.13-1.69-5.57-1.69h-.9c-2.05,0-3.71,.6-4.93,1.79-1.22,1.18-1.83,2.74-1.83,4.62v2.92c0,.23-.04,.41-.13,.53-.11,.16-.26,.29-.46,.41-.21,.13-.47,.21-.75,.27-.33,.06-.68,.09-1.04,.09h-9.22c-.42,0-.82-.03-1.2-.08-.11-.02-.22-.03-.32-.05,.03-.34,.05-.7,.05-1.09v-2.23c-.03-1.19-.25-2.22-.66-3.07-.42-.88-1.02-1.58-1.77-2.11-.73-.51-1.61-.88-2.62-1.1-.53-.12-1.09-.2-1.67-.25l4.43-3.49c.97-.76,1.53-1.91,1.53-3.12v-5.19l-14.39,11.44c-1.06,.84-1.67,2.1-1.67,3.43v2.41h8.75c.28,0,.58,.02,.86,.07,.22,.04,.41,.11,.58,.22,.16,.11,.3,.26,.42,.45,.1,.16,.15,.41,.15,.72v1.83c0,.23-.04,.41-.12,.53-.09,.15-.21,.26-.36,.36-.18,.11-.39,.19-.64,.24-.29,.06-.6,.09-.93,.09h-17.39v-10.62h-2.66c-1.85,0-3.36,1.46-3.36,3.27v11.34c-.11,0-.23,.01-.36,.01-.48,.01-.96,.03-1.45,.05-.47,.02-.94,.03-1.39,.03h-1.18c-.65,0-1.34-.05-2.03-.15-.65-.09-1.24-.26-1.76-.49-.47-.21-.85-.51-1.15-.9-.27-.35-.41-.81-.41-1.41v-9.36l-3.69,1.87c-1.47,.74-2.39,2.22-2.39,3.84v3.83c0,1.69,.36,3.12,1.06,4.24,.7,1.11,1.62,1.99,2.75,2.64,1.09,.62,2.32,1.06,3.66,1.31,1.3,.24,2.63,.37,3.95,.37,.6,0,1.34-.04,2.19-.11,.84-.07,1.71-.16,2.61-.27,.9-.11,1.79-.23,2.66-.37,.87-.14,1.63-.29,2.27-.43l.65-.15v-3h17.43c2.04,0,3.72-.34,5.01-1,.62,.23,1.29,.45,1.99,.64,.89,.24,1.94,.36,3.12,.36h8.53c2.19,0,4.01-.4,5.41-1.18,.65,.37,1.4,.66,2.22,.85,.98,.22,2.11,.34,3.35,.34h16.41c2.37,0,4.26-.51,5.6-1.5,1.42-1.05,2.14-2.72,2.14-4.98v-9.68h-4.22Zm-19.29,10.62h-.75c-.35,0-.7-.03-1.04-.09-.29-.05-.54-.14-.75-.27-.2-.12-.35-.25-.46-.41-.08-.12-.13-.29-.13-.52v-2.78c0-.39,.13-.49,.18-.53,.17-.14,.44-.2,.79-.2h.54c.57,0,1.02,.1,1.32,.3,.14,.09,.3,.45,.3,1.17v3.33Z"/><path class="g" d="M224.32,10.8c.42,.08,.9,0,1.44-.26,.48-.21,.81-.5,1-.86,.19-.36,.3-.67,.36-.93,.21,.01,.42,0,.63-.03,.21-.03,.42-.09,.6-.17,.78-.37,1.28-.88,1.5-1.55,.22-.66,.18-1.32-.12-1.97-.07-.17-.19-.36-.36-.58-.16-.22-.33-.42-.5-.6-.22-.22-.39-.39-.52-.52-.12-.13-.24-.22-.34-.28l-1.53,1.35,.8,.77c.1,.09,.22,.22,.36,.39,.14,.17,.25,.3,.31,.38,.07,.17,.12,.33,.13,.48,.02,.15-.05,.27-.21,.36-.1,.05-.23,.06-.39,.04-.16-.02-.28-.07-.36-.15l-1.39-1.56-1.56,1.41c.3,.32,.56,.61,.78,.86,.22,.25,.37,.47,.45,.65,.07,.14,.11,.28,.12,.43,0,.15-.07,.25-.23,.31-.19,.11-.4,.06-.63-.16l-1.23-1.35-1.6,1.36,1.34,1.48c.35,.39,.74,.63,1.16,.71"/></g></g></g><rect class="h" x="170.47" width=".45" height="42.14"/><g><g><polygon class="i" points="77.96 39.55 79.16 39.55 79.16 36.37 81.82 36.37 81.82 35.28 79.16 35.28 79.16 33.6 81.82 33.6 81.82 32.51 77.96 32.51 77.96 39.55"/><polygon class="i" points="83.35 39.55 84.55 39.55 84.55 32.51 83.35 32.51 83.35 37.5 83.35 39.55"/><polygon class="i" points="91.76 37.62 87.32 32.51 86.36 32.51 86.36 39.55 87.5 39.55 87.5 34.48 91.9 39.55 92.91 39.55 92.91 32.51 91.76 32.51 91.76 37.62"/><path class="i" d="M96.85,32.47l-3.03,7.08h1.24l.85-2.02h2.77l.91,2.02h1.24l-3.16-7.08h-.83Zm1.34,3.97h-1.79l.86-2.08,.93,2.08Z"/><polygon class="i" points="107.18 37.62 102.74 32.51 101.78 32.51 101.78 39.55 102.92 39.55 102.92 34.48 107.33 39.55 108.33 39.55 108.33 32.51 107.18 32.51 107.18 37.62"/><path class="i" d="M113.58,38.51c-.76,0-1.39-.23-1.87-.69-.48-.46-.73-1.05-.73-1.77s.25-1.3,.74-1.77c.49-.47,1.12-.71,1.87-.71s1.51,.23,2.28,.67l.17,.09v-1.31l-.07-.03c-.89-.38-1.7-.57-2.43-.57-1.06,0-1.97,.35-2.7,1.05-.73,.7-1.1,1.57-1.1,2.59,0,.64,.16,1.25,.48,1.8,.32,.55,.76,.99,1.3,1.31,.55,.31,1.22,.47,1.99,.47,.95,0,1.8-.2,2.53-.6l.06-.03v-1.34l-.17,.11c-.77,.49-1.56,.74-2.36,.74Z"/><polygon class="i" points="118.79 38.45 118.79 36.56 121.59 36.56 121.59 35.46 118.79 35.46 118.79 33.6 121.69 33.6 121.69 32.51 117.6 32.51 117.6 39.54 121.78 39.54 121.78 38.45 118.79 38.45"/></g><g><path class="i" d="M59.9,18.57h1.23v-2.14h1.32c.32,0,.58,.27,.58,.58v1.56s1.53,0,1.72,0c0,.43,0,1.41,0,1.41h-1.73v3.61c0,1.09,.22,1.37,1.04,1.37,.18,0,.29-.01,.53-.09v1.42c-.4,.08-.73,.12-1.12,.12-.96,0-1.61-.24-1.98-.72-.31-.38-.36-.7-.36-1.88v-3.82h-1.23v-1.41Z"/><path class="i" d="M12.17,14.32h1.31c.35,0,.59,.29,.59,.57v3.79c.64-.23,1.13-.32,1.72-.32,2.21,0,3.6,1.48,3.6,3.84,0,2.7-1.74,4.19-4.92,4.19-.74,0-1.31-.06-2.3-.24V14.32Zm1.9,10.5c.3,.03,.48,.05,.73,.05,1.74,0,2.65-.87,2.65-2.56,0-1.53-.8-2.4-2.2-2.4-.4,0-.71,.04-1.18,.22v4.69Z"/><path class="i" d="M25.82,14.32h1.31c.34,0,.59,.26,.59,.58v11.18c-1.17,.24-2.08,.33-2.97,.33-2.83,0-4.31-1.35-4.31-3.9s1.61-4.12,4.14-4.12c.47,0,.81,.04,1.24,.15v-4.22Zm0,5.75c-.35-.1-.66-.15-1.06-.15-1.5,0-2.39,.93-2.39,2.52s.83,2.44,2.33,2.44c.42,0,.72-.05,1.12-.17v-4.64Z"/><path class="i" d="M31.1,18.57v4.59c0,1.2,.4,1.6,1.62,1.6,.44,0,.8-.04,1.26-.11v-6.08h1.9v7.46c-1.41,.27-2.3,.37-3.32,.37-1.23,0-2.08-.24-2.62-.72-.55-.51-.73-1.15-.73-2.45v-4.66h1.9"/><path class="i" d="M37.37,14.32h1.31c.34,0,.59,.27,.59,.58v11.4h-1.9V14.32Z"/><path class="i" d="M119.72,14.32h1.31c.34,0,.59,.27,.59,.58v11.4h-1.9V14.32Z"/><path class="i" d="M44.04,14.32h1.43c.35,0,.58,.27,.58,.58v9.59h4.69v1.81h-6.7V14.32Z"/><path class="i" d="M65.9,15.81h1.92v1.42h-1.92v-1.42Zm.01,2.76c.73,0,1.64,0,1.9,0v7.74h-1.9v-7.74Z"/><path class="i" d="M80.29,14.31c.33,0,.58,.27,.58,.58v7.93c0,1.72-.2,4.69-3.13,6-.31-.54-.75-1.3-.99-1.73,.78-.42,1.27-.86,1.59-1.44,.4-.75,.51-1.63,.51-3.93v-7.4h1.44Z"/><path class="i" d="M90.82,18.57c1.4,0,3.82-.54,5.51,.18,.32-.1,1.43-.38,2.63-.38,2.8,0,3.14,1.47,3.14,2.89v5.05h-1.9v-4.92c0-1.36-1.08-1.77-2.73-1.39,0,.42-.01,6.31-.01,6.31h-1.9v-4.91c0-1.07-.64-1.85-2.84-1.39v6.3h-1.9v-7.74Z"/><path class="i" d="M7.11,15.52c-.14-.33-.32-.61-.9-.61h-1.58c-1.86,4.25-3.11,7.29-4.64,11.4H2.14c.97-2.77,2.33-6.34,3.56-9.42,.48,1.34,1.15,3.36,1.39,4.19h-1.78l-.58,1.62h2.91c.3,.9,.87,2.59,1.19,3.61h2.27c-1.49-4.25-3.01-8.42-3.99-10.79"/><path class="i" d="M105.05,22.84c.3,2.83,3.87,2.2,4.95,1.21v1.58c-.94,.55-1.74,.77-2.83,.77-2.49,0-3.96-1.47-3.96-3.96s1.5-4.07,3.78-4.07c3.44,0,3.4,3.34,3.41,4.46h-5.35m3.52-1.31c-.08-1.08-.62-1.68-1.65-1.68-1.1,0-1.71,.72-1.86,1.68h3.52Z"/><path class="i" d="M113.22,22.84c.3,2.83,3.87,2.2,4.95,1.21v1.58c-.94,.55-1.75,.77-2.83,.77-2.49,0-3.96-1.47-3.96-3.96s1.5-4.07,3.78-4.07c3.44,0,3.41,3.34,3.41,4.46h-5.36m3.51-1.31c-.08-1.08-.62-1.68-1.65-1.68-1.1,0-1.72,.72-1.86,1.68h3.51Z"/><path class="i" d="M58.71,18.57v7.49c-1.67,.35-7.28,1.42-7.28-3.68,0-2.51,1.62-4,4.14-4,1.37,0,2.17,.2,3.14,.2m-1.9,1.44c-.43-.08-3.45-.71-3.45,2.37s3.07,2.46,3.45,2.32v-4.69Z"/><path class="i" d="M89.38,18.57v7.49c-1.67,.35-7.28,1.42-7.28-3.68,0-2.51,1.62-4,4.14-4,1.37,0,2.17,.19,3.14,.19m-1.9,1.44c-.43-.08-3.45-.7-3.45,2.37s3.07,2.46,3.45,2.32v-4.69Z"/><path class="i" d="M68.95,18.57h1.23c0-1.8,.29-2.76,1.06-3.46,.61-.54,1.45-.85,2.41-.85,.29,0,.47,.02,.8,.08v1.52c-.26-.05-.4-.06-.59-.06-.6,0-1.08,.21-1.37,.59-.3,.39-.4,.92-.4,2.19h1.91v1.42h-1.91v6.32h-1.9v-6.32h-1.23v-1.42Z"/></g><g><path class="n" d="M135.48,23.71c.08,.06,.16,.19,.11,.35-.05,.16-.19,.2-.29,.2h-1.9c-.23,0-.38-.03-.5-.12-.12-.09-.2-.23-.28-.47,0,0-.54-1.65-.57-1.77-.04-.13,0-.27,.1-.34,.11-.09,.26-.09,.37-.01,.1,.07,2.96,2.15,2.96,2.15"/><path class="n" d="M133.99,17.5c-.08,.03-.12,.08-.12,.16,0,.07,.03,.11,.07,.14,.03,.02,.93,.68,1.02,.74,.09,.07,.19,.07,.26,.04,.07-.02,2.24-.73,2.24-.73v4.08s-4.33-3.15-4.65-3.38c-.33-.23-.72-.43-1.32-.23-.64,.21-2.3,.74-2.57,.83-.27,.09-.39,.34-.3,.59,.07,.21,1.73,5.3,1.87,5.74,.32,.98,.86,1.38,1.88,1.38,.26,0,6.34,0,6.34,0,.09,0,.17-.07,.18-.16v-1.08c0-.1-.08-.17-.18-.17h-5.9c-.76,0-.9-.19-1.07-.7-.11-.35-1.46-4.5-1.46-4.51,0-.01,0-.04,.02-.04,.02,0,.8-.26,1.21-.39,.41-.13,.66,.05,.91,.23,.25,.18,5.69,4.13,5.89,4.28,.21,.15,.58,.04,.57-.31,0-.36,0-8.07,0-8.07,0,0-4.8,1.56-4.88,1.59"/><g><path class="n" d="M137.62,5.8c-.1,0-.24-.06-.3-.22-.05-.16,.03-.28,.12-.34l1.54-1.12c.18-.14,.33-.2,.47-.2,.15,0,.3,.06,.5,.22,0,0,1.41,1.02,1.5,1.09,.11,.08,.15,.22,.12,.33-.04,.13-.16,.23-.29,.23-.13,0-3.66,0-3.66,0"/><path class="n" d="M142.48,9.95c.05-.07,.05-.14,0-.2-.04-.06-.1-.07-.14-.07s-1.15,0-1.26,0c-.12,0-.19,.06-.24,.12-.04,.06-1.38,1.91-1.38,1.91l-2.4-3.3s5.36,0,5.76,0c.4,0,.83-.08,1.21-.59,.4-.54,1.42-1.95,1.59-2.18,.16-.23,.11-.5-.1-.66-.18-.13-4.51-3.28-4.89-3.55-.83-.61-1.5-.61-2.33,0-.21,.15-5.13,3.73-5.13,3.73-.07,.05-.09,.16-.05,.23l.64,.88c.06,.08,.17,.09,.25,.03l4.77-3.47c.62-.44,.84-.37,1.28-.06,.3,.22,3.83,2.78,3.84,2.79,.01,0,.02,.03,0,.05-.01,.02-.49,.68-.75,1.03-.25,.35-.56,.35-.87,.35s-7.03,0-7.28,0c-.26,0-.49,.31-.28,.59,.21,.29,4.75,6.53,4.75,6.53,0,0,2.96-4.08,3.02-4.15"/></g><g><path class="n" d="M130.05,13.98c-.03,.1-.13,.21-.3,.22-.17,0-.25-.12-.29-.21l-.59-1.81c-.07-.22-.09-.37-.04-.51,.05-.14,.15-.26,.37-.41,0,0,1.41-1.02,1.51-1.09,.11-.08,.26-.07,.35,0,.11,.08,.17,.22,.13,.35-.04,.12-1.13,3.48-1.13,3.48"/><path class="n" d="M135.49,10.64c-.05-.07-.12-.09-.19-.07-.07,.02-.1,.07-.11,.11-.01,.04-.36,1.09-.39,1.2-.04,.11,0,.2,.04,.26,.04,.06,1.38,1.9,1.38,1.9l-3.88,1.26s1.66-5.09,1.78-5.47c.12-.38,.18-.82-.19-1.33-.39-.55-1.42-1.96-1.58-2.19-.17-.23-.44-.27-.66-.11-.18,.13-4.51,3.28-4.89,3.55-.84,.6-1.04,1.24-.73,2.21,.08,.25,1.96,6.03,1.96,6.03,.03,.09,.12,.14,.21,.12l1.03-.33c.09-.03,.14-.13,.11-.22l-1.83-5.61c-.23-.72-.1-.92,.34-1.24,.3-.21,3.83-2.78,3.84-2.79,.01,0,.03-.01,.05,0,.01,.02,.49,.68,.75,1.03,.26,.35,.16,.64,.06,.94-.1,.3-2.17,6.68-2.25,6.93-.08,.24,.14,.56,.47,.45,.34-.11,7.68-2.5,7.68-2.5,0,0-2.96-4.08-3.02-4.15"/><path class="n" d="M146.42,21.54c.08-.06,.23-.09,.37,0,.13,.1,.14,.24,.11,.34l-.59,1.81c-.07,.22-.15,.35-.27,.44-.12,.09-.28,.12-.54,.12,0,0-1.74,0-1.86,0-.14,0-.25-.09-.29-.2-.05-.13,0-.28,.1-.36,.1-.07,2.96-2.15,2.96-2.15"/><path class="n" d="M140.05,21.04c0,.09,.04,.14,.11,.16,.07,.02,.12,0,.15-.02,.04-.02,.93-.67,1.02-.74,.09-.07,.12-.17,.12-.24s0-2.35,0-2.35l3.89,1.26s-4.33,3.14-4.66,3.38c-.32,.24-.63,.55-.63,1.18,0,.67,0,2.42,0,2.7,0,.28,.2,.47,.47,.47,.22,0,5.58,0,6.04,0,1.03,0,1.57-.39,1.89-1.36,.08-.25,1.96-6.03,1.96-6.03,.03-.09-.02-.18-.09-.22l-1.03-.33c-.09-.03-.19,.03-.22,.12l-1.82,5.61c-.24,.72-.46,.8-1,.8-.37,0-4.73,0-4.75,0-.01,0-.03-.01-.04-.03,0-.02,0-.84,0-1.27,0-.43,.25-.61,.5-.79,.25-.18,5.68-4.13,5.89-4.28,.21-.15,.21-.54-.12-.64-.34-.11-7.68-2.49-7.68-2.49,0,0,0,5.04,0,5.13"/></g><g><path class="n" d="M147.74,10.48c-.03-.1-.02-.25,.12-.35,.13-.1,.28-.05,.36,0l1.54,1.12c.19,.13,.29,.25,.34,.39,.05,.14,.03,.3-.05,.55,0,0-.54,1.65-.58,1.77-.04,.13-.16,.21-.28,.22-.14,0-.27-.08-.31-.21-.04-.12-1.13-3.48-1.13-3.48"/><path class="n" d="M145.3,16.38c.08,.03,.15,0,.19-.05,.04-.06,.04-.11,.03-.15-.01-.04-.35-1.09-.39-1.2-.04-.11-.12-.17-.19-.19-.07-.02-2.24-.73-2.24-.73l2.4-3.3s1.65,5.09,1.78,5.47c.13,.38,.33,.77,.93,.96,.64,.21,2.3,.75,2.56,.84,.27,.09,.51-.04,.6-.3,.07-.21,1.72-5.31,1.87-5.74,.32-.98,.11-1.62-.71-2.22-.21-.15-5.13-3.72-5.13-3.72-.07-.05-.18-.04-.24,.02l-.64,.88c-.06,.08-.03,.19,.04,.24l4.77,3.46c.61,.45,.62,.68,.45,1.2-.12,.35-1.47,4.5-1.47,4.51,0,.01-.02,.03-.04,.02-.02,0-.8-.26-1.21-.39-.41-.13-.5-.42-.6-.72-.1-.3-2.17-6.68-2.25-6.93-.08-.24-.45-.37-.65-.09-.21,.29-4.74,6.53-4.74,6.53,0,0,4.79,1.56,4.88,1.59"/></g></g><g><path class="i" d="M150.58,4.27h-.41V1.9c.14-.02,.4-.04,.59-.04,.62,0,.96,.28,.96,.78,0,.35-.2,.6-.47,.7l.72,.94h-.49l-.63-.84h-.27v.84Zm0-1.18h.2c.32,0,.53-.14,.53-.45,0-.27-.19-.43-.55-.43-.05,0-.14,0-.18,0v.87Z"/><path class="i" d="M150.86,5.25c-1.18,0-2.14-.96-2.14-2.14s.96-2.14,2.14-2.14,2.14,.96,2.14,2.14-.96,2.14-2.14,2.14Zm0-3.93c-.98,0-1.79,.8-1.79,1.79s.8,1.79,1.79,1.79,1.78-.8,1.78-1.79-.8-1.79-1.78-1.79Z"/></g></g></g></g></g></svg>