<?xml version="1.0" encoding="UTF-8"?><svg xmlns="http://www.w3.org/2000/svg" xmlns:xlink="http://www.w3.org/1999/xlink" viewBox="0 0 267.7 42.14"><defs><style>.j{fill:#2a3940;}.k{clip-path:url(#h);}.l{fill:#b2b2b2;}.m{fill:#636569;}.n{fill:#5cb2cb;}.o{clip-path:url(#e);}.p{fill:none;}.q{clip-path:url(#f);}.r{fill:#5a859d;}.s{clip-path:url(#i);}</style><clipPath id="e"><rect class="p" x="174.68" y="3.05" width="93.03" height="36.65"/></clipPath><clipPath id="f"><rect class="p" x="174.68" y="3.05" width="93.03" height="36.65"/></clipPath><clipPath id="h"><rect class="p" y=".26" width="142.15" height="41.88"/></clipPath><clipPath id="i"><rect class="p" y=".26" width="142.15" height="41.88"/></clipPath></defs><g id="a"/><g id="b"><g id="c"><g><g id="d"><g class="o"><g class="q"><path class="j" d="M262.27,3.15c-1.15,0-2.21,.36-3.08,.97,1.4,.98,2.32,2.6,2.32,4.43s-.92,3.46-2.32,4.43c.87,.61,1.94,.97,3.08,.97,2.98,0,5.4-2.42,5.4-5.4s-2.42-5.4-5.4-5.4"/><path class="n" d="M260.89,8.55c0-1.84-.92-3.46-2.32-4.43-.87-.61-1.94-.97-3.08-.97-2.98,0-5.4,2.42-5.4,5.4s2.42,5.4,5.4,5.4c1.15,0,2.21-.36,3.08-.97,1.4-.98,2.32-2.6,2.32-4.43"/><path class="n" d="M185.42,19.8c.81,0,1.51-.29,2.11-.86,.6-.57,.9-1.25,.9-2.03,0-.84-.3-1.55-.9-2.11-.6-.57-1.3-.86-2.11-.86s-1.55,.28-2.13,.86c-.58,.57-.88,1.28-.88,2.11,0,.79,.29,1.46,.88,2.03,.58,.57,1.3,.86,2.13,.86m78.07-.59c-1,0-1.8,.79-1.8,1.75v7.93c0,.56-.18,.65-.27,.68-.39,.17-.9,.26-1.5,.26h-9.72v-3.72c0-2.31-.65-4.07-1.92-5.21-1.25-1.12-3.13-1.69-5.57-1.69h-.9c-2.05,0-3.71,.6-4.93,1.79-1.22,1.18-1.83,2.74-1.83,4.62v2.92c0,.23-.04,.41-.13,.53-.11,.16-.26,.29-.46,.41-.21,.13-.47,.21-.75,.27-.33,.06-.68,.09-1.04,.09h-9.22c-.42,0-.82-.03-1.2-.08-.11-.02-.22-.03-.32-.05,.03-.34,.05-.7,.05-1.09v-2.23c-.03-1.19-.25-2.22-.66-3.07-.42-.88-1.02-1.58-1.77-2.11-.73-.51-1.61-.88-2.62-1.1-.53-.12-1.09-.2-1.67-.25l4.43-3.49c.97-.76,1.53-1.91,1.53-3.12v-5.19l-14.39,11.44c-1.06,.84-1.67,2.1-1.67,3.43v2.41h8.75c.28,0,.58,.02,.86,.07,.22,.04,.41,.11,.58,.22,.16,.11,.3,.26,.42,.45,.1,.16,.15,.41,.15,.72v1.83c0,.23-.04,.41-.12,.53-.09,.15-.21,.26-.36,.36-.18,.11-.39,.19-.64,.24-.29,.06-.6,.09-.93,.09h-17.39v-10.62h-2.66c-1.85,0-3.36,1.46-3.36,3.27v11.34c-.11,0-.23,.01-.36,.01-.48,.01-.96,.03-1.45,.05-.47,.02-.94,.03-1.39,.03h-1.18c-.65,0-1.34-.05-2.03-.15-.65-.09-1.24-.26-1.76-.49-.47-.21-.85-.51-1.15-.9-.27-.35-.41-.81-.41-1.41v-9.36l-3.69,1.87c-1.47,.74-2.39,2.22-2.39,3.84v3.83c0,1.69,.36,3.12,1.06,4.24,.7,1.11,1.62,1.99,2.75,2.64,1.09,.62,2.32,1.06,3.66,1.31,1.3,.24,2.63,.37,3.95,.37,.6,0,1.34-.04,2.19-.11,.84-.07,1.71-.16,2.61-.27,.9-.11,1.79-.23,2.66-.37,.87-.14,1.63-.29,2.27-.43l.65-.15v-3h17.43c2.04,0,3.72-.34,5.01-1,.62,.23,1.29,.45,1.99,.64,.89,.24,1.94,.36,3.12,.36h8.53c2.19,0,4.01-.4,5.41-1.18,.65,.37,1.4,.66,2.22,.85,.98,.22,2.11,.34,3.35,.34h16.41c2.37,0,4.26-.51,5.6-1.5,1.42-1.05,2.14-2.72,2.14-4.98v-9.68h-4.22Zm-19.29,10.62h-.75c-.35,0-.7-.03-1.04-.09-.29-.05-.54-.14-.75-.27-.2-.12-.35-.25-.46-.41-.08-.12-.13-.29-.13-.52v-2.78c0-.39,.13-.49,.18-.53,.17-.14,.44-.2,.79-.2h.54c.57,0,1.02,.1,1.32,.3,.14,.09,.3,.45,.3,1.17v3.33Z"/><path class="j" d="M213.46,10.8c.42,.08,.9,0,1.44-.26,.48-.21,.81-.5,1-.86,.19-.36,.3-.67,.36-.93,.21,.01,.42,0,.63-.03,.21-.03,.42-.09,.6-.17,.78-.37,1.28-.88,1.5-1.55,.22-.66,.18-1.32-.12-1.97-.07-.17-.19-.36-.36-.58-.16-.22-.33-.42-.5-.6-.22-.22-.39-.39-.52-.52-.12-.13-.24-.22-.34-.28l-1.53,1.35,.8,.77c.1,.09,.22,.22,.36,.39,.14,.17,.25,.3,.31,.38,.07,.17,.12,.33,.13,.48,.02,.15-.05,.27-.21,.36-.1,.05-.23,.06-.39,.04-.16-.02-.28-.07-.36-.15l-1.39-1.56-1.56,1.41c.3,.32,.56,.61,.78,.86,.22,.25,.37,.47,.45,.65,.07,.14,.11,.28,.12,.43,0,.15-.07,.25-.23,.31-.19,.11-.4,.06-.63-.16l-1.23-1.35-1.6,1.36,1.34,1.48c.35,.39,.74,.63,1.16,.71"/></g></g></g><g id="g"><g class="k"><g class="s"><path class="r" d="M124.28,23.46c.08,.06,.17,.2,.11,.36-.05,.16-.2,.21-.3,.21h-1.94c-.23,0-.39-.03-.51-.12-.13-.09-.21-.23-.28-.48,0,0-.55-1.69-.59-1.81-.04-.13,0-.27,.1-.35,.11-.09,.27-.09,.38-.01,.1,.08,3.02,2.2,3.02,2.2"/><path class="r" d="M122.75,17.13c-.08,.03-.13,.09-.12,.16,0,.07,.04,.12,.07,.14,.04,.02,.94,.69,1.04,.76,.1,.07,.2,.07,.27,.04,.07-.02,2.28-.74,2.28-.74v4.17s-4.42-3.21-4.75-3.45c-.33-.24-.73-.43-1.35-.24-.65,.21-2.35,.76-2.62,.85-.27,.09-.4,.34-.31,.6,.07,.22,1.76,5.41,1.9,5.86,.32,1,.87,1.4,1.92,1.4,.26,0,6.47,0,6.47,0,.09,0,.17-.07,.18-.16v-1.11c0-.1-.09-.18-.18-.18h-6.02c-.77,0-.92-.19-1.09-.72-.11-.36-1.49-4.59-1.49-4.61,0-.01,0-.04,.02-.05,.02,0,.82-.27,1.24-.4,.42-.14,.67,.05,.93,.24,.26,.19,5.8,4.21,6.01,4.37,.21,.15,.59,.04,.59-.32,0-.37,0-8.24,0-8.24,0,0-4.89,1.59-4.98,1.62"/><path class="r" d="M126.45,5.19c-.1,0-.25-.06-.3-.22-.05-.16,.03-.28,.12-.34l1.57-1.14c.19-.14,.34-.2,.48-.2,.16,0,.3,.06,.51,.22,0,0,1.44,1.04,1.53,1.12,.11,.08,.15,.23,.12,.34-.04,.13-.16,.23-.3,.23-.13,0-3.74,0-3.74,0"/><path class="r" d="M131.41,9.42c.05-.07,.05-.14,0-.2-.05-.06-.1-.07-.14-.07s-1.17,0-1.29,0c-.12,0-.2,.06-.24,.12-.04,.06-1.41,1.94-1.41,1.94l-2.45-3.37s5.46,0,5.87,0c.41,0,.85-.08,1.23-.6,.41-.55,1.45-1.99,1.62-2.23,.17-.23,.12-.51-.1-.67-.18-.13-4.6-3.34-4.99-3.62-.85-.62-1.53-.62-2.38,0-.21,.16-5.23,3.8-5.23,3.8-.08,.06-.1,.16-.05,.24l.65,.89c.06,.08,.17,.09,.25,.03l4.87-3.54c.63-.45,.86-.38,1.31-.06,.3,.22,3.9,2.84,3.91,2.85,.01,0,.02,.03,0,.05-.01,.02-.5,.69-.76,1.05-.26,.36-.57,.35-.89,.35s-7.17,0-7.43,0c-.26,0-.5,.32-.29,.6,.21,.29,4.84,6.66,4.84,6.66,0,0,3.02-4.16,3.08-4.24"/><path class="r" d="M118.73,13.54c-.03,.1-.14,.22-.31,.22-.17,0-.26-.12-.29-.22l-.6-1.85c-.08-.22-.09-.38-.04-.52,.05-.15,.16-.27,.37-.42,0,0,1.44-1.04,1.54-1.11,.11-.08,.26-.08,.36,0,.12,.08,.17,.23,.13,.36-.04,.12-1.16,3.55-1.16,3.55"/><path class="r" d="M124.28,10.13c-.05-.07-.12-.09-.19-.07-.07,.02-.1,.07-.11,.11-.01,.04-.36,1.11-.4,1.23-.04,.11,0,.21,.04,.27,.04,.06,1.41,1.94,1.41,1.94l-3.96,1.29s1.69-5.2,1.81-5.59c.12-.39,.19-.83-.19-1.36-.4-.56-1.45-2-1.62-2.23-.17-.23-.45-.27-.67-.11-.18,.13-4.6,3.35-4.99,3.62-.85,.62-1.07,1.27-.74,2.26,.08,.25,2,6.15,2,6.15,.03,.09,.12,.14,.21,.12l1.05-.34c.09-.03,.14-.14,.11-.23l-1.86-5.72c-.23-.74-.1-.93,.35-1.26,.31-.22,3.91-2.83,3.92-2.84,.01,0,.03-.01,.05,0,.01,.02,.5,.69,.76,1.05,.26,.36,.16,.65,.06,.95-.1,.3-2.21,6.82-2.29,7.07-.08,.25,.15,.57,.48,.46,.35-.11,7.83-2.55,7.83-2.55,0,0-3.02-4.16-3.08-4.24"/><path class="r" d="M135.43,21.25c.08-.06,.24-.1,.38,0,.14,.1,.14,.25,.11,.35l-.6,1.85c-.07,.22-.15,.36-.27,.45-.13,.09-.29,.13-.55,.12,0,0-1.77,0-1.9,0-.14,0-.26-.09-.3-.21-.05-.13,0-.28,.1-.36,.1-.08,3.02-2.2,3.02-2.2"/><path class="r" d="M128.94,20.75c0,.09,.04,.15,.11,.17,.07,.02,.12,0,.16-.02,.04-.02,.95-.69,1.04-.76,.09-.07,.12-.17,.12-.24s0-2.4,0-2.4l3.96,1.29s-4.42,3.21-4.75,3.45c-.33,.24-.64,.56-.64,1.21,0,.69,0,2.47,0,2.75,0,.29,.21,.48,.48,.48,.23,0,5.69,0,6.16,0,1.05,0,1.6-.4,1.93-1.39,.08-.25,1.99-6.15,1.99-6.15,.03-.09-.02-.19-.1-.22l-1.05-.34c-.1-.03-.19,.03-.22,.12l-1.86,5.72c-.25,.73-.47,.81-1.02,.82-.38,0-4.83,0-4.84,0-.01,0-.04-.01-.04-.03,0-.02,0-.86,0-1.3,0-.44,.25-.62,.51-.81,.26-.19,5.8-4.22,6.01-4.37,.21-.15,.22-.55-.12-.66-.35-.11-7.84-2.54-7.84-2.54,0,0,0,5.14,0,5.24"/><path class="r" d="M136.78,9.96c-.03-.1-.02-.26,.12-.36,.14-.1,.28-.06,.36,0l1.57,1.14c.19,.13,.3,.26,.34,.4,.05,.15,.03,.31-.06,.56,0,0-.55,1.69-.59,1.8-.04,.13-.17,.22-.28,.22-.14,0-.27-.08-.32-.21-.04-.12-1.15-3.55-1.15-3.55"/><path class="r" d="M134.29,15.98c.09,.03,.15,0,.19-.05,.04-.06,.04-.11,.03-.16-.01-.04-.36-1.11-.4-1.23-.04-.11-.12-.17-.19-.19-.07-.02-2.28-.74-2.28-.74l2.45-3.37s1.69,5.2,1.81,5.59c.13,.39,.34,.78,.95,.98,.65,.21,2.34,.77,2.62,.85,.27,.09,.52-.05,.61-.3,.07-.22,1.75-5.41,1.9-5.86,.33-1,.12-1.65-.73-2.26-.21-.15-5.23-3.8-5.23-3.8-.08-.05-.18-.04-.24,.02l-.65,.9c-.06,.08-.03,.19,.04,.25l4.87,3.53c.62,.46,.63,.7,.46,1.23-.12,.36-1.49,4.59-1.5,4.6,0,.01-.02,.03-.04,.02-.02,0-.82-.26-1.24-.4-.42-.14-.51-.43-.61-.74-.1-.3-2.22-6.82-2.3-7.07-.08-.25-.45-.38-.66-.09-.21,.3-4.84,6.67-4.84,6.67,0,0,4.89,1.59,4.98,1.62"/><path class="m" d="M139.68,3.63h-.42V1.21c.15-.02,.41-.04,.6-.04,.64,0,.98,.28,.98,.79,0,.36-.2,.61-.48,.72l.73,.96h-.5l-.65-.86h-.27v.86Zm0-1.2h.2c.33,0,.54-.14,.54-.46,0-.28-.19-.44-.56-.44-.05,0-.14,0-.19,0v.89Z"/><path class="m" d="M139.96,4.63c-1.2,0-2.18-.98-2.18-2.18s.98-2.18,2.18-2.18,2.18,.98,2.18,2.18-.98,2.18-2.18,2.18m0-4.01c-1,0-1.82,.82-1.82,1.82s.82,1.82,1.82,1.82,1.82-.82,1.82-1.82-.82-1.82-1.82-1.82"/><path class="m" d="M68.56,41.14h-2.12c-1.23,0-1.91-.19-2.5-.72-.58-.52-.78-1.4-.78-1.99v-3.77h1.1v3.64c0,.61,.17,1.06,.5,1.32,.33,.27,.85,.41,1.51,.41h1.18v-8.93h1.98v1.11h-.87v6.52h13.71v-4.83h1.11v5.94h-14.81v1.3Z"/><path class="m" d="M80.96,42.02c-.41,0-.71-.29-.71-.68s.31-.69,.71-.69,.71,.3,.71,.69-.3,.68-.71,.68"/><path class="m" d="M82.97,42.02c-.41,0-.71-.29-.71-.68s.31-.69,.71-.69,.72,.29,.72,.69-.3,.68-.72,.68"/><path class="m" d="M100.07,33.01c-.4,0-.71-.3-.71-.69s.31-.68,.71-.68,.71,.3,.71,.68-.31,.69-.71,.69"/><path class="m" d="M102.09,33.01c-.41,0-.71-.3-.71-.69s.31-.68,.71-.68,.72,.3,.72,.68-.31,.69-.72,.69"/><path class="m" d="M87.21,42.14c-.49,0-.95-.1-1.64-.36l-.12-.05,.35-1.07,.14,.06c.53,.23,.87,.31,1.34,.31,.88,0,1.29-.34,1.29-1.08v-.1h-.36c-2.25,0-3.59-1.1-3.59-2.93,0-1.74,1.51-3,3.59-3h1.47v4.83h1.85c-.13-.36-.19-.73-.19-1.1,0-1.78,1.37-3.18,3.11-3.18s3.18,1.37,3.18,3.18c0,.39-.07,.75-.19,1.1h3.16v-4.83h1.1v4.83h3.22v-7.63h1.11v7.63h2.66v-7.63h1.11v8.73h-13.1c-.49,.59-1.34,.95-2.24,.95-.86,0-1.65-.34-2.24-.95l-2.53,.02c0,1.04-.43,2.28-2.46,2.28m7.23-6.57c-1.12,0-2,.91-2,2.07s.88,2.04,2,2.04c1.18,0,2.08-.88,2.08-2.04s-.87-2.07-2.08-2.07m-6.58-.54c-1.03,0-2.14,.72-2.14,1.89,0,1.26,1.07,1.83,2.14,1.83h.71v-3.71h-.71Z"/><path class="m" d="M81.54,13.85h-1.34v12.25h1.94V14.45c0-.32-.25-.6-.6-.6"/><path class="m" d="M48.54,15.38h-1.96v1.45h1.96s0-1.18,0-1.45"/><rect class="m" x="97.82" y="27.23" width="1.96" height="1.45"/><path class="m" d="M27.81,28.68h1.96s0-1.18,0-1.45h-1.96v1.45Z"/><path class="m" d="M9.45,28.68h1.96s0-1.18,0-1.45h-1.96v1.45Z"/><path class="m" d="M12.14,28.68h1.96s0-1.18,0-1.45h-1.96v1.45Z"/><path class="m" d="M52.64,28.68h1.96s0-1.18,0-1.45h-1.96v1.45Z"/><path class="m" d="M55.32,28.68h1.96s0-1.18,0-1.45h-1.96v1.45Z"/><path class="m" d="M107.61,24.52h0c-1.62,0-2.62-.9-2.62-2.46s1.01-2.52,2.63-2.52c.7,0,1.21,.15,1.83,.56v-1.67c-.75-.33-1.33-.46-2.11-.46-2.58,0-4.35,1.73-4.35,4.25,0,.9,.22,1.67,.62,2.29h-2.28c-1.24,0-1.65-.41-1.65-1.63v-4.69h-1.94v4.69c0,1.23-.41,1.63-1.65,1.63h-2.57v-2.29c0-2.52-1.77-4.25-4.35-4.25-.79,0-1.36,.13-2.11,.46v1.67c.62-.41,1.13-.56,1.83-.56,1.62,0,2.63,.96,2.63,2.52v2.46h-5.11v1.68h9.84c1.1,0,1.91-.19,2.46-.57,.55,.38,1.36,.57,2.46,.57h8.93v-1.68h-2.49Z"/><path class="m" d="M63.04,19.54c1.62,0,2.63,.96,2.63,2.52v2.46h-4.47v-4.42c.62-.41,1.13-.56,1.83-.56m-14.4,.12v4.8c-.39,.15-3.53,.74-3.53-2.37s3.09-2.51,3.53-2.43m28.23-5.81h-1.34v10.67h-2.98V14.45c0-.32-.25-.6-.6-.6h-1.34v10.67h-2.94v-2.29c0-2.52-1.77-4.25-4.35-4.25-.79,0-1.36,.13-2.11,.46v-3.98c0-.32-.25-.6-.6-.6h-1.34v10.67h-1.77c-1.24,0-1.65-.41-1.65-1.63v-4.69h-1.94v4.69c0,1.23-.41,1.63-1.65,1.63h-1.68v-6.33c-.99,0-1.82-.2-3.21-.2-2.58,0-4.23,1.52-4.23,4.09,0,1.05,.23,1.84,.62,2.43h-2.59c-1.62,0-2.62-.9-2.62-2.46v-3.87h-2v4.03c0,2.47,1.62,3.97,4.19,3.97h11.68c1.1,0,1.91-.19,2.46-.57,.54,.36,1.31,.55,2.36,.56h20.22V14.45c0-.32-.25-.6-.6-.6"/><path class="m" d="M18.48,22.09c0-3.14,3.09-2.51,3.53-2.43v2.54h0v.77c0,.13,0,.25,0,.37v1.12c-.39,.15-3.53,.74-3.53-2.37m9.74-4.11c-.79,0-1.36,.13-2.11,.46v1.67c.62-.41,1.13-.56,1.83-.56,1.62,0,2.63,.96,2.63,2.52v2.46h-4.98c-1.16,0-1.59-.36-1.65-1.41v-4.92c-.99,0-1.82-.2-3.21-.2-2.56,0-4.2,1.5-4.23,4.02h0v.87c0,1.23-.41,1.63-1.65,1.63h-.51c-1.24,0-1.65-.41-1.65-1.63v-4.69c-.21,0-.6,0-.97,0s-.76,0-.97,0v4.69c0,1.23-.41,1.63-1.65,1.63h-.61c-1.24,0-1.65-.41-1.65-1.63V14.45c0-.32-.25-.6-.61-.6h-1.34v13.03c-.47,.08-.85,.11-1.29,.11-1.24,0-1.65-.41-1.65-1.63v-4.69c-.49,0-1.94,0-1.94,0v4.77C0,26.77,.19,27.42,.75,27.94c.55,.49,1.42,.74,2.68,.74,1.04,0,1.96-.1,3.4-.37v-2.26c.36,.09,.78,.14,1.25,.15h1.17c1.1,0,1.91-.18,2.46-.56,.51,.35,1.25,.53,2.23,.56h1.16c1.21,0,2.04-.25,2.58-.73,.05-.05,.1-.1,.15-.16,1.63,1.26,4.34,.89,5.72,.62,.49,.18,1.11,.27,1.87,.27h7.14v-3.97c0-2.52-1.77-4.25-4.35-4.25"/></g></g></g><rect class="l" x="159.62" width=".45" height="42.14"/></g></g></g></svg>